<svg xmlns="http://www.w3.org/2000/svg" viewBox="0 0 469.16 373.43"><defs><style>.cls-1{fill:#273746;}.cls-2{fill:#6f4632;}.cls-3{fill:#f9b119;}.cls-4{fill:#ffc197;}.cls-5{fill:#f7b68b;}.cls-6{fill:#732557;}.cls-7{fill:#00b1ae;}.cls-8{fill:#131c1e;}.cls-9{fill:#ec008c;}.cls-10{fill:#296198;}.cls-11,.cls-12,.cls-15{fill:none;stroke-linecap:round;stroke-miterlimit:10;}.cls-11,.cls-15{stroke:#273746;}.cls-12{stroke:#b4c7e2;}.cls-13{fill:#b4c7e2;}.cls-14{fill:#e64f62;}.cls-15{stroke-width:2px;}.cls-16{fill:#e87084;}.cls-17{fill:#e7e55e;}.cls-18{fill:#ed8f00;}.cls-19{fill:#20b1a2;}.cls-20{fill:#a9fff9;}.cls-21{fill:#0b8781;}</style></defs><title>Objectsanimator</title><g id="Calque_2" data-name="Calque 2"><g id="Objects"><path class="cls-1" d="M215.05,33.7a20.35,20.35,0,0,0-5.85-5s5-1.41,2.2-2.51-5.8,2.51-5.8,2.51c-5.16-12.56-10.68-3.14-10.68-3.14S165,6,145.13,33.7c-23.49,32.72,11.6,55.32,4.48,71s-15.71,37.53,5.54,47.73H205c21.26-10.2,12.66-32,5.54-47.73S238,66.81,215.05,33.7Z"/><polyline class="cls-2" points="195.34 343.9 197.46 335.17 181.61 335.17"/><polyline class="cls-1" points="177.18 253.1 179.6 253.1 184.89 362.77 189.43 361.91 208.03 245.55 179.6 245.55 177.18 245.55"/><path class="cls-3" d="M184.45,335.16s9.39.61,11.27,10.25l-3.45,19.2,26.89,6.58-36.49,0-1.06-36.06Z"/><rect class="cls-2" x="182.67" y="371.19" width="36.49" height="2.23"/><polyline class="cls-2" points="163.55 343.9 161.43 335.17 177.28 335.17"/><polyline class="cls-1" points="181.7 253.1 179.29 253.1 174 362.77 169.46 361.91 150.86 245.55 179.29 245.55 181.7 245.55"/><path class="cls-3" d="M174.44,335.16s-9.39.61-11.27,10.25l3.45,19.2-26.89,6.58,36.49,0,1.06-36.06Z"/><rect class="cls-2" x="139.73" y="371.19" width="36.49" height="2.23" transform="translate(315.94 744.62) rotate(180)"/><path class="cls-4" d="M147.52,250.48s-2.13,5.85,2.22,9.42c3.56,2.93,2.29,4.91,1.66,4.76s-7.92-5.47-6.81-9.59S147.52,250.48,147.52,250.48Z"/><path class="cls-5" d="M147,252.62s-2.13,5.85,2.22,9.42c3.56,2.93,2.3,4.91,1.66,4.75s-7.91-5.46-6.81-9.58S147,252.62,147,252.62Z"/><path class="cls-4" d="M156.23,157.86l-1.68,7.89-6.9,74.87a73.52,73.52,0,0,0,3.28,6.88c8.14,12.48,2.89,11.29,2.29,10.43-.95-1.38-6.17-8.16-7.7-2.94-1.9,6.5,3.44,9.49,6.64,12.43,1.22,1.12-.45,2.08-1.41,1.76-16.39-5.47-9.65-30.53-9.65-30.53l4.12-93.19"/><path class="cls-4" d="M212.65,250.48s2.14,5.85-2.21,9.42c-3.57,2.93-2.3,4.91-1.67,4.76s7.92-5.47,6.81-9.59S212.65,250.48,212.65,250.48Z"/><path class="cls-5" d="M213.13,252.62s2.13,5.85-2.22,9.42c-3.56,2.93-2.29,4.91-1.66,4.75s7.92-5.46,6.81-9.58S213.13,252.62,213.13,252.62Z"/><path class="cls-4" d="M204.74,157.86l.89,7.89,6.89,74.87a73.52,73.52,0,0,1-3.28,6.88c-8.13,12.48-2.89,11.29-2.29,10.43,1-1.38,6.17-8.16,7.7-2.94,1.9,6.5-3.43,9.49-6.64,12.43-1.22,1.12.45,2.08,1.42,1.76,16.38-5.47,9.64-30.53,9.64-30.53L215,145.46"/><polygon class="cls-6" points="210.26 173.69 206.17 160.91 216.52 144.77 210.83 139.19 187.72 130.3 180.19 130.3 179.98 130.3 172.45 130.3 149.34 139.19 143.65 144.77 154.61 160.91 149.91 173.69 155.22 181.61 145.75 287.13 179.98 287.13 180.19 287.13 213.21 287.13 204.95 181.61 210.26 173.69"/><path class="cls-5" d="M144,77.44s-1-11.74-4.76-11.79c-7.14-.09-7.92,23,5.9,25.15C145.18,90.8,147.89,82.84,144,77.44Z"/><path class="cls-5" d="M216.14,77.44s1-11.74,4.76-11.79c7.13-.09,7.91,23-5.91,25.15C215,90.8,212.28,82.84,216.14,77.44Z"/><path class="cls-7" d="M157.49,143s-7.25-22.78,13-25.36l1.68,7.15s-14.39-2.74-12.29,16.9"/><path class="cls-7" d="M202.69,143s7.24-22.78-13-25.36L188,124.77s14.38-2.74,12.29,16.9"/><path class="cls-5" d="M180.09,110.82H160.7c6.92,5.59,9.64,20.89,10.32,28.75s17.45,7.86,18.13,0,3.4-23.16,10.33-28.75Z"/><ellipse class="cls-4" cx="180.09" cy="74.74" rx="38.53" ry="41.75"/><ellipse class="cls-1" cx="164.83" cy="144.06" rx="9.57" ry="11.16"/><ellipse class="cls-8" cx="166.83" cy="144.06" rx="6.54" ry="9.64"/><ellipse class="cls-1" cx="195.34" cy="144.06" rx="9.57" ry="11.16"/><ellipse class="cls-8" cx="193.34" cy="144.06" rx="6.54" ry="9.64"/><polygon class="cls-8" points="149.34 139.19 209.72 234.18 209.18 239.86 143.65 144.77 149.34 139.19"/><path class="cls-9" d="M141.56,94.94S136,66.86,143.65,46.5c0,0-3.19,2-3.47,1.14s8-22.53,32-20.7c0,0-4.18-2.84-3.41-3.65S191.08,21.83,204,42c0,0-14.93,5.69-22.44,1.84,0,0-1-2,5.29-1,0,0-27.5-2.29-35.13,16.19s5.66,31.11,4.56,47.75-4.56,18.88-5.58,17.05c0,0-5.57,6.8-.2,15.43s-14,1-10.27-19.08S142.61,102.09,141.56,94.94Z"/><circle class="cls-10" cx="221.94" cy="85.96" r="1.78"/><circle class="cls-10" cx="138.23" cy="85.96" r="1.78"/><path class="cls-1" d="M204,42S199.6,65.12,218,79.67C218,79.67,225.68,48.14,204,42Z"/><polyline class="cls-1" points="161.58 78.39 158.79 76.25 161.58 76.25"/><polyline class="cls-1" points="198.59 78.39 201.39 76.25 198.59 76.25"/><ellipse class="cls-1" cx="162.83" cy="76.55" rx="2.15" ry="3.91"/><ellipse class="cls-1" cx="197.34" cy="76.55" rx="2.15" ry="3.91"/><path class="cls-9" d="M157.4,65.85s2.58-5.52,10.77-6.08c0,0,1.65-2.85-.56-3.22S157.49,58.87,157.4,65.85Z"/><path class="cls-9" d="M202.77,65.85S200.2,60.33,192,59.77c0,0-1.64-2.85.57-3.22S202.68,58.87,202.77,65.85Z"/><path class="cls-11" d="M175.3,75.61s4.79-4.32,9.57,0"/><path class="cls-6" d="M188.75,86.81l-8.72.56-8.72-.56C172,92.52,179,92.92,180,93h.12C181.06,92.92,188,92.52,188.75,86.81Z"/><path class="cls-9" d="M180.38,88c7.12-.09,10.41-1.9,10.41-1.9-4.73-5.22-9.55-2.27-10.7-1.44-1.16-.83-6-3.78-10.7,1.44,0,0,3.29,1.81,10.4,1.9h.59Z"/><line class="cls-12" x1="223.72" y1="71.6" x2="227.36" y2="68.92"/><circle class="cls-13" cx="227.73" cy="68.72" r="1.81"/><rect class="cls-4" x="311.32" y="316.79" width="8.86" height="49.86"/><path class="cls-1" d="M309.57,361.91v8.84h52.87s-12.69-6.51-37.33-9.1a38.78,38.78,0,0,0-4.93-.08c-3.87,3.64-3.79,3.43-5.37,3.43C311.87,365,312,361.5,309.57,361.91Z"/><rect class="cls-13" x="309.53" y="370.76" width="52.9" height="2.67" transform="translate(671.96 744.18) rotate(-180)"/><path class="cls-1" d="M298.53,23h-.14s-41.75.47-41.75,47.54l.94,97h81.76l.94-97C340.28,23.45,298.53,23,298.53,23Z"/><path class="cls-4" d="M265.44,250.48s-2.13,5.85,2.22,9.42c3.56,2.93,2.3,4.91,1.66,4.76s-7.92-5.47-6.81-9.59S265.44,250.48,265.44,250.48Z"/><path class="cls-5" d="M265,252.62s-2.14,5.85,2.21,9.42c3.57,2.93,2.3,4.91,1.67,4.75s-7.92-5.46-6.81-9.58S265,252.62,265,252.62Z"/><path class="cls-4" d="M272.53,165.11l-7,75.51a74.25,74.25,0,0,0,3.29,6.88c8.13,12.48,2.88,11.29,2.28,10.43-.95-1.38-6.17-8.16-7.7-2.94-1.9,6.5,3.44,9.49,6.65,12.43,1.21,1.12-.45,2.08-1.42,1.76-16.39-5.47-9.65-30.53-9.65-30.53l3.38-93.19,9.24-7.81Z"/><path class="cls-4" d="M324.41,165.11l7,75.51a74.25,74.25,0,0,1-3.29,6.88c-8.13,12.48-2.89,11.29-2.28,10.43.95-1.38,6.17-8.16,7.7-2.94,1.9,6.5-3.44,9.49-6.65,12.43-1.21,1.12.45,2.08,1.42,1.76,16.38-5.47,9.65-30.53,9.65-30.53l-3.38-93.19-9.24-7.81Z"/><path class="cls-4" d="M331.48,250.48s2.13,5.85-2.22,9.42c-3.56,2.93-2.29,4.91-1.66,4.76s7.92-5.47,6.81-9.59S331.48,250.48,331.48,250.48Z"/><path class="cls-5" d="M332,252.62s2.13,5.85-2.22,9.42c-3.56,2.93-2.3,4.91-1.66,4.75s7.91-5.46,6.8-9.58S332,252.62,332,252.62Z"/><rect class="cls-4" x="276.81" y="316.79" width="8.86" height="49.86"/><path class="cls-1" d="M287.42,361.91v8.84H234.56s12.68-6.51,37.33-9.1a38.6,38.6,0,0,1,4.92-.08c3.87,3.64,3.79,3.43,5.37,3.43C285.12,365,285,361.5,287.42,361.91Z"/><rect class="cls-13" x="234.56" y="370.76" width="52.9" height="2.67"/><polygon class="cls-1" points="328.1 225.34 322.67 323.68 309.41 323.68 307.2 234.36 289.72 234.36 287.51 323.68 274.25 323.68 268.82 225.34 328.1 225.34"/><polygon class="cls-14" points="332.9 229.03 264.02 229.03 264.79 219.27 265.72 207.65 266.55 197.24 267.47 185.62 268.3 175.21 268.62 171.21 269.31 163.59 270.25 153.18 271.29 141.56 271.64 137.65 290.73 130.3 306.19 130.3 326.38 138.07 326.58 141.56 327.25 153.18 327.86 163.59 328.3 171.21 328.62 175.21 329.45 185.62 330.37 197.24 331.2 207.65 332.13 219.27 332.9 229.03"/><polygon class="cls-8" points="327.25 153.18 270.25 153.18 271.29 141.56 326.58 141.56 327.25 153.18"/><polygon class="cls-8" points="328.62 175.21 268.3 175.21 268.62 171.21 269.31 163.59 327.86 163.59 328.3 171.21 328.62 175.21"/><polygon class="cls-8" points="330.37 197.24 266.55 197.24 267.47 185.62 329.45 185.62 330.37 197.24"/><polygon class="cls-8" points="332.13 219.27 264.79 219.27 265.72 207.65 331.2 207.65 332.13 219.27"/><path class="cls-5" d="M259.4,77.44s-1.09-11.74-5.16-11.79c-7.73-.09-8.57,23,6.4,25.15C260.64,90.8,263.58,82.84,259.4,77.44Z"/><path class="cls-5" d="M337.52,77.44s1.09-11.74,5.16-11.79c7.73-.09,8.57,23-6.4,25.15C336.28,90.8,333.35,82.84,337.52,77.44Z"/><path class="cls-5" d="M298.46,110.82h-21c7.5,5.59,10.45,20.89,11.19,28.75.36,3.91,5.06,19.79,9.77,19.81s9.5-15.87,9.87-19.81c.74-7.86,3.69-23.16,11.19-28.75Z"/><circle class="cls-4" cx="298.46" cy="74.74" r="41.75"/><path class="cls-15" d="M281.61,82.76s16.8,9.89,33.6,0"/><path class="cls-15" d="M314.11,81s1.4,1.09,1.4,4.25"/><path class="cls-15" d="M282.44,81s-1.4,1.09-1.4,4.25"/><path class="cls-15" d="M292.54,77.54s5.92-3.92,11.84,0"/><rect class="cls-3" x="256.63" y="229.02" width="12.19" height="6.65"/><rect class="cls-13" x="328.9" y="234.3" width="12.19" height="3.33"/><rect class="cls-13" x="328.43" y="229.31" width="12.19" height="3.33"/><path class="cls-13" d="M277.67,229s2.48,24.81-8.08,27.54v-2.07s8.31-2.4,6.25-25.47Z"/><path class="cls-1" d="M265.5,109.33s-4.64-19,.87-31.17a12.63,12.63,0,0,0,3.79,7s1.39-8.72,7.29-9.49,23,4,38.26-9.57c0,0-1.08,4.3,1.47,5.94,0,0,5.47-9.38,12.87-5.94s3.77,33.56,1.37,44.58A45.46,45.46,0,0,0,341.7,82.33c0-17.06-3.52-55.19-42.09-55.19s-43.27,29.13-43,54.28A58.46,58.46,0,0,0,265.5,109.33Z"/><circle class="cls-13" cx="296.43" cy="10.5" r="10.5"/><path class="cls-14" d="M257.65,53.84s6.54-39.14,40.76-39.14,40.88,39.14,40.88,39.14S309.31,42,298.75,42,257.65,53.84,257.65,53.84Z"/><path class="cls-13" d="M256.51,68.39s41.48-46.12,84.83,0l4.13-14.55S299.59,1.27,253,53.25Z"/><path class="cls-4" d="M30.89,250.48s-2.13,5.85,2.22,9.42c3.56,2.93,2.29,4.91,1.66,4.76s-7.92-5.47-6.81-9.59S30.89,250.48,30.89,250.48Z"/><path class="cls-5" d="M30.41,252.62s-2.13,5.85,2.22,9.42c3.56,2.93,2.3,4.91,1.66,4.75s-7.91-5.46-6.81-9.58S30.41,252.62,30.41,252.62Z"/><path class="cls-4" d="M26.06,163.1l-1.59,75.55s-6.74,25.06,9.65,30.53c1,.32,2.63-.64,1.41-1.76-3.2-2.94-8.54-5.93-6.64-12.43,1.53-5.22,6.75,1.56,7.7,2.94.6.86,5.85,2.05-2.29-10.43A73.52,73.52,0,0,1,31,240.62l7-75.51"/><path class="cls-4" d="M96.93,250.48s2.13,5.85-2.22,9.42c-3.56,2.93-2.3,4.91-1.66,4.76s7.92-5.47,6.81-9.59S96.93,250.48,96.93,250.48Z"/><path class="cls-5" d="M97.4,252.62s2.14,5.85-2.21,9.42c-3.57,2.93-2.3,4.91-1.67,4.75s7.92-5.46,6.81-9.58S97.4,252.62,97.4,252.62Z"/><path class="cls-4" d="M101.75,163.1l1.6,75.55s6.73,25.06-9.65,30.53c-1,.32-2.63-.64-1.42-1.76,3.21-2.94,8.55-5.93,6.65-12.43-1.53-5.22-6.75,1.56-7.7,2.94-.6.86-5.85,2.05,2.28-10.43a74.25,74.25,0,0,0,3.29-6.88l-7-75.51"/><rect class="cls-4" x="42.26" y="347.33" width="8.86" height="13.46"/><path class="cls-1" d="M52.87,361.91v8.84H0s-.53-5.53,11.61-5.69h.55c12.42,0,20.72-14.69,28.11-8.92a6.14,6.14,0,0,1,.62.54c3.87,3.64,5.57,3.89,6.59,3.11s1.41-3.11,3-3.11C53.42,356.67,52.87,361.91,52.87,361.91Z"/><rect class="cls-13" x="0.01" y="370.76" width="52.9" height="2.67"/><path class="cls-13" d="M52.87,361.91v1.56c-4-.44-5.13-2.27-5.39-3.69,1.16-.89,1.41-3.11,3-3.11C53.42,356.67,52.87,361.91,52.87,361.91Z"/><path class="cls-13" d="M40.27,356.13c-2.55,1.4-13.76,7.44-20.09,9.46-7.19,2.31-8.57-.53-8.57-.53h.55C24.58,365.05,32.88,350.36,40.27,356.13Z"/><rect class="cls-4" x="76.7" y="347.33" width="8.86" height="13.46"/><polygon class="cls-14" points="93.55 225.34 88.41 342.37 88.12 348.93 74.86 348.93 74.73 342.37 72.65 234.36 55.17 234.36 53.09 342.37 52.96 348.93 39.7 348.93 39.42 342.37 34.27 225.34 93.55 225.34"/><polygon class="cls-16" points="53.09 342.37 52.96 348.93 39.7 348.93 39.42 342.37 53.09 342.37"/><polygon class="cls-16" points="88.41 342.37 88.12 348.93 74.86 348.93 74.73 342.37 88.41 342.37"/><polygon class="cls-4" points="40.27 292.64 38.81 299.14 44.81 294.26 50.2 295.08 46.69 290.2 50.2 284.12 42.26 287.77 38.81 285.33 38.81 289.17 37.09 291.63 40.27 292.64"/><path class="cls-1" d="M75,361.91v8.84h52.86s.53-5.53-11.6-5.69h-.55c-12.42,0-20.72-14.69-28.12-8.92-.2.16-.41.34-.62.54-3.86,3.64-5.57,3.89-6.58,3.11-1.16-.89-1.42-3.11-3-3.11C74.4,356.67,75,361.91,75,361.91Z"/><rect class="cls-13" x="74.91" y="370.76" width="52.9" height="2.67" transform="translate(202.72 744.18) rotate(180)"/><path class="cls-13" d="M75,361.91v1.56c4-.44,5.13-2.27,5.39-3.69-1.16-.89-1.42-3.11-3-3.11C74.4,356.67,75,361.91,75,361.91Z"/><path class="cls-13" d="M87.54,356.13c2.56,1.4,13.77,7.44,20.1,9.46,7.19,2.31,8.57-.53,8.57-.53h-.55C103.24,365.05,94.94,350.36,87.54,356.13Z"/><polygon class="cls-1" points="111.61 170.15 94.75 139.19 71.64 130.3 63.91 130.3 56.17 130.3 33.06 139.19 16.2 170.15 34.07 171.21 29.47 229.02 98.35 229.02 93.75 171.21 111.61 170.15"/><path class="cls-1" d="M28.05,53.25S20,49.69,23.14,41.83c0,0,1.48-1.23,3.19,1.23,0,0-8.11-15.72.86-21.61s18.3,6.26,18.3,6.26.61-16.58,8.72-17.19S66.12,24.64,75.08,23.9s20.39,7.54,19.67,14.74c0,0,1.45-3,3.54-2.34s-2.58,5.9-2.58,5.9,5.17.73,4.92,3.31-6.88,3-6.88,3Z"/><path class="cls-5" d="M24.85,77.44S23.76,65.7,19.69,65.65c-7.73-.09-8.57,23,6.4,25.15C26.09,90.8,29,82.84,24.85,77.44Z"/><path class="cls-5" d="M103,77.44s1.09-11.74,5.16-11.79c7.73-.09,8.57,23-6.4,25.15C101.73,90.8,98.79,82.84,103,77.44Z"/><path class="cls-5" d="M63.91,110.82h-21c7.5,5.59,10.45,20.89,11.19,28.75s18.91,7.86,19.64,0,3.69-23.16,11.19-28.75Z"/><circle class="cls-4" cx="63.91" cy="74.74" r="41.75"/><path class="cls-1" d="M24,87.33s2.8,0,1.88-3.45c0,0,2.76,3.5,4.05,0s-4.39-23.2,3.14-37.38C33.06,46.5,14.57,60.38,24,87.33Z"/><path class="cls-1" d="M103.82,87.33s-2.79,0-1.87-3.45c0,0-2.76,3.5-4,0s4.39-23.2-3.15-37.38C94.75,46.5,113.25,60.38,103.82,87.33Z"/><ellipse class="cls-1" cx="46.66" cy="76.03" rx="2.15" ry="3.91"/><ellipse class="cls-1" cx="81.16" cy="76.03" rx="2.15" ry="3.91"/><path class="cls-15" d="M40.27,84.48s23.64,9.89,47.28,0"/><path class="cls-15" d="M86,82.75s2,1.09,2,4.25"/><path class="cls-15" d="M41.44,82.75s-2,1.09-2,4.25"/><path class="cls-1" d="M40.7,65.33s2.58-5.53,10.78-6.08c0,0,.83-6.08-1.38-6.45S38.86,54.92,40.7,65.33Z"/><path class="cls-1" d="M87.11,65.33s-2.57-5.53-10.77-6.08c0,0-.83-6.08,1.38-6.45S89,54.92,87.11,65.33Z"/><path class="cls-15" d="M58,79.26s5.92-3.91,11.84,0"/><polygon class="cls-17" points="57.16 164.99 80.12 164.99 63.85 181.26 78.03 181.26 50.62 208.67 59.86 186.83 47.7 186.83 57.16 164.99"/><path class="cls-18" d="M442.55,40.49S433.18,22,414.21,22.13c-18.09.09-57.11,13.31-32.3,85.82l1.77-5s8.58,10.79,5.37,28S376,144.52,376,144.52s16.82,12.4,26.88-6.46c0,0,2.36,4,1.39,6.46,0,0,19.46-2.84,15.55-29"/><path class="cls-4" d="M391.18,250.48s-2.14,5.85,2.21,9.42c3.57,2.93,2.3,4.91,1.67,4.76s-7.92-5.47-6.81-9.59S391.18,250.48,391.18,250.48Z"/><path class="cls-5" d="M390.7,252.62s-2.13,5.85,2.22,9.42c3.56,2.93,2.3,4.91,1.66,4.75s-7.92-5.46-6.81-9.58S390.7,252.62,390.7,252.62Z"/><path class="cls-4" d="M394.59,247.5c8.13,12.48,2.89,11.29,2.29,10.43-.95-1.37-6.17-8.16-7.7-2.94-1.9,6.49,3.44,9.49,6.64,12.43,1.22,1.11-.45,2.08-1.41,1.75-16.39-5.46-9.65-30.52-9.65-30.52l.38-8.79,3.26-73.7,16,2.24-11.57,72.46-1.55,9.76A73.52,73.52,0,0,0,394.59,247.5Z"/><path class="cls-6" d="M404.43,158.4l-11.57,72.46c-1.74-.2-5.31-.62-7.72-1l3.26-73.7Z"/><path class="cls-4" d="M455.47,250.48s2.14,5.85-2.21,9.42c-3.57,2.93-2.3,4.91-1.67,4.76s7.92-5.47,6.81-9.59S455.47,250.48,455.47,250.48Z"/><path class="cls-5" d="M456,252.62s2.13,5.85-2.22,9.42c-3.56,2.93-2.3,4.91-1.66,4.75s7.92-5.46,6.81-9.58S456,252.62,456,252.62Z"/><path class="cls-4" d="M452.06,247.5c-8.13,12.48-2.89,11.29-2.29,10.43,1-1.37,6.17-8.16,7.7-2.94,1.9,6.49-3.44,9.49-6.64,12.43-1.22,1.11.45,2.08,1.41,1.75,16.39-5.46,9.66-30.52,9.66-30.52l-.39-8.79-3.26-73.7-16,2.24,11.57,72.46,1.55,9.76A73.52,73.52,0,0,1,452.06,247.5Z"/><path class="cls-6" d="M442.22,158.4l11.57,72.46c1.74-.2,5.31-.62,7.72-1l-3.26-73.7Z"/><path class="cls-19" d="M451.27,225.34l-1.66,12.15h0l-1.07,7.82h0l-.36,2.69h0l-3.34,24.47h0l-.62,4.55-.7,5.12-.16,1.2-3.83,28.12-.3,2.19-.48,3.49-.09.67h0l-2.36,17.32H427l-.46-11.29-.12-2.78-.07-1.8-.09-2.22-1-24.29-.12-2.88-.1-2.26-.09-2.17-1-23.73-.12-2.94-.11-2.74-.09-2.09-.81-19.78h-.31l-.84,20.45-.08,2.05-.16,3.7-.13,3.07-1,23.58-.08,2-.17,4.17-.13,3-1,23.35-.09,2-.19,4.63-.11,2.91-.25,6h-9.31l-.3-2.23-.24-1.73-2-14.84h0l-.45-3.26h0l-.73-5.34h0l-.36-2.68h0l-1.77-12.88h0l-.44-3.27h0l-.68-5h0l-.81-5.95h0l-1.58-11.6-.11-.76-.54-4-1.79-13.1-3.15-23.14Z"/><path class="cls-20" d="M432.78,225.34c-5.57,2.67-11.11,5.39-15.64,9.76-6.48,6.24-14.28,26.13-14.28,26.13l-3.17,5.1-.11-.76-.54-4c3.35-11.81,10.33-31,21.53-36.24Z"/><path class="cls-21" d="M427.36,225.34c-17,6.21-25.94,35.62-27.65,40a1.66,1.66,0,0,1-.13.27l-.54-4-1.79-13.1A13.12,13.12,0,0,0,404,243c4-6.05,7.79-13.36,13.45-17.69Z"/><path class="cls-20" d="M421.61,256.69l-.16,3.7-.13,3.07a33.93,33.93,0,0,0-4.18,3.44c-5.67,5.45-12.34,21.35-13.94,25.25l-.44-3.27h0l-.68-5h0C406.14,272.73,412.55,260.16,421.61,256.69Z"/><path class="cls-20" d="M449.61,237.49l-1.07,7.82h0l-.36,2.69h0c-7.13,6.2-16.3,8.93-24.21,13.73l-.12-2.94-.11-2.74a12,12,0,0,1,1.59-.25C437.71,254.68,445.5,244.79,449.61,237.49Z"/><path class="cls-21" d="M421.69,254.64l-.08,2.05-.16,3.7c-9.07,6.74-15.24,19.77-18.69,28.49l-.68-5h0l-.81-5.95h0a15.43,15.43,0,0,0,2.68-3.1C408.86,267.38,413.51,258,421.69,254.64Z"/><path class="cls-21" d="M451.27,225.34l-1.66,12.15h0l-1.07,7.82h0c-4.23,5.13-10,9.7-17.59,10.89a19.94,19.94,0,0,0-7.1,2.6l-.11-2.74-.09-2.09a17.61,17.61,0,0,1,4.28-.6c12.28-.19,20.54-16.75,20.54-24.39C448.47,226.23,449.7,225.34,451.27,225.34Z"/><path class="cls-20" d="M420.27,289.08l-.17,4.17-.13,3a35.66,35.66,0,0,0-2.83,2.43c-3.67,3.54-7.77,11.46-10.63,17.66l-.45-3.26h0l-.73-5.34h0C409,299.69,414,292.19,420.27,289.08Z"/><path class="cls-20" d="M444.22,277l-.7,5.12-.16,1.2c-5.76,3.64-12.22,6.06-18.11,9.42l-.12-2.88-.1-2.26.3,0C433.58,286.85,439.78,282.21,444.22,277Z"/><path class="cls-21" d="M420.35,287l-.08,2-.17,4.17c-6,5.05-10.68,12.79-14,19.83l-.73-5.34h0l-.36-2.68h0C409.26,298.33,413.53,290.55,420.35,287Z"/><path class="cls-21" d="M444.84,272.49l-.62,4.55-.7,5.12A26,26,0,0,1,431,288a19.51,19.51,0,0,0-5.82,1.91l-.1-2.26-.09-2.17a17.92,17.92,0,0,1,3-.3C435.34,285.05,441.29,279,444.84,272.49Z"/><path class="cls-20" d="M418.93,321.61l-.19,4.63-.11,2.91c-.51.42-1,.87-1.49,1.34a27.86,27.86,0,0,0-3.69,4.67h-4.38l-.3-2.23C411.62,328.14,415,324,418.93,321.61Z"/><path class="cls-20" d="M439.23,313.67l-.48,3.49-.09.67h0c-4,2.08-8.17,3.88-12.13,6l-.12-2.78-.07-1.8A26.21,26.21,0,0,0,439.23,313.67Z"/><path class="cls-21" d="M419,319.61l-.09,2-.19,4.63a49.4,49.4,0,0,0-7.29,8.92h-2.38l-.3-2.23-.24-1.73C411.49,326.65,414.74,322.28,419,319.61Z"/><path class="cls-21" d="M439.53,311.48l-.3,2.19-.48,3.49a24.77,24.77,0,0,1-7.8,2.63,19.06,19.06,0,0,0-4.54,1.3l-.07-1.8-.09-2.22c.54-.05,1.1-.09,1.68-.1C432.39,316.89,436.32,314.66,439.53,311.48Z"/><path class="cls-14" d="M450.53,175.94c.47-4.13-3.29-15-3.29-15l14.2-2.45-9.17-19.27L430.2,130.3H416.45l-22.07,8.89-9.17,19.27,14.2,2.45s-3.76,10.9-3.29,15c.33,2.79,4.5,7.07,4.5,7.07L393,229h60.69L446,183S450.2,178.73,450.53,175.94Z"/><path class="cls-5" d="M387.28,77.44s-1-11.74-4.76-11.79c-7.14-.09-7.92,23,5.9,25.15C388.42,90.8,391.13,82.84,387.28,77.44Z"/><path class="cls-5" d="M459.37,77.44s1-11.74,4.76-11.79c7.14-.09,7.92,23-5.9,25.15C458.23,90.8,455.52,82.84,459.37,77.44Z"/><path class="cls-5" d="M423.33,110.82H403.94c6.92,5.59,9.64,20.89,10.32,28.75.34,3.93,4.7,21.42,9.07,21.42s8.72-17.49,9.06-21.42c.68-7.86,3.4-23.16,10.32-28.75Z"/><ellipse class="cls-4" cx="423.33" cy="74.74" rx="38.53" ry="41.75"/><circle class="cls-6" cx="465.18" cy="85.96" r="1.78"/><circle class="cls-6" cx="381.47" cy="85.96" r="1.78"/><path class="cls-14" d="M429.82,89.89a38.92,38.92,0,0,1-6.55.57,60.87,60.87,0,0,1-6.54-.57c.54,3.32,5.77,3.56,6.5,3.57h.09C424.05,93.45,429.28,93.21,429.82,89.89Z"/><ellipse class="cls-1" cx="406.07" cy="79.46" rx="2.15" ry="3.91"/><ellipse class="cls-1" cx="440.58" cy="79.46" rx="2.15" ry="3.91"/><path class="cls-1" d="M400.64,68.76s2.58-5.52,10.77-6.07c0,0,1.64-2.86-.57-3.23S400.73,61.79,400.64,68.76Z"/><path class="cls-1" d="M446,68.76s-2.58-5.52-10.77-6.07c0,0-1.64-2.86.57-3.23S445.92,61.79,446,68.76Z"/><path class="cls-11" d="M419.82,82s3.51-4.33,7,0"/><polyline class="cls-1" points="404.82 81.31 402.02 79.16 404.82 79.16"/><polyline class="cls-1" points="441.83 81.31 444.63 79.16 441.83 79.16"/><path class="cls-14" d="M423.55,90.89c5.56-.08,8.12-1.66,8.12-1.66-7.16-2.16-7.49-.65-8.39.08-.9-.73-2.18-2.75-8.3-.08,0,0,2.56,1.58,8.12,1.66h.45Z"/><polygon class="cls-4" points="409.07 335.16 418.38 335.16 417.35 366.12 413.72 367.39 409.07 335.16"/><polygon class="cls-4" points="436.3 335.16 432.21 367.39 428.44 367.39 426.99 335.16 436.3 335.16"/><path class="cls-3" d="M389.34,95.25s3.11-15-1.19-27.72c0,0,12.05,0,30-13.69,0,0,0,8.55-4.82,11.81,0,0,11.75,5,31.35-11.81,0,0,1.86,8.21,6.51,11.81V61.17A33.14,33.14,0,0,0,457.31,73s-4.16,12.42,0,22.21c0,0,9.58-10.85,4.55-35.12S432.28,30.3,423.21,30.3s-31.82,4.38-36.78,29.13S389.34,95.25,389.34,95.25Z"/><polygon class="cls-4" points="418.38 335.16 417.35 366.12 413.72 367.39 412.92 361.81 417.24 362.77 418.38 335.16"/><path class="cls-14" d="M420,361.91v8.84H383s8.87-6.51,26.12-9.1a18.9,18.9,0,0,1,3.44-.08c2.71,3.64,2.65,3.43,3.76,3.43C418.4,365,418.34,361.5,420,361.91Z"/><rect class="cls-13" x="383.02" y="370.76" width="37.01" height="2.67"/><path class="cls-14" d="M426.27,361.91v8.84h37s-8.88-6.51-26.12-9.1a19,19,0,0,0-3.45-.08C431,365.21,431.05,365,430,365,427.88,365,427.94,361.5,426.27,361.91Z"/><rect class="cls-13" x="426.25" y="370.76" width="37.01" height="2.67" transform="translate(889.51 744.18) rotate(-180)"/></g></g></svg>