<?xml version="1.0" encoding="utf-8"?>
<!-- Generator: Adobe Illustrator 22.0.1, SVG Export Plug-In . SVG Version: 6.00 Build 0)  -->
<svg version="1.1" id="Calque_1" xmlns="http://www.w3.org/2000/svg" xmlns:xlink="http://www.w3.org/1999/xlink" x="0px" y="0px"
	 viewBox="0 0 1920 1080" style="enable-background:new 0 0 1920 1080;" xml:space="preserve">
<style type="text/css">
	.st0{fill:#FFFFFF;}
	.st1{fill:none;stroke:#E67777;stroke-width:1.48;stroke-miterlimit:10;}
	.st2{opacity:0.35;fill:#FFFFFF;enable-background:new    ;}
	.st3{fill:none;}
	.st4{fill:#E1CEEF;stroke:#E1CEEF;stroke-width:5;stroke-miterlimit:10;}
</style>
<title>fondPlan de travail 1v1</title>
<g>
	<g id="Calque_1_1_">
		
			<image style="overflow:visible;opacity:0.35;enable-background:new    ;" width="1932" height="2568" xlink:href="5260764D.png"  transform="matrix(0.9995 0 0 0.9995 -4.08 -10.9154)">
		</image>
		<path class="st0" d="M7,0.3V2543h1907V0.3H7z M79.7,2477.4c-11.4,0.1-22.4-4.2-30.8-11.8c-8.7-7.9-13.7-19-13.7-30.7
			c0-23.5,20-42.6,44.6-42.6s44.5,19.1,44.5,42.6c0,11.7-5,22.9-13.7,30.7C102.1,2473.2,91.1,2477.5,79.7,2477.4z M36.1,2280.9
			c0.1-0.5,0.2-1.1,0.4-1.6c0,0,0,0,0-0.1c4.8-18.6,22.3-32.4,43.3-32.4c24.6,0,44.6,19.1,44.6,42.6s-19.9,42.6-44.5,42.6
			s-44.6-19.1-44.6-42.6C35.2,2286.6,35.5,2283.7,36.1,2280.9z M42.3,2167.1c-4.6-6.8-7.1-14.9-7.1-23.1c0-23.5,20-42.6,44.6-42.6
			s44.6,19.1,44.6,42.6c0,8.2-2.5,16.3-7.1,23.1c-4.1,6.1-9.7,11-16.2,14.4c-13.3,6.9-29.2,6.9-42.5,0
			C52,2178.1,46.4,2173.2,42.3,2167.1L42.3,2167.1z M38.2,1868.7c-2-4.9-3-10.2-3-15.4c0-23.5,20-42.6,44.6-42.6
			s44.5,19.1,44.5,42.6c0,5.3-1,10.5-3,15.4c-2.2,5.4-5.5,10.3-9.7,14.3c-17.8,17-45.8,17-63.6,0C43.8,1879,40.4,1874.1,38.2,1868.7
			z M79.7,1956.1c24.6,0,44.6,19.1,44.6,42.6s-19.9,42.6-44.6,42.6s-44.6-19-44.6-42.6S55.1,1956.1,79.7,1956.1z M35.9,1570.3
			c-0.5-2.6-0.8-5.2-0.8-7.8c0-23.5,20-42.6,44.6-42.6s44.6,19.1,44.6,42.6c0,2.6-0.3,5.3-0.8,7.8c-1,5.1-2.9,10-5.8,14.3
			c-14,21-42.3,26.7-63.3,12.7c-5-3.4-9.4-7.7-12.7-12.7C38.9,1580.2,36.9,1575.4,35.9,1570.3z M79.7,1665.3
			c24.6,0,44.6,19.1,44.6,42.6s-19.9,42.6-44.6,42.6s-44.6-19.1-44.6-42.6S55.1,1665.3,79.7,1665.3z M35.2,1271.8v-0.2
			c0-23.5,20-42.6,44.6-42.6s44.6,19.1,44.6,42.6v0.2c0,4.9-0.9,9.8-2.7,14.3c-6.2,16.3-22.6,28-41.9,28s-35.7-11.7-41.9-28
			C36.1,1281.6,35.2,1276.7,35.2,1271.8z M35.3,693.4c-0.1-1.1-0.1-2.2-0.1-3.4c0-1,0-1.9,0.1-2.9c0-0.3,0-0.7,0.1-1
			c2-21.7,21.1-38.7,44.4-38.7s42.3,17,44.4,38.7c0,0.3,0.1,0.7,0.1,1c0.1,1,0.1,1.9,0.1,2.9c0,1.1,0,2.3-0.1,3.4
			c0,0.3-0.1,0.7-0.1,1c-2.3,21.4-21.2,38.2-44.3,38.2s-42-16.7-44.3-38.2C35.4,694.1,35.3,693.8,35.3,693.4z M79.7,878
			c-24.6,0-44.6-19.1-44.6-42.6s20-42.6,44.6-42.6s44.5,19,44.5,42.6S104.3,878,79.7,878z M124.3,980.8c0,4.5-0.8,9-2.2,13.3
			c-5.8,17-22.6,29.3-42.3,29.3s-36.5-12.3-42.3-29.3c-0.8-2.4-1.4-4.8-1.8-7.3c-0.3-2-0.4-4-0.5-6c0-23.5,20-42.6,44.6-42.6
			S124.3,957.3,124.3,980.8z M79.7,1374.5c24.6,0,44.5,19.1,44.5,42.6s-19.9,42.6-44.6,42.6s-44.6-19-44.6-42.6
			S55.1,1374.5,79.7,1374.5z M40.7,87.9c1.5-2.6,3.3-5,5.3-7.3C63.2,62,92.2,60.8,110.9,78c0.9,0.8,1.8,1.7,2.7,2.7
			c2,2.2,3.8,4.7,5.3,7.3c3.6,6.2,5.5,13.3,5.5,20.5c0,23.6-20,42.6-44.6,42.6s-44.6-19-44.6-42.6C35.2,101.2,37.1,94.2,40.7,87.9z
			 M79.7,211.3c24.6,0,44.5,19.1,44.5,42.6c0,7.4-2,14.6-5.8,20.9c-1.5,2.6-3.4,5-5.4,7.3c-17.4,18.4-46.5,19.3-64.9,1.9
			c-0.6-0.6-1.3-1.2-1.9-1.9c-2.1-2.2-3.9-4.7-5.4-7.3c-3.8-6.3-5.8-13.6-5.8-20.9C35.2,230.3,55.1,211.3,79.7,211.3z M36.2,390
			c0.6-2.5,1.4-4.9,2.4-7.3c6.7-15.3,22.6-26.1,41.1-26.1s34.3,10.8,41.1,26.1c1,2.3,1.8,4.8,2.4,7.3c0.7,3,1,6.1,1,9.2
			c0,23.5-19.9,42.6-44.6,42.6s-44.6-19.1-44.6-42.6C35.1,396.1,35.5,393,36.2,390z M79.7,502.1c24.6,0,44.6,19.1,44.6,42.6
			s-19.9,42.6-44.5,42.6s-44.6-19.1-44.6-42.6S55.1,502.1,79.7,502.1z"/>
		<line class="st1" x1="255.1" y1="0.3" x2="255.1" y2="2543"/>
		<path class="st2" d="M115.9,87.9H40.2c1.4-2.6,3.1-5,5-7.3h65.7C112.8,82.9,114.5,85.3,115.9,87.9z"/>
		<path class="st2" d="M116.3,274.8c-1.3,2.6-2.9,5-4.8,7.3H44c-1.8-2.3-3.3-4.7-4.5-7.3H116.3z"/>
		<path class="st2" d="M119.2,390H36.9c0.8-2.5,1.8-4.9,3-7.3h76.3C117.4,385.1,118.5,387.5,119.2,390z"/>
		<path class="st2" d="M121.2,991.3c0,1-0.1,1.9-0.1,2.8H35.1c-0.1-0.9-0.1-1.9-0.1-2.8c0-1.5,0.1-2.9,0.2-4.4h85.7
			C121.1,988.3,121.2,989.8,121.2,991.3z"/>
		<path class="st3" d="M124.2,687.2H35.3c-0.1,1-0.1,1.9-0.1,2.9c0,1.1,0,2.3,0.1,3.4c0,0.3,0.1,0.7,0.1,1H124c0-0.3,0.1-0.7,0.1-1
			c0.1-1.1,0.1-2.2,0.1-3.4C124.3,689.1,124.3,688.1,124.2,687.2z M37.3,693c0.2-2,0.6-3.9,1.1-5.8h83.4c0.5,1.9,0.9,3.8,1.1,5.8
			H37.3z"/>
	</g>
</g>
<line class="st4" x1="8" y1="990" x2="1887" y2="982.4"/>
<line class="st4" x1="8" y1="900" x2="1887" y2="892.4"/>
<line class="st4" x1="8" y1="811" x2="1887" y2="803.4"/>
<line class="st4" x1="8" y1="721" x2="1887" y2="713.4"/>
<line class="st4" x1="8" y1="630" x2="1887" y2="622.4"/>
<line class="st4" x1="8" y1="540" x2="1887" y2="532.4"/>
<line class="st4" x1="8" y1="450" x2="1887" y2="442.4"/>
<line class="st4" x1="8" y1="360" x2="1887" y2="352.4"/>
<line class="st4" x1="8" y1="270" x2="1887" y2="262.4"/>
<line class="st4" x1="8" y1="180" x2="1887" y2="172.4"/>
<line class="st4" x1="8" y1="90" x2="1887" y2="82.4"/>
<line class="st4" x1="8" y1="0" x2="1887" y2="-7.6"/>
<line class="st4" x1="8" y1="539" x2="1887" y2="531.4"/>
</svg>
