<svg xmlns="http://www.w3.org/2000/svg" viewBox="0 0 1278.25 276.54"><defs><style>.cls-1,.cls-2{fill:#433d51;}.cls-1,.cls-2,.cls-3{stroke:#000;}.cls-1,.cls-2,.cls-3,.cls-5{stroke-miterlimit:10;}.cls-1,.cls-4,.cls-8{fill-rule:evenodd;}.cls-3{fill:none;}.cls-4{fill:#544b66;}.cls-5{fill:#7c6439;stroke:#3a310b;stroke-width:8px;}.cls-6{fill:#3a310b;}.cls-7,.cls-8{fill:#857c97;}</style></defs><title>fondtransparentPlan de travail 1v1</title><g id="Calque_1" data-name="Calque 1"><polygon class="cls-1" points="-0.25 58.9 -0.25 65.33 442.75 261.04 442.75 256.04 -0.25 58.9"/><rect class="cls-2" x="440.75" y="256.04" width="392" height="5"/><polygon class="cls-1" points="834.75 261.04 1279.75 62.47 1279.75 57.47 834.75 256.04 834.75 261.04"/><path class="cls-3" d="M1281.48-.31l.27,56.35-448,200h-391L-.25,58.9v-59"/><path class="cls-4" d="M1281.48-.31l.27,56.35-448,200h-391L-.25,58.9v-59"/><circle class="cls-5" cx="522.75" cy="174.61" r="52"/><circle class="cls-6" cx="506.25" cy="160.11" r="7"/><circle class="cls-6" cx="538.25" cy="160.11" r="7"/><circle class="cls-6" cx="538.25" cy="190.11" r="7"/><circle class="cls-6" cx="506.25" cy="190.11" r="7"/><circle class="cls-5" cx="772.75" cy="174.61" r="52"/><circle class="cls-6" cx="756.25" cy="160.11" r="7"/><circle class="cls-6" cx="788.25" cy="160.11" r="7"/><circle class="cls-6" cx="788.25" cy="190.11" r="7"/><circle class="cls-6" cx="756.25" cy="190.11" r="7"/></g><g id="Calque_2" data-name="Calque 2"><rect class="cls-7" x="9.25" y="37.82" width="8" height="12.14" rx="4" ry="4"/><rect class="cls-7" x="9.25" y="22.11" width="8" height="12.14" rx="4" ry="4"/><rect class="cls-7" x="9.25" y="5.68" width="8" height="12.14" rx="4" ry="4"/><path class="cls-8" d="M33.32,64.46h0a5.06,5.06,0,0,1-5.53.85l-7.56-3.5c-1.84-.85-2.38-2.63-1.18-4h0A5,5,0,0,1,24.58,57l7.55,3.49C34,61.36,34.51,63.14,33.32,64.46Z"/><path class="cls-8" d="M54.48,73.64h0a5.06,5.06,0,0,1-5.53.85L41.39,71C39.55,70.14,39,68.36,40.21,67h0a5,5,0,0,1,5.53-.84l7.56,3.49C55.14,70.54,55.68,72.32,54.48,73.64Z"/><path class="cls-8" d="M74.67,83h0a5.08,5.08,0,0,1-5.54.85l-7.55-3.5c-1.85-.85-2.38-2.63-1.19-3.95h0a5,5,0,0,1,5.53-.84L73.48,79C75.33,79.87,75.86,81.65,74.67,83Z"/><path class="cls-8" d="M95.83,92.15h0A5.07,5.07,0,0,1,90.3,93l-7.56-3.5c-1.85-.85-2.38-2.63-1.18-4h0a5,5,0,0,1,5.53-.84l7.55,3.49C96.49,89.05,97,90.83,95.83,92.15Z"/><path class="cls-8" d="M116.45,101.78h0a5.07,5.07,0,0,1-5.53.85l-7.56-3.5c-1.85-.85-2.38-2.63-1.19-3.95h0a5.06,5.06,0,0,1,5.54-.84l7.55,3.49C117.11,98.68,117.64,100.46,116.45,101.78Z"/><path class="cls-8" d="M137.61,111h0a5.07,5.07,0,0,1-5.53.85l-7.56-3.5c-1.85-.85-2.38-2.63-1.18-4h0a5,5,0,0,1,5.53-.84l7.55,3.49C138.27,107.86,138.8,109.64,137.61,111Z"/><path class="cls-8" d="M157.79,120.29h0a5.06,5.06,0,0,1-5.53.85l-7.55-3.5c-1.85-.85-2.38-2.63-1.19-4h0a5,5,0,0,1,5.53-.84l7.56,3.49C158.45,117.19,159,119,157.79,120.29Z"/><path class="cls-8" d="M179,129.47h0a5.06,5.06,0,0,1-5.53.85l-7.55-3.5c-1.85-.85-2.38-2.63-1.19-3.95h0a5,5,0,0,1,5.53-.84l7.56,3.49C179.62,126.37,180.15,128.15,179,129.47Z"/><path class="cls-8" d="M198.82,138.49h0a5.07,5.07,0,0,1-5.53.85l-7.56-3.49c-1.85-.86-2.38-2.64-1.18-4h0a5.06,5.06,0,0,1,5.53-.84l7.55,3.49C199.48,135.39,200,137.17,198.82,138.49Z"/><path class="cls-8" d="M220,147.67h0a5.06,5.06,0,0,1-5.53.85L206.89,145c-1.84-.86-2.38-2.64-1.18-4h0a5.06,5.06,0,0,1,5.53-.84l7.55,3.49C220.64,144.57,221.17,146.35,220,147.67Z"/><path class="cls-8" d="M240.16,157h0a5.06,5.06,0,0,1-5.53.85l-7.55-3.5c-1.85-.85-2.38-2.63-1.19-3.95h0a5,5,0,0,1,5.53-.84l7.56,3.49C240.83,153.9,241.36,155.68,240.16,157Z"/><path class="cls-8" d="M261.33,166.18h0a5.08,5.08,0,0,1-5.54.85l-7.55-3.5c-1.85-.85-2.38-2.63-1.19-3.95h0a5,5,0,0,1,5.53-.84l7.56,3.49C262,163.08,262.52,164.86,261.33,166.18Z"/><path class="cls-8" d="M281.94,175.81h0a5.06,5.06,0,0,1-5.53.85l-7.55-3.49c-1.85-.86-2.38-2.64-1.19-3.95h0a5,5,0,0,1,5.53-.85l7.56,3.49C282.61,172.71,283.14,174.49,281.94,175.81Z"/><path class="cls-8" d="M303.11,185h0a5.07,5.07,0,0,1-5.53.85L290,182.35c-1.85-.86-2.38-2.64-1.19-4h0a5.08,5.08,0,0,1,5.54-.84l7.55,3.49C303.77,181.89,304.3,183.67,303.11,185Z"/><path class="cls-8" d="M323.29,194.32h0a5.06,5.06,0,0,1-5.53.85l-7.56-3.49c-1.84-.86-2.38-2.64-1.18-4h0a5.06,5.06,0,0,1,5.53-.84l7.56,3.49C324,191.22,324.49,193,323.29,194.32Z"/><path class="cls-8" d="M344.45,203.5h0a5.06,5.06,0,0,1-5.53.85l-7.55-3.49c-1.85-.86-2.38-2.64-1.19-4h0a5,5,0,0,1,5.53-.84l7.56,3.49C345.11,200.4,345.65,202.18,344.45,203.5Z"/><path class="cls-8" d="M363.33,211.9h0a5.08,5.08,0,0,1-5.54.84l-7.55-3.49c-1.85-.85-2.38-2.63-1.19-3.95h0a5.07,5.07,0,0,1,5.53-.85l7.56,3.49C364,208.8,364.52,210.58,363.33,211.9Z"/><path class="cls-8" d="M383.94,221.53h0a5,5,0,0,1-5.53.84l-7.55-3.49c-1.85-.85-2.38-2.63-1.19-3.95h0a5.07,5.07,0,0,1,5.53-.85l7.56,3.5C384.61,218.43,385.14,220.21,383.94,221.53Z"/><path class="cls-8" d="M403.11,230.71h0a5,5,0,0,1-5.53.84L390,228.06c-1.85-.85-2.38-2.63-1.19-3.95h0a5.08,5.08,0,0,1,5.54-.85l7.55,3.5C403.77,227.61,404.3,229.39,403.11,230.71Z"/><path class="cls-8" d="M423.29,240h0a5.06,5.06,0,0,1-5.53.84l-7.56-3.49c-1.84-.85-2.38-2.63-1.18-3.95h0a5.06,5.06,0,0,1,5.53-.85l7.56,3.49C424,236.94,424.49,238.72,423.29,240Z"/><path class="cls-8" d="M444.45,249.22h0a5.06,5.06,0,0,1-5.53.84l-7.55-3.49c-1.85-.85-2.38-2.63-1.19-3.95h0a5.06,5.06,0,0,1,5.53-.85l7.56,3.49C445.11,246.12,445.65,247.9,444.45,249.22Z"/><path class="cls-8" d="M1245.18,66.6h0a5.06,5.06,0,0,0,5.53.85l7.56-3.49c1.84-.86,2.38-2.64,1.18-4h0a5.06,5.06,0,0,0-5.53-.85l-7.55,3.49C1244.52,63.51,1244,65.28,1245.18,66.6Z"/><path class="cls-8" d="M1224,75.78h0a5.06,5.06,0,0,0,5.53.85l7.56-3.49c1.84-.86,2.38-2.64,1.18-4h0a5,5,0,0,0-5.53-.85l-7.56,3.49C1223.36,72.68,1222.82,74.46,1224,75.78Z"/><path class="cls-8" d="M1203.83,85.11h0a5.08,5.08,0,0,0,5.54.85l7.55-3.49c1.85-.86,2.38-2.64,1.19-4h0a5.07,5.07,0,0,0-5.53-.84L1205,81.16C1203.17,82,1202.64,83.79,1203.83,85.11Z"/><path class="cls-8" d="M1182.67,94.29h0a5.07,5.07,0,0,0,5.53.85l7.56-3.49c1.85-.86,2.38-2.64,1.18-4h0a5.06,5.06,0,0,0-5.53-.84l-7.55,3.49C1182,91.19,1181.48,93,1182.67,94.29Z"/><path class="cls-8" d="M1162.05,103.92h0a5.07,5.07,0,0,0,5.53.85l7.56-3.49c1.85-.86,2.38-2.64,1.19-4h0a5.08,5.08,0,0,0-5.54-.85l-7.55,3.49C1161.39,100.83,1160.86,102.6,1162.05,103.92Z"/><path class="cls-8" d="M1140.89,113.1h0a5.07,5.07,0,0,0,5.53.85l7.56-3.49c1.85-.86,2.38-2.64,1.18-3.95h0a5.06,5.06,0,0,0-5.53-.85l-7.55,3.49C1140.23,110,1139.7,111.78,1140.89,113.1Z"/><path class="cls-8" d="M1120.71,122.43h0a5.06,5.06,0,0,0,5.53.85l7.55-3.49c1.85-.86,2.38-2.64,1.19-4h0a5.06,5.06,0,0,0-5.53-.84l-7.56,3.49C1120.05,119.33,1119.51,121.11,1120.71,122.43Z"/><path class="cls-8" d="M1099.55,131.61h0a5.06,5.06,0,0,0,5.53.85l7.55-3.49c1.85-.86,2.38-2.64,1.19-4h0a5.07,5.07,0,0,0-5.53-.84l-7.56,3.49C1098.88,128.51,1098.35,130.29,1099.55,131.61Z"/><path class="cls-8" d="M1079.68,140.63h0a5.07,5.07,0,0,0,5.53.85l7.56-3.49c1.85-.86,2.38-2.63,1.18-4h0a5.06,5.06,0,0,0-5.53-.85l-7.55,3.49C1079,137.54,1078.49,139.32,1079.68,140.63Z"/><path class="cls-8" d="M1058.52,149.81h0a5.06,5.06,0,0,0,5.53.85l7.56-3.49c1.84-.86,2.38-2.63,1.18-3.95h0a5.06,5.06,0,0,0-5.53-.85l-7.55,3.49C1057.86,146.72,1057.33,148.5,1058.52,149.81Z"/><path class="cls-8" d="M1038.34,159.14h0a5.06,5.06,0,0,0,5.53.85l7.55-3.49c1.85-.86,2.38-2.63,1.19-3.95h0a5.07,5.07,0,0,0-5.53-.85l-7.56,3.49C1037.67,156.05,1037.14,157.82,1038.34,159.14Z"/><path class="cls-8" d="M1017.17,168.32h0a5.08,5.08,0,0,0,5.54.85l7.55-3.49c1.85-.86,2.38-2.63,1.19-4h0a5.07,5.07,0,0,0-5.53-.85l-7.56,3.49C1016.51,165.23,1016,167,1017.17,168.32Z"/><path class="cls-8" d="M996.56,178h0a5,5,0,0,0,5.53.85l7.55-3.49c1.85-.85,2.38-2.63,1.19-3.95h0a5.07,5.07,0,0,0-5.53-.85L997.74,174C995.89,174.86,995.36,176.64,996.56,178Z"/><path class="cls-8" d="M975.39,187.13h0a5.07,5.07,0,0,0,5.53.85l7.56-3.49c1.85-.86,2.38-2.63,1.19-4h0a5.08,5.08,0,0,0-5.54-.85l-7.55,3.49C974.73,184,974.2,185.82,975.39,187.13Z"/><path class="cls-8" d="M955.21,196.46h0a5.06,5.06,0,0,0,5.53.85l7.56-3.49c1.84-.86,2.38-2.63,1.18-3.95h0A5.06,5.06,0,0,0,964,189l-7.56,3.49C954.55,193.37,954,195.14,955.21,196.46Z"/><path class="cls-8" d="M934.05,205.64h0a5.06,5.06,0,0,0,5.53.85l7.55-3.49c1.85-.86,2.38-2.63,1.19-3.95h0a5.06,5.06,0,0,0-5.53-.85l-7.56,3.49C933.39,202.55,932.85,204.32,934.05,205.64Z"/><path class="cls-8" d="M915.17,214h0a5.06,5.06,0,0,0,5.54.84l7.55-3.49c1.85-.85,2.38-2.63,1.19-3.95h0a5.07,5.07,0,0,0-5.53-.85l-7.56,3.5C914.51,210.94,914,212.72,915.17,214Z"/><path class="cls-8" d="M894.56,223.67h0a5.06,5.06,0,0,0,5.53.85l7.55-3.5c1.85-.85,2.38-2.63,1.19-4h0a5,5,0,0,0-5.53-.84l-7.56,3.49C893.89,220.57,893.36,222.35,894.56,223.67Z"/><path class="cls-8" d="M871.39,232.85h0a5.07,5.07,0,0,0,5.53.85l7.56-3.5c1.85-.85,2.38-2.63,1.19-3.95h0a5.06,5.06,0,0,0-5.54-.84l-7.55,3.49C870.73,229.75,870.2,231.53,871.39,232.85Z"/><path class="cls-8" d="M851.21,242.18h0a5.06,5.06,0,0,0,5.53.85l7.56-3.5c1.84-.85,2.38-2.63,1.18-3.95h0a5,5,0,0,0-5.53-.84l-7.56,3.49C850.55,239.08,850,240.86,851.21,242.18Z"/><path class="cls-8" d="M830.05,251.36h0a5,5,0,0,0,5.53.84l7.55-3.49c1.85-.85,2.38-2.63,1.19-4h0a5.06,5.06,0,0,0-5.53-.85l-7.56,3.5C829.39,248.26,828.85,250,830.05,251.36Z"/><rect class="cls-7" x="1263.75" y="41.4" width="8" height="12.14" rx="4" ry="4"/><rect class="cls-7" x="1263.75" y="25.68" width="8" height="12.14" rx="4" ry="4"/><rect class="cls-7" x="1263.75" y="9.25" width="8" height="12.14" rx="4" ry="4"/><rect class="cls-7" x="462.89" y="239.32" width="5.71" height="17" rx="2.86" ry="2.86" transform="translate(713.57 -217.93) rotate(90)"/><rect class="cls-7" x="484.89" y="239.32" width="5.71" height="17" rx="2.86" ry="2.86" transform="translate(735.57 -239.93) rotate(90)"/><rect class="cls-7" x="507.89" y="239.32" width="5.71" height="17" rx="2.86" ry="2.86" transform="translate(758.57 -262.93) rotate(90)"/><rect class="cls-7" x="532.89" y="239.32" width="5.71" height="17" rx="2.86" ry="2.86" transform="translate(783.57 -287.93) rotate(90)"/><rect class="cls-7" x="554.89" y="239.32" width="5.71" height="17" rx="2.86" ry="2.86" transform="translate(805.57 -309.93) rotate(90)"/><rect class="cls-7" x="577.89" y="239.32" width="5.71" height="17" rx="2.86" ry="2.86" transform="translate(828.57 -332.93) rotate(90)"/><rect class="cls-7" x="600.89" y="239.32" width="5.71" height="17" rx="2.86" ry="2.86" transform="translate(851.57 -355.93) rotate(90)"/><rect class="cls-7" x="622.89" y="239.32" width="5.71" height="17" rx="2.86" ry="2.86" transform="translate(873.57 -377.93) rotate(90)"/><rect class="cls-7" x="645.89" y="239.32" width="5.71" height="17" rx="2.86" ry="2.86" transform="translate(896.57 -400.93) rotate(90)"/><rect class="cls-7" x="670.89" y="239.32" width="5.71" height="17" rx="2.86" ry="2.86" transform="translate(921.57 -425.93) rotate(90)"/><rect class="cls-7" x="692.89" y="239.32" width="5.71" height="17" rx="2.86" ry="2.86" transform="translate(943.57 -447.93) rotate(90)"/><rect class="cls-7" x="715.89" y="239.32" width="5.71" height="17" rx="2.86" ry="2.86" transform="translate(966.57 -470.93) rotate(90)"/><rect class="cls-7" x="740.89" y="239.32" width="5.71" height="17" rx="2.86" ry="2.86" transform="translate(991.57 -495.93) rotate(90)"/><rect class="cls-7" x="762.89" y="239.32" width="5.71" height="17" rx="2.86" ry="2.86" transform="translate(1013.57 -517.93) rotate(90)"/><rect class="cls-7" x="785.89" y="239.32" width="5.71" height="17" rx="2.86" ry="2.86" transform="translate(1036.57 -540.93) rotate(90)"/><rect class="cls-7" x="809.89" y="239.32" width="5.71" height="17" rx="2.86" ry="2.86" transform="translate(1060.57 -564.93) rotate(90)"/></g></svg>