<svg xmlns="http://www.w3.org/2000/svg" viewBox="0 0 1407.63 1221.09"><defs><style>.cls-1{isolation:isolate;}.cls-2{fill:#f6d9b7;}.cls-3{fill:#e2bca5;}.cls-4{fill:#cca092;}.cls-5{fill:#e0e4e4;}.cls-6{fill:#fcfdff;}.cls-7{fill:#808184;}.cls-8{fill:#e39d3a;}.cls-9{fill:#6d7374;}.cls-10{fill:#979d9f;}.cls-11{fill:#7c8082;}.cls-12{fill:#d3d3d3;}.cls-13{fill:#536276;}.cls-14{fill:#5e6d7d;}.cls-15{fill:#e2e4e5;}.cls-16{fill:#a7abac;}.cls-17,.cls-42{fill:#f1f1f2;}.cls-18{fill:#705465;}.cls-19{fill:#d68e31;}.cls-20{fill:#c5dae6;}.cls-21{fill:#fbb456;}.cls-22{fill:#d49b6e;}.cls-23{fill:#fbbb80;}.cls-24{fill:#753d37;}.cls-25{fill:#f6c9a3;}.cls-26{fill:#404041;mix-blend-mode:multiply;}.cls-26,.cls-45{opacity:0.2;}.cls-27{fill:#250920;}.cls-28{fill:#40363b;}.cls-29{fill:#4e444a;}.cls-30{fill:#bbbdbf;}.cls-31{fill:#929497;}.cls-32{fill:#d0d2d3;}.cls-33{fill:#3a3d3f;}.cls-34{fill:#3c3e4a;}.cls-35{fill:#838383;}.cls-36{fill:#a4a7a9;}.cls-37{fill:gray;}.cls-38{fill:#32343f;}.cls-39{fill:#70565d;}.cls-40{fill:#4f565b;}.cls-41{fill:#e6e7e8;}.cls-42{fill-rule:evenodd;}.cls-43{fill:#f6921e;}.cls-44{fill:#96999b;}.cls-45{fill:#fff;}.cls-46{fill:#e5e2e6;}.cls-47{fill:#d8d2d6;}.cls-48{fill:#f1f1f1;}.cls-49{fill:#00adee;}</style></defs><title>Layer 1factory</title><g class="cls-1"><g id="Calque_2" data-name="Calque 2"><g id="Layer_1" data-name="Layer 1"><polygon class="cls-2" points="749.08 1200.34 1407.63 819.66 658.49 387.04 0 767.68 749.08 1200.34"/><polygon class="cls-3" points="749.08 1200.34 749.08 1221.09 1407.63 840.41 1407.63 819.66 749.08 1200.34"/><polygon class="cls-4" points="0 767.68 0 788.42 749.08 1221.09 749.08 1200.34 0 767.68"/><polygon class="cls-4" points="171.54 668.52 741.67 1000.29 637.48 1060.96 66.96 728.97 171.54 668.52"/><polygon class="cls-4" points="1225.43 714.4 633.68 1058.75 737.87 1119.42 1330.01 774.84 1225.43 714.4"/><polygon class="cls-4" points="1012.46 591.46 737.38 750.72 950.83 874.19 1225.63 714.3 1012.46 591.46"/><path class="cls-5" d="M692.76,57.65V473.46c0,7.43-13.13,13.46-29.33,13.46s-29.33-6-29.33-13.46V57.65Z"/><path class="cls-6" d="M634.1,57.65c0,7.43,13.13,13.46,29.33,13.46s29.33-6,29.33-13.46-13.13-13.47-29.33-13.47S634.1,50.21,634.1,57.65Z"/><path class="cls-7" d="M641.76,57.65c0,4.58,9.7,8.3,21.67,8.3s21.68-3.72,21.68-8.3-9.71-8.3-21.68-8.3S641.76,53.06,641.76,57.65Z"/><path class="cls-8" d="M663.43,270.5c-13.77,0-25.43-4.16-29.33-9.89V121.39c0,7.44,13.13,13.47,29.33,13.47s29.33-6,29.33-13.47V260.61C688.86,266.34,677.21,270.5,663.43,270.5Z"/><path class="cls-5" d="M616.33,13.46V429.27c0,7.44-13.14,13.47-29.33,13.47s-29.33-6-29.33-13.47V13.46Z"/><path class="cls-6" d="M557.67,13.46c0,7.44,13.13,13.47,29.33,13.47s29.33-6,29.33-13.47S603.19,0,587,0,557.67,6,557.67,13.46Z"/><path class="cls-7" d="M565.32,13.46c0,4.59,9.71,8.31,21.68,8.31s21.67-3.72,21.67-8.31S599,5.17,587,5.17,565.32,8.88,565.32,13.46Z"/><path class="cls-8" d="M587,233.05c-13.77,0-25.42-4.16-29.32-9.89V77.21c0,7.44,13.13,13.47,29.32,13.47s29.34-6,29.34-13.47v146C612.42,228.89,600.77,233.05,587,233.05Z"/><polygon class="cls-9" points="362.22 668.46 221.27 586.46 221.31 640.28 362.26 722.27 362.22 668.46"/><polygon class="cls-10" points="567.63 387.57 221.27 586.46 362.22 668.46 709.22 467.71 567.63 387.57"/><polygon class="cls-11" points="709.22 467.71 362.22 668.46 362.26 722.27 709.26 521.53 709.22 467.71"/><polygon class="cls-12" points="362.22 536.45 221.31 453.69 221.31 586.46 362.22 668.46 362.22 536.45"/><polygon class="cls-6" points="495.26 294.3 221.27 453.74 362.18 536.5 636.84 376.67 495.26 294.3"/><polygon class="cls-5" points="636.85 376.67 362.18 536.5 362.22 668.46 636.85 509.44 636.85 376.67"/><polygon class="cls-12" points="306.5 434.5 252.01 402.5 252.01 436 306.5 467.71 306.5 434.5"/><polygon class="cls-6" points="406.95 313.07 252 402.51 306.49 434.52 461.7 344.92 406.95 313.07"/><polygon class="cls-5" points="461.7 344.92 306.49 434.52 306.5 467.71 461.7 378.43 461.7 344.92"/><polygon class="cls-9" points="737.79 696.65 526.02 573.79 526.06 627.62 737.83 750.47 737.79 696.65"/><polygon class="cls-10" points="800 416.63 526.01 573.79 737.79 696.65 1012.42 537.63 800 416.63"/><polygon class="cls-11" points="1012.42 537.63 737.79 696.65 737.83 750.47 1012.46 591.45 1012.42 537.63"/><polygon class="cls-12" points="737.79 564.64 526.02 441.03 526.02 573.79 737.79 696.65 737.79 564.64"/><polygon class="cls-6" points="799.96 281.64 525.97 441.08 737.75 564.69 1012.41 404.86 799.96 281.64"/><polygon class="cls-5" points="1012.42 404.86 737.75 564.69 737.79 696.65 1012.42 537.63 1012.42 404.86"/><polygon class="cls-12" points="737.71 486.95 525.94 363.33 525.94 402.43 737.71 525.28 737.71 486.95"/><polygon class="cls-6" points="799.89 203.94 525.9 363.38 737.67 486.99 1012.33 327.17 799.89 203.94"/><polygon class="cls-5" points="1012.34 327.16 737.67 486.99 737.72 525.28 1012.34 366.26 1012.34 327.16"/><polygon class="cls-13" points="737.72 525.28 541.61 411.51 541.61 440.41 737.72 554.18 737.72 525.28"/><polygon class="cls-14" points="991.98 378.05 737.72 525.28 737.72 554.18 991.98 406.15 991.98 378.05"/><polygon class="cls-6" points="796.27 212.34 554.49 353.03 741.37 462.11 983.74 321.08 796.27 212.34"/><polygon class="cls-15" points="554.49 353.03 525.9 363.38 737.67 486.99 741.37 462.11 554.49 353.03"/><polygon class="cls-12" points="741.37 462.11 737.67 486.99 1012.34 327.16 983.74 321.08 741.37 462.11"/><polygon class="cls-15" points="983.74 321.08 1012.34 327.16 799.89 203.94 796.27 212.34 983.74 321.08"/><polygon class="cls-12" points="525.9 363.38 554.49 353.03 796.27 212.34 799.89 203.94 525.9 363.38"/><polygon class="cls-10" points="656.62 715.7 713.51 682.6 610.52 622.82 553.61 655.94 656.62 715.7"/><polygon class="cls-16" points="500.93 860.2 656.61 715.7 553.61 655.93 398.09 800.36 500.93 860.2"/><polygon class="cls-11" points="713.55 736.42 500.93 860.2 656.61 715.7 713.51 682.6 713.55 736.42"/><polygon class="cls-17" points="708.6 670.85 618.27 618.33 610.52 622.82 708.6 679.9 708.6 670.85"/><polygon class="cls-18" points="618.27 618.33 618.27 539.88 708.6 592.03 708.6 670.85 618.27 618.33"/><polygon class="cls-5" points="610.52 535.41 610.52 622.82 618.27 618.33 618.27 539.88 610.52 535.41"/><polygon class="cls-12" points="610.52 556.64 629.04 546.1 610.52 535.41 610.52 556.64"/><polygon class="cls-12" points="708.6 613.66 694.64 583.97 708.6 592.03 708.6 613.66"/><polygon class="cls-8" points="1120.2 650.65 1120.2 719.01 1173.54 688.23 1173.54 619.88 1120.2 650.65"/><polygon class="cls-19" points="1120.2 650.65 1120.2 719.01 957.09 624.82 957.09 556.47 1120.2 650.65"/><polygon class="cls-20" points="1103.28 654.3 1103.28 675.58 1052.51 646.26 1052.51 624.99 1103.28 654.3"/><polygon class="cls-20" points="1103.28 684.34 1103.28 698.9 1068.53 678.83 1068.53 664.27 1103.28 684.34"/><polygon class="cls-21" points="1173.54 619.88 1120.2 650.65 957.09 556.47 1010.43 525.7 1173.54 619.88"/><polygon class="cls-8" points="1036.39 699.45 1036.39 767.8 1089.72 737.02 1089.72 668.67 1036.39 699.45"/><polygon class="cls-19" points="1036.39 699.45 1036.39 767.8 873.28 673.62 873.28 605.26 1036.39 699.45"/><polygon class="cls-20" points="1019.47 703.1 1019.47 724.38 968.69 695.06 968.69 673.78 1019.47 703.1"/><polygon class="cls-20" points="1019.47 733.13 1019.47 747.7 984.71 727.63 984.71 713.06 1019.47 733.13"/><polygon class="cls-21" points="1089.72 668.67 1036.39 699.45 873.28 605.26 926.61 574.49 1089.72 668.67"/><polygon class="cls-8" points="952.57 748.24 952.57 816.6 1005.91 785.82 1005.91 717.46 952.57 748.24"/><polygon class="cls-19" points="952.57 748.24 952.57 816.6 789.46 722.41 789.46 654.06 952.57 748.24"/><polygon class="cls-20" points="935.65 751.89 935.65 773.17 884.88 743.85 884.88 722.57 935.65 751.89"/><polygon class="cls-20" points="935.65 781.92 935.65 796.49 900.9 776.42 900.9 761.85 935.65 781.92"/><polygon class="cls-21" points="1005.91 717.46 952.57 748.24 789.46 654.06 842.8 623.28 1005.91 717.46"/><polygon class="cls-14" points="490.56 517.01 490.56 490.69 510.86 478.9 510.86 505.07 490.56 517.01"/><polygon class="cls-12" points="510.86 478.9 505.77 481.81 505.77 502.22 510.86 505.07 510.86 478.9"/><polygon class="cls-6" points="505.77 502.22 490.56 511.01 490.56 517.01 510.86 505.07 505.77 502.22"/><polygon class="cls-14" points="453.44 538.79 453.44 512.47 473.74 500.67 473.74 526.84 453.44 538.79"/><polygon class="cls-12" points="473.74 500.67 468.65 503.58 468.65 524 473.74 526.84 473.74 500.67"/><polygon class="cls-6" points="468.65 524 453.44 532.78 453.44 538.79 473.74 526.84 468.65 524"/><polygon class="cls-14" points="416.32 560.56 416.32 534.24 436.62 522.44 436.62 548.61 416.32 560.56"/><polygon class="cls-12" points="436.62 522.44 431.53 525.35 431.53 545.77 436.62 548.61 436.62 522.44"/><polygon class="cls-6" points="431.53 545.77 416.32 554.55 416.32 560.56 436.62 548.61 431.53 545.77"/><polygon class="cls-14" points="379.2 582.33 379.2 556.01 399.5 544.22 399.5 570.39 379.2 582.33"/><polygon class="cls-12" points="399.5 544.22 394.41 547.13 394.41 567.54 399.5 570.39 399.5 544.22"/><polygon class="cls-6" points="394.41 567.54 379.2 576.33 379.2 582.33 399.5 570.39 394.41 567.54"/><polygon class="cls-14" points="264.24 532.09 264.24 505.76 243.94 493.97 243.94 520.14 264.24 532.09"/><polygon class="cls-5" points="243.94 493.97 249.03 496.88 249.03 517.29 243.94 520.14 243.94 493.97"/><polygon class="cls-6" points="249.03 517.29 264.24 526.08 264.24 532.09 243.94 520.14 249.03 517.29"/><polygon class="cls-14" points="301.36 553.86 301.36 527.54 281.06 515.74 281.06 541.91 301.36 553.86"/><polygon class="cls-5" points="281.06 515.74 286.15 518.65 286.15 539.07 281.06 541.91 281.06 515.74"/><polygon class="cls-6" points="286.15 539.07 301.36 547.85 301.36 553.86 281.06 541.91 286.15 539.07"/><polygon class="cls-14" points="338.48 575.63 338.48 549.31 318.18 537.51 318.18 563.68 338.48 575.63"/><polygon class="cls-5" points="318.18 537.51 323.27 540.42 323.27 560.84 318.18 563.68 318.18 537.51"/><polygon class="cls-6" points="323.27 560.84 338.48 569.63 338.48 575.63 318.18 563.68 323.27 560.84"/><polygon class="cls-22" points="214.18 648 214.18 680.48 239.52 665.86 239.52 633.38 214.18 648"/><polygon class="cls-23" points="214.18 648 214.18 680.48 183.71 662.86 183.71 630.38 214.18 648"/><polygon class="cls-24" points="211.15 650.32 211.15 659.83 201.78 654.41 201.78 644.9 211.15 650.32"/><polygon class="cls-25" points="239.52 633.38 214.18 648 183.71 630.38 209.05 615.76 239.52 633.38"/><polygon class="cls-22" points="256.68 672.98 256.68 705.46 282.02 690.83 282.02 658.36 256.68 672.98"/><polygon class="cls-23" points="256.68 672.98 256.68 705.46 226.21 687.83 226.21 655.36 256.68 672.98"/><polygon class="cls-24" points="253.65 675.3 253.65 684.8 244.27 679.39 244.27 669.88 253.65 675.3"/><polygon class="cls-25" points="282.02 658.36 256.68 672.98 226.21 655.36 251.54 640.74 282.02 658.36"/><polygon class="cls-22" points="299.18 697.96 299.18 730.43 324.52 715.81 324.52 683.34 299.18 697.96"/><polygon class="cls-23" points="299.18 697.96 299.18 730.43 268.7 712.81 268.7 680.34 299.18 697.96"/><polygon class="cls-24" points="296.14 700.28 296.14 709.78 286.77 704.37 286.77 694.86 296.14 700.28"/><polygon class="cls-25" points="324.52 683.34 299.18 697.96 268.7 680.34 294.04 665.72 324.52 683.34"/><path class="cls-7" d="M321.09,391.9c7.83,4.53,7.87,11.86.09,16.39s-20.45,4.52-28.28,0-7.88-11.86-.09-16.39S313.25,387.38,321.09,391.9Z"/><path class="cls-12" d="M292.81,394.91c7.78-4.52,20.44-4.52,28.28,0,3.26,1.89,5.16,4.27,5.71,6.73.78-3.46-1.12-7.08-5.71-9.74-7.84-4.52-20.5-4.52-28.28,0-4.54,2.64-6.4,6.23-5.63,9.67C287.73,399.13,289.59,396.79,292.81,394.91Z"/><path class="cls-7" d="M372.16,364.57c7.83,4.53,7.88,11.86.09,16.38s-20.45,4.53-28.28,0-7.87-11.85-.09-16.38S364.32,360.05,372.16,364.57Z"/><path class="cls-12" d="M343.88,367.58c7.78-4.52,20.44-4.52,28.28,0,3.27,1.89,5.16,4.27,5.71,6.73.78-3.46-1.11-7.08-5.71-9.74-7.84-4.52-20.5-4.52-28.28,0-4.54,2.64-6.4,6.23-5.62,9.67C338.8,371.8,340.66,369.45,343.88,367.58Z"/><path class="cls-7" d="M422,337c7.84,4.53,7.88,11.87.1,16.39s-20.45,4.52-28.29,0S386,341.54,393.73,337,414.18,332.49,422,337Z"/><path class="cls-12" d="M393.73,340c7.79-4.52,20.45-4.52,28.28,0,3.27,1.89,5.16,4.27,5.72,6.73.77-3.46-1.12-7.08-5.72-9.74-7.83-4.52-20.49-4.52-28.28,0-4.53,2.64-6.39,6.23-5.62,9.67C388.66,344.24,390.52,341.89,393.73,340Z"/><path class="cls-5" d="M95.65,702.18H55.84v73.63a5.92,5.92,0,0,0-.14.94c0,.06,0,.12,0,.19a7,7,0,0,0,.16,1.87h0c.56,2.45,2.45,4.83,5.71,6.71,7.84,4.53,20.51,4.53,28.29,0,3.21-1.87,5.07-4.22,5.62-6.65h.19Z"/><path class="cls-6" d="M89.74,694.52c7.84,4.52,7.88,11.86.1,16.38s-20.45,4.52-28.29,0-7.87-11.86-.08-16.38S81.91,690,89.74,694.52Z"/><path class="cls-12" d="M61.46,697.53c7.79-4.52,20.45-4.53,28.28,0,3.27,1.89,5.16,4.26,5.72,6.72.77-3.46-1.12-7.08-5.72-9.73-7.83-4.53-20.49-4.52-28.28,0-4.53,2.63-6.39,6.23-5.62,9.66C56.39,701.75,58.25,699.4,61.46,697.53Z"/><path class="cls-8" d="M94.26,741.34a13.11,13.11,0,0,1-4.43,3.94c-7.8,4.54-20.5,4.54-28.35,0-3.27-1.89-5.17-4.27-5.72-6.73h0v27.87c.55,2.46,2.45,4.84,5.72,6.73,7.85,4.53,20.55,4.53,28.35,0,3.22-1.87,5.08-4.23,5.63-6.67h0a6.92,6.92,0,0,0,.15-1.92.37.37,0,0,0,0-.11v0h.05V738.34a6.77,6.77,0,0,1-1.39,3Z"/><path class="cls-5" d="M145,730.69H105.16v73.62a6.28,6.28,0,0,0-.14.94,1.36,1.36,0,0,0,0,.2,7,7,0,0,0,.16,1.87h0c.55,2.46,2.44,4.83,5.71,6.72,7.84,4.52,20.5,4.52,28.29,0,3.21-1.87,5.07-4.22,5.62-6.65H145Z"/><path class="cls-6" d="M139.06,723c7.84,4.53,7.88,11.86.1,16.39s-20.45,4.52-28.29,0S103,727.55,110.78,723,131.23,718.5,139.06,723Z"/><path class="cls-12" d="M110.78,726c7.78-4.52,20.45-4.52,28.28,0,3.27,1.89,5.16,4.27,5.72,6.73.77-3.46-1.12-7.08-5.72-9.74-7.83-4.52-20.5-4.52-28.28,0-4.54,2.64-6.39,6.23-5.62,9.67C105.71,730.26,107.57,727.91,110.78,726Z"/><path class="cls-8" d="M143.58,769.85a13.31,13.31,0,0,1-4.43,3.94c-7.81,4.53-20.5,4.53-28.35,0-3.28-1.89-5.17-4.27-5.72-6.73h0v27.86c.55,2.46,2.44,4.84,5.72,6.74,7.85,4.53,20.54,4.53,28.35,0,3.22-1.88,5.08-4.23,5.63-6.67h0a7,7,0,0,0,.15-1.93.45.45,0,0,0,0-.11v0H145V766.84a6.76,6.76,0,0,1-1.39,3Z"/><path class="cls-5" d="M194.29,759.2H154.48v73.62a7.36,7.36,0,0,0-.15.94c0,.06,0,.13,0,.19a6.93,6.93,0,0,0,.16,1.87h0c.55,2.45,2.44,4.83,5.71,6.71,7.84,4.53,20.5,4.53,28.29,0,3.21-1.86,5.07-4.21,5.62-6.65h.19Z"/><path class="cls-6" d="M188.38,751.53c7.84,4.52,7.88,11.86.1,16.38s-20.46,4.53-28.29,0-7.87-11.86-.09-16.38S180.54,747,188.38,751.53Z"/><path class="cls-12" d="M160.1,754.54c7.78-4.52,20.44-4.52,28.28,0,3.27,1.89,5.16,4.26,5.72,6.72.77-3.45-1.12-7.07-5.72-9.73-7.84-4.52-20.5-4.52-28.28,0-4.54,2.64-6.4,6.23-5.62,9.66C155,758.76,156.88,756.41,160.1,754.54Z"/><path class="cls-8" d="M192.9,798.35a13.27,13.27,0,0,1-4.44,3.95c-7.8,4.53-20.49,4.53-28.34,0-3.28-1.89-5.17-4.27-5.73-6.74h0v27.87c.56,2.46,2.45,4.84,5.73,6.73,7.85,4.54,20.54,4.54,28.34,0,3.23-1.87,5.09-4.23,5.63-6.66h0a6.92,6.92,0,0,0,.15-1.92s0-.07,0-.11v0h0V795.35a6.77,6.77,0,0,1-1.39,3Z"/><path class="cls-5" d="M243.6,787.7H203.8v73.62a7.81,7.81,0,0,0-.15.95c0,.06,0,.12,0,.19a6.58,6.58,0,0,0,.16,1.87h0c.55,2.46,2.44,4.84,5.71,6.72,7.83,4.53,20.5,4.53,28.28,0,3.22-1.87,5.08-4.22,5.62-6.65h.19Z"/><path class="cls-6" d="M237.7,780c7.83,4.52,7.87,11.86.09,16.38s-20.45,4.52-28.28,0-7.87-11.86-.09-16.38S229.86,775.51,237.7,780Z"/><path class="cls-12" d="M209.42,783.05c7.78-4.52,20.44-4.53,28.28,0,3.27,1.89,5.16,4.26,5.71,6.72.78-3.46-1.11-7.08-5.71-9.73-7.84-4.53-20.5-4.52-28.28,0-4.54,2.63-6.4,6.23-5.62,9.66C204.34,787.27,206.2,784.92,209.42,783.05Z"/><path class="cls-8" d="M242.22,826.86a13.36,13.36,0,0,1-4.44,3.94c-7.8,4.54-20.49,4.54-28.34,0-3.28-1.89-5.17-4.27-5.73-6.73h0v27.86c.56,2.47,2.45,4.85,5.73,6.74,7.85,4.53,20.54,4.53,28.34,0,3.22-1.87,5.09-4.23,5.63-6.67h0a6.61,6.61,0,0,0,.16-1.93s0-.07,0-.1v0h0V823.86a6.79,6.79,0,0,1-1.38,3Z"/><path class="cls-5" d="M292.92,816.21H253.11v73.62a7.62,7.62,0,0,0-.14.94,1.34,1.34,0,0,0,0,.2,6.57,6.57,0,0,0,.15,1.87h0c.56,2.46,2.45,4.83,5.72,6.72,7.83,4.52,20.5,4.52,28.28,0,3.22-1.87,5.08-4.22,5.62-6.65h.19Z"/><path class="cls-6" d="M287,808.54c7.83,4.53,7.87,11.86.09,16.39s-20.45,4.52-28.28,0-7.88-11.86-.09-16.39S279.18,804,287,808.54Z"/><path class="cls-12" d="M258.74,811.55c7.78-4.52,20.44-4.52,28.28,0,3.26,1.89,5.16,4.27,5.71,6.73.78-3.46-1.12-7.08-5.71-9.74-7.84-4.52-20.5-4.52-28.28,0-4.54,2.64-6.4,6.23-5.63,9.67C253.66,815.78,255.52,813.42,258.74,811.55Z"/><path class="cls-8" d="M291.53,855.36a13.13,13.13,0,0,1-4.43,3.95c-7.8,4.53-20.49,4.53-28.35,0-3.27-1.89-5.16-4.27-5.72-6.73h0v27.86c.56,2.46,2.45,4.84,5.72,6.73,7.86,4.54,20.55,4.54,28.35,0,3.22-1.87,5.08-4.22,5.63-6.66h0a6.64,6.64,0,0,0,.16-1.93.41.41,0,0,1,0-.11,0,0,0,0,0,0,0h.05V852.36a6.73,6.73,0,0,1-1.38,3Z"/><path class="cls-5" d="M342.24,844.71H302.43v73.63a6.1,6.1,0,0,0-.14.94c0,.06,0,.13,0,.19a7,7,0,0,0,.16,1.88h0c.56,2.45,2.45,4.83,5.71,6.71,7.84,4.53,20.51,4.53,28.29,0,3.22-1.86,5.07-4.21,5.62-6.64h.19Z"/><path class="cls-6" d="M336.33,837.05c7.84,4.52,7.88,11.86.1,16.38s-20.45,4.53-28.29,0-7.87-11.86-.08-16.38S328.5,832.52,336.33,837.05Z"/><path class="cls-12" d="M308.06,840.06c7.78-4.52,20.44-4.52,28.27,0,3.27,1.89,5.17,4.26,5.72,6.72.78-3.45-1.12-7.08-5.72-9.73-7.83-4.53-20.49-4.52-28.27,0-4.54,2.64-6.4,6.23-5.63,9.66C303,844.28,304.84,841.93,308.06,840.06Z"/><path class="cls-8" d="M340.85,883.87a13.13,13.13,0,0,1-4.43,4c-7.8,4.53-20.5,4.53-28.35,0-3.27-1.9-5.17-4.28-5.72-6.74h0V909c.55,2.46,2.45,4.84,5.72,6.73,7.85,4.54,20.55,4.54,28.35,0,3.22-1.87,5.08-4.23,5.63-6.66h0a6.92,6.92,0,0,0,.15-1.92.41.41,0,0,0,0-.11v0h.05V880.87a6.77,6.77,0,0,1-1.39,3Z"/><polygon class="cls-26" points="640.35 915.87 577.52 878.8 720.67 795.39 783.5 832.47 640.35 915.87"/><polygon class="cls-27" points="682.74 872.77 774.74 820.41 769.78 816.43 682.74 868.32 682.74 872.77"/><polygon class="cls-27" points="777.58 824.35 768.64 818.64 777.58 813.47 777.58 824.35"/><path class="cls-28" d="M752.66,853.11l-.11-.09-.29-.26,0,0-.32-.34-.08-.1a2,2,0,0,1-.22-.27l-.09-.11-.22-.32-.06-.08c-.09-.14-.18-.3-.27-.45s-.16-.31-.24-.48a.3.3,0,0,0,0-.08c-.06-.13-.11-.26-.17-.4a.61.61,0,0,0,0-.12c0-.08-.05-.17-.08-.25s-.1-.27-.14-.4-.05-.18-.08-.27l-.09-.35c0-.1,0-.2-.07-.3l-.06-.31-.06-.34c0-.09,0-.19,0-.28s0-.26,0-.38l0-.27c0-.15,0-.31,0-.46a1.34,1.34,0,0,0,0-.2c0-.23,0-.46,0-.69s0-.46,0-.69c0-.08,0-.15,0-.23l0-.48a2,2,0,0,1,0-.25c0-.17,0-.34.05-.51s0-.14,0-.21c0-.24.07-.48.1-.72,0,0,0-.06,0-.09,0-.21.07-.42.11-.63a2.38,2.38,0,0,0,0-.26c0-.16.07-.32.11-.48l.06-.28.12-.47c0-.1.05-.19.07-.29l.15-.5a2.17,2.17,0,0,1,.07-.24c.07-.24.15-.49.23-.73,0,0,0,0,0-.06l.24-.67a2,2,0,0,1,.08-.22c.06-.17.13-.34.2-.51s.06-.16.1-.25.14-.35.22-.52a1.54,1.54,0,0,1,.08-.19c.1-.24.21-.47.32-.71l.08-.17.27-.55.2-.38c.06-.12.12-.24.19-.36.17-.33.36-.66.55-1l.19-.33.24-.39.22-.35.25-.39.17-.25c.23-.34.47-.69.72-1h0l.53-.7c.14-.17.28-.35.43-.52l.08-.11c.17-.21.35-.41.52-.61L757,828l.37-.41.22-.23.33-.34.24-.24.33-.31.26-.25.32-.29.26-.23.34-.28.26-.21.35-.28.24-.18.4-.29.2-.14.6-.4,0,0,.62-.38c.18-.11.37-.21.55-.3l.21-.11.42-.2.18-.09.59-.25.57-.22.19-.06.39-.12.22-.06.35-.09.23,0,.32-.06.26,0,.3,0,.28,0,.26,0h.81l.43,0h.12l.46.08.12,0,.36.09.17.05.28.09.34.14.16.07.48.25-12.14-7.06a4.16,4.16,0,0,0-.47-.24l-.16-.07a8.16,8.16,0,0,0-5.68,0,16.54,16.54,0,0,0-5.05,2.79l-.14.11-.25.21a27.87,27.87,0,0,0-9.9,18.72,12.3,12.3,0,0,0,1.43,7.35l0,0a.56.56,0,0,1,0,.08l.22.31.09.13.22.26.09.1a3.34,3.34,0,0,0,.32.33l0,.05.3.26.11.09a2.48,2.48,0,0,0,.26.19l.11.08a2.92,2.92,0,0,0,.37.24l12.14,7.06c-.13-.08-.26-.16-.38-.25l-.11-.07Z"/><path class="cls-29" d="M762.38,823.5c-7,4.06-12.71,13.89-12.68,22s5.73,11.32,12.76,7.27,12.7-13.89,12.68-22S769.4,819.45,762.38,823.5Z"/><path class="cls-30" d="M762.81,829.18c-4.34,2.5-7.89,8.36-8.27,13.46,0,.31,0,.62,0,.92,0,5.29,3.75,7.42,8.36,4.76s8.32-9.09,8.3-14.38a8.26,8.26,0,0,0,0-.88C770.72,828.42,767.15,826.67,762.81,829.18Z"/><path class="cls-31" d="M762.82,831.79a13.46,13.46,0,0,0-6,9.79c0,.22,0,.45,0,.67,0,3.84,2.73,5.39,6.08,3.46a13.32,13.32,0,0,0,6-10.46c0-.22,0-.43,0-.64C768.57,831.24,766,830,762.82,831.79Z"/><path class="cls-32" d="M768.87,834.6c-.25-2.79-2.08-4.14-4.49-3.48,1.88,0,3.22,1.28,3.43,3.64,0,.21,0,.43,0,.65a13.35,13.35,0,0,1-6,10.46,7.11,7.11,0,0,1-1.57.67,5.58,5.58,0,0,0,2.63-.84,13.32,13.32,0,0,0,6-10.46C768.9,835,768.89,834.81,768.87,834.6Z"/><path class="cls-33" d="M765.12,839.49a.47.47,0,0,1,.48,0c.27.15.27.64,0,1.1a1.4,1.4,0,0,1-.48.51.5.5,0,0,1-.48.05c-.27-.15-.27-.65,0-1.11A1.29,1.29,0,0,1,765.12,839.49Z"/><path class="cls-33" d="M762.45,837c.85-.49,1.55-.09,1.55.89a3.43,3.43,0,0,1-1.54,2.67c-.86.49-1.55.1-1.55-.89A3.37,3.37,0,0,1,762.45,837Z"/><path class="cls-33" d="M762.46,842.28c.38-.21.69,0,.69.39a1.52,1.52,0,0,1-.68,1.18c-.38.22-.68,0-.68-.39A1.5,1.5,0,0,1,762.46,842.28Z"/><path class="cls-33" d="M759.8,842.55a.47.47,0,0,1,.48,0c.27.15.27.64,0,1.1a1.4,1.4,0,0,1-.48.51.52.52,0,0,1-.49,0c-.26-.15-.26-.65,0-1.11A1.4,1.4,0,0,1,759.8,842.55Z"/><path class="cls-33" d="M765.1,833.38a.5.5,0,0,1,.48,0c.27.15.27.65,0,1.11a1.29,1.29,0,0,1-.48.5.47.47,0,0,1-.48,0c-.27-.15-.27-.64,0-1.1A1.4,1.4,0,0,1,765.1,833.38Z"/><path class="cls-33" d="M762.44,835.21c-.37.22-.68,0-.68-.39a1.49,1.49,0,0,1,.68-1.17c.37-.22.68,0,.68.39A1.47,1.47,0,0,1,762.44,835.21Z"/><path class="cls-33" d="M759.79,838a.47.47,0,0,1-.48,0c-.27-.15-.27-.65,0-1.11a1.54,1.54,0,0,1,.48-.5.49.49,0,0,1,.49-.05c.26.15.27.65,0,1.1A1.4,1.4,0,0,1,759.79,838Z"/><path class="cls-33" d="M765.53,837a1.47,1.47,0,0,1,.68-1.17c.37-.22.68,0,.68.39a1.47,1.47,0,0,1-.68,1.17C765.84,837.58,765.53,837.4,765.53,837Z"/><path class="cls-33" d="M758.69,840.14c.38-.22.69,0,.69.39a1.5,1.5,0,0,1-.68,1.17c-.38.22-.68,0-.69-.39A1.5,1.5,0,0,1,758.69,840.14Z"/><polygon class="cls-34" points="676.56 864.47 630.56 838.4 737.5 776.35 783.5 802.41 676.56 864.47"/><path class="cls-35" d="M683.44,864.73h0l.06,0h0l.06,0h0l0,0h.09l.06,0H684l.09,0h1.22l.08,0h0l.11,0h0l.09,0h0l.08,0,0,0,.07,0,0,0,.1,0h0l.12.05h0l.08,0,0,0,.08,0,0,0,.11.06h0l.11.06,0,0,.12.06,25-14.57-.11-.06h-.05l-.09,0h0l-.1-.05h0l0,0-.08,0,0,0h0l0,0,0,0-.11,0h0l-.1,0h0l0,0h-.07l-.08,0h-.05l-.07,0h0l-.1,0h0l-.08,0h-1.44l-.06,0h0l0,0h-.08l-.06,0,0,0-.06,0,0,0-.06,0,0,0-.1,0h0l-25,14.57.09-.05h0Z"/><polygon class="cls-36" points="686.78 865.17 711.82 850.6 714.86 852.36 689.82 866.92 686.78 865.17"/><path class="cls-32" d="M719.81,860.79v0a.07.07,0,0,0,0,0v-.23h0a.57.57,0,0,0,0-.13v0a.22.22,0,0,0,0-.08v-.08a.28.28,0,0,1,0-.09.09.09,0,0,1,0,0v0a.28.28,0,0,1,0-.09v0a.69.69,0,0,0,0-.13h0v-.28s0,0,0-.06,0-.06,0-.09,0,0,0,0v0l0-.11h0l0-.14h0v0l0-.1,0-.06v0a.06.06,0,0,1,0,0s0,0,0,0l0-.1v-.07l0-.09a0,0,0,0,0,0,0c0-.05,0-.09,0-.14h0l0,0,0-.11s0,0,0,0l0,0s0,0,0,0,0,0,0-.06a.3.3,0,0,1,0-.1l0,0h0a.5.5,0,0,1,0-.13l0,0,0-.09h0a1.89,1.89,0,0,0-.09-.21h0a0,0,0,0,1,0,0l-.09-.19v0h0s0,0,0-.05l0-.09,0-.06,0,0s0,0,0,0l0-.07,0-.08a.43.43,0,0,0,0-.07l0-.05v0l-.11-.19v0l-.1-.17,0,0,0,0,0-.08,0-.06-.05-.08,0-.07,0-.08-.05-.07,0-.07,0,0h0l-.13-.2,0,0-.15-.2h0s0,0,0,0l-.08-.11,0,0-.07-.09h0l0-.06a.1.1,0,0,0,0-.05l-.06-.08s0,0,0,0h0l-.1-.11h0l-.09-.11h0l0,0-.07-.08,0,0,0,0,0,0,0-.05-.06-.06-.05-.05,0,0,0,0-.05-.05-.06-.07-.05,0,0,0,0,0,0,0-.07-.06,0,0h0l-.06-.06,0,0-.09-.08,0,0h0a.52.52,0,0,0-.11-.1l0,0-.08-.06h0l0,0-.07-.06,0,0,0,0,0,0,0,0-.08,0,0,0,0,0-.05,0,0,0-.11-.08h0l-.11-.07,0,0-.05,0,0,0-25,14.56a.53.53,0,0,0,.1.06l0,0,.11.07h0l.12.08,0,0,.08.05,0,0a.18.18,0,0,1,.07.05l.05,0,.07,0,.05,0,.07.06,0,0,.09.06,0,0,.12.1,0,0,.09.07s0,0,0,0l.07.06.05.05.07.06.05.05.06.06.05,0,.06.06,0,0,.06.06,0,0,.06.07,0,0,.07.07,0,0,.07.08,0,0,.1.12h0l.1.12,0,0,.06.08a.1.1,0,0,1,0,0l.06.07.07.09,0,.05.08.1,0,0,.15.2,0,0,.14.2,0,.06a.56.56,0,0,0,.05.08l0,.07.05.07,0,.07,0,.08.05.07,0,.08,0,.06.1.17v0l.11.2,0,.06,0,.08,0,.07a.3.3,0,0,0,0,.08l0,.08,0,0,0,.1,0,0,0,0,.09.19s0,0,0,0a1.89,1.89,0,0,1,.09.21l0,.1,0,0,.05.14,0,0,0,.1s0,0,0,.05a1,1,0,0,1,0,.1l0,.05,0,.1,0,0s0,.1,0,.14,0,0,0,0,0,.07,0,.11a.43.43,0,0,1,0,.05l0,.09,0,.06,0,.09,0,0a.3.3,0,0,0,0,.1v0a1,1,0,0,1,0,.14h0l0,.13a.43.43,0,0,0,0,.05s0,.07,0,.1a.43.43,0,0,0,0,0s0,.07,0,.1v0s0,.06,0,.1v0s0,.09,0,.14v0s0,.07,0,.11v0s0,.06,0,.09v0s0,.07,0,.1V875a0,0,0,0,0,0,0v.16a.28.28,0,0,0,0,.09v.49a.19.19,0,0,1,0,.08V876a.17.17,0,0,1,0,.07v.05s0,.06,0,.09a.06.06,0,0,1,0,0,.28.28,0,0,1,0,.09v0a.5.5,0,0,0,0,.12v0a.3.3,0,0,1,0,.1v0a.19.19,0,0,0,0,.08l0,.12h0a.45.45,0,0,1,0,.11v0l0,.09,0,.05,0,.07s0,0,0,.05l0,.09s0,0,0,0l-.06.12a.25.25,0,0,1,0,.07v0a.41.41,0,0,0-.05.09l0,0,0,.06,0,0,0,.06v0l0,.06,0,0-.05.07h0l-.06.07,0,0,0,0,0,0,0,.06h0l-.07.06s0,0,0,0l0,0,0,0a.1.1,0,0,0-.05,0h0l-.07.06h0l-.06,0,0,0-.05,0,0,0-.08,0h0l25.05-14.56.07-.05,0,0,.06,0,0,0,.06,0h0l.07-.05,0,0,0,0,0,0,0,0h0l.07-.07h0l.05,0,0,0,0-.05,0,0,.06-.07h0l0-.06,0,0,0-.05v0h0l0,0,0,0,0-.06,0,0a.41.41,0,0,1,0-.09v0a.25.25,0,0,0,0-.07h0l.06-.12v0l0-.1s0,0,0,0v0l0-.08,0,0,0-.1v0h0s0-.07,0-.1v0l0-.12h0s0-.06,0-.08v0a.43.43,0,0,0,0-.11v0h0a.5.5,0,0,1,0-.12v0a.17.17,0,0,0,0-.07v-.06s0-.05,0-.08v0a.09.09,0,0,0,0-.05v-.08a.28.28,0,0,0,0-.09v-.3h0Z"/><path class="cls-37" d="M689.82,866.92a11,11,0,0,1,4.95,8.57c0,3.14-2.25,4.42-5,2.84l-3-1.75a11,11,0,0,1-5-8.57c0-3.14,2.25-4.42,5-2.84Z"/><polygon class="cls-38" points="783.55 820.88 783.5 802.41 676.56 864.47 676.56 882.9 682.74 879.32 682.74 868.32 777.58 813.47 777.58 824.35 783.55 820.88"/><polygon class="cls-6" points="629.39 779.18 679.13 808.12 784.96 746.72 735.39 717.88 629.39 779.18"/><polygon class="cls-12" points="679.13 808.12 679.13 863.43 629.39 834.5 629.39 779.18 679.13 808.12"/><polygon class="cls-5" points="784.96 746.72 679.13 808.12 679.13 863.43 784.96 802.04 784.96 746.72"/><path class="cls-28" d="M650.51,912.07l-.11-.09-.3-.26,0-.05a3.34,3.34,0,0,1-.32-.33l-.09-.1-.22-.27-.09-.12-.22-.31a.35.35,0,0,0,0-.08c-.1-.15-.18-.29-.27-.45a4.3,4.3,0,0,1-.24-.48.2.2,0,0,1,0-.08c-.06-.13-.12-.26-.17-.4l-.05-.12-.09-.25c-.05-.13-.09-.27-.13-.4s-.05-.18-.08-.27l-.09-.35c0-.1,0-.2-.07-.3l-.06-.31-.06-.34c0-.09,0-.19,0-.28s0-.26,0-.39a2.11,2.11,0,0,1,0-.26c0-.15,0-.31,0-.46s0-.13,0-.2c0-.23,0-.46,0-.7s0-.45,0-.68a1.77,1.77,0,0,1,0-.23,4.15,4.15,0,0,1,0-.49c0-.08,0-.16,0-.24l.06-.52a1.5,1.5,0,0,1,0-.2c0-.24.06-.48.1-.72,0,0,0-.06,0-.09,0-.21.07-.42.11-.63s0-.18.05-.26.07-.32.1-.48,0-.19.07-.28l.12-.48c0-.09,0-.18.07-.28s.1-.33.14-.5a2.17,2.17,0,0,0,.07-.24l.24-.73,0-.06c.07-.22.15-.45.23-.67l.09-.22.19-.51c0-.08.07-.17.1-.24s.15-.36.22-.53l.08-.19.32-.71.09-.17c.09-.18.17-.37.26-.55s.14-.25.2-.38.13-.24.19-.36c.18-.33.36-.66.55-1l.2-.33.24-.4c.07-.11.14-.23.22-.34l.25-.39.17-.25c.23-.35.47-.69.72-1h0l.53-.7.42-.53.09-.1c.17-.21.34-.41.52-.61l.15-.17c.13-.14.25-.28.38-.41l.22-.23.33-.34.24-.24.32-.31.27-.25.32-.29.26-.23.34-.28.25-.21.36-.28.24-.18.39-.29.21-.14c.19-.14.39-.27.59-.4l0,0,.62-.38c.19-.11.37-.21.56-.3l.21-.11.41-.21.19-.08.58-.26.58-.21.19-.06.38-.12.23-.06.35-.09.22-.05.33-.06.26,0,.3,0,.27,0h1.08l.43,0h.12l.46.08.12,0,.36.08.17.06.28.09.34.14.16.07a4.16,4.16,0,0,1,.47.24l-9.39-5.49a4.3,4.3,0,0,0-.48-.24l-.16-.07a8.16,8.16,0,0,0-5.68,0,16.66,16.66,0,0,0-5,2.79l-.13.11-.26.21a27.87,27.87,0,0,0-9.9,18.73,12.28,12.28,0,0,0,1.43,7.34l0,0,.06.08.22.32.09.11a2,2,0,0,0,.22.27l.08.1.32.34.05,0,.29.26.11.09.26.2.11.07c.12.09.25.17.38.25l9.39,5.48a2.92,2.92,0,0,1-.37-.24l-.11-.07Z"/><path class="cls-29" d="M660.22,882.46c-7,4.06-12.7,13.89-12.68,22s5.74,11.33,12.77,7.28,12.7-13.89,12.68-22S667.25,878.4,660.22,882.46Z"/><path class="cls-30" d="M660.66,888.13c-4.34,2.51-7.89,8.37-8.27,13.47,0,.31,0,.61,0,.92,0,5.29,3.76,7.42,8.36,4.76S669,898.19,669,892.9c0-.31,0-.6,0-.88C668.57,887.38,665,885.63,660.66,888.13Z"/><path class="cls-31" d="M660.67,890.75a13.43,13.43,0,0,0-6,9.79c0,.22,0,.45,0,.67,0,3.84,2.73,5.39,6.07,3.46a13.29,13.29,0,0,0,6-10.46c0-.22,0-.43,0-.64C666.42,890.2,663.82,888.92,660.67,890.75Z"/><path class="cls-32" d="M666.72,893.57c-.25-2.8-2.08-4.15-4.49-3.5,1.87,0,3.22,1.29,3.43,3.65,0,.21,0,.42,0,.65a13.34,13.34,0,0,1-6,10.46,6.5,6.5,0,0,1-1.58.66,5.5,5.5,0,0,0,2.63-.82,13.33,13.33,0,0,0,6-10.47C666.74,894,666.73,893.77,666.72,893.57Z"/><path class="cls-33" d="M663,898.45a.49.49,0,0,1,.49-.05c.26.15.26.64,0,1.1a1.4,1.4,0,0,1-.48.51.47.47,0,0,1-.48,0c-.27-.15-.27-.65,0-1.11A1.45,1.45,0,0,1,663,898.45Z"/><path class="cls-33" d="M660.29,895.93c.86-.49,1.55-.1,1.56.89a3.41,3.41,0,0,1-1.55,2.67c-.85.49-1.54.09-1.55-.89A3.41,3.41,0,0,1,660.29,895.93Z"/><path class="cls-33" d="M660.31,901.24c.38-.21.68,0,.68.39a1.49,1.49,0,0,1-.68,1.18c-.37.21-.68,0-.68-.39A1.51,1.51,0,0,1,660.31,901.24Z"/><path class="cls-33" d="M657.65,901.51a.5.5,0,0,1,.48,0c.27.16.27.65,0,1.11a1.32,1.32,0,0,1-.48.51.5.5,0,0,1-.48,0c-.26-.16-.27-.65,0-1.11A1.4,1.4,0,0,1,657.65,901.51Z"/><path class="cls-33" d="M663,892.34a.5.5,0,0,1,.48-.05c.26.15.27.65,0,1.11a1.48,1.48,0,0,1-.48.51.47.47,0,0,1-.48,0c-.27-.15-.27-.64,0-1.1A1.32,1.32,0,0,1,663,892.34Z"/><path class="cls-33" d="M660.29,894.17c-.38.22-.68.05-.68-.39a1.49,1.49,0,0,1,.68-1.17c.37-.22.68,0,.68.39A1.47,1.47,0,0,1,660.29,894.17Z"/><path class="cls-33" d="M657.64,897a.49.49,0,0,1-.49,0c-.26-.15-.26-.65,0-1.1a1.4,1.4,0,0,1,.48-.51.47.47,0,0,1,.48,0c.27.15.27.65,0,1.1A1.49,1.49,0,0,1,657.64,897Z"/><path class="cls-33" d="M663.38,895.93a1.47,1.47,0,0,1,.68-1.17c.37-.22.68,0,.68.39a1.49,1.49,0,0,1-.68,1.17C663.68,896.54,663.38,896.37,663.38,895.93Z"/><path class="cls-33" d="M656.54,899.1c.38-.22.68-.05.68.39a1.5,1.5,0,0,1-.67,1.17c-.38.22-.69,0-.69-.39A1.47,1.47,0,0,1,656.54,899.1Z"/><polygon class="cls-19" points="639.32 904.48 593.15 878.36 593.07 850.45 639.24 876.57 639.32 904.48"/><polygon class="cls-39" points="639.24 876.57 593.07 850.45 599.35 823.32 645.52 849.44 639.24 876.57"/><polygon class="cls-21" points="645.52 849.44 599.35 823.32 630.3 805.45 676.47 831.57 645.52 849.44"/><path class="cls-8" d="M599.35,823.32l-6.28,27.13,46.17,26.12,6.28-27.13ZM638,873.79l-42.87-24.25,5.42-23.44,42.87,24.25Z"/><g id="_Groupe_" data-name="&lt;Groupe&gt;"><g id="_Groupe_2" data-name="&lt;Groupe&gt;" class="cls-1"><g id="_Groupe_3" data-name="&lt;Groupe&gt;"><polygon id="_Tracé_" data-name="&lt;Tracé&gt;" class="cls-40" points="601.31 860.34 601.31 878.26 631.08 895.49 631.08 877.56 601.31 860.34"/></g></g></g><polygon class="cls-32" points="637.06 899.48 637.06 905.76 591.14 879.36 591.14 873.07 637.06 899.48"/><polygon class="cls-30" points="637.06 899.48 637.06 905.76 639.32 904.5 639.32 898.22 637.06 899.48"/><polygon class="cls-41" points="591.14 873.07 637.06 899.48 639.32 898.22 593.4 871.79 591.14 873.07"/><polygon class="cls-42" points="639.24 891.79 631.87 887.54 631.87 891.98 639.24 896.19 639.24 891.79"/><polygon class="cls-42" points="600.45 869.38 593.07 865.13 593.07 869.58 600.45 873.78 600.45 869.38"/><path class="cls-8" d="M676.47,831.57l-31,17.87-6.28,27.13.08,27.91,6.62-3.84c1.69-7.92,7.22-16.21,13.8-20s12.12-1.93,13.86,4l3-1.71V864.47Z"/><path class="cls-39" d="M664.2,840.93c.33-.18.6,0,.6.34l0,16.18a1.28,1.28,0,0,1-.59,1l-20.54,11.85c-.4.24-.69-.06-.56-.58l3.65-18.3a1.32,1.32,0,0,1,.55-.78Z"/><polygon class="cls-43" points="635.93 901.06 635.93 903.94 630.35 900.72 630.35 897.85 635.93 901.06"/><polygon class="cls-43" points="597.62 879.11 597.62 881.98 592.03 878.77 592.03 875.89 597.62 879.11"/><polygon class="cls-30" points="741.77 834.18 741.77 844.61 722.33 855.63 722.33 845.42 741.77 834.18"/><polygon class="cls-44" points="722.33 855.63 718.66 853.63 718.66 847.54 722.33 845.42 722.33 855.63"/><polygon class="cls-45" points="643.44 850.35 595.15 849.53 600.57 826.1 643.44 850.35"/><polygon class="cls-8" points="735.52 818.89 740.97 815.76 740.97 779.55 735.52 782.68 735.52 818.89"/><polygon class="cls-8" points="759.55 798.89 752.99 802.68 752.99 772.62 747.54 775.75 747.54 805.83 747.54 811.96 752.99 808.82 752.99 808.81 765 801.87 765 795.75 765 765.66 759.55 768.8 759.55 798.89"/><polygon class="cls-8" points="771.57 761.86 771.57 798.07 777.02 794.94 777.02 758.73 771.57 761.86"/><polygon class="cls-26" points="735.82 972.82 672.99 935.76 816.14 852.34 878.97 889.42 735.82 972.82"/><polygon class="cls-27" points="774.73 927.3 866.73 874.93 861.77 870.96 774.73 922.85 774.73 927.3"/><polygon class="cls-27" points="869.57 878.87 860.64 873.17 869.57 868 869.57 878.87"/><path class="cls-28" d="M844.65,907.64l-.11-.09-.29-.26,0,0a3.34,3.34,0,0,1-.32-.33l-.09-.1-.22-.27-.09-.12c-.07-.1-.15-.2-.22-.31a.35.35,0,0,1,0-.08q-.15-.22-.27-.45c-.09-.16-.17-.32-.25-.48l0-.08c-.06-.13-.12-.26-.17-.4a.61.61,0,0,1,0-.12l-.09-.25c-.05-.13-.09-.27-.13-.41s-.05-.17-.08-.26l-.09-.35c0-.1,0-.2-.07-.3l-.06-.31-.06-.34c0-.1,0-.19,0-.28s0-.26-.05-.38l0-.27,0-.46c0-.07,0-.13,0-.2,0-.23,0-.46,0-.7s0-.45,0-.68c0-.08,0-.15,0-.23s0-.32,0-.49l0-.24c0-.17,0-.34.05-.52a1.5,1.5,0,0,1,0-.2c0-.24.06-.48.1-.72a.29.29,0,0,1,0-.09c0-.21.07-.42.11-.63s0-.18,0-.26.07-.32.1-.49,0-.18.07-.27l.12-.48c0-.09,0-.18.07-.28l.14-.5a2.17,2.17,0,0,0,.07-.24c.08-.24.15-.49.24-.73a.14.14,0,0,1,0-.06c.07-.22.15-.45.23-.67l.09-.22.19-.51c0-.08.07-.17.1-.24s.15-.36.22-.53.06-.13.08-.19c.11-.24.21-.48.32-.71l.09-.18.26-.54.2-.38.19-.36c.18-.33.36-.66.55-1l.2-.33.24-.4.22-.35.25-.38.16-.25c.24-.35.48-.69.73-1h0l.54-.7.42-.53.09-.1c.17-.21.34-.41.52-.61l.15-.17c.13-.14.25-.28.38-.41l.22-.23.33-.35.24-.23.32-.32.27-.24.32-.29.26-.23.33-.28.26-.21.36-.28.24-.18.39-.29.21-.14c.19-.14.39-.27.59-.4l0,0,.62-.38c.19-.11.37-.21.56-.3l.21-.11.41-.21.19-.08.58-.26.58-.21.18-.06.39-.12.23-.06.35-.09.22,0,.33-.06.26,0,.3,0,.27,0h1.08a3.28,3.28,0,0,1,.43,0h.12l.46.08.12,0,.36.09.17.06.28.09.34.14.16.07a4.16,4.16,0,0,1,.47.24l-12.13-7-.47-.25-.17-.07a8.16,8.16,0,0,0-5.68,0,17,17,0,0,0-5.05,2.8l-.13.11a2.39,2.39,0,0,0-.26.21,27.85,27.85,0,0,0-9.9,18.72,12.3,12.3,0,0,0,1.44,7.35v0l.06.08a3.46,3.46,0,0,0,.22.31l.09.12.22.27.08.1c.11.12.21.23.32.33l0,0,.29.26.11.09.26.19.11.08c.13.08.25.17.38.24l12.13,7a2.92,2.92,0,0,1-.37-.24l-.11-.08Z"/><path class="cls-29" d="M854.37,878c-7,4.06-12.7,13.89-12.68,22s5.74,11.33,12.77,7.28,12.7-13.89,12.67-22S861.4,874,854.37,878Z"/><path class="cls-30" d="M854.81,883.7c-4.34,2.51-7.89,8.37-8.27,13.47,0,.31,0,.61,0,.92,0,5.29,3.76,7.42,8.36,4.76s8.32-9.09,8.3-14.38c0-.31,0-.6,0-.88C862.71,883,859.14,881.2,854.81,883.7Z"/><path class="cls-31" d="M854.82,886.32a13.43,13.43,0,0,0-6,9.78c0,.23,0,.45,0,.68,0,3.84,2.73,5.39,6.08,3.46a13.31,13.31,0,0,0,6-10.46c0-.22,0-.44,0-.64C860.57,885.77,858,884.5,854.82,886.32Z"/><path class="cls-32" d="M860.87,889.13c-.25-2.79-2.08-4.14-4.49-3.49,1.87,0,3.22,1.29,3.42,3.65,0,.21,0,.42,0,.64a13.33,13.33,0,0,1-6,10.47,6.28,6.28,0,0,1-1.57.66,5.48,5.48,0,0,0,2.64-.83,13.31,13.31,0,0,0,6-10.46C860.89,889.55,860.88,889.34,860.87,889.13Z"/><path class="cls-33" d="M857.11,894a.49.49,0,0,1,.48,0c.27.15.27.64,0,1.1a1.4,1.4,0,0,1-.48.51.5.5,0,0,1-.48,0c-.27-.15-.27-.65,0-1.11A1.48,1.48,0,0,1,857.11,894Z"/><path class="cls-33" d="M854.44,891.5c.86-.49,1.55-.1,1.56.88a3.41,3.41,0,0,1-1.55,2.68c-.85.49-1.55.09-1.55-.89A3.41,3.41,0,0,1,854.44,891.5Z"/><path class="cls-33" d="M854.46,896.81c.37-.21.68,0,.68.39a1.49,1.49,0,0,1-.68,1.18c-.37.21-.68,0-.68-.39A1.51,1.51,0,0,1,854.46,896.81Z"/><path class="cls-33" d="M851.8,897.08a.5.5,0,0,1,.48-.05c.27.16.27.65,0,1.11a1.32,1.32,0,0,1-.48.51.5.5,0,0,1-.48.05c-.27-.16-.27-.65,0-1.11A1.32,1.32,0,0,1,851.8,897.08Z"/><path class="cls-33" d="M857.1,887.91a.47.47,0,0,1,.48,0c.26.15.27.65,0,1.1a1.4,1.4,0,0,1-.48.51.47.47,0,0,1-.48,0c-.27-.15-.27-.65,0-1.1A1.42,1.42,0,0,1,857.1,887.91Z"/><path class="cls-33" d="M854.44,889.74c-.38.22-.68,0-.68-.39a1.49,1.49,0,0,1,.67-1.17c.38-.22.69,0,.69.39A1.51,1.51,0,0,1,854.44,889.74Z"/><path class="cls-33" d="M851.79,892.54a.49.49,0,0,1-.49.05c-.26-.15-.26-.65,0-1.11a1.36,1.36,0,0,1,.48-.5.47.47,0,0,1,.48-.05c.27.15.27.64,0,1.1A1.49,1.49,0,0,1,851.79,892.54Z"/><path class="cls-33" d="M857.53,891.5a1.46,1.46,0,0,1,.67-1.17c.38-.22.69-.05.69.39a1.51,1.51,0,0,1-.68,1.17C857.83,892.11,857.53,891.93,857.53,891.5Z"/><path class="cls-33" d="M850.69,894.67c.38-.22.68,0,.68.38a1.49,1.49,0,0,1-.68,1.18c-.37.22-.68,0-.68-.39A1.47,1.47,0,0,1,850.69,894.67Z"/><polygon class="cls-34" points="768.56 919 722.55 892.93 829.49 830.87 875.5 856.93 768.56 919"/><path class="cls-35" d="M775.44,919.26h0l.06,0,0,0,.06,0h0l0,0,0,0H776l.08,0h1.12l.07,0h0l.08,0h0l.11,0h0l.09,0h0l.07,0h0l.08,0,0,0,.09,0h0l.11,0h0l.08,0,0,0,.08,0,0,0,.12.06h0l.12.06h0l.12.07,25-14.57-.12-.06h0l0,0-.1,0h0l-.1,0h-.05l-.08,0,0,0h0l0,0h0l-.11,0h0l-.09,0h0l0,0h-.08l-.07,0h-.05l-.08,0h0l-.11,0h0l-.08,0H800.9l0,0h0l0,0h-.09l-.06,0h0l-.06,0,0,0-.07,0h0l-.09,0h0l-25,14.57.09-.05,0,0Z"/><polygon class="cls-36" points="778.78 919.7 803.82 905.13 806.86 906.89 781.82 921.45 778.78 919.7"/><path class="cls-32" d="M811.8,915.32v-.18s0-.07,0-.1v0h0v-.17a.17.17,0,0,1,0-.07v0s0,0,0-.05a.28.28,0,0,0,0-.09v-.07a.28.28,0,0,0,0-.09v0s0-.09,0-.13h0s0,0,0,0a.36.36,0,0,0,0-.1v0a.09.09,0,0,0,0-.05v0a.13.13,0,0,1,0-.06.29.29,0,0,1,0-.09.11.11,0,0,1,0-.05v0a.36.36,0,0,0,0-.11v0l0-.13h0a.43.43,0,0,1,0,0l0-.09v-.06l0,0v-.09l0-.1,0,0v0l0-.09a0,0,0,0,1,0,0l0-.14h0v0s0-.08,0-.11,0,0,0-.05a.43.43,0,0,0,0,0s0,0,0-.05l0,0a.49.49,0,0,0,0-.11v0h0a1.12,1.12,0,0,0,0-.13v0l0-.08h0l-.09-.21v0s0,0,0,0-.06-.13-.08-.19a0,0,0,0,1,0,0h0l0,0,0-.09,0-.06,0,0,0,0,0-.08,0-.07a.25.25,0,0,1,0-.07l0,0v0l-.1-.2,0,0a1,1,0,0,0-.1-.17v0l0,0a.56.56,0,0,1,0-.08l0-.06a.56.56,0,0,0-.05-.08.43.43,0,0,0,0-.07l-.05-.08a.43.43,0,0,1,0-.07l0-.07a.1.1,0,0,0,0-.05v0l-.14-.19,0,0a1.43,1.43,0,0,0-.14-.2h0l0,0-.07-.1,0-.05-.07-.09h0l0-.06,0-.05-.06-.08,0,0h0l-.1-.12h0l-.1-.11h0l0,0-.08-.08,0,0,0,0,0,0,0-.05-.06-.06,0-.05,0,0,0,0,0,0-.07-.07,0,0,0,0,0,0-.05,0-.06-.06,0,0h0l-.06-.06,0,0a.39.39,0,0,0-.1-.08,0,0,0,0,0,0,0h0l-.11-.1,0,0-.07-.06h0l0,0-.08-.06,0,0-.05,0,0,0,0,0-.07,0s0,0,0,0l0,0-.06,0,0,0-.12-.08h0L807,907l0,0-.06,0,0,0-25,14.56.1.06,0,0,.12.07h0l.12.07,0,0,.08,0,.05,0,.07.06.05,0a.18.18,0,0,0,.07,0l0,0,.08,0,0,0,.08.06,0,0,.11.09,0,0,.1.08,0,0,.07.06.05,0,.06.06.05,0,.07.06,0,.05.07.06,0,0,.07.07,0,0,.06.07,0,0,.06.07,0,0,.07.08,0,0,.1.12h0l.1.12,0,0,.06.07,0,.06.06.07.06.09s0,0,.05,0a.86.86,0,0,1,.07.1l0,0,.14.19,0,0c0,.07.09.14.14.2l0,.06a.22.22,0,0,0,.05.08l0,.07a.56.56,0,0,1,.05.08l0,.06a.35.35,0,0,1,0,.08l0,.07,0,.08,0,.05.1.18,0,0c0,.07.07.13.1.2l0,.06a.3.3,0,0,0,0,.08l0,.07a.25.25,0,0,1,0,.07l0,.09,0,0,0,.09a.08.08,0,0,0,0,0,.05.05,0,0,0,0,0,1.08,1.08,0,0,0,.08.19l0,0,.09.21,0,.1v0l.06.14s0,0,0,0a.42.42,0,0,1,0,.1l0,0,0,.09,0,0s0,.08,0,.11,0,0,0,0,0,.1.05.14v0l0,.11s0,0,0,.06l0,.09v.06l0,.09a.43.43,0,0,0,0,0l0,.1s0,0,0,0l0,.14h0l0,.13a.07.07,0,0,0,0,0,.36.36,0,0,0,0,.1.09.09,0,0,0,0,0s0,.06,0,.09a.11.11,0,0,1,0,0s0,.07,0,.11v0l0,.14v0s0,.07,0,.11v0a.34.34,0,0,1,0,.1v0a.41.41,0,0,0,0,.11v0c0,.05,0,.1,0,.14v0s0,.07,0,.11v.76a.22.22,0,0,0,0,.08.07.07,0,0,1,0,.05v.08a.11.11,0,0,0,0,.05s0,.06,0,.09v0a.51.51,0,0,1,0,.13v0s0,.07,0,.1,0,0,0,0a.19.19,0,0,1,0,.07.61.61,0,0,1,0,.13h0l0,.11v0l0,.09v0l0,.08a.05.05,0,0,1,0,0l0,.1,0,0s0,.09,0,.13a.25.25,0,0,0,0,.07v0a.41.41,0,0,1-.05.09v0l0,.06,0,0,0,.06,0,0,0,.06v0l-.05.07h0l-.06.07v0l-.05.05,0,0,0,0,0,0-.06.06,0,0,0,0,0,0-.05.05h0l-.06.06h0l-.06.05h0l-.05,0,0,0-.08,0h0l25-14.57.08,0,0,0,0,0,0,0,.06,0h0l.06-.05,0,0,.05,0,0,0,0-.05h0l.06-.07h0l.05-.05v0l0,0v0l.06-.07h0l0-.06v0l0,0,0,0h0l0,0,0,0,0-.06v0a.47.47,0,0,0,.05-.1h0l0-.07h0l.05-.12,0,0,0-.09v0h0l0-.08V917l0-.09v0h0l0-.1v0l0-.12h0a.19.19,0,0,0,0-.07s0,0,0,0,0-.07,0-.11v0h0a.5.5,0,0,0,0-.12.08.08,0,0,0,0,0s0,0,0-.07V916a.11.11,0,0,0,0,0v-.13a.28.28,0,0,1,0-.09v-.3h0Z"/><path class="cls-37" d="M781.82,921.45a11,11,0,0,1,4.94,8.57c0,3.14-2.25,4.42-5,2.84l-3-1.76a10.92,10.92,0,0,1-4.94-8.56c0-3.14,2.25-4.42,5-2.84Z"/><polygon class="cls-38" points="875.55 875.41 875.5 856.93 768.56 919 768.56 937.43 774.73 933.85 774.73 922.85 869.57 868 869.57 878.87 875.55 875.41"/><polygon class="cls-6" points="721.39 833.71 771.12 862.65 876.96 801.25 827.38 772.41 721.39 833.71"/><polygon class="cls-12" points="771.12 862.65 771.12 917.96 721.39 889.02 721.39 833.71 771.12 862.65"/><polygon class="cls-5" points="876.96 801.25 771.12 862.65 771.12 917.96 876.96 856.57 876.96 801.25"/><path class="cls-28" d="M742.5,966.6l-.11-.09-.29-.27-.05,0c-.11-.1-.21-.22-.32-.33l-.08-.1c-.07-.09-.15-.17-.22-.27l-.09-.12a3.46,3.46,0,0,1-.22-.31l-.06-.09c-.09-.14-.18-.29-.26-.44s-.17-.32-.25-.48l0-.08-.18-.4s0-.08,0-.12l-.09-.25-.14-.41c0-.08-.05-.17-.07-.26a2.25,2.25,0,0,1-.09-.35c0-.1,0-.2-.07-.3s-.05-.21-.07-.31,0-.23,0-.34,0-.19-.05-.28,0-.26,0-.39l0-.26,0-.47a1.21,1.21,0,0,1,0-.19c0-.23,0-.46,0-.7s0-.45,0-.68c0-.08,0-.16,0-.23l0-.49c0-.08,0-.16,0-.24s0-.35,0-.52l0-.2c0-.24.06-.48.1-.72,0,0,0-.06,0-.09l.12-.64a2.21,2.21,0,0,1,.05-.25c0-.16.06-.32.1-.49s0-.18.07-.28.07-.31.11-.47,0-.18.08-.28.09-.33.14-.5,0-.16.07-.24c.07-.24.15-.49.23-.73l0-.06.24-.67c0-.08.06-.15.08-.22s.13-.35.2-.51.07-.17.1-.25.14-.35.22-.53l.08-.18c.1-.24.21-.48.32-.71l.09-.18c.08-.18.17-.36.26-.54s.13-.25.2-.38.12-.24.19-.36c.18-.33.36-.66.55-1,.06-.12.13-.22.19-.33l.24-.4c.08-.11.15-.23.22-.35l.26-.38c0-.09.11-.17.16-.25.24-.35.47-.69.72-1h0l.53-.7.43-.53.08-.1.53-.61.15-.17c.12-.14.25-.28.38-.41a2.39,2.39,0,0,1,.22-.23l.33-.35.24-.23.32-.32.26-.24.32-.29.27-.23.33-.28.26-.21.35-.28.24-.18.4-.29.2-.14.6-.4,0,0c.2-.14.41-.26.62-.38s.37-.21.56-.31l.2-.1.42-.21.18-.08.59-.26c.19-.08.39-.15.58-.21l.18-.06.39-.12.22-.06.36-.09.22,0,.33-.06.25,0,.31,0,.27,0h1.07a3,3,0,0,1,.43,0h.13l.46.08.11,0,.36.09.18.06.28.09.33.14.16.07a3.58,3.58,0,0,1,.48.24l-9.4-5.49c-.15-.09-.31-.17-.47-.25l-.16-.07a8.22,8.22,0,0,0-5.68,0,16.9,16.9,0,0,0-5,2.8.69.69,0,0,0-.13.11l-.26.21a27.87,27.87,0,0,0-9.9,18.72,12.31,12.31,0,0,0,1.43,7.35l0,0,.06.08.21.31.1.12.21.27.09.1c.1.11.21.23.32.33l0,0,.3.26.11.08.26.2.11.08.37.24,9.4,5.49a3,3,0,0,1-.38-.24l-.11-.08Z"/><path class="cls-29" d="M752.22,937c-7,4.06-12.7,13.89-12.68,22s5.73,11.33,12.76,7.28,12.7-13.89,12.68-22S759.24,932.93,752.22,937Z"/><path class="cls-30" d="M752.65,942.66c-4.33,2.51-7.88,8.37-8.26,13.46,0,.31,0,.62,0,.93,0,5.28,3.76,7.42,8.36,4.76s8.32-9.1,8.3-14.38a8.26,8.26,0,0,0,0-.88C760.56,941.91,757,940.16,752.65,942.66Z"/><path class="cls-31" d="M752.66,945.27a13.44,13.44,0,0,0-6,9.79c0,.23,0,.45,0,.67,0,3.85,2.73,5.4,6.08,3.47a13.31,13.31,0,0,0,6-10.46c0-.22,0-.44,0-.64C758.41,944.73,755.81,943.45,752.66,945.27Z"/><path class="cls-32" d="M758.71,948.09c-.24-2.79-2.07-4.14-4.48-3.49,1.87-.05,3.21,1.29,3.42,3.65,0,.21,0,.42,0,.64a13.29,13.29,0,0,1-6,10.46,6.12,6.12,0,0,1-1.57.67,5.53,5.53,0,0,0,2.63-.83,13.29,13.29,0,0,0,6-10.46C758.74,948.51,758.73,948.3,758.71,948.09Z"/><path class="cls-33" d="M755,953a.47.47,0,0,1,.48,0c.27.15.27.64,0,1.1a1.32,1.32,0,0,1-.48.51.5.5,0,0,1-.48.05c-.27-.16-.27-.65,0-1.11A1.4,1.4,0,0,1,755,953Z"/><path class="cls-33" d="M752.29,950.46c.86-.49,1.55-.1,1.55.88A3.37,3.37,0,0,1,752.3,954c-.85.5-1.55.1-1.55-.88A3.41,3.41,0,0,1,752.29,950.46Z"/><path class="cls-33" d="M752.31,955.77c.37-.22.68,0,.68.39a1.47,1.47,0,0,1-.68,1.17c-.38.22-.68,0-.68-.38A1.49,1.49,0,0,1,752.31,955.77Z"/><path class="cls-33" d="M749.65,956a.5.5,0,0,1,.48,0c.26.15.27.65,0,1.11a1.48,1.48,0,0,1-.48.51.47.47,0,0,1-.48,0c-.27-.15-.27-.64,0-1.1A1.42,1.42,0,0,1,749.65,956Z"/><path class="cls-33" d="M754.94,946.87a.47.47,0,0,1,.48,0c.27.15.27.65,0,1.11a1.54,1.54,0,0,1-.48.5.52.52,0,0,1-.49.05c-.26-.15-.26-.65,0-1.1A1.4,1.4,0,0,1,754.94,946.87Z"/><path class="cls-33" d="M752.29,948.7c-.38.22-.69,0-.69-.39a1.5,1.5,0,0,1,.68-1.17c.38-.22.68,0,.68.39A1.48,1.48,0,0,1,752.29,948.7Z"/><path class="cls-33" d="M749.63,951.5a.5.5,0,0,1-.48,0c-.27-.15-.27-.65,0-1.11a1.29,1.29,0,0,1,.48-.5.45.45,0,0,1,.48-.05c.27.15.27.64,0,1.1A1.32,1.32,0,0,1,749.63,951.5Z"/><path class="cls-33" d="M755.37,950.46a1.51,1.51,0,0,1,.68-1.18c.38-.21.68,0,.68.39a1.52,1.52,0,0,1-.67,1.18C755.68,951.07,755.37,950.89,755.37,950.46Z"/><path class="cls-33" d="M748.54,953.62c.37-.21.68,0,.68.39a1.51,1.51,0,0,1-.68,1.18c-.38.22-.68,0-.68-.39A1.51,1.51,0,0,1,748.54,953.62Z"/><polygon class="cls-19" points="731.32 959 685.15 932.89 685.07 904.98 731.24 931.09 731.32 959"/><polygon class="cls-39" points="731.24 931.09 685.07 904.98 691.34 877.85 737.51 903.96 731.24 931.09"/><polygon class="cls-21" points="737.51 903.96 691.34 877.85 722.3 859.98 768.47 886.09 737.51 903.96"/><path class="cls-8" d="M691.34,877.85,685.07,905l46.17,26.11L737.51,904ZM730,928.31l-42.86-24.25,5.42-23.43,42.87,24.25Z"/><g id="_Groupe_4" data-name="&lt;Groupe&gt;"><g id="_Groupe_5" data-name="&lt;Groupe&gt;" class="cls-1"><g id="_Groupe_6" data-name="&lt;Groupe&gt;"><polygon id="_Tracé_2" data-name="&lt;Tracé&gt;" class="cls-40" points="693.3 914.87 693.3 932.79 723.08 950.02 723.08 932.09 693.3 914.87"/></g></g></g><polygon class="cls-32" points="729.06 954.01 729.06 960.29 683.13 933.88 683.13 927.6 729.06 954.01"/><polygon class="cls-30" points="729.06 954.01 729.06 960.29 731.32 959.02 731.32 952.74 729.06 954.01"/><polygon class="cls-41" points="683.14 927.6 729.06 954.01 731.32 952.74 685.4 926.32 683.14 927.6"/><polygon class="cls-42" points="731.24 946.31 723.86 942.07 723.86 946.51 731.24 950.72 731.24 946.31"/><polygon class="cls-42" points="692.44 923.91 685.07 919.66 685.07 924.11 692.44 928.31 692.44 923.91"/><path class="cls-8" d="M768.47,886.09l-31,17.87-6.27,27.13.07,27.91,6.63-3.83c1.69-7.92,7.22-16.21,13.8-20s12.11-1.93,13.85,4l3-1.71V919Z"/><path class="cls-39" d="M756.2,895.46c.33-.19.59,0,.59.34l.05,16.17a1.27,1.27,0,0,1-.59,1l-20.54,11.86c-.41.24-.69-.06-.56-.58l3.64-18.3a1.35,1.35,0,0,1,.56-.78Z"/><polygon class="cls-43" points="727.93 955.59 727.93 958.46 722.34 955.25 722.34 952.38 727.93 955.59"/><polygon class="cls-43" points="689.61 933.64 689.61 936.51 684.02 933.3 684.02 930.42 689.61 933.64"/><polygon class="cls-30" points="833.77 888.71 833.77 899.13 814.33 910.16 814.33 899.95 833.77 888.71"/><polygon class="cls-44" points="814.33 910.16 810.66 908.15 810.66 902.07 814.33 899.95 814.33 910.16"/><polygon class="cls-45" points="735.44 904.88 687.14 904.06 692.57 880.63 735.44 904.88"/><polygon class="cls-8" points="827.52 873.42 832.97 870.29 832.97 834.08 827.52 837.21 827.52 873.42"/><polygon class="cls-8" points="851.55 853.42 844.99 857.21 844.99 827.14 839.53 830.27 839.53 860.36 839.53 866.48 844.99 863.35 844.99 863.34 857 856.4 857 850.27 857 820.19 851.55 823.32 851.55 853.42"/><polygon class="cls-8" points="863.56 816.39 863.56 852.6 869.01 849.46 869.01 813.25 863.56 816.39"/><g id="_Groupe_7" data-name="&lt;Groupe&gt;"><polygon id="_Tracé_3" data-name="&lt;Tracé&gt;" class="cls-46" points="877.91 1059.29 744.3 1136.55 744.3 1130.3 877.91 1053.04 877.91 1059.29"/><polygon id="_Tracé_4" data-name="&lt;Tracé&gt;" class="cls-47" points="877.91 1053.04 877.91 1059.29 899.57 1071.79 899.57 1065.54 877.91 1053.04"/><g id="_Groupe_8" data-name="&lt;Groupe&gt;"><g id="_Groupe_9" data-name="&lt;Groupe&gt;" class="cls-1"><g id="_Groupe_10" data-name="&lt;Groupe&gt;"><polygon id="_Tracé_5" data-name="&lt;Tracé&gt;" class="cls-12" points="733.71 1130.02 733.71 1155.26 760.61 1170.81 760.61 1145.54 733.71 1130.02"/></g></g></g><g id="_Groupe_11" data-name="&lt;Groupe&gt;"><g id="_Groupe_12" data-name="&lt;Groupe&gt;" class="cls-1"><g id="_Groupe_13" data-name="&lt;Groupe&gt;"><polygon id="_Tracé_6" data-name="&lt;Tracé&gt;" class="cls-5" points="904.88 1062.13 904.88 1087.38 760.61 1170.81 760.61 1145.54 904.88 1062.13"/></g></g></g><path id="_Tracé_transparent_" data-name="&lt;Tracé transparent&gt;" class="cls-48" d="M733.71,1130l26.9,15.52,144.27-83.41L878,1046.61Zm26.83,9.65-16.24-9.37L877.91,1053l16.24,9.37Z"/><polygon id="_Tracé_7" data-name="&lt;Tracé&gt;" class="cls-49" points="877.91 1059.29 888.74 1065.54 760.54 1139.67 749.72 1133.42 877.91 1059.29"/></g><g id="_Groupe_14" data-name="&lt;Groupe&gt;"><polygon id="_Tracé_8" data-name="&lt;Tracé&gt;" class="cls-46" points="1107.42 926.4 973.81 1003.66 973.81 997.41 1107.42 920.15 1107.42 926.4"/><polygon id="_Tracé_9" data-name="&lt;Tracé&gt;" class="cls-47" points="1107.42 920.15 1107.42 926.4 1129.08 938.9 1129.08 932.65 1107.42 920.15"/><g id="_Groupe_15" data-name="&lt;Groupe&gt;"><g id="_Groupe_16" data-name="&lt;Groupe&gt;" class="cls-1"><g id="_Groupe_17" data-name="&lt;Groupe&gt;"><polygon id="_Tracé_10" data-name="&lt;Tracé&gt;" class="cls-12" points="963.22 997.13 963.22 1022.38 990.12 1037.93 990.12 1012.66 963.22 997.13"/></g></g></g><g id="_Groupe_18" data-name="&lt;Groupe&gt;"><g id="_Groupe_19" data-name="&lt;Groupe&gt;" class="cls-1"><g id="_Groupe_20" data-name="&lt;Groupe&gt;"><polygon id="_Tracé_11" data-name="&lt;Tracé&gt;" class="cls-5" points="1134.38 929.24 1134.38 954.49 990.12 1037.93 990.12 1012.66 1134.38 929.24"/></g></g></g><path id="_Tracé_transparent_2" data-name="&lt;Tracé transparent&gt;" class="cls-48" d="M963.22,997.13l26.9,15.53,144.26-83.42-26.91-15.52Zm26.83,9.66-16.24-9.38,133.61-77.26,16.24,9.37Z"/><polygon id="_Tracé_12" data-name="&lt;Tracé&gt;" class="cls-49" points="1107.42 926.4 1118.25 932.65 990.05 1006.79 979.23 1000.53 1107.42 926.4"/></g><g id="_Groupe_21" data-name="&lt;Groupe&gt;"><polygon id="_Tracé_13" data-name="&lt;Tracé&gt;" class="cls-46" points="1336.93 793.51 1203.32 870.77 1203.32 864.52 1336.93 787.26 1336.93 793.51"/><polygon id="_Tracé_14" data-name="&lt;Tracé&gt;" class="cls-47" points="1336.93 787.26 1336.93 793.51 1358.59 806.01 1358.59 799.76 1336.93 787.26"/><g id="_Groupe_22" data-name="&lt;Groupe&gt;"><g id="_Groupe_23" data-name="&lt;Groupe&gt;" class="cls-1"><g id="_Groupe_24" data-name="&lt;Groupe&gt;"><polygon id="_Tracé_15" data-name="&lt;Tracé&gt;" class="cls-12" points="1192.73 864.24 1192.73 889.49 1219.63 905.04 1219.63 879.77 1192.73 864.24"/></g></g></g><g id="_Groupe_25" data-name="&lt;Groupe&gt;"><g id="_Groupe_26" data-name="&lt;Groupe&gt;" class="cls-1"><g id="_Groupe_27" data-name="&lt;Groupe&gt;"><polygon id="_Tracé_16" data-name="&lt;Tracé&gt;" class="cls-5" points="1363.89 796.36 1363.89 821.6 1219.63 905.04 1219.63 879.77 1363.89 796.36"/></g></g></g><path id="_Tracé_transparent_3" data-name="&lt;Tracé transparent&gt;" class="cls-48" d="M1192.73,864.24l26.9,15.53,144.26-83.42L1337,780.84Zm26.83,9.65-16.24-9.37,133.61-77.26,16.24,9.38Z"/><polygon id="_Tracé_17" data-name="&lt;Tracé&gt;" class="cls-49" points="1336.93 793.51 1347.76 799.76 1219.56 873.89 1208.73 867.64 1336.93 793.51"/></g></g></g></g></svg>