<svg xmlns="http://www.w3.org/2000/svg" viewBox="0 0 1125.25 808"><defs><style>.cls-1{fill:#5b8e17;}.cls-1,.cls-10,.cls-11,.cls-12,.cls-13,.cls-14,.cls-15,.cls-16,.cls-17,.cls-18,.cls-19,.cls-2,.cls-20,.cls-21,.cls-22,.cls-23,.cls-24,.cls-25,.cls-26,.cls-27,.cls-28,.cls-29,.cls-3,.cls-31,.cls-32,.cls-33,.cls-35,.cls-36,.cls-37,.cls-38,.cls-39,.cls-4,.cls-40,.cls-41,.cls-42,.cls-43,.cls-44,.cls-46,.cls-48,.cls-49,.cls-5,.cls-50,.cls-51,.cls-52,.cls-53,.cls-54,.cls-55,.cls-56,.cls-57,.cls-58,.cls-59,.cls-6,.cls-60,.cls-61,.cls-62,.cls-63,.cls-64,.cls-65,.cls-66,.cls-67,.cls-68,.cls-69,.cls-7,.cls-70,.cls-71,.cls-72,.cls-73,.cls-74,.cls-75,.cls-76,.cls-77,.cls-78,.cls-79,.cls-8,.cls-80,.cls-81,.cls-82,.cls-83,.cls-84,.cls-85,.cls-86,.cls-87,.cls-88,.cls-89,.cls-9,.cls-90{fill-rule:evenodd;}.cls-2{fill:#9ace50;}.cls-3{fill:#7cb228;}.cls-4{fill:#ffc99c;}.cls-5{fill:#f5ae85;}.cls-6{fill:#6f9f20;}.cls-7{opacity:0.1;}.cls-8{fill:#d3d3d3;}.cls-47,.cls-9{fill:#e6e6e6;}.cls-10{fill:#ffd3ba;}.cls-11{fill:#f35042;}.cls-12{fill:#ffb083;}.cls-13{fill:#ffbea7;}.cls-14{fill:#7ed2d2;}.cls-15{fill:#f2b28e;}.cls-16{fill:#f36a5b;}.cls-17{fill:#f14635;}.cls-18{fill:#d71813;}.cls-19{fill:#fce6cf;}.cls-20{fill:#ffc391;}.cls-21{fill:#dd4b3e;}.cls-22{fill:#d9453c;}.cls-23{fill:#c64139;}.cls-24{fill:#c4483b;}.cls-25{fill:#b8b8b8;}.cls-26{fill:#ccc;}.cls-27{fill:#ffb88f;}.cls-28{fill:#c3b1b6;}.cls-29{fill:#ffd0b3;}.cls-30{fill:#c6864b;}.cls-31{fill:#b3714a;}.cls-32{fill:#8a603a;}.cls-33,.cls-45{fill:#fff;}.cls-34{fill:#f25949;}.cls-35{fill:#e93b32;}.cls-36{fill:#da5042;}.cls-37{fill:#fbcfaa;}.cls-38{fill:#fafafa;}.cls-39{fill:#c1c1c1;}.cls-40{fill:#eee;}.cls-41{fill:#9a9a9a;}.cls-42{fill:#cacaca;}.cls-43{fill:#71a222;}.cls-44{fill:#ec9264;}.cls-46{fill:#eeb186;}.cls-48{fill:#ab681d;}.cls-49{fill:#d38124;}.cls-50{fill:#e78c25;}.cls-51{fill:#e9983b;}.cls-52{fill:#c27f35;}.cls-53{fill:#d07e21;}.cls-54{fill:#ff9600;}.cls-55{fill:#ffcf28;}.cls-56{fill:#bcc5ca;}.cls-57{fill:#acb4b8;}.cls-58{fill:#4d4d4d;}.cls-59{fill:#ed4740;}.cls-60{fill:#bb4d4d;}.cls-61{fill:#170200;}.cls-62{fill:#bdfdff;}.cls-63{fill:#99cdff;}.cls-64{fill:#835353;}.cls-65{fill:#edfdff;}.cls-66{fill:#30322f;}.cls-67{fill:#999;}.cls-68{fill:#9b3a50;}.cls-69{fill:#bf4763;}.cls-70{fill:#eb4f47;}.cls-71{fill:#f7ba14;}.cls-72{fill:#a78466;}.cls-73{fill:#e6b58c;}.cls-74{fill:#cfa37e;}.cls-75{fill:#ba9371;}.cls-76{fill:#ca673c;}.cls-77{fill:#db8e6f;}.cls-78{fill:#d17d5c;}.cls-79{fill:#92b931;}.cls-80{fill:#361c00;}.cls-81{fill:#6c3f1a;}.cls-82{fill:#425f0b;}.cls-83{fill:#79a800;}.cls-84{fill:#556f23;}.cls-85{fill:#86b11a;}.cls-86{fill:#5c8a33;}.cls-87{fill:#537c2e;}.cls-88{fill:#6c9647;}.cls-89{fill:#f57266;}.cls-90{fill:#f5f5f5;}</style></defs><title>illIsomatric Schoolhighschool</title><g id="Calque_2" data-name="Calque 2"><g id="Isomatric_School" data-name="Isomatric School"><g id="Grassland"><polygon class="cls-1" points="655.83 540.22 1116.05 274.74 1116.05 301.49 655.83 567.23 655.83 540.22"/><polygon class="cls-2" points="654.59 16.85 437.12 140.02 437.12 139.92 0 387.19 686.81 783.7 1124.13 531.21 898.63 402.18 1114.96 277.27 655.07 16.85 654.59 18.09 654.59 16.85"/><polygon class="cls-3" points="687.8 780.99 0.89 384.66 0.89 411.41 687.8 808 687.8 780.99"/><polygon class="cls-1" points="687.8 780.99 1125.25 528.68 1125.25 555.44 687.8 808 687.8 780.99"/></g><g id="Right_Wall" data-name="Right Wall"><polygon class="cls-4" points="317.98 318.76 517.5 203.5 514.06 201.52 314.48 316.73 317.98 318.76"/><polygon class="cls-5" points="317.96 341.15 517.5 225.95 517.5 203.5 317.96 318.7 317.96 341.15"/></g><path id="Berry_s_Shadow" data-name="Berry&apos;s Shadow" class="cls-6" d="M827.29,663.25c7.32-1.64,13.25,2,13.25,8s-5.93,12.33-13.25,14-13.25-1.94-13.25-8,5.92-12.33,13.25-14ZM976.86,538.61c7.32-1.65,13.25,1.94,13.25,8s-5.93,12.34-13.25,14-13.25-2-13.25-8,5.93-12.32,13.25-14Zm26.33,17.66c7.33-1.65,13.26,1.94,13.26,8s-5.93,12.34-13.26,14-13.25-1.94-13.25-8,5.93-12.34,13.25-14Zm-97.68,59.78c7.32-1.65,13.25,1.94,13.25,8s-5.93,12.32-13.25,14-13.25-1.94-13.25-8,5.93-12.34,13.25-14Zm-28-16c7.32-1.65,13.25,1.94,13.25,8s-5.93,12.35-13.25,14-13.25-1.94-13.25-8,5.93-12.34,13.25-14Zm-8,39.9c7.32-1.65,13.25,1.94,13.25,8s-5.93,12.32-13.25,14-13.25-1.94-13.25-8,5.93-12.33,13.25-14Zm-27.05-17.5c7.32-1.64,13.25,1.95,13.25,8s-5.93,12.35-13.25,14-13.25-2-13.25-8,5.92-12.32,13.25-14Zm-42.73,23.09c7.32-1.63,13.25,2,13.25,8s-5.93,12.32-13.25,14-13.26-1.94-13.26-8,5.93-12.34,13.26-14Z"/><path id="School_s_Shadow" data-name="School&apos;s Shadow" class="cls-7" d="M981.3,341.47l-7.41-1.27L972.2,237.79l19.63-34,66.87,38.61v51.75ZM728,178.14l-97.38-56.81,109.18-63,97.87,56.51Z"/><path id="Tree_s_Shadow" data-name="Tree&apos;s Shadow" class="cls-6" d="M742.78,70.11c4.41-2,9.23-2.11,10.7-.18s-.9,5.14-5.34,7.17-9.22,2.13-10.7.19.91-5.13,5.34-7.18Zm-231,535c4.43-2.05,9.22-2.13,10.72-.21s-.91,5.15-5.34,7.2-9.22,2.11-10.7.19.89-5.15,5.32-7.18Zm33.72,22.2c4.43-2,9.22-2.11,10.72-.19s-.91,5.15-5.34,7.17-9.22,2.14-10.7.2.89-5.13,5.32-7.18Zm-21.91,23.23c4.44-2,9.23-2.11,10.7-.19s-.91,5.15-5.32,7.18-9.22,2.13-10.72.19.91-5.13,5.34-7.18Zm35.73,21.15c4.43-2,9.22-2.13,10.72-.19s-.91,5.13-5.34,7.17-9.22,2.11-10.7.19.91-5.15,5.32-7.17ZM585,652.91c4.43-2,9.22-2.13,10.72-.21s-.91,5.15-5.34,7.19-9.22,2.11-10.7.19.91-5.14,5.32-7.17Zm12.68,44c4.43-2,9.22-2.13,10.72-.19s-.91,5.13-5.34,7.18-9.22,2.11-10.7.19.91-5.15,5.32-7.18Zm26.78-17.78c4.43-2,9.22-2.12,10.72-.19s-.91,5.15-5.34,7.17-9.22,2.13-10.7.19.91-5.13,5.32-7.17ZM474.24,256.53c4.43-2,9.22-2.11,10.7-.19s-.91,5.15-5.34,7.17-9.2,2.14-10.7.19.91-5.12,5.34-7.17Zm19.18,11.79c4.41-2,9.2-2.13,10.7-.2s-.91,5.14-5.34,7.19-9.22,2.11-10.7.19.91-5.15,5.34-7.18Zm-88.48-51.69c4.43-2,9.22-2.11,10.7-.19s-.89,5.15-5.32,7.17-9.22,2.13-10.7.19.89-5.13,5.32-7.17Zm-39.48,18.88c4.43-2,9.22-2.11,10.7-.19s-.89,5.15-5.32,7.18-9.22,2.13-10.7.19.89-5.13,5.32-7.18Zm-39.12,23.34c4.43-2.05,9.22-2.13,10.7-.21s-.89,5.15-5.32,7.19S322.5,268,321,266s.88-5.15,5.32-7.18Zm18.35-38.55c4.43-2,9.23-2.13,10.7-.19s-.88,5.15-5.31,7.17-9.23,2.13-10.7.19.88-5.15,5.31-7.17Zm79.12-40.73c4.43-2,9.21-2.11,10.69-.19s-.9,5.15-5.31,7.18-9.22,2.13-10.72.21.9-5.15,5.34-7.2Zm-39,17.6c4.41-2,9.22-2.13,10.7-.21s-.91,5.15-5.34,7.2-9.22,2.11-10.7.18.91-5.14,5.34-7.17Zm410.75,210c4.43-2.05,9.22-2.13,10.72-.19s-.91,5.13-5.34,7.17-9.22,2.11-10.7.19.91-5.15,5.32-7.17Zm-23.34,12.05c4.43-2.05,9.22-2.13,10.72-.21s-.91,5.15-5.34,7.19-9.22,2.11-10.7.19.91-5.15,5.32-7.17ZM715.63,51.57c4.43-2,9.22-2.11,10.69-.19s-.9,5.14-5.33,7.17-9.2,2.13-10.7.21.9-5.15,5.34-7.19Z"/><g id="Ceremony_Field" data-name="Ceremony Field"><polygon class="cls-8" points="775.85 171.26 897.67 241.59 790.83 303.27 669.33 233.13 775.85 171.26"/><polygon class="cls-9" points="777.16 182.59 878.07 240.85 789.57 291.94 688.95 233.84 777.16 182.59"/></g><polygon id="Shadow" class="cls-7" points="867.16 317.39 807.27 351.95 625.88 248.13 686.55 213.12 867.16 317.39"/><g id="School"><polygon class="cls-10" points="539.76 292.57 490.34 263.87 490.27 193.77 539.76 222.37 539.76 292.57"/><polygon class="cls-11" points="668.65 87.27 721.2 117.61 539.78 222.37 487.24 192.04 668.65 87.27"/><polygon class="cls-4" points="539.74 222.37 727.99 114.2 727.99 184.36 539.74 292.55 539.74 222.37"/><polygon class="cls-12" points="539.74 222.37 727.99 114.2 727.99 134.26 539.74 242.94 539.74 222.37"/><polygon class="cls-10" points="961.88 252.42 759.64 135.57 759.64 82.02 961.88 198.82 961.88 252.42"/><polygon class="cls-13" points="759.64 114.94 759.64 83.7 762.18 83.49 943.87 188.39 943.87 221.29 759.64 114.94"/><path class="cls-14" d="M900.75,191.43V205.8l-11.31-6.52V184.91Zm17.35,10v14.39l-11.31-6.52V194.91Z"/><polygon class="cls-11" points="808.41 53.82 1010.65 170.6 961.87 198.77 759.64 82.02 808.41 53.82"/><polygon class="cls-15" points="957.07 201.54 1010.67 170.62 1010.67 240.79 957.07 271.72 957.07 201.54"/><polygon class="cls-16" points="487.22 189.19 515.41 188.12 539.76 219.56 487.22 189.19"/><polygon class="cls-17" points="515.41 188.12 710.2 75.64 734.58 107.11 539.76 219.56 515.41 188.12"/><polygon class="cls-18" points="487.22 189.19 678.72 78.68 710.2 75.64 515.41 188.12 487.22 189.19"/><polygon class="cls-19" points="533.62 218.8 533.62 295.42 537.95 297.93 537.95 221.33 533.62 218.8"/><polygon class="cls-10" points="757.26 418.21 539.8 292.49 539.8 222.3 757.26 348.01 757.26 418.21"/><polygon class="cls-20" points="542.29 295.42 537.95 297.93 537.95 221.33 542.29 223.84 542.29 295.42"/><polygon class="cls-21" points="539.76 225.3 487.22 194.95 487.22 189.19 539.76 219.58 539.76 225.3"/><polygon class="cls-21" points="515.41 188.12 515.41 190.31 536.96 217.98 539.76 219.58 515.41 188.12"/><polygon class="cls-22" points="1020.42 169.69 986.2 164.59 947.49 210.38 1020.42 169.69"/><polygon class="cls-21" points="515.41 188.12 515.41 190.31 490.53 191.11 487.22 189.19 515.41 188.12"/><polygon class="cls-17" points="986.2 164.59 784 47.83 745.27 93.62 947.49 210.38 986.2 164.59"/><polygon class="cls-23" points="1020.36 169.69 822.06 55.15 784 47.83 986.2 164.59 1020.36 169.69"/><polygon class="cls-21" points="745.27 93.62 745.27 96.6 947.49 213.14 947.49 210.38 745.27 93.62"/><polygon class="cls-24" points="947.49 213.14 1020.38 172.56 1020.38 169.69 947.51 210.4 947.49 213.14"/><polygon class="cls-24" points="985.86 164.4 985.82 166.89 1017.17 171.57 1020.44 169.72 985.86 164.4"/><polygon class="cls-10" points="849.48 417.62 796.11 386.64 796.07 266.15 849.48 297 849.48 417.62"/><polygon class="cls-25" points="751.04 140.53 751.04 142.56 886.21 220.68 886.21 218.46 751.04 140.53"/><polygon class="cls-26" points="751.04 140.53 759.64 135.57 894.7 213.57 886.21 218.46 751.04 140.53"/><polygon class="cls-24" points="734.58 107.11 734.58 113.04 539.76 225.3 539.76 219.56 734.58 107.11"/><polygon class="cls-27" points="849.46 297 981.3 220.91 981.3 341.46 849.46 417.58 849.46 297"/><polygon class="cls-28" points="626.05 343.53 626.05 348.62 677.24 378.18 677.24 373.16 626.05 343.53"/><polygon class="cls-29" points="682.24 376.2 626.98 344.12 627.67 273.05 682.96 305.11 682.24 376.2"/><polygon class="cls-26" points="727.99 178.14 736.6 183.12 646.18 235.32 637.7 230.41 727.99 178.14"/><polygon class="cls-25" points="736.6 183.12 736.6 184.95 646.18 238.28 646.18 235.32 736.6 183.12"/><polygon class="cls-11" points="587.56 197.74 539.76 225.3 632.8 279.09 680.98 251.66 587.56 197.74"/><polygon class="cls-27" points="757.24 352.75 804.82 325.3 804.82 390.71 757.24 418.17 757.24 352.75"/><polygon class="cls-22" points="654.24 274.59 710.6 242.01 738.84 278.46 682.43 311.01 654.24 274.59"/><polygon class="cls-19" points="682.43 311.01 682.43 381.22 677.13 377.99 677.26 308.02 682.43 311.01"/><polygon class="cls-20" points="687.88 378.08 687.88 307.89 682.43 311.01 682.43 381.22 687.88 378.08"/><polygon class="cls-19" points="621.7 275.84 621.7 346.13 626.05 348.62 626.05 278.37 621.7 275.84"/><polygon class="cls-20" points="630.37 346.11 626.05 348.62 626.05 278.37 630.37 280.88 630.37 346.11"/><path class="cls-30" d="M657.43,303.78a11.91,11.91,0,0,0-4.58-3.89l-2.26,1.23L649,304.87c.23,1.29.14.72-.07,4.08a12.19,12.19,0,0,0,4.67,3.88,3.8,3.8,0,0,0,3.82-.28A4.46,4.46,0,0,0,659,308.8a9.49,9.49,0,0,0-1.58-5Z"/><path class="cls-14" d="M743.16,353v10l-8.67-5V348Zm-35.47,19.64v10l-8.67-5v-10Zm0-20.07v10l-8.67-5v-10Zm0-20.06v10l-8.67-5v-10ZM725,382.65v10l-8.68-5v-10Zm0-20v10l-8.68-5v-10Zm0-20.07v10l-8.68-5v-10Zm18.12,50.6v10l-8.67-5v-10Zm0-20.07v10l-8.67-5v-10Z"/><path class="cls-14" d="M595.7,308v10L587,313V303Zm0-20.07v10L587,293v-10Zm0-20.07v10l-8.67-5v-10ZM613.07,318v10l-8.69-5V313Zm0-20.07v10l-8.69-5V293Zm0-20.06v10l-8.69-5v-10Z"/><polygon class="cls-24" points="738.84 278.46 738.84 281.89 682.43 314.22 682.43 311.01 738.84 278.46"/><path class="cls-31" d="M672.39,370.48V345.31c.9-18.89-36.57-46.15-38.39-22.48V348.3Z"/><path class="cls-32" d="M672.39,370.48V345.31c.23-4.84-2.07-10.24-5.64-15.2l-32.11,18.57Z"/><path class="cls-33" d="M656.2,303.55c-1.9-2.94-5-4.2-6.88-2.79s-1.9,5,0,7.89,5,4.22,6.88,2.81,1.9-5,0-7.91Z"/><path class="cls-34" d="M656.58,303.27a9.49,9.49,0,0,1,1.58,5,4.48,4.48,0,0,1-1.58,3.74,3.77,3.77,0,0,1-3.82.27,8.73,8.73,0,0,1-3.82-3.37,9.59,9.59,0,0,1-1.58-5.05,4.57,4.57,0,0,1,1.58-3.75,3.82,3.82,0,0,1,3.82-.26,8.49,8.49,0,0,1,3.82,3.38Zm-3.82-2.11a3,3,0,0,0-3,.21,3.57,3.57,0,0,0-1.26,3,7.63,7.63,0,0,0,1.26,4,6.93,6.93,0,0,0,3,2.68,3,3,0,0,0,3.06-.21,3.54,3.54,0,0,0,1.25-3,7.67,7.67,0,0,0-1.25-4,6.8,6.8,0,0,0-3.06-2.68Z"/><path class="cls-14" d="M559.28,287v10l-8.69-5V282Zm0-20.07v10l-8.69-5v-10Zm0-20.07v10l-8.69-5v-10ZM576.63,297v10L568,302V292Zm0-20.07v10l-8.67-5v-10Zm0-20.06v10l-8.67-5v-10Z"/><polygon class="cls-21" points="539.74 225.3 539.74 228.49 632.8 282.21 632.8 279.09 539.74 225.3"/><polygon class="cls-21" points="687.88 311.08 687.88 314.26 757.22 354.32 757.22 351.19 687.88 311.08"/><polygon class="cls-24" points="804.82 323.17 804.82 326.27 757.22 354.32 757.22 351.19 804.82 323.17"/><polygon class="cls-16" points="621.7 275.88 654.24 274.59 682.43 311.01 621.7 275.88"/><polygon class="cls-21" points="682.43 314.22 621.49 279.02 621.74 275.88 682.43 311.04 682.43 314.22"/><polygon class="cls-21" points="654.24 274.59 654.24 277.13 679.18 309.16 682.43 311.04 654.24 274.59"/><polygon class="cls-21" points="654.24 274.59 654.24 277.13 625.46 278.03 621.68 275.88 654.24 274.59"/><polygon class="cls-35" points="621.76 275.88 674.18 245.56 710.6 242.01 654.24 274.59 621.76 275.88"/><polygon class="cls-11" points="736.07 283.48 804.82 323.17 757.22 351.19 687.83 311.1 736.07 283.48"/><polygon class="cls-24" points="981.28 228.55 981.26 220.91 849.43 297 849.43 304.64 981.28 228.55"/><polygon class="cls-21" points="796.05 273.85 796.09 266.21 849.43 297 849.43 304.64 796.05 273.85"/><path class="cls-14" d="M922.42,277.61v10l8.68-5v-10Zm35.48-.4v10l8.67-5v-10Zm0-20.07v10l8.67-5v-10Zm-17.35,30.07v10l8.67-5v-10Zm0-20.07v10l8.67-5v-10Zm-18.13,30.54v10l8.68-5v-10Z"/><path class="cls-14" d="M867.88,309.12v10l8.67-5v-10Zm35.47-.43v10l8.69-5v-10Zm0-20.06v10l8.69-5v-10ZM886,318.7v10l8.68-5v-10Zm0-20.05v10l8.68-5v-10Zm-18.12,30.53v10l8.67-5v-10Z"/><polygon class="cls-36" points="985.86 164.4 985.84 166.91 950.58 208.63 947.49 210.38 985.86 164.4"/><polygon class="cls-19" points="816.58 137.7 816.58 178.31 818.6 179.47 818.6 138.87 816.58 137.7"/><polygon class="cls-20" points="820.61 178.31 818.6 179.47 818.6 138.87 820.61 140.05 820.61 178.31"/><polygon class="cls-19" points="874.25 171 874.25 211.6 876.27 212.78 876.27 172.19 874.25 171"/><polygon class="cls-20" points="878.3 211.6 876.27 212.78 876.27 172.19 878.3 173.34 878.3 211.6"/><polygon class="cls-19" points="767.07 109.11 767.07 149.73 769.1 150.89 769.1 110.29 767.07 109.11"/><polygon class="cls-20" points="771.1 149.73 769.1 150.89 769.1 110.29 771.1 111.45 771.1 149.73"/><path class="cls-14" d="M789.17,127V141.4l-11.29-6.52V120.49Zm17.36,10V151.4l-11.31-6.52V130.51Z"/><path class="cls-14" d="M843.86,158.57V173l-11.29-6.52v-14.4Zm17.35,10V183l-11.29-6.52V162.08Z"/><polygon class="cls-19" points="708.71 127.95 708.71 196.9 710.73 198.06 710.73 126.8 708.71 127.95"/><polygon class="cls-37" points="713.87 196.22 710.73 198.04 710.73 126.8 713.87 124.98 713.87 196.22"/><polygon class="cls-19" points="665 153.19 665 222.13 667.01 223.29 667.01 152.03 665 153.19"/><polygon class="cls-37" points="670.17 221.46 667.01 223.27 667.01 152.03 670.17 150.22 670.17 221.46"/><path class="cls-14" d="M691,147.52v25.72l11.29-6.52V141ZM674.71,157v25.72L686,176.15V150.43Z"/><path class="cls-14" d="M643.5,175v25.72l11.29-6.52V168.43Zm-16.33,9.41v25.75l11.29-6.52V177.86Z"/><polygon class="cls-38" points="605.64 339.23 605.64 331.61 566.01 308.74 566.01 316.33 605.64 339.23"/><path class="cls-39" d="M605.64,342.81,607,342V330.87l-1.31.87v11.07Z"/><polygon class="cls-40" points="566.01 308.74 567.24 308.02 606.95 330.87 605.64 331.74 566.01 308.74"/><polygon class="cls-41" points="605.64 338.66 605.64 342.81 604.34 342.01 604.34 337.86 605.64 338.66"/><polygon class="cls-42" points="599.06 342.88 599.06 346.68 600.37 345.88 600.37 342.08 599.06 342.88"/><polygon class="cls-38" points="599.06 342.88 599.06 346.68 597.75 345.88 597.75 342.08 599.06 342.88"/><polygon class="cls-42" points="599.06 343.02 605.64 339.23 605.64 337.73 599.06 341.53 599.06 343.02"/><polygon class="cls-42" points="561.41 321.14 561.41 324.94 562.72 324.14 562.72 320.34 561.41 321.14"/><polygon class="cls-38" points="561.41 321.14 561.41 324.94 560.1 324.14 560.1 320.34 561.41 321.14"/><polygon class="cls-38" points="599.06 343.02 559.45 320.17 559.45 318.68 599.06 341.53 599.06 343.02"/><polygon class="cls-40" points="559.45 318.68 566.01 314.9 605.64 337.73 599.06 341.53 559.45 318.68"/><polygon class="cls-38" points="549.87 307.03 549.87 299.41 510.24 276.53 510.24 284.13 549.87 307.03"/><path class="cls-39" d="M549.87,310.61l1.29-.8V298.67l-1.31.87c0,3.69,0,7.38,0,11.07Z"/><polygon class="cls-40" points="510.24 276.53 511.46 275.82 551.16 298.67 549.85 299.54 510.24 276.53"/><polygon class="cls-41" points="549.87 306.46 549.87 310.61 548.56 309.81 548.56 305.66 549.87 306.46"/><polygon class="cls-42" points="543.28 310.68 543.28 314.48 544.57 313.67 544.57 309.88 543.28 310.68"/><polygon class="cls-38" points="543.28 310.68 543.28 314.48 541.98 313.67 541.98 309.88 543.28 310.68"/><polygon class="cls-42" points="543.28 310.82 549.87 307.03 549.85 305.53 543.28 309.33 543.28 310.82"/><polygon class="cls-42" points="505.64 288.94 505.64 292.74 506.93 291.94 506.93 288.14 505.64 288.94"/><polygon class="cls-38" points="505.64 288.94 505.64 292.74 504.33 291.94 504.33 288.14 505.64 288.94"/><polygon class="cls-38" points="543.28 310.82 503.68 287.97 503.68 286.47 543.28 309.33 543.28 310.82"/><polygon class="cls-40" points="503.68 286.47 510.24 282.7 549.85 305.53 543.28 309.33 503.68 286.47"/><polygon class="cls-11" points="927.87 190.02 981.28 220.87 849.46 296.98 796.07 266.15 927.87 190.02"/></g><g id="Basketball_Field" data-name="Basketball Field"><polygon class="cls-43" points="565.53 354.63 541.32 368.62 544.47 369.47 568.46 355.62 565.53 354.63"/><polygon class="cls-44" points="470.86 289.43 575 349.55 505.53 389.66 401.44 329.56 470.86 289.43"/><path class="cls-45" d="M401.88,329.56l103.65,59.85,69.05-39.86L470.86,289.68Zm173.57,20-.34.19-69.47,40.11-.11.07-.1-.07-104.1-60.12-.34-.17.34-.19,69.43-40.13.1-.07.11.07,104.14,60.11Z"/><path class="cls-46" d="M563.84,356l-45.6,26.32c-12.81-3.67-21.61-11.55-21.13-20.2.62-11.33,16.84-19.71,36.22-18.74,13.52.68,25,5.76,30.51,12.62Z"/><path class="cls-45" d="M563.33,355.9a31.1,31.1,0,0,0-12.13-8.34,54.72,54.72,0,0,0-17.9-3.86c-9.62-.48-18.46,1.37-25,4.73s-10.59,8.17-10.91,13.72c-.21,4.15,1.75,8.14,5.32,11.56A37.63,37.63,0,0,0,518.21,382l45.12-26.06Zm-45.05,26.78-.13-.05c-6.56-1.87-12.07-4.85-15.85-8.46s-5.76-7.7-5.5-12.07c.31-5.78,4.58-10.8,11.22-14.24s15.58-5.3,25.31-4.79A54.73,54.73,0,0,1,551.45,347a31.77,31.77,0,0,1,12.64,8.84l.24.3-.32.19-45.6,26.31Z"/><polygon class="cls-47" points="565.53 354.63 541.32 368.62 542.19 368.85 566.35 354.91 565.53 354.63"/><path class="cls-46" d="M411.59,323.7l48.91-28.28c7.28,4.16,11.71,10,11.38,16.25-.62,11.39-16.93,19.83-36.43,18.84-9.37-.46-17.74-3-23.86-6.81Z"/><path class="cls-45" d="M412.22,323.7a44.05,44.05,0,0,0,10.4,4.41,57.92,57.92,0,0,0,12.85,2.08c9.69.49,18.58-1.37,25.12-4.74s10.65-8.23,11-13.8a13.6,13.6,0,0,0-2.66-8.55,26,26,0,0,0-8.4-7.3l-48.28,27.9ZM460.48,295l.17.08a27.3,27.3,0,0,1,8.78,7.6,14.24,14.24,0,0,1,2.78,8.95c-.33,5.82-4.62,10.89-11.33,14.35s-15.63,5.32-25.45,4.83a58.2,58.2,0,0,1-13-2.11,45.37,45.37,0,0,1-11-4.77l-.47-.29.49-.28,48.91-28.28Z"/><path class="cls-45" d="M468.2,335.64a5.84,5.84,0,0,1-.08-1.31,6.21,6.21,0,0,1,2.68-4.64,15,15,0,0,1,6.5-2.64,26.29,26.29,0,0,1,5.72-.31,27.43,27.43,0,0,1,12.05,3.33c3.29,1.88,5.57,4.39,6.05,7.05a5.29,5.29,0,0,1,.09,1.31,6.29,6.29,0,0,1-2.68,4.64,15.18,15.18,0,0,1-6.5,2.64,25.16,25.16,0,0,1-5.72.31,27.39,27.39,0,0,1-12.05-3.33c-3.31-1.88-5.59-4.39-6.06-7.05Zm6.38,6.48a26.93,26.93,0,0,0,11.75,3.27,24.5,24.5,0,0,0,5.59-.34,14.25,14.25,0,0,0,6.21-2.49,5.67,5.67,0,0,0,2.42-4.18,4.93,4.93,0,0,0-.06-1.14c-.44-2.47-2.62-4.81-5.74-6.6A26.77,26.77,0,0,0,483,327.39a23.43,23.43,0,0,0-5.59.32,14.37,14.37,0,0,0-6.21,2.48,5.65,5.65,0,0,0-2.43,4.19,4.87,4.87,0,0,0,.07,1.13c.44,2.49,2.61,4.84,5.74,6.61Z"/><polygon class="cls-43" points="442.16 306.29 466.37 292.3 463.23 291.45 439.23 305.3 442.16 306.29"/><polygon class="cls-47" points="442.16 306.29 466.37 292.3 465.5 292.07 441.34 306.01 442.16 306.29"/><polygon class="cls-48" points="444.84 304.45 444.84 264.25 440.5 266.76 440.5 306.96 444.84 304.45"/><polygon class="cls-49" points="548.75 346 548.75 331.36 534.34 339.67 534.34 354.23 548.75 346"/><polygon class="cls-50" points="548.75 331.36 547.04 330.36 532.54 338.64 534.55 339.71 548.75 331.36"/><polygon class="cls-51" points="532.54 338.64 532.54 353.2 534.34 354.23 534.34 339.67 532.54 338.64"/><polygon class="cls-52" points="440.5 266.76 438.81 265.79 438.81 306.18 440.5 306.96 440.5 266.76"/><polygon class="cls-53" points="444.84 264.25 443.13 263.28 438.81 265.77 440.5 266.76 444.84 264.25"/><polygon class="cls-49" points="450.44 280.52 450.44 265.88 436.02 274.19 436.02 288.75 450.44 280.52"/><polygon class="cls-50" points="450.44 265.88 448.73 264.91 434.25 273.16 436.23 274.23 450.44 265.88"/><polygon class="cls-51" points="434.25 273.16 434.25 287.72 436.02 288.75 436.02 274.19 434.25 273.16"/><path class="cls-45" d="M449.32,280.82c-.13.59-.28,1.18-.43,1.77a8.63,8.63,0,0,0,1.29-.74,6.87,6.87,0,0,0,.68-.48,14.15,14.15,0,0,0,.48-1.69.26.26,0,0,1,.05-.09,5.3,5.3,0,0,0-.43-.38s0,0-.06,0a2.72,2.72,0,0,0,0-.42l.21.15a3.81,3.81,0,0,1,.57.48,4.26,4.26,0,0,1-.1.49c-.09.4-.21.78-.34,1.18l-.19.51c-.17.38-.32.76-.49,1.14-.06.16-.14.33-.21.5-.19.42-.36.85-.52,1.27-.07.17-.13.34-.19.51s-.13.37-.19.56c-.13.41-.26.83-.36,1.25,0,.1-.09.19-.13.19s-.06-.09,0-.19c.13-.51.25-1,.42-1.52-.13.13-.23.23-.36.34a7,7,0,0,1-1,.82c-.06.53-.13,1.06-.17,1.61,0,.08-.06.16-.11.16s-.06-.08-.06-.16c0-.51.09-1,.15-1.48a3.81,3.81,0,0,1-1,.5c0,.55,0,1.08,0,1.63,0,.1,0,.19-.08.19s-.08-.09-.08-.19c0-.53,0-1.06,0-1.56a3.35,3.35,0,0,1-.47.06,1,1,0,0,1-.23,0h0a1.14,1.14,0,0,1-.27,0c0,.51,0,1,0,1.5,0,.1,0,.19-.09.19s-.08-.09-.08-.19c0-.51,0-1,0-1.52a3.21,3.21,0,0,1-1-.36c0,.4.08.8.1,1.23,0,.08,0,.16-.06.16s-.09-.08-.11-.16a11.74,11.74,0,0,0-.13-1.33,5.78,5.78,0,0,1-.92-.72c-.11-.11-.24-.21-.34-.32.08.3.17.59.23.91,0,.1,0,.19,0,.19s-.11-.09-.13-.19l-.17-.61a5.71,5.71,0,0,0-.19-.59,3.39,3.39,0,0,0-.17-.51c-.14-.42-.31-.84-.5-1.27-.07-.16-.13-.33-.19-.5-.17-.38-.34-.76-.49-1.16-.06-.15-.12-.32-.19-.49s-.21-.59-.29-.89a2.63,2.63,0,0,1-.15-.52,6.78,6.78,0,0,1-.15-.68.15.15,0,0,1,.13-.19.23.23,0,0,1,.19.19c0,.13,0,.26.06.36s.06.34.11.49,0,0,0,.06c.15.51.31,1,.49,1.5a6.58,6.58,0,0,0,.67.46,7.69,7.69,0,0,0,1.2.63c-.17-.67-.34-1.35-.49-2,0-.11.05-.19.13-.19s.15.08.17.19c.15.74.3,1.45.47,2.17a5.9,5.9,0,0,0,1.47.38c-.06-.63-.1-1.27-.17-1.88,0-.1.07-.19.13-.19s.15.09.17.19c0,.64.08,1.27.13,1.9h.74c.2,0,.42,0,.63-.08.06-.61.1-1.21.15-1.82,0-.1.06-.19.14-.19s.13.09.13.19c-.06.59-.1,1.18-.17,1.78a8.3,8.3,0,0,0,1.52-.53c.15-.64.29-1.27.42-1.92a.22.22,0,0,1,.19-.19c.09,0,.13.08.11.19Zm1.37,1c-.15.11-.32.21-.46.32a11.54,11.54,0,0,1-1.44.82c-.11.42-.21.84-.32,1.25a12.24,12.24,0,0,0,1.14-.74c.22-.15.4-.32.62-.47.14-.4.31-.8.46-1.18ZM450,283.5c-.14.1-.27.21-.42.31a8.65,8.65,0,0,1-1.24.83c-.11.46-.19.93-.28,1.39a7.73,7.73,0,0,0,.93-.74q.25-.23.51-.48c.17-.45.34-.87.5-1.31Zm-9.56-5.13h.34v.06a2.54,2.54,0,0,0-.29.36c0-.15,0-.29,0-.42Zm2.39,6.84c.17.17.34.31.51.46a5.11,5.11,0,0,0,.84.63c-.08-.46-.17-.92-.25-1.39a8.66,8.66,0,0,1-1.14-.69,3.66,3.66,0,0,1-.42-.34c.17.44.31.88.46,1.33Zm-.65-1.8a6.24,6.24,0,0,0,.61.47,10.89,10.89,0,0,0,1,.65c-.08-.42-.19-.84-.29-1.26a10,10,0,0,1-1.33-.7l-.49-.34c.17.4.32.78.47,1.18Zm6.31-.27a10.37,10.37,0,0,1-1.48.51c0,.42-.06.84-.11,1.26a5.67,5.67,0,0,0,1.29-.53c.11-.42.19-.84.3-1.24Zm-1.71.55c-.21,0-.41.06-.61.08h-.36a2.11,2.11,0,0,1-.36,0q0,.66.06,1.29h.63a3.5,3.5,0,0,0,.55-.09c0-.42.06-.84.09-1.26Zm-1.56,0a4.57,4.57,0,0,1-1.42-.36c.09.42.17.85.28,1.27a4.67,4.67,0,0,0,1.24.38c0-.43-.08-.85-.1-1.29Zm2.89,1.06a7.76,7.76,0,0,1-1.25.5c0,.46-.06.93-.08,1.39a4,4,0,0,0,1.07-.5c.09-.47.17-.93.26-1.39Zm-1.44.54a3.26,3.26,0,0,1-.53.09h-.61c0,.46,0,.93.07,1.39a1.32,1.32,0,0,0,.27,0h.25a3.29,3.29,0,0,0,.47-.08c0-.49.06-.95.08-1.42Zm-1.33.05a3.92,3.92,0,0,1-1.2-.36c.08.46.17.93.23,1.41a3.25,3.25,0,0,0,1.06.36c0-.47-.07-.93-.09-1.41Z"/><path class="cls-54" d="M446.11,274.53c3.27-.17,5.91,1.5,5.91,3.71s-2.64,4.12-5.91,4.27-5.89-1.5-5.89-3.72,2.64-4.11,5.89-4.26Zm0,.25c2.66-.1,4.79,1.21,4.79,2.92s-2.13,3.2-4.79,3.31-4.77-1.2-4.77-2.94,2.13-3.18,4.77-3.29Z"/><polygon class="cls-48" points="544.45 369.53 544.45 329.33 540.12 331.84 540.12 372.02 544.45 369.53"/><polygon class="cls-52" points="540.12 331.84 538.43 330.85 538.43 371.26 540.12 372.02 540.12 331.84"/><polygon class="cls-53" points="544.45 329.33 542.76 328.36 538.41 330.85 540.12 331.82 544.45 329.33"/><path class="cls-45" d="M449.21,274.85l.34.12v.13l.13-.06a1.9,1.9,0,0,1,.4.21l-.53.25v1.25a10.34,10.34,0,0,0,1.31-.74.33.33,0,0,1,.13-.11c.1.09.16.17.25.25-.07.07-.15.11-.21.17a8.1,8.1,0,0,1-1.48.83v1.37a7.63,7.63,0,0,0,1.31-.74c.21-.15.4-.3.59-.46v-.89a2,2,0,0,1,.32,1.07h0a1.27,1.27,0,0,1,0,.28h0V278l-.32-.25-.42.32a8.08,8.08,0,0,1-1.48.82v1.6a.17.17,0,1,1-.34,0v-1.45a10.17,10.17,0,0,1-1.88.5v1.63a.17.17,0,1,1-.33,0v-1.58c-.28,0-.57.06-.87.08h-1v1.5a.17.17,0,0,1-.15.17.17.17,0,0,1-.17-.17v-1.52a8.76,8.76,0,0,1-1.9-.38v1.22a.17.17,0,0,1-.17.19c-.08,0-.14-.08-.14-.19v-1.33a7.3,7.3,0,0,1-1.46-.69c-.15-.11-.3-.22-.44-.34l-.34-.27v-.11h.36a.07.07,0,0,0,0-.06c.19.14.4.31.61.44a6.76,6.76,0,0,0,1.29.65v-1.39a6.85,6.85,0,0,1-1.46-.72l-.19-.12a1.08,1.08,0,0,1,.19-.32l.17.13a5.73,5.73,0,0,0,1.29.63v-1.27a2.44,2.44,0,0,1-.64-.25l.36-.23.28.1v-.23c.1-.06.21-.1.31-.17v.51a8.76,8.76,0,0,0,1.9.38v-1.39a1.19,1.19,0,0,1,.32-.05v1.46a4.88,4.88,0,0,0,.53,0h0a3.7,3.7,0,0,0,.48,0c.29,0,.59,0,.89-.06v-1.44a2.11,2.11,0,0,1,.33,0v1.33a8.52,8.52,0,0,0,1.88-.52v-.38Zm0,.78a8.81,8.81,0,0,1-1.88.5v1.27a9.11,9.11,0,0,0,1.88-.53v-1.24Zm-2.21.55c-.28,0-.57.06-.87.08l-.5,0h0l-.53,0v1.27a4.88,4.88,0,0,0,.53,0h0a3.7,3.7,0,0,0,.48,0c.29,0,.59,0,.89-.07v-1.28Zm-2.22.06a10.15,10.15,0,0,1-1.9-.36v1.25a8.76,8.76,0,0,0,1.9.37v-1.26Zm4.43,1a9.45,9.45,0,0,1-1.88.51v1.41a9.11,9.11,0,0,0,1.88-.53v-1.39Zm-2.21.55q-.42.06-.87.09l-.5,0h0l-.53,0v1.41l.53,0h0l.48,0c.29,0,.59,0,.89-.09v-1.41Zm-2.22.07a11,11,0,0,1-1.9-.36v1.39a9.4,9.4,0,0,0,1.9.38v-1.41Z"/><path class="cls-55" d="M446.11,273.9c3.27-.15,5.91,1.5,5.91,3.71s-2.64,4.12-5.91,4.26-5.89-1.5-5.89-3.69,2.64-4.14,5.89-4.28Zm0,.88c2.66-.1,4.79,1.21,4.79,2.92s-2.13,3.2-4.79,3.31-4.77-1.2-4.77-2.94,2.13-3.18,4.77-3.29Z"/></g><g id="Floor"><polygon class="cls-56" points="302.53 455.54 249.78 486 350.94 544.38 403.63 513.96 302.53 455.54"/><polygon class="cls-57" points="304.47 464.47 385.11 511.02 350.86 531.15 269.8 484.35 304.47 464.47"/></g><g id="Road"><polygon class="cls-56" points="650.08 543.1 189.23 278.27 75.58 342.61 533.31 606.88 533.16 606.98 653.94 676.79 1018.55 467.34 900.4 399.12 650.08 543.1"/><polygon class="cls-58" points="648.92 562.34 171.8 288.12 94.83 331.7 576.42 609.75 576.42 609.73 648.7 651.47 993.08 452.63 916.9 408.67 648.92 562.34"/><path class="cls-33" d="M894.28,464.39l-2.09-1.18,13.75-7.94,2.09,1.19Zm-493-1.59,2.07-1.2-13.76-7.94-2.06,1.21Zm156,90.07,2.06-1.21-13.75-7.94-2.07,1.21Zm77.57,44.79,2.09-1.21-13.76-7.93-2.09,1.21ZM609.24,582.9l2.1-1.21-13.76-7.94L595.49,575ZM583.4,568l2.06-1.18-13.75-8L569.64,560ZM247,373.72l2.09-1.18-13.76-8-2.09,1.21Zm129.59,74.82,2.09-1.2-13.76-7.94-2.09,1.21Zm-25.85-14.93,2.09-1.19L339,424.49l-2.1,1.18Zm-26.15-15.09,2.09-1.19-13.75-8-2.1,1.21ZM299,403.75l2.06-1.21-13.75-7.93-2.07,1.21Zm-25.88-14.94,2.1-1.18-13.76-7.94-2.09,1.19ZM530.84,537.63l2.07-1.21-13.75-7.94-2.07,1.21ZM505,522.69l2.09-1.19-13.75-8-2.09,1.21ZM478.82,507.6l2.09-1.21-13.75-7.94-2.09,1.21Zm-25.57-14.77,2.09-1.2-13.76-7.94-2.08,1.21ZM427.4,477.89l2.07-1.18-13.76-8L413.65,470ZM220.92,358.71,223,357.5l-13.75-7.94-2.09,1.21Zm-25.57-14.77,2.09-1.2-13.76-7.94L181.6,336ZM169.5,329l2.07-1.2-13.76-7.94-2.06,1.21ZM738.28,554.46l-2.09-1.19L750,545.34l2.09,1.18Zm-77.57,44.79-2.09-1.19,13.76-8,2.09,1.21Zm25.58-14.76-2.1-1.19,13.76-8,2.09,1.21Zm25.84-14.92-2.06-1.21,13.75-7.93,2.07,1.18ZM919,450.13,916.9,449l13.76-8,2.09,1.21Zm-154.3,89.09L762.62,538l13.75-8,2.07,1.21Zm25.87-14.92-2.09-1.21,13.75-7.94,2.09,1.19Zm26.15-15.12L814.62,508l13.75-7.94,2.09,1.19Zm25.57-14.76-2.09-1.18,13.75-8,2.1,1.21Zm25.85-14.91-2.07-1.21,13.76-7.94,2.06,1.19Z"/><polygon class="cls-56" points="629.03 350.3 465.04 444.98 506.07 468.67 670.02 374.01 629.03 350.3"/></g><g id="Bus"><polygon class="cls-22" points="431.9 434.24 410.42 446.62 410.42 459.05 431.9 446.64 431.9 434.24"/><path class="cls-16" d="M410.42,446.6v12.45c-25.37-14.69-39.48-22.86-62.89-36.36V410.32Zm-2.68-14,2.72,13.95-62.93-36.26V397.87Z"/><polygon class="cls-22" points="431.88 434.25 429.13 420.26 407.7 432.65 410.42 446.62 431.88 434.25"/><polygon class="cls-59" points="429.16 420.28 368.95 385.51 347.53 397.89 407.72 432.65 429.16 420.28"/><polygon class="cls-60" points="431.9 441.18 434.33 443.58 434.33 445.23 410.44 459.05 410.44 456.03 410.38 456.05 431.86 443.67 431.9 441.18"/><path class="cls-61" d="M401.24,457.28l3.57-1.48-.91-.53v-.13a8.45,8.45,0,0,0-5.15-7.17c-2.24-.89-4.16-.21-4.86,1.52l1.36.8Z"/><polygon class="cls-62" points="430.51 433.73 428.23 422.12 409.09 433.16 411.35 444.76 430.51 433.73"/><polygon class="cls-62" points="395.67 427.12 395.69 436.76 408.86 444.38 406.79 433.54 395.67 427.12"/><polygon class="cls-63" points="429.96 440 426.1 442.29 426.1 445.48 429.96 443.33 429.96 440"/><polygon class="cls-63" points="417.23 447.34 413.37 449.64 413.37 452.82 417.23 450.67 417.23 447.34"/><polygon class="cls-64" points="424.66 441.87 418.61 445.35 418.61 450.29 424.66 446.81 424.66 441.87"/><polygon class="cls-65" points="425.99 423.41 427.66 435.16 421.71 438.79 422.32 425.54 425.99 423.41"/><polygon class="cls-65" points="419.85 426.95 418.69 440.54 415.34 442.48 417.97 428.03 419.85 426.95"/><path class="cls-66" d="M398.75,449.07c-2.24-.89-4,.21-4,2.44a6.65,6.65,0,0,0,4,5.64c2.24.87,4.05-.21,4.05-2.45a6.64,6.64,0,0,0-4.05-5.63Z"/><path class="cls-67" d="M398.75,451.14c-1.1-.45-2,.1-2,1.18a3.24,3.24,0,0,0,2,2.76c1.1.42,2-.1,2-1.2a3.22,3.22,0,0,0-2-2.74Z"/><path class="cls-61" d="M357.6,432.08l3.57-1.48-.91-.52V430a8.45,8.45,0,0,0-5.15-7.18c-2.24-.88-4.16-.21-4.86,1.52l1.38.81Z"/><path class="cls-66" d="M355.11,423.87c-2.22-.88-4,.21-4,2.45a6.66,6.66,0,0,0,4,5.63c2.24.89,4.05-.21,4.05-2.44a6.65,6.65,0,0,0-4.05-5.64Z"/><path class="cls-67" d="M355.11,425.94c-1.08-.44-2,.11-2,1.18a3.24,3.24,0,0,0,2,2.76c1.1.43,2-.1,2-1.2a3.23,3.23,0,0,0-2-2.74Z"/><path class="cls-61" d="M368.51,438.37l3.57-1.48-.91-.53v-.12a8.47,8.47,0,0,0-5.15-7.18c-2.23-.89-4.16-.19-4.85,1.54l1.35.8Z"/><path class="cls-66" d="M366,430.16c-2.23-.86-4,.21-4,2.45a6.62,6.62,0,0,0,4,5.63c2.24.89,4.05-.21,4.05-2.44a6.68,6.68,0,0,0-4.05-5.64Z"/><path class="cls-67" d="M366,432.23c-1.08-.42-2,.1-2,1.2a3.23,3.23,0,0,0,2,2.74c1.1.45,2-.1,2-1.18a3.25,3.25,0,0,0-2-2.76Z"/><polygon class="cls-62" points="384.13 420.45 384.13 430.1 393.77 435.67 393.77 426 384.13 420.45"/><polygon class="cls-62" points="372.6 413.81 372.6 423.45 382.25 429.02 382.25 419.35 372.6 413.81"/><polygon class="cls-62" points="361.19 407.2 361.19 416.87 370.83 422.42 370.81 412.77 361.19 407.2"/><polygon class="cls-62" points="349.67 400.55 349.67 410.2 359.31 415.77 359.31 406.12 349.67 400.55"/><path class="cls-68" d="M410.12,445.06l-1-5c-.72.17-1.37.23-2.09.4s-.65.89-.46,1.77c.23,1.06.63,2.41,1.43,2.49s1.31.23,2.09.32Z"/><path class="cls-69" d="M410.12,445.06c-.29-1.5-.59-3-.88-4.52-.57.15-1.14.3-1.69.47s-.55.8-.38,1.6c.17,1,.48,2.15,1.09,2.22s1.25.17,1.86.23Z"/><path class="cls-68" d="M431.9,427.92c-.13,0-.38-.21-.53-.15a1.34,1.34,0,0,0-.65.62l.25,1.2c.53,0,.83-1,.91-1.46l0-.21Z"/><path class="cls-69" d="M431.65,433.09l-.8-4.13c.27-.3.61-.66.88-.93s.42.25.55,1a5.38,5.38,0,0,1,0,2.55c-.23.49-.42,1-.67,1.52Z"/><polygon class="cls-70" points="417.87 415.32 374.31 390.19 358.82 399.14 402.38 424.27 417.87 415.32"/><polygon class="cls-22" points="402.38 426.13 417.87 417.18 417.87 415.32 402.38 424.27 402.38 426.13"/><polygon class="cls-16" points="402.38 426.13 358.82 401 358.82 399.14 402.38 424.27 402.38 426.13"/><polygon class="cls-71" points="347.47 413.53 347.53 411.95 410.42 448.26 410.42 449.87 347.47 413.53"/><polygon class="cls-71" points="347.47 416.7 347.53 415.11 410.42 451.43 410.42 453.04 347.47 416.7"/></g><g id="Chair"><polygon class="cls-72" points="358.1 515.43 358.1 519.21 359.38 518.41 359.38 514.63 358.1 515.43"/><polygon class="cls-73" points="358.1 515.43 358.1 519.21 356.78 518.41 356.78 514.63 358.1 515.43"/><polygon class="cls-72" points="363.11 512.54 363.11 516.32 364.42 515.52 364.42 511.72 363.11 512.54"/><polygon class="cls-74" points="363.11 512.54 363.11 516.32 361.81 515.52 361.81 511.72 363.11 512.54"/><polygon class="cls-72" points="320.24 493.57 320.24 497.37 321.55 496.57 321.55 492.77 320.24 493.57"/><polygon class="cls-73" points="320.24 493.57 320.24 497.37 318.93 496.57 318.93 492.77 320.24 493.57"/><polygon class="cls-72" points="358.1 515.56 364.68 511.76 364.68 510.26 358.1 514.06 358.1 515.56"/><polygon class="cls-73" points="358.1 515.56 318.49 492.73 318.49 491.23 358.1 514.06 358.1 515.56"/><polygon class="cls-75" points="318.49 491.23 325.05 487.43 364.68 510.26 358.1 514.06 318.49 491.23"/><polygon class="cls-72" points="310.93 488.21 310.93 491.99 312.24 491.19 312.24 487.41 310.93 488.21"/><polygon class="cls-73" points="310.93 488.21 310.93 491.99 309.62 491.19 309.62 487.41 310.93 488.21"/><polygon class="cls-72" points="315.95 485.3 315.95 489.1 317.26 488.3 317.26 484.5 315.95 485.3"/><polygon class="cls-74" points="315.95 485.3 315.95 489.1 314.65 488.3 314.65 484.5 315.95 485.3"/><polygon class="cls-72" points="291.03 476.71 291.03 480.49 292.34 479.69 292.34 475.91 291.03 476.71"/><polygon class="cls-73" points="291.03 476.71 291.03 480.49 289.72 479.69 289.72 475.91 291.03 476.71"/><polygon class="cls-72" points="310.93 488.34 317.52 484.54 317.52 483.04 310.93 486.84 310.93 488.34"/><polygon class="cls-73" points="310.93 488.34 289.28 475.87 289.28 474.37 310.93 486.84 310.93 488.34"/><polygon class="cls-75" points="289.28 474.37 295.84 470.57 317.52 483.04 310.93 486.84 289.28 474.37"/></g><g id="Bus_Halte" data-name="Bus Halte"><polygon class="cls-73" points="283.98 454.13 284 484.54 286.14 483.31 286.14 452.89 283.98 454.13"/><polygon class="cls-10" points="284 454.11 282.68 453.33 282.68 483.78 284 484.54 284 454.11"/><polygon class="cls-73" points="376.85 481.88 376.89 510.94 379.01 509.71 379.01 480.64 376.85 481.88"/><polygon class="cls-10" points="376.87 481.86 375.55 481.08 375.55 510.16 376.89 510.94 376.87 481.86"/><polygon class="cls-73" points="353.26 494.14 353.3 524.55 355.41 523.33 355.41 492.9 353.26 494.14"/><polygon class="cls-10" points="353.28 494.12 351.95 493.34 351.97 523.79 353.3 524.55 353.28 494.12"/><polygon class="cls-73" points="328.68 479.94 328.72 510.37 330.83 509.15 330.83 478.69 328.68 479.94"/><polygon class="cls-10" points="328.72 479.94 327.37 479.14 327.39 509.59 328.72 510.37 328.72 479.94"/><polygon class="cls-73" points="307.13 467.51 307.17 497.92 309.28 496.7 309.28 466.27 307.13 467.51"/><polygon class="cls-10" points="307.15 467.49 305.82 466.71 305.85 497.16 307.17 497.92 307.15 467.49"/><polygon class="cls-21" points="279.09 455.36 279.09 457.11 353.41 500.01 353.41 498.3 279.09 455.36"/><polygon class="cls-11" points="308.04 438.75 382.02 481.48 353.41 498.3 279.07 455.38 308.04 438.75"/><polygon class="cls-24" points="382.02 481.48 382.02 483.17 353.41 500.01 353.41 498.3 382.02 481.48"/></g><g id="Fences"><path class="cls-45" d="M933.52,549.21,987,517.13l0-4.45L933.5,544.75Zm-.07-9.84,53.46-32.07,0-4.18-53.45,32.07Zm54.3-51.13,0,3.89v.65l0,4.66v.64l0,4.47,0,5,0,4.33v.21l0,5.08v.22l-.23.14-54.42,32.67-.72.42V550l0-4.66v-.66l0-3.9,0-5v-.66l0-4.24v-.23l0-5.09v-.21l0-4.32v-.22l0-4.81v-.21l.25-.15L987,483l.74-.42v.63l0,4.37Zm-.91,10.64L933.39,531l0,3.4,53.47-32.07Zm-.06-10.7,0-4.18-53.45,32.08,0,4.18Zm0,5.38-53.47,32.07,0,4.46L986.84,498Zm0-4.54L933.33,521.1l0,3.69,53.45-32.07ZM933.5,543.91,987,511.83l0-3.69-53.48,32.08Z"/><path class="cls-45" d="M1042.36,549.21l-53.45-32.08,0-4.45,53.45,32.07Zm.09-9.84L989,507.3l0-4.18,53.45,32.07Zm-54.3-51.13,0,3.89v.65l0,4.66v.64l0,4.47,0,5,0,4.33v.21l0,5.08v.22l.25.14,54.43,32.67.71.42V550l.05-4.66v-.66l0-3.9,0-5v-.66l0-4.24v-.23l0-5.09v-.21l0-4.32v-.22l0-4.81,0-.21-.26-.15L988.91,483l-.72-.42v.63l0,4.37Zm.89,10.64L1042.51,531l0,3.4L989,502.28Zm.08-10.7,0-4.18,53.48,32.08,0,4.18Zm0,5.38,53.45,32.07,0,4.46L989.06,498Zm0-4.54,53.45,32.08,0,3.69-53.47-32.07Zm53.28,54.89L989,511.83l0-3.69,53.48,32.08Z"/><polygon class="cls-76" points="1043.61 510.31 1043.56 557.18 1040.29 555.3 1040.29 508.39 1043.61 510.31"/><polygon class="cls-77" points="1043.59 510.3 1045.63 509.07 1045.61 556 1043.56 557.18 1043.59 510.3"/><polygon class="cls-78" points="1043.54 510.25 1045.63 509.07 1042.36 507.21 1040.31 508.39 1043.54 510.25"/><path class="cls-45" d="M825.75,610.82l53.45-31.48,0-4.43-53.47,31.46Zm-.08-9.85,53.47-31.46,0-4.16-53.46,31.46ZM880,550.45l0,3.91,0,.65,0,4.66v.64l.05,4.47,0,5,0,4.35v.21l0,5.08v.22l-.25.14-54.4,32-.72.43,0-.66,0-4.66v-.63l0-3.91,0-5,0-.63,0-4.26v-.22l0-5.08V587l0-4.33v-.21l0-4.81v-.21l.23-.15,54.42-32,.72-.42v.65l0,4.37Zm-.88,10.64-53.46,31.46,0,3.4,53.46-31.47Zm-.09-10.7,0-4.16-53.45,31.46,0,4.16Zm0,5.4-53.45,31.46,0,4.43,53.48-31.46Zm0-4.56-53.47,31.46,0,3.7L879,554.92Zm-53.3,54.28L879.16,574l0-3.69-53.45,31.46Z"/><polygon class="cls-76" points="880.09 540.45 880.15 587.32 883.4 585.44 883.4 538.53 880.09 540.45"/><polygon class="cls-77" points="880.13 540.43 878.08 539.21 878.08 586.13 880.13 587.32 880.13 540.43"/><polygon class="cls-78" points="880.15 540.38 878.08 539.21 881.33 537.35 883.4 538.53 880.15 540.38"/><polygon class="cls-76" points="932.29 510.31 932.34 557.18 935.59 555.3 935.59 508.39 932.29 510.31"/><polygon class="cls-77" points="932.32 510.3 930.27 509.07 930.29 556 932.34 557.18 932.32 510.3"/><polygon class="cls-78" points="932.36 510.25 930.27 509.07 933.54 507.21 935.59 508.39 932.36 510.25"/><polygon class="cls-76" points="986.84 478.81 986.88 525.68 990.16 523.8 990.16 476.91 986.84 478.81"/><polygon class="cls-77" points="986.86 478.81 984.82 477.58 984.84 524.5 986.88 525.68 986.86 478.81"/><polygon class="cls-78" points="986.91 478.75 984.82 477.58 988.09 475.71 990.13 476.89 986.91 478.75"/><polygon class="cls-76" points="823.09 570.5 823.13 617.37 826.4 615.49 826.4 568.58 823.09 570.5"/><polygon class="cls-77" points="823.13 570.48 821.07 569.27 821.09 616.18 823.13 617.37 823.13 570.48"/><polygon class="cls-78" points="823.15 570.43 821.07 569.27 824.34 567.4 826.4 568.58 823.15 570.43"/><path class="cls-45" d="M759.38,649.12l53.46-31.46,0-4.45-53.45,31.46Zm-.06-9.85,53.45-31.46,0-4.16-53.47,31.46Zm54.28-50.5,0,3.91v.63l0,4.66,0,.66,0,4.45,0,5,0,4.33v.21l0,5.1V618l-.24.12-54.42,32-.71.42v-.63l-.05-4.67v-.63l0-3.91,0-5v-.63l0-4.26v-.21l0-5.09v-.23l0-4.33v-.21l0-4.79v-.23l.26-.13,54.4-32,.71-.42,0,.63,0,4.39Zm-.89,10.62-53.45,31.48,0,3.4,53.45-31.46Zm-.06-10.7,0-4.16L759.15,616l0,4.16Zm0,5.4-53.45,31.46,0,4.46,53.45-31.47Zm0-4.54L759.19,621l0,3.69,53.45-31.46Zm-53.31,54.28,53.47-31.46,0-3.7-53.45,31.47Z"/><polygon class="cls-76" points="813.72 578.77 813.79 625.62 817.03 623.74 817.03 576.85 813.72 578.77"/><polygon class="cls-77" points="813.76 578.75 811.72 577.53 811.74 624.43 813.79 625.62 813.76 578.75"/><polygon class="cls-78" points="813.81 578.68 811.72 577.53 814.99 575.65 817.03 576.83 813.81 578.68"/><polygon class="cls-76" points="756.73 608.82 756.79 655.69 760.04 653.79 760.04 606.9 756.73 608.82"/><polygon class="cls-77" points="756.77 608.8 754.72 607.58 754.72 654.49 756.79 655.69 756.77 608.8"/><polygon class="cls-78" points="756.79 608.74 754.72 607.58 757.99 605.7 760.04 606.9 756.79 608.74"/></g><g id="Trees"><path class="cls-79" d="M593.93,671.86a11.61,11.61,0,0,1-3.23-1.58c2.13-7.69,4.26-15.34,6.4-23Z"/><g id="Trees-2" data-name="Trees"><polygon class="cls-80" points="513.36 597.75 513.36 608.87 511.63 609.88 511.63 597.81 513.36 597.75"/><polygon class="cls-81" points="509.88 597.75 509.88 608.87 511.63 609.88 511.63 597.81 509.88 597.75"/><path class="cls-82" d="M510.72,560.46q4.69,17.47,9.37,35c-6,4.49-12,4.22-18,0l8.67-35Z"/><path class="cls-83" d="M508.55,598.4h0a1,1,0,0,0-.23,0l0,0-.25-.06h0l-.25-.07,0,0-.26-.06,0,0-.25-.06,0,0a1.29,1.29,0,0,1-.26-.08h0a1.09,1.09,0,0,0-.23-.09l0,0-.26-.1h0c-.08-.05-.17-.07-.23-.11l0,0-.26-.08,0,0-.25-.1,0,0a1.45,1.45,0,0,0-.26-.11l0,0-.25-.12,0,0-.28-.12h0c-.08-.05-.17-.09-.25-.15h0a1.65,1.65,0,0,0-.25-.15l0,0a1.1,1.1,0,0,1-.25-.15h0l-.25-.16h0a1.89,1.89,0,0,1-.28-.17h0c-.08-.07-.17-.11-.25-.17l0,0-.26-.17h0l-.25-.19,0,0a1.89,1.89,0,0,1-.28-.17l8.67-35Z"/><path class="cls-84" d="M510.76,558.5q4.25,14.65,8.51,29.33c-5.47,3.78-10.93,3.55-16.39,0q3.94-14.66,7.88-29.33Z"/><path class="cls-85" d="M507.41,590a17.42,17.42,0,0,1-4.53-2.15q3.94-14.66,7.88-29.33Z"/><path class="cls-86" d="M510.81,554.26q3.45,11.49,6.9,23c-4.43,3-8.86,2.79-13.27,0q3.19-11.52,6.37-23Z"/><path class="cls-79" d="M507.64,578.86a11.33,11.33,0,0,1-3.2-1.58q3.19-11.52,6.37-23Z"/><polygon class="cls-80" points="524.5 644.07 524.5 655.19 522.77 656.2 522.77 644.13 524.5 644.07"/><polygon class="cls-81" points="521.02 644.07 521.02 655.19 522.77 656.2 522.77 644.13 521.02 644.07"/><path class="cls-82" d="M521.87,606.78q4.68,17.47,9.37,35c-6,4.49-12,4.22-18,0q4.34-17.47,8.68-35Z"/><path class="cls-83" d="M519.69,644.72h0a.93.93,0,0,0-.23,0l0,0-.26-.07h0l-.25-.06,0,0-.26-.06,0,0-.25-.06,0,0a1.29,1.29,0,0,1-.26-.08h0a.73.73,0,0,0-.23-.09l0,0-.26-.1h0c-.08,0-.16-.07-.23-.11l0,0-.25-.08,0,0a2.72,2.72,0,0,1-.25-.11h0a.91.91,0,0,0-.25-.11l-.05,0-.25-.13,0,0-.27-.12h0l-.26-.15h0a1.1,1.1,0,0,0-.25-.15l0,0a1.16,1.16,0,0,1-.26-.15h0c-.08-.06-.17-.1-.25-.17h0a1.28,1.28,0,0,1-.28-.16h0c-.08-.07-.17-.11-.25-.18l0,0a1.83,1.83,0,0,1-.26-.16h0l-.25-.19,0,0a1.89,1.89,0,0,1-.28-.17q4.34-17.47,8.68-35Z"/><path class="cls-84" d="M521.91,604.82q4.25,14.65,8.5,29.33c-5.46,3.78-10.93,3.54-16.39,0q4-14.65,7.89-29.33Z"/><path class="cls-85" d="M518.55,636.3a17.57,17.57,0,0,1-4.53-2.15q4-14.65,7.89-29.33Z"/><path class="cls-86" d="M522,600.57q3.45,11.49,6.9,23c-4.43,3-8.86,2.78-13.27,0q3.2-11.52,6.37-23Z"/><path class="cls-79" d="M518.78,625.18a11.33,11.33,0,0,1-3.2-1.58q3.2-11.52,6.37-23Z"/><polygon class="cls-80" points="546.88 620.5 546.88 631.62 545.15 632.63 545.15 620.56 546.88 620.5"/><polygon class="cls-81" points="543.4 620.5 543.4 631.62 545.15 632.63 545.15 620.56 543.4 620.5"/><path class="cls-82" d="M544.24,583.21q4.69,17.47,9.37,35c-6,4.49-12,4.22-18,0l8.67-35Z"/><path class="cls-83" d="M542.07,621.15h0a.93.93,0,0,0-.23,0l0,0-.26-.06h0l-.25-.07-.05,0-.25-.06,0,0-.25-.06,0,0a1.29,1.29,0,0,1-.26-.08h0a.73.73,0,0,0-.23-.09l0,0-.26-.1h0c-.08-.05-.17-.07-.23-.11l0,0-.26-.08,0,0-.25-.1,0,0a1.06,1.06,0,0,0-.25-.11l-.05,0-.25-.13,0,0-.28-.12h0l-.25-.15h0a1.38,1.38,0,0,0-.25-.15l0,0-.25-.15h0l-.25-.17h0a1.28,1.28,0,0,1-.28-.16h0c-.08-.07-.17-.11-.25-.18l-.05,0a2.56,2.56,0,0,1-.25-.16h0l-.25-.2h0a1.89,1.89,0,0,1-.28-.17l8.67-35Z"/><path class="cls-84" d="M544.29,581.25q4.25,14.65,8.5,29.33c-5.46,3.77-10.93,3.54-16.4,0q4-14.66,7.9-29.33Z"/><path class="cls-85" d="M540.93,612.73a17.79,17.79,0,0,1-4.54-2.15q4-14.66,7.9-29.33Z"/><path class="cls-86" d="M544.33,577c2.3,7.65,4.6,15.34,6.9,23-4.43,3-8.86,2.78-13.27,0,2.13-7.68,4.24-15.37,6.37-23Z"/><path class="cls-79" d="M541.17,601.61A11.25,11.25,0,0,1,538,600c2.13-7.68,4.24-15.37,6.37-23Z"/><polygon class="cls-80" points="561.41 664.48 561.41 675.59 559.68 676.61 559.68 664.54 561.41 664.48"/><polygon class="cls-81" points="557.93 664.48 557.93 675.59 559.68 676.61 559.68 664.54 557.93 664.48"/><path class="cls-82" d="M558.77,627.19q4.69,17.47,9.37,35c-6,4.5-12,4.22-18,0q4.33-17.46,8.67-35Z"/><path class="cls-83" d="M556.6,665.13h0a1,1,0,0,0-.23,0l-.05,0L556,665h0l-.25-.06,0,0-.25-.07,0,0-.25-.06,0,0a1.29,1.29,0,0,1-.26-.08h0a.84.84,0,0,0-.23-.09l0,0a2,2,0,0,1-.26-.11h0a1.74,1.74,0,0,1-.23-.1l0,0c-.09,0-.17-.07-.26-.09l0,0a2.72,2.72,0,0,1-.25-.11l0,0a1.63,1.63,0,0,0-.25-.1l-.05,0-.25-.13,0,0-.28-.13h0a1.57,1.57,0,0,1-.25-.14h0a1.16,1.16,0,0,0-.26-.15l0,0c-.08,0-.17-.09-.25-.15h0l-.26-.17h0a1,1,0,0,1-.27-.17h0a2.2,2.2,0,0,1-.25-.17l-.05,0a1.23,1.23,0,0,1-.25-.17h0l-.25-.19,0,0a.88.88,0,0,1-.28-.17q4.33-17.46,8.67-35Z"/><path class="cls-84" d="M558.82,625.23c2.83,9.76,5.65,19.56,8.5,29.33-5.46,3.77-10.93,3.54-16.4,0,2.64-9.77,5.26-19.57,7.9-29.33Z"/><path class="cls-85" d="M555.46,656.71a17.63,17.63,0,0,1-4.54-2.15c2.64-9.77,5.26-19.57,7.9-29.33Z"/><path class="cls-86" d="M558.86,621q3.45,11.49,6.9,23c-4.43,3-8.87,2.78-13.27,0,2.13-7.69,4.23-15.37,6.37-23Z"/><path class="cls-79" d="M555.69,645.59a11.33,11.33,0,0,1-3.2-1.58c2.13-7.69,4.23-15.37,6.37-23Z"/><polygon class="cls-80" points="600.72 690.75 600.72 701.87 598.99 702.88 598.99 690.81 600.72 690.75"/><polygon class="cls-81" points="597.24 690.75 597.24 701.87 598.99 702.88 598.99 690.81 597.24 690.75"/><path class="cls-82" d="M598.08,653.46c3.13,11.64,6.25,23.32,9.38,35-6,4.5-12,4.22-18.05,0,2.89-11.64,5.78-23.32,8.67-35Z"/><path class="cls-83" d="M595.91,691.4h0a1,1,0,0,0-.23,0h0l-.26-.07h0l-.25-.06-.05,0-.25-.07,0,0-.25-.06,0,0a1.29,1.29,0,0,1-.26-.08h0a.73.73,0,0,0-.23-.09l0,0c-.09-.05-.17-.06-.26-.11h0c-.08,0-.17-.06-.23-.1l0,0a2.67,2.67,0,0,0-.26-.09l0,0a2.72,2.72,0,0,1-.25-.11l0,0a1.63,1.63,0,0,0-.25-.1l0,0-.25-.13,0,0-.28-.13h0l-.25-.14h0a1.1,1.1,0,0,0-.25-.15l0,0a1.65,1.65,0,0,1-.26-.14h0l-.25-.17h0a1.31,1.31,0,0,1-.28-.17h0c-.08-.06-.17-.1-.25-.17l0,0a1.28,1.28,0,0,1-.26-.17h0l-.25-.19,0,0a1,1,0,0,1-.28-.17c2.89-11.64,5.78-23.32,8.67-35Z"/><path class="cls-84" d="M598.13,651.5c2.83,9.76,5.65,19.56,8.5,29.33-5.46,3.77-10.93,3.54-16.39,0,2.63-9.77,5.25-19.57,7.89-29.33Z"/><path class="cls-85" d="M594.77,683a17.75,17.75,0,0,1-4.53-2.15c2.63-9.77,5.25-19.57,7.89-29.33Z"/><path class="cls-86" d="M598.17,647.25q3.45,11.49,6.9,23c-4.43,3-8.86,2.78-13.27,0q3.19-11.53,6.37-23Z"/><path class="cls-79" d="M595,671.86a11.33,11.33,0,0,1-3.2-1.58q3.19-11.53,6.37-23Z"/><polygon class="cls-80" points="626.82 672.01 626.82 683.13 625.09 684.14 625.09 672.07 626.82 672.01"/><polygon class="cls-81" points="623.34 672.01 623.34 683.13 625.09 684.14 625.09 672.07 623.34 672.01"/><path class="cls-82" d="M624.19,634.72l9.36,35c-6,4.49-12,4.21-18,0q4.34-17.48,8.68-35Z"/><path class="cls-83" d="M622,672.66h0a1,1,0,0,0-.23,0l0,0-.25-.07h0l-.25-.06,0,0-.26-.06,0,0-.25-.06,0,0a1.29,1.29,0,0,1-.26-.08h0a.73.73,0,0,0-.23-.09l0,0c-.09,0-.17-.06-.26-.11h0c-.08,0-.17-.06-.23-.1l0,0c-.09,0-.17-.07-.26-.09l0,0-.25-.1,0,0a1,1,0,0,0-.26-.11l0,0-.25-.13,0,0-.28-.12h0c-.08-.05-.17-.09-.25-.15h0a1.38,1.38,0,0,0-.25-.15l0,0a1.1,1.1,0,0,1-.25-.15h0l-.25-.17h0a.88.88,0,0,1-.28-.17h0c-.08-.06-.17-.1-.25-.17h0l-.25-.17h0l-.25-.19,0,0a1.28,1.28,0,0,1-.28-.16q4.34-17.48,8.68-35Z"/><path class="cls-84" d="M624.23,632.76q4.24,14.65,8.5,29.33c-5.47,3.77-10.93,3.54-16.4,0q4-14.65,7.9-29.33Z"/><path class="cls-85" d="M620.87,664.24a17.63,17.63,0,0,1-4.54-2.15q4-14.65,7.9-29.33Z"/><path class="cls-86" d="M624.27,628.51l6.9,23c-4.43,3-8.86,2.78-13.27,0q3.2-11.52,6.37-23Z"/><path class="cls-79" d="M621.1,653.12a11.33,11.33,0,0,1-3.2-1.58q3.2-11.52,6.37-23Z"/><polygon class="cls-80" points="588.43 645.1 588.43 656.22 586.7 657.24 586.7 645.16 588.43 645.1"/><polygon class="cls-81" points="584.95 645.1 584.95 656.22 586.7 657.24 586.7 645.16 584.95 645.1"/><path class="cls-82" d="M585.8,607.81q4.68,17.48,9.37,35c-6,4.49-12,4.22-18,0q4.33-17.47,8.68-35Z"/><path class="cls-83" d="M583.62,645.76h0a.64.64,0,0,0-.23,0l0,0-.26-.06h0l-.25-.06,0,0-.26-.07,0,0-.25-.06,0,0a1.06,1.06,0,0,1-.25-.09h-.05a1,1,0,0,0-.23-.08l0,0c-.09-.05-.17-.07-.26-.11h0l-.23-.1,0,0-.25-.09,0,0a2.72,2.72,0,0,1-.25-.11l0,0a1.63,1.63,0,0,0-.25-.1l0,0-.25-.13,0,0-.27-.13h0a1.16,1.16,0,0,1-.26-.15h0a1.57,1.57,0,0,0-.25-.14l0,0a1.65,1.65,0,0,1-.26-.14h0c-.08-.07-.17-.11-.25-.17h0a1.31,1.31,0,0,1-.28-.17h0l-.25-.17,0,0a1.92,1.92,0,0,1-.26-.17h0l-.25-.19,0,0a1,1,0,0,1-.28-.17q4.33-17.47,8.68-35Z"/><path class="cls-84" d="M585.84,605.85q4.24,14.65,8.5,29.33c-5.46,3.78-10.93,3.55-16.39,0q3.94-14.65,7.89-29.33Z"/><path class="cls-85" d="M582.48,637.34a17.78,17.78,0,0,1-4.53-2.16q3.94-14.65,7.89-29.33Z"/><path class="cls-86" d="M585.88,601.61q3.45,11.49,6.9,23c-4.43,3-8.86,2.79-13.27,0q3.19-11.52,6.37-23Z"/><path class="cls-79" d="M582.71,626.22a11.37,11.37,0,0,1-3.2-1.59q3.19-11.52,6.37-23Z"/><polygon class="cls-80" points="348.59 213.42 348.59 224.54 346.86 225.55 346.86 213.48 348.59 213.42"/><polygon class="cls-81" points="345.11 213.42 345.11 224.54 346.86 225.55 346.86 213.48 345.11 213.42"/><path class="cls-82" d="M346,176.13q4.68,17.48,9.37,35c-6,4.49-12,4.22-18,0l8.67-35Z"/><path class="cls-83" d="M343.78,214.07h0a.85.85,0,0,0-.23,0l0,0-.25-.06h0l-.25-.07,0,0-.25-.06,0,0-.25-.07,0,0a1,1,0,0,1-.25-.08h0a.92.92,0,0,0-.23-.09l0,0-.25-.1h0l-.23-.11,0,0-.25-.08,0,0c-.09,0-.17-.07-.26-.11l0,0a1.12,1.12,0,0,0-.25-.11l0,0-.26-.12,0,0-.27-.12h0a1.74,1.74,0,0,1-.26-.15h0a1.65,1.65,0,0,0-.25-.15l0,0a1.16,1.16,0,0,1-.26-.15h0l-.25-.16h0a1.39,1.39,0,0,1-.27-.17h0a2.2,2.2,0,0,0-.25-.17l0,0-.26-.17h0l-.26-.19,0,0a1.39,1.39,0,0,1-.27-.17l8.67-35Z"/><path class="cls-84" d="M346,174.17q4.25,14.66,8.51,29.33c-5.47,3.78-10.93,3.55-16.4,0q4-14.66,7.89-29.33Z"/><path class="cls-85" d="M342.64,205.65a17.63,17.63,0,0,1-4.54-2.15q4-14.66,7.89-29.33Z"/><path class="cls-86" d="M346,169.93q3.45,11.49,6.9,23c-4.43,3-8.86,2.79-13.27,0q3.19-11.52,6.37-23Z"/><path class="cls-79" d="M342.87,194.53a11.25,11.25,0,0,1-3.21-1.58q3.19-11.52,6.37-23Z"/><polygon class="cls-80" points="329.53 250.26 329.53 261.38 327.8 262.39 327.8 250.32 329.53 250.26"/><polygon class="cls-81" points="326.05 250.26 326.05 261.38 327.8 262.39 327.8 250.32 326.05 250.26"/><path class="cls-82" d="M326.89,213q4.69,17.47,9.37,35c-6,4.49-12,4.22-18,0l8.67-35Z"/><path class="cls-83" d="M324.72,250.91h0a1,1,0,0,0-.23,0l-.05,0-.25-.06h0l-.25-.06-.05,0-.25-.06,0,0-.26-.06v0a1.29,1.29,0,0,1-.26-.08h0a.7.7,0,0,0-.23-.08l-.05,0a2.72,2.72,0,0,0-.25-.11h0a1.23,1.23,0,0,1-.23-.11l0,0-.26-.08,0,0a2.72,2.72,0,0,0-.25-.11l0,0-.26-.11,0,0-.25-.12,0,0-.28-.12h0a1.65,1.65,0,0,1-.25-.15h0a2.2,2.2,0,0,0-.26-.15l0,0a1.57,1.57,0,0,1-.25-.14h0c-.09-.07-.17-.11-.26-.17h0a1.78,1.78,0,0,1-.27-.17h0l-.25-.17,0,0-.25-.17h0l-.25-.19,0,0a1.31,1.31,0,0,1-.28-.17l8.67-35Z"/><path class="cls-84" d="M326.93,211q4.24,14.66,8.51,29.33c-5.47,3.78-10.93,3.55-16.4,0q4-14.65,7.89-29.33Z"/><path class="cls-85" d="M323.58,242.49a17.63,17.63,0,0,1-4.54-2.15q4-14.65,7.89-29.33Z"/><path class="cls-86" d="M327,206.77q3.45,11.49,6.9,23c-4.43,3-8.86,2.79-13.28,0,2.14-7.68,4.25-15.36,6.38-23Z"/><path class="cls-79" d="M323.81,231.37a11.24,11.24,0,0,1-3.21-1.58c2.14-7.68,4.25-15.36,6.38-23Z"/><polygon class="cls-80" points="387.65 189.85 387.65 200.97 385.92 201.98 385.92 189.91 387.65 189.85"/><polygon class="cls-81" points="384.17 189.85 384.17 200.97 385.92 201.98 385.92 189.91 384.17 189.85"/><path class="cls-82" d="M385,152.56q4.68,17.48,9.37,35c-6,4.49-12,4.22-18,0l8.67-35Z"/><path class="cls-83" d="M382.84,190.5h0a.85.85,0,0,0-.23,0l0,0-.25-.06h0l-.26-.07,0,0-.25-.06,0,0-.26-.07,0,0a1,1,0,0,1-.25-.08h0a1.17,1.17,0,0,0-.24-.09l0,0-.25-.1h0l-.24-.11,0,0-.25-.08,0,0c-.09,0-.17-.07-.25-.11l0,0a1.36,1.36,0,0,0-.25-.11l0,0-.25-.12,0,0-.27-.12h0a1.74,1.74,0,0,1-.26-.15h0a1.28,1.28,0,0,0-.25-.15l0,0a1.1,1.1,0,0,1-.25-.15H378c-.08-.06-.17-.1-.25-.17h0a1.2,1.2,0,0,1-.27-.16h0c-.09-.07-.17-.11-.26-.17l0,0-.25-.17h0l-.25-.19,0,0a1.39,1.39,0,0,1-.27-.17l8.67-35Z"/><path class="cls-84" d="M385.05,150.6q4.24,14.66,8.51,29.33c-5.47,3.78-10.93,3.55-16.4,0q4-14.66,7.89-29.33Z"/><path class="cls-85" d="M381.7,182.08a17.63,17.63,0,0,1-4.54-2.15q4-14.66,7.89-29.33Z"/><path class="cls-86" d="M385.09,146.36q3.45,11.49,6.91,23c-4.44,3-8.87,2.78-13.28,0q3.19-11.52,6.37-23Z"/><path class="cls-79" d="M381.93,171a11.25,11.25,0,0,1-3.21-1.58q3.19-11.52,6.37-23Z"/><polygon class="cls-80" points="426.82 172.19 426.82 183.31 425.09 184.32 425.09 172.25 426.82 172.19"/><polygon class="cls-81" points="423.34 172.19 423.34 183.31 425.09 184.32 425.09 172.25 423.34 172.19"/><path class="cls-82" d="M424.18,134.9q4.69,17.47,9.37,35c-6,4.49-12,4.22-18,0l8.67-35Z"/><path class="cls-83" d="M422,172.84h0a1,1,0,0,0-.23,0l-.05,0-.25-.06h0l-.25-.07-.05,0-.25-.06,0,0-.25-.07,0,0a1.29,1.29,0,0,1-.26-.08h0a1.09,1.09,0,0,0-.23-.09l0,0-.26-.1h0a2.51,2.51,0,0,1-.23-.11l0,0-.26-.08,0,0-.25-.1,0,0a1.45,1.45,0,0,0-.26-.11l0,0-.25-.13,0,0-.28-.12h0l-.25-.15h0l-.25-.15,0,0a1.1,1.1,0,0,1-.25-.15h0a2.2,2.2,0,0,1-.25-.17h0a1.08,1.08,0,0,1-.28-.16h0l-.25-.17-.05,0a2.56,2.56,0,0,1-.25-.16h0l-.25-.19,0,0a1.48,1.48,0,0,1-.28-.17l8.67-35Z"/><path class="cls-84" d="M424.22,132.94q4.25,14.66,8.51,29.33c-5.47,3.78-10.93,3.54-16.4,0q4-14.65,7.89-29.33Z"/><path class="cls-85" d="M420.87,164.42a17.63,17.63,0,0,1-4.54-2.15q4-14.65,7.89-29.33Z"/><path class="cls-86" d="M424.27,128.7q3.45,11.49,6.9,23c-4.43,3-8.86,2.78-13.28,0,2.14-7.68,4.25-15.36,6.38-23Z"/><path class="cls-79" d="M421.1,153.3a11.51,11.51,0,0,1-3.21-1.58c2.14-7.68,4.25-15.36,6.38-23Z"/><polygon class="cls-80" points="407.43 209.45 407.43 220.57 405.7 221.59 405.7 209.51 407.43 209.45"/><polygon class="cls-81" points="403.95 209.45 403.95 220.57 405.7 221.59 405.7 209.51 403.95 209.45"/><path class="cls-82" d="M404.79,172.16q4.69,17.47,9.37,35c-6,4.5-12,4.22-18,0l8.67-35Z"/><path class="cls-83" d="M402.62,210.1h0a1,1,0,0,0-.23,0l-.05,0-.25-.06h0l-.25-.06,0,0-.25-.06,0,0-.25-.06,0,0-.25-.09h0l-.23-.08,0,0c-.09,0-.17-.07-.26-.11h0a1,1,0,0,1-.23-.11l0,0-.25-.08,0,0a2.72,2.72,0,0,1-.25-.11l0,0a1.39,1.39,0,0,0-.26-.1l0,0-.25-.12,0,0a2.29,2.29,0,0,0-.27-.13h0a1.1,1.1,0,0,1-.25-.15h0a1.23,1.23,0,0,0-.25-.14l0,0a1.57,1.57,0,0,1-.25-.14h0c-.09-.07-.17-.11-.26-.17h0a1.24,1.24,0,0,1-.27-.17h0l-.26-.17,0,0a1.84,1.84,0,0,1-.25-.17h0l-.26-.19,0,0a1.24,1.24,0,0,1-.27-.17l8.67-35Z"/><path class="cls-84" d="M404.83,170.2q4.25,14.66,8.51,29.33c-5.47,3.78-10.93,3.55-16.4,0q4-14.65,7.89-29.33Z"/><path class="cls-85" d="M401.48,201.69a18,18,0,0,1-4.54-2.16q4-14.65,7.89-29.33Z"/><path class="cls-86" d="M404.88,166q3.45,11.49,6.9,23c-4.43,3-8.87,2.79-13.28,0,2.14-7.68,4.25-15.36,6.38-23Z"/><path class="cls-79" d="M401.71,190.57A11.55,11.55,0,0,1,398.5,189c2.14-7.68,4.25-15.36,6.38-23Z"/><polygon class="cls-80" points="368.47 229.75 368.47 240.87 366.74 241.88 366.74 229.81 368.47 229.75"/><polygon class="cls-81" points="364.99 229.75 364.99 240.87 366.74 241.88 366.74 229.81 364.99 229.75"/><path class="cls-82" d="M365.83,192.46q4.69,17.47,9.37,35c-6,4.49-12,4.22-18,0l8.67-35Z"/><path class="cls-83" d="M363.66,230.41h0a.69.69,0,0,0-.24,0l0,0-.25-.06h0l-.26-.06,0,0-.25-.06,0,0-.25-.06,0,0-.26-.09h0a1,1,0,0,0-.23-.08l0,0c-.09-.05-.17-.07-.26-.11h0a1.23,1.23,0,0,1-.23-.11l0,0-.26-.08,0,0a2.72,2.72,0,0,1-.25-.11l0,0a1.39,1.39,0,0,0-.26-.1l0,0-.25-.12,0,0c-.09,0-.17-.09-.28-.13h0a1.38,1.38,0,0,1-.25-.15h0l-.25-.14,0,0-.25-.14h0l-.25-.17h0a1.1,1.1,0,0,1-.28-.17h0c-.08-.07-.17-.11-.25-.17l0,0a2.79,2.79,0,0,1-.25-.17h0l-.25-.19,0,0a1.31,1.31,0,0,1-.28-.17l8.67-35Z"/><path class="cls-84" d="M365.88,190.5q4.25,14.66,8.5,29.33c-5.47,3.78-10.93,3.55-16.4,0q4-14.65,7.9-29.33Z"/><path class="cls-85" d="M362.52,222a18,18,0,0,1-4.54-2.16q4-14.65,7.9-29.33Z"/><path class="cls-86" d="M365.92,186.26q3.45,11.49,6.9,23c-4.43,3-8.86,2.79-13.28,0,2.14-7.68,4.25-15.36,6.38-23Z"/><path class="cls-79" d="M362.75,210.87a11.55,11.55,0,0,1-3.21-1.59c2.14-7.68,4.25-15.36,6.38-23Z"/><polygon class="cls-80" points="478.39 249.61 478.39 260.73 476.66 261.75 476.66 249.68 478.39 249.61"/><polygon class="cls-81" points="474.91 249.61 474.91 260.73 476.66 261.75 476.66 249.68 474.91 249.61"/><path class="cls-82" d="M475.75,212.33q4.69,17.47,9.37,35c-6,4.5-12,4.22-18,0l8.67-35Z"/><path class="cls-83" d="M473.58,250.27h0a1,1,0,0,0-.23-.05l-.05,0-.25-.06h0l-.25-.06,0,0-.26-.07,0,0-.25-.06,0,0a.89.89,0,0,1-.26-.09h0a1,1,0,0,0-.23-.08l0,0c-.09,0-.17-.06-.26-.11h0c-.08,0-.17-.06-.23-.1l0,0a2.67,2.67,0,0,0-.26-.09l0,0a2.72,2.72,0,0,1-.25-.11l0,0a1.63,1.63,0,0,0-.25-.1l0,0-.25-.13,0,0c-.09,0-.17-.09-.28-.13h0a1.1,1.1,0,0,1-.25-.15h0a1.57,1.57,0,0,0-.25-.14l0,0c-.08-.05-.17-.09-.25-.15h0l-.25-.17h0a1.31,1.31,0,0,1-.28-.17h0c-.08-.06-.17-.1-.25-.17l0,0a1.28,1.28,0,0,1-.26-.17h0l-.25-.19,0,0a1,1,0,0,1-.28-.17l8.67-35Z"/><path class="cls-84" d="M475.8,210.36Q480,225,484.3,239.7c-5.47,3.77-10.93,3.54-16.39,0q3.94-14.65,7.89-29.34Z"/><path class="cls-85" d="M472.44,241.85a17.75,17.75,0,0,1-4.53-2.15q3.94-14.65,7.89-29.34Z"/><path class="cls-86" d="M475.84,206.12q3.45,11.49,6.9,23c-4.43,3-8.86,2.79-13.27,0q3.19-11.52,6.37-23Z"/><path class="cls-79" d="M472.67,230.73a11.11,11.11,0,0,1-3.2-1.59q3.19-11.52,6.37-23Z"/><polygon class="cls-80" points="496.94 262.77 496.94 273.89 495.21 274.9 495.21 262.83 496.94 262.77"/><polygon class="cls-81" points="493.46 262.77 493.46 273.89 495.21 274.9 495.21 262.83 493.46 262.77"/><path class="cls-82" d="M494.3,225.48q4.69,17.47,9.37,35c-6,4.49-12,4.22-18,0l8.67-35Z"/><path class="cls-83" d="M492.13,263.42h0a.93.93,0,0,0-.23,0l0,0-.26-.06h0l-.25-.07,0,0-.26-.06,0,0-.25-.07,0,0a1,1,0,0,1-.25-.08h-.05a1.09,1.09,0,0,0-.23-.09l0,0-.25-.1h-.05a2.51,2.51,0,0,1-.23-.11l0,0-.26-.08,0,0a2.72,2.72,0,0,0-.25-.11l0,0a1.74,1.74,0,0,0-.25-.11l-.05,0-.25-.12,0,0-.28-.12h0l-.25-.15h0a1.65,1.65,0,0,0-.25-.15l0,0a1.1,1.1,0,0,1-.25-.15h0l-.25-.16h0a1.89,1.89,0,0,1-.28-.17h0c-.08-.07-.17-.11-.25-.17l0,0-.26-.17h0l-.25-.19,0,0a1.89,1.89,0,0,1-.28-.17l8.67-35Z"/><path class="cls-84" d="M494.35,223.52q4.25,14.65,8.5,29.33c-5.46,3.78-10.93,3.55-16.39,0q3.94-14.65,7.89-29.33Z"/><path class="cls-85" d="M491,255a17.57,17.57,0,0,1-4.53-2.15q3.94-14.65,7.89-29.33Z"/><path class="cls-86" d="M494.39,219.28q3.45,11.49,6.9,23c-4.43,3-8.86,2.79-13.27,0q3.19-11.52,6.37-23Z"/><path class="cls-79" d="M491.22,243.88a11.33,11.33,0,0,1-3.2-1.58q3.19-11.52,6.37-23Z"/><polygon class="cls-80" points="721.32 43.49 721.32 54.61 719.59 55.63 719.59 43.55 721.32 43.49"/><polygon class="cls-81" points="717.84 43.49 717.84 54.61 719.59 55.63 719.59 43.55 717.84 43.49"/><path class="cls-82" d="M718.69,6.2q4.68,17.48,9.37,35c-6,4.49-12,4.22-18,0q4.34-17.48,8.68-35Z"/><path class="cls-83" d="M716.51,44.14h0a.93.93,0,0,0-.23,0l0,0-.26-.06h0l-.25-.06,0,0-.26-.06,0,0-.25-.06,0,0a1.84,1.84,0,0,1-.25-.09h-.05a1,1,0,0,0-.23-.08l0,0c-.09,0-.17-.07-.26-.11h0a1.23,1.23,0,0,1-.23-.11l0,0-.25-.08,0,0-.25-.11,0,0a1.63,1.63,0,0,0-.25-.1l0,0-.25-.12,0,0-.27-.13h0a1.16,1.16,0,0,1-.26-.15h0c-.08-.06-.17-.1-.25-.15l0,0a1.65,1.65,0,0,1-.26-.14h0c-.08-.07-.17-.11-.25-.17h0a1.31,1.31,0,0,1-.28-.17h0l-.25-.17,0,0a1.92,1.92,0,0,1-.26-.17h0l-.25-.19,0,0a1.31,1.31,0,0,1-.28-.17q4.34-17.48,8.68-35Z"/><path class="cls-84" d="M718.73,4.24q4.24,14.66,8.5,29.33c-5.46,3.78-10.93,3.55-16.39,0q3.95-14.65,7.89-29.33Z"/><path class="cls-85" d="M715.37,35.73a18.12,18.12,0,0,1-4.53-2.16q3.95-14.65,7.89-29.33Z"/><path class="cls-86" d="M718.77,0q3.45,11.49,6.9,23c-4.43,3-8.86,2.79-13.27,0q3.2-11.52,6.37-23Z"/><path class="cls-79" d="M715.61,24.61A11.29,11.29,0,0,1,712.4,23q3.2-11.52,6.37-23Z"/><polygon class="cls-80" points="749.11 60.86 749.11 71.98 747.38 73 747.38 60.92 749.11 60.86"/><polygon class="cls-81" points="745.63 60.86 745.63 71.98 747.38 73 747.38 60.92 745.63 60.86"/><path class="cls-82" d="M746.48,23.57q4.68,17.48,9.37,35c-6,4.5-12,4.22-18.05,0q4.34-17.48,8.68-35Z"/><path class="cls-83" d="M744.3,61.52h0a.64.64,0,0,0-.23-.05l0,0-.26-.06h0l-.25-.06,0,0-.26-.07,0,0-.25-.06,0,0a1.06,1.06,0,0,1-.25-.09h0a1,1,0,0,0-.23-.08l0,0c-.09-.05-.17-.07-.26-.11h0a1.23,1.23,0,0,1-.23-.11l0,0-.25-.08,0,0a2.72,2.72,0,0,1-.25-.11l0,0a1.63,1.63,0,0,0-.25-.1l0,0-.25-.13,0,0-.27-.13h0a1.16,1.16,0,0,1-.26-.15h0a1.57,1.57,0,0,0-.25-.14l0,0a1.65,1.65,0,0,1-.26-.14h0c-.08-.07-.17-.11-.25-.17h0a1.31,1.31,0,0,1-.28-.17h0c-.08-.06-.17-.1-.25-.17l0,0a1.92,1.92,0,0,1-.26-.17h0l-.25-.19,0,0a1,1,0,0,1-.28-.17q4.34-17.48,8.68-35Z"/><path class="cls-84" d="M746.52,21.61q4.25,14.66,8.5,29.33c-5.46,3.78-10.93,3.55-16.39,0q3.95-14.65,7.89-29.33Z"/><path class="cls-85" d="M743.16,53.1a17.62,17.62,0,0,1-4.53-2.16q3.95-14.65,7.89-29.33Z"/><path class="cls-86" d="M746.56,17.37q3.45,11.49,6.9,23c-4.43,3-8.86,2.79-13.27,0q3.19-11.52,6.37-23Z"/><path class="cls-79" d="M743.4,42a11.29,11.29,0,0,1-3.21-1.59q3.19-11.52,6.37-23Z"/><polygon class="cls-80" points="799.94 401.16 799.94 412.28 798.21 413.29 798.21 401.22 799.94 401.16"/><polygon class="cls-81" points="796.46 401.16 796.46 412.28 798.21 413.29 798.21 401.22 796.46 401.16"/><path class="cls-82" d="M797.3,363.87q4.69,17.47,9.37,35c-6,4.5-12,4.22-18,0l8.67-35Z"/><path class="cls-83" d="M795.13,401.81h0a.93.93,0,0,0-.23,0l-.05,0-.25-.06h0l-.25-.06,0,0-.26-.07,0,0-.25-.06,0,0a1.29,1.29,0,0,1-.26-.08h0a1,1,0,0,0-.23-.08l0,0c-.09-.05-.17-.07-.26-.11h0a1.23,1.23,0,0,1-.23-.11l0,0-.26-.08,0,0a2.72,2.72,0,0,1-.25-.11l0,0a1.39,1.39,0,0,0-.26-.1l0,0-.25-.12,0,0c-.09,0-.17-.09-.28-.13h0a1.38,1.38,0,0,1-.25-.15h0l-.25-.15,0,0a1.57,1.57,0,0,1-.25-.14h0l-.25-.17h0a1.89,1.89,0,0,1-.28-.17h0l-.25-.17,0,0a1.92,1.92,0,0,1-.26-.17h0l-.25-.19,0,0a1.31,1.31,0,0,1-.28-.17l8.67-35Z"/><path class="cls-84" d="M797.35,361.91q4.24,14.65,8.5,29.33c-5.46,3.78-10.93,3.55-16.39,0q3.94-14.65,7.89-29.33Z"/><path class="cls-85" d="M794,393.4a18,18,0,0,1-4.53-2.16q3.94-14.65,7.89-29.33Z"/><path class="cls-86" d="M797.39,357.67q3.45,11.49,6.9,23c-4.43,3-8.86,2.79-13.27,0q3.19-11.52,6.37-23Z"/><path class="cls-79" d="M794.22,382.28a11.37,11.37,0,0,1-3.2-1.59q3.19-11.52,6.37-23Z"/><polygon class="cls-80" points="775.84 412.35 775.84 423.47 774.11 424.48 774.11 412.41 775.84 412.35"/><polygon class="cls-81" points="772.36 412.35 772.36 423.47 774.11 424.48 774.11 412.41 772.36 412.35"/><path class="cls-82" d="M773.2,375.06q4.69,17.47,9.37,35c-6,4.49-12,4.21-18,0l8.67-35Z"/><path class="cls-83" d="M771,413h0a1,1,0,0,0-.24,0l0,0-.25-.07h0l-.26-.06,0,0-.25-.06,0,0a2.44,2.44,0,0,1-.26-.06l0,0a1.21,1.21,0,0,1-.25-.08h0a.84.84,0,0,0-.23-.09l-.05,0-.25-.1h0c-.09-.05-.17-.07-.23-.11l0,0-.25-.08,0,0-.25-.1,0,0a1,1,0,0,0-.26-.11l0,0-.25-.13,0,0-.27-.12h0c-.08-.05-.17-.09-.25-.15h0a1.74,1.74,0,0,0-.26-.15l0,0a1.65,1.65,0,0,1-.25-.15h0c-.09-.06-.17-.1-.26-.17h0a1.2,1.2,0,0,1-.27-.16h0l-.26-.18,0,0a1.75,1.75,0,0,1-.25-.16h0l-.26-.2h0a1.78,1.78,0,0,1-.27-.17l8.67-35Z"/><path class="cls-84" d="M773.24,373.1q4.25,14.65,8.51,29.33c-5.47,3.78-10.93,3.54-16.4,0q4-14.65,7.89-29.33Z"/><path class="cls-85" d="M769.89,404.58a17.63,17.63,0,0,1-4.54-2.15q4-14.65,7.89-29.33Z"/><path class="cls-86" d="M773.29,368.85q3.45,11.49,6.9,23c-4.44,3-8.87,2.78-13.28,0,2.13-7.68,4.24-15.37,6.38-23Z"/><path class="cls-79" d="M770.12,393.46a11.51,11.51,0,0,1-3.21-1.58c2.13-7.68,4.24-15.37,6.38-23Z"/></g></g><g id="Berries"><path class="cls-87" d="M992.32,577.84c.17-.13.34-.28.51-.43,1.54,1.31,4.2,1.69,7.11.83,4.32-1.31,7.55-4.92,7.21-8.08-.23-2.09-.29-4-.63-5.72-1.12-5.49-7.17-6.88-11-2.72-4.29,3.27-5.41,5.59-5.66,9.18s.74,5.16,2.49,6.94Z"/><path class="cls-88" d="M986.66,568.72a6.22,6.22,0,1,0,7.5,9.84,6,6,0,0,0,10.59-4.44,6,6,0,0,0-1-2.57,8.45,8.45,0,0,0,.19-3.34,8.7,8.7,0,0,0-17.29.51Z"/><path class="cls-89" d="M992.09,563.85a1.75,1.75,0,1,0,1.77,1.75,1.75,1.75,0,0,0-1.77-1.75Z"/><path class="cls-11" d="M993.44,566.74a1.88,1.88,0,0,0,.42-1.14,1.77,1.77,0,0,0-1.29-1.69,1.47,1.47,0,0,0,.47,2.87,2.85,2.85,0,0,0,.4,0Z"/><path class="cls-86" d="M993.8,578.87a3.84,3.84,0,0,1,.36-.31,6,6,0,0,0,10.59-4.44,6,6,0,0,0-1-2.57,8.45,8.45,0,0,0,.19-3.34,8.71,8.71,0,0,0-7.33-7.44,13.47,13.47,0,0,0-2.82,18.1Z"/><path class="cls-89" d="M999.14,567a2.33,2.33,0,1,0,2.32,2.34,2.33,2.33,0,0,0-2.32-2.34Z"/><path class="cls-11" d="M1000.91,570.79a2.32,2.32,0,0,0,.55-1.5,2.29,2.29,0,0,0-1.67-2.23,1.94,1.94,0,0,0,.59,3.79,2.26,2.26,0,0,0,.53-.06Z"/><path class="cls-89" d="M994.77,571.42a2.34,2.34,0,0,0,0,4.67,2.34,2.34,0,1,0,0-4.67Z"/><path class="cls-11" d="M996.56,575.24a2.32,2.32,0,0,0,.55-1.5,2.35,2.35,0,0,0-1.69-2.23,2,2,0,0,0-1.35,1.88,1.94,1.94,0,0,0,1.94,1.94,1.76,1.76,0,0,0,.55-.09Z"/><path class="cls-89" d="M1000.49,572.54a1.47,1.47,0,1,0,1.45,1.48,1.46,1.46,0,0,0-1.45-1.48Z"/><path class="cls-11" d="M1001.6,575a1.4,1.4,0,0,0,.34-.93,1.44,1.44,0,0,0-1.05-1.41,1.22,1.22,0,0,0,.38,2.38.88.88,0,0,0,.33,0Z"/><path class="cls-89" d="M986.66,565.94a1.76,1.76,0,1,0,1.76,1.75,1.75,1.75,0,0,0-1.76-1.75Z"/><path class="cls-11" d="M988,568.83a1.78,1.78,0,0,0,.4-1.14,1.75,1.75,0,0,0-1.27-1.69,1.5,1.5,0,0,0-1,1.41,1.47,1.47,0,0,0,1.47,1.48,1.49,1.49,0,0,0,.43-.06Z"/><path class="cls-89" d="M985,571.78a1.75,1.75,0,1,0,1.75,1.75,1.75,1.75,0,0,0-1.75-1.75Z"/><path class="cls-11" d="M986.33,574.67a1.8,1.8,0,0,0,.4-1.14,1.74,1.74,0,0,0-1.27-1.68,1.46,1.46,0,0,0-1,1.41,1.48,1.48,0,0,0,1.47,1.46,1.21,1.21,0,0,0,.43-.05Z"/><path class="cls-87" d="M967,561.25c.17-.12.34-.27.5-.4,1.54,1.29,4.2,1.67,7.09.8,4.35-1.31,7.58-4.92,7.22-8.08-.23-2.09-.27-4-.61-5.72-1.12-5.48-7.18-6.88-11-2.72-4.3,3.27-5.42,5.61-5.67,9.18s.74,5.19,2.51,6.94Z"/><path class="cls-88" d="M961.34,552.16a6.22,6.22,0,0,0,4,11.48,6.28,6.28,0,0,0,3.44-1.67,6,6,0,0,0,5.49,2.26,6,6,0,0,0,5.11-6.69,6,6,0,0,0-1-2.57,9.43,9.43,0,0,0,.19-3.32,8.71,8.71,0,0,0-17.31.51Z"/><path class="cls-89" d="M966.79,547.26a1.76,1.76,0,1,0,1.75,1.75,1.75,1.75,0,0,0-1.75-1.75Z"/><path class="cls-11" d="M968.14,550.15a1.78,1.78,0,0,0,.4-1.14,1.75,1.75,0,0,0-1.27-1.69,1.49,1.49,0,0,0,.44,2.9,1.61,1.61,0,0,0,.43-.07Z"/><path class="cls-86" d="M968.47,562.28a3.84,3.84,0,0,0,.36-.31,6,6,0,0,0,5.49,2.26,6,6,0,0,0,5.11-6.69,6,6,0,0,0-1-2.57,9.43,9.43,0,0,0,.19-3.32,8.7,8.7,0,0,0-7.33-7.45,13.5,13.5,0,0,0-2.85,18.08Z"/><path class="cls-89" d="M973.83,550.39a2.32,2.32,0,1,0,2.33,2.32,2.33,2.33,0,0,0-2.33-2.32Z"/><path class="cls-11" d="M975.61,554.21a2.4,2.4,0,0,0,.55-1.5,2.33,2.33,0,0,0-1.69-2.24,2,2,0,0,0,.59,3.82,2.43,2.43,0,0,0,.55-.08Z"/><path class="cls-89" d="M969.47,554.84a2.33,2.33,0,1,0,2.32,2.34,2.33,2.33,0,0,0-2.32-2.34Z"/><path class="cls-11" d="M971.24,558.68a2.36,2.36,0,0,0,.55-1.5,2.31,2.31,0,0,0-1.67-2.24,1.94,1.94,0,0,0,.59,3.8,2.26,2.26,0,0,0,.53-.06Z"/><path class="cls-89" d="M975.19,556a1.46,1.46,0,1,0,1.45,1.45,1.45,1.45,0,0,0-1.45-1.45Z"/><path class="cls-11" d="M976.3,558.36a1.43,1.43,0,0,0,.34-.93,1.47,1.47,0,0,0-1-1.41,1.25,1.25,0,0,0-.85,1.18,1.23,1.23,0,0,0,1.23,1.22,1,1,0,0,0,.33-.06Z"/><path class="cls-89" d="M961.36,549.35a1.76,1.76,0,1,0,0,3.52,1.76,1.76,0,0,0,0-3.52Z"/><path class="cls-11" d="M962.69,552.24a1.61,1.61,0,0,0,.42-1.12,1.72,1.72,0,0,0-1.26-1.68,1.46,1.46,0,0,0,.44,2.86,1.25,1.25,0,0,0,.4-.06Z"/><path class="cls-89" d="M959.67,555.19a1.77,1.77,0,1,0,1.76,1.76,1.76,1.76,0,0,0-1.76-1.76Z"/><path class="cls-11" d="M961,558.09a1.68,1.68,0,0,0,.43-1.14,1.75,1.75,0,0,0-1.27-1.69,1.48,1.48,0,0,0,.44,2.89,1.25,1.25,0,0,0,.4-.06Z"/><path class="cls-87" d="M820.29,683.11q.26-.2.51-.42c1.54,1.31,4.2,1.69,7.11.82,4.33-1.31,7.55-4.92,7.22-8.08-.24-2.09-.3-4-.64-5.72-1.12-5.49-7.17-6.88-11-2.72-4.29,3.27-5.41,5.59-5.66,9.18s.74,5.17,2.49,6.94Z"/><path class="cls-88" d="M814.64,674a6.22,6.22,0,1,0,7.49,9.84,5.95,5.95,0,0,0,9.6-7,8.44,8.44,0,0,0,.19-3.34,8.69,8.69,0,0,0-17.28.51Z"/><path class="cls-89" d="M820.06,669.12a1.75,1.75,0,1,0,1.77,1.75,1.75,1.75,0,0,0-1.77-1.75Z"/><path class="cls-11" d="M821.41,672a1.88,1.88,0,0,0,.42-1.14,1.78,1.78,0,0,0-1.29-1.69,1.47,1.47,0,0,0,.47,2.87,2.71,2.71,0,0,0,.4,0Z"/><path class="cls-86" d="M821.77,684.14a3.84,3.84,0,0,1,.36-.31,5.95,5.95,0,0,0,9.6-7,8.44,8.44,0,0,0,.19-3.34A8.71,8.71,0,0,0,824.6,666a13.46,13.46,0,0,0-2.83,18.1Z"/><path class="cls-89" d="M827.11,672.22a2.34,2.34,0,1,0,2.32,2.34,2.33,2.33,0,0,0-2.32-2.34Z"/><path class="cls-11" d="M828.88,676.06a2.32,2.32,0,0,0,.55-1.5,2.29,2.29,0,0,0-1.67-2.23,1.94,1.94,0,0,0,.59,3.79,2.26,2.26,0,0,0,.53-.06Z"/><path class="cls-89" d="M822.74,676.69a2.34,2.34,0,0,0,0,4.67,2.34,2.34,0,1,0,0-4.67Z"/><path class="cls-11" d="M824.53,680.51a2.32,2.32,0,0,0,.55-1.49,2.35,2.35,0,0,0-1.69-2.24,2,2,0,0,0-1.35,1.88A1.94,1.94,0,0,0,824,680.6a1.51,1.51,0,0,0,.55-.09Z"/><path class="cls-89" d="M828.46,677.81a1.47,1.47,0,0,0,0,2.93,1.47,1.47,0,0,0,0-2.93Z"/><path class="cls-11" d="M829.58,680.22a1.47,1.47,0,0,0-.72-2.34A1.24,1.24,0,0,0,828,679a1.22,1.22,0,0,0,1.22,1.22.94.94,0,0,0,.34,0Z"/><path class="cls-89" d="M814.64,671.21a1.76,1.76,0,1,0,1.75,1.75,1.75,1.75,0,0,0-1.75-1.75Z"/><path class="cls-11" d="M816,674.1a1.78,1.78,0,0,0,.4-1.14,1.75,1.75,0,0,0-1.27-1.69,1.5,1.5,0,0,0-1,1.42,1.47,1.47,0,0,0,1.47,1.47,1.49,1.49,0,0,0,.43-.06Z"/><path class="cls-89" d="M813,677.05a1.75,1.75,0,1,0,1.75,1.75,1.75,1.75,0,0,0-1.75-1.75Z"/><path class="cls-11" d="M814.3,679.94a1.78,1.78,0,0,0,.4-1.14,1.74,1.74,0,0,0-1.27-1.68,1.47,1.47,0,0,0,.45,2.87,1.18,1.18,0,0,0,.42,0Z"/><path class="cls-87" d="M792,665.57c.17-.13.34-.28.5-.42,1.54,1.31,4.2,1.69,7.12.82,4.32-1.3,7.55-4.91,7.21-8.08-.23-2.09-.29-4-.63-5.72-1.12-5.48-7.17-6.88-11-2.72-4.28,3.27-5.4,5.59-5.65,9.18s.74,5.17,2.49,6.94Z"/><path class="cls-88" d="M786.37,656.46a6.21,6.21,0,0,0,4,11.47,6.14,6.14,0,0,0,3.46-1.64,6,6,0,0,0,10.6-4.43,6,6,0,0,0-1-2.58,8.41,8.41,0,0,0,.18-3.33,8.69,8.69,0,0,0-17.28.51Z"/><path class="cls-89" d="M791.8,651.58a1.75,1.75,0,1,0,1.77,1.75,1.75,1.75,0,0,0-1.77-1.75Z"/><path class="cls-11" d="M793.15,654.47a1.88,1.88,0,0,0,.42-1.14,1.78,1.78,0,0,0-1.29-1.69,1.48,1.48,0,0,0,.47,2.88,2.91,2.91,0,0,0,.4,0Z"/><path class="cls-86" d="M793.51,666.61a3.59,3.59,0,0,1,.35-.32,6,6,0,0,0,10.6-4.43,6,6,0,0,0-1-2.58,8.41,8.41,0,0,0,.18-3.33,8.69,8.69,0,0,0-7.32-7.45,13.49,13.49,0,0,0-2.82,18.11Z"/><path class="cls-89" d="M798.84,654.68a2.34,2.34,0,1,0,2.33,2.34,2.34,2.34,0,0,0-2.33-2.34Z"/><path class="cls-11" d="M800.62,658.52a2.38,2.38,0,0,0,.55-1.5,2.3,2.3,0,0,0-1.67-2.23,1.94,1.94,0,0,0,.59,3.79,2.26,2.26,0,0,0,.53-.06Z"/><path class="cls-89" d="M794.48,659.16a2.33,2.33,0,1,0,0,4.66,2.33,2.33,0,1,0,0-4.66Z"/><path class="cls-11" d="M796.27,663a2.32,2.32,0,0,0,.55-1.5,2.36,2.36,0,0,0-1.69-2.24,2,2,0,0,0-1.35,1.88,1.94,1.94,0,0,0,1.94,1.94,1.75,1.75,0,0,0,.55-.08Z"/><path class="cls-89" d="M800.19,660.28a1.47,1.47,0,1,0,1.46,1.47,1.46,1.46,0,0,0-1.46-1.47Z"/><path class="cls-11" d="M801.31,662.68a1.43,1.43,0,0,0,.34-.93,1.46,1.46,0,0,0-1-1.41,1.25,1.25,0,0,0-.85,1.16,1.23,1.23,0,0,0,1.23,1.22.88.88,0,0,0,.33,0Z"/><path class="cls-89" d="M786.37,653.67a1.76,1.76,0,1,0,1.75,1.75,1.75,1.75,0,0,0-1.75-1.75Z"/><path class="cls-11" d="M787.72,656.56a1.72,1.72,0,0,0,.4-1.14,1.74,1.74,0,0,0-1.26-1.69,1.51,1.51,0,0,0-1,1.42,1.48,1.48,0,0,0,1.48,1.47,1.37,1.37,0,0,0,.42-.06Z"/><path class="cls-89" d="M784.68,659.51a1.76,1.76,0,1,0,1.76,1.76,1.75,1.75,0,0,0-1.76-1.76Z"/><path class="cls-11" d="M786,662.41a1.82,1.82,0,0,0,.4-1.14,1.74,1.74,0,0,0-1.27-1.69,1.47,1.47,0,0,0,.44,2.87,1.5,1.5,0,0,0,.43,0Z"/><path class="cls-87" d="M863,661.2c.17-.13.34-.28.51-.43,1.54,1.31,4.2,1.69,7.11.83,4.33-1.31,7.56-4.92,7.22-8.08-.23-2.09-.3-4-.63-5.72-1.12-5.49-7.18-6.88-11-2.73-4.28,3.28-5.4,5.6-5.65,9.18s.73,5.17,2.48,7Z"/><path class="cls-88" d="M857.38,652.08a6.21,6.21,0,1,0,7.49,9.83,5.95,5.95,0,0,0,10.59-4.43,5.74,5.74,0,0,0-1-2.57,8.28,8.28,0,0,0,.19-3.34,8.69,8.69,0,0,0-17.28.51Z"/><path class="cls-89" d="M862.8,647.21a1.75,1.75,0,0,0,0,3.5,1.75,1.75,0,1,0,0-3.5Z"/><path class="cls-11" d="M864.15,650.09a1.78,1.78,0,0,0,.43-1.13,1.76,1.76,0,0,0-1.29-1.69,1.47,1.47,0,0,0,.46,2.87,1.75,1.75,0,0,0,.4,0Z"/><path class="cls-86" d="M864.51,662.23c.11-.11.23-.21.36-.32a5.95,5.95,0,0,0,10.59-4.43,5.74,5.74,0,0,0-1-2.57,8.28,8.28,0,0,0,.19-3.34,8.7,8.7,0,0,0-7.32-7.44,13.46,13.46,0,0,0-2.83,18.1Z"/><path class="cls-89" d="M869.85,650.31a2.33,2.33,0,1,0,2.32,2.34,2.33,2.33,0,0,0-2.32-2.34Z"/><path class="cls-11" d="M871.62,654.15a2.32,2.32,0,0,0,.55-1.5,2.3,2.3,0,0,0-1.66-2.24,1.94,1.94,0,0,0,.59,3.8,2.18,2.18,0,0,0,.52-.06Z"/><path class="cls-89" d="M865.48,654.78a2.33,2.33,0,0,0,0,4.66,2.33,2.33,0,1,0,0-4.66Z"/><path class="cls-11" d="M867.28,658.6a2.33,2.33,0,0,0-1.14-3.74,2,2,0,0,0-1.35,1.88,1.94,1.94,0,0,0,1.94,2,1.76,1.76,0,0,0,.55-.09Z"/><path class="cls-89" d="M871.2,655.9a1.47,1.47,0,1,0,1.46,1.48,1.46,1.46,0,0,0-1.46-1.48Z"/><path class="cls-11" d="M872.32,658.3a1.43,1.43,0,0,0,.34-.92A1.47,1.47,0,0,0,871.6,656a1.26,1.26,0,0,0-.84,1.16,1.23,1.23,0,0,0,1.22,1.23.76.76,0,0,0,.34-.05Z"/><path class="cls-89" d="M857.38,649.29a1.77,1.77,0,1,0,1.75,1.76,1.75,1.75,0,0,0-1.75-1.76Z"/><path class="cls-11" d="M858.73,652.18a1.77,1.77,0,0,0-.87-2.82,1.5,1.5,0,0,0-1,1.41,1.48,1.48,0,0,0,1.48,1.48,1.16,1.16,0,0,0,.42-.07Z"/><path class="cls-89" d="M855.69,655.14a1.75,1.75,0,1,0,1.75,1.75,1.75,1.75,0,0,0-1.75-1.75Z"/><path class="cls-11" d="M857,658a1.82,1.82,0,0,0,.4-1.14,1.74,1.74,0,0,0-1.26-1.69,1.49,1.49,0,0,0-1,1.42,1.48,1.48,0,0,0,1.48,1.45,1.4,1.4,0,0,0,.42,0Z"/><path class="cls-87" d="M898,636.31l.51-.42c1.54,1.31,4.2,1.69,7.11.82,4.33-1.31,7.55-4.91,7.22-8.08-.24-2.09-.3-4-.64-5.72-1.11-5.48-7.17-6.88-11-2.72-4.29,3.27-5.41,5.59-5.66,9.18s.74,5.17,2.49,6.94Z"/><path class="cls-88" d="M892.33,627.19a6.21,6.21,0,0,0,4,11.48,6.1,6.1,0,0,0,3.46-1.64,5.95,5.95,0,0,0,9.6-7,8.4,8.4,0,0,0,.19-3.33,8.69,8.69,0,0,0-17.28.5Z"/><path class="cls-89" d="M897.75,622.32a1.75,1.75,0,1,0,1.77,1.75,1.75,1.75,0,0,0-1.77-1.75Z"/><path class="cls-11" d="M899.1,625.21a1.86,1.86,0,0,0,.42-1.14,1.78,1.78,0,0,0-1.28-1.69,1.47,1.47,0,0,0,.46,2.87,2.71,2.71,0,0,0,.4,0Z"/><path class="cls-86" d="M899.46,637.35a3.88,3.88,0,0,1,.36-.32,5.95,5.95,0,0,0,9.6-7,8.4,8.4,0,0,0,.19-3.33,8.71,8.71,0,0,0-7.32-7.45,13.48,13.48,0,0,0-2.83,18.11Z"/><path class="cls-89" d="M904.8,625.42a2.34,2.34,0,1,0,2.32,2.35,2.33,2.33,0,0,0-2.32-2.35Z"/><path class="cls-11" d="M906.57,629.26a2.32,2.32,0,0,0-1.12-3.73,1.94,1.94,0,0,0,.59,3.8,1.83,1.83,0,0,0,.53-.07Z"/><path class="cls-89" d="M900.43,629.9a2.31,2.31,0,0,0-2.32,2.32,2.33,2.33,0,1,0,2.32-2.32Z"/><path class="cls-11" d="M902.22,633.71a2.3,2.3,0,0,0,.55-1.49,2.36,2.36,0,0,0-1.69-2.24,2,2,0,0,0-1.35,1.88,1.94,1.94,0,0,0,1.94,1.94,1.51,1.51,0,0,0,.55-.09Z"/><path class="cls-89" d="M906.15,631a1.47,1.47,0,1,0,1.45,1.47,1.46,1.46,0,0,0-1.45-1.47Z"/><path class="cls-11" d="M907.27,633.42a1.43,1.43,0,0,0,.33-.93,1.46,1.46,0,0,0-1.05-1.41,1.24,1.24,0,0,0-.84,1.16,1.22,1.22,0,0,0,1.22,1.22.94.94,0,0,0,.34,0Z"/><path class="cls-89" d="M892.33,624.41a1.76,1.76,0,1,0,1.75,1.75,1.75,1.75,0,0,0-1.75-1.75Z"/><path class="cls-11" d="M893.68,627.3a1.78,1.78,0,0,0-.87-2.83,1.5,1.5,0,0,0-1,1.42,1.47,1.47,0,0,0,1.47,1.47,1.49,1.49,0,0,0,.43-.06Z"/><path class="cls-89" d="M890.64,630.26a1.75,1.75,0,1,0,1.75,1.75,1.75,1.75,0,0,0-1.75-1.75Z"/><path class="cls-11" d="M892,633.15a1.82,1.82,0,0,0,.4-1.14,1.74,1.74,0,0,0-1.27-1.69,1.47,1.47,0,0,0,.45,2.87,1.46,1.46,0,0,0,.42,0Z"/><path class="cls-87" d="M871.51,618.87l.51-.42c1.54,1.31,4.19,1.69,7.11.82,4.32-1.31,7.55-4.91,7.21-8.08-.23-2.09-.29-4-.63-5.72-1.12-5.48-7.17-6.88-11-2.72-4.29,3.27-5.41,5.59-5.66,9.18s.74,5.17,2.49,6.94Z"/><path class="cls-88" d="M865.85,609.76a6.21,6.21,0,0,0,4,11.47,6.1,6.1,0,0,0,3.46-1.64,6,6,0,0,0,9.61-7,8.7,8.7,0,0,0-9.58-10.78,8.68,8.68,0,0,0-7.52,8Z"/><path class="cls-89" d="M871.28,604.88a1.75,1.75,0,1,0,1.77,1.75,1.75,1.75,0,0,0-1.77-1.75Z"/><path class="cls-11" d="M872.63,607.77a1.86,1.86,0,0,0,.42-1.14,1.77,1.77,0,0,0-1.29-1.69,1.47,1.47,0,0,0,.47,2.87,2.85,2.85,0,0,0,.4,0Z"/><path class="cls-86" d="M873,619.91a3.59,3.59,0,0,1,.35-.32,6,6,0,0,0,9.61-7,8.59,8.59,0,0,0,.19-3.33,8.71,8.71,0,0,0-7.33-7.45A13.49,13.49,0,0,0,873,619.91Z"/><path class="cls-89" d="M878.33,608a2.34,2.34,0,1,0,2.32,2.34,2.34,2.34,0,0,0-2.32-2.34Z"/><path class="cls-11" d="M880.1,611.82a2.32,2.32,0,0,0,.55-1.5,2.3,2.3,0,0,0-1.67-2.23,1.94,1.94,0,0,0,.59,3.8,1.83,1.83,0,0,0,.53-.07Z"/><path class="cls-89" d="M874,612.46a2.31,2.31,0,0,0-2.32,2.32,2.33,2.33,0,0,0,2.32,2.34,2.36,2.36,0,0,0,2.34-2.34,2.33,2.33,0,0,0-2.34-2.32Z"/><path class="cls-11" d="M875.75,616.27a2.3,2.3,0,0,0,.55-1.49,2.35,2.35,0,0,0-1.69-2.24,2,2,0,0,0-1.35,1.88,1.94,1.94,0,0,0,1.94,1.94,1.51,1.51,0,0,0,.55-.09Z"/><path class="cls-89" d="M879.68,613.58a1.47,1.47,0,1,0,1.45,1.47,1.46,1.46,0,0,0-1.45-1.47Z"/><path class="cls-11" d="M880.79,616a1.43,1.43,0,0,0,.34-.93,1.46,1.46,0,0,0-1-1.41,1.25,1.25,0,0,0-.85,1.16,1.23,1.23,0,0,0,1.23,1.22.88.88,0,0,0,.33,0Z"/><path class="cls-89" d="M865.85,607a1.76,1.76,0,1,0,1.76,1.75,1.75,1.75,0,0,0-1.76-1.75Z"/><path class="cls-11" d="M867.2,609.86a1.71,1.71,0,0,0,.41-1.14,1.76,1.76,0,0,0-1.27-1.69,1.51,1.51,0,0,0-1,1.42,1.49,1.49,0,0,0,1.48,1.48,1.37,1.37,0,0,0,.42-.07Z"/><path class="cls-89" d="M864.17,612.81a1.76,1.76,0,1,0,1.75,1.76,1.75,1.75,0,0,0-1.75-1.76Z"/><path class="cls-11" d="M865.52,615.7a1.77,1.77,0,0,0,.4-1.13,1.74,1.74,0,0,0-1.27-1.69,1.47,1.47,0,0,0,.44,2.87,1.21,1.21,0,0,0,.43,0Z"/><path class="cls-87" d="M833.66,642.6c.17-.13.34-.28.51-.43,1.53,1.31,4.19,1.69,7.11.83,4.32-1.31,7.55-4.92,7.21-8.09-.23-2.09-.29-4-.63-5.71-1.12-5.49-7.17-6.88-11-2.73-4.28,3.27-5.4,5.6-5.65,9.18s.74,5.17,2.49,7Z"/><path class="cls-88" d="M828,633.48A6.21,6.21,0,0,0,832,645a6.15,6.15,0,0,0,3.46-1.65,5.95,5.95,0,0,0,9.61-7,8.7,8.7,0,1,0-17.1-2.83Z"/><path class="cls-89" d="M833.43,628.6a1.76,1.76,0,1,0,1.77,1.76,1.76,1.76,0,0,0-1.77-1.76Z"/><path class="cls-11" d="M834.78,631.5a1.88,1.88,0,0,0,.42-1.14,1.77,1.77,0,0,0-1.29-1.69,1.47,1.47,0,0,0,.47,2.87,2.85,2.85,0,0,0,.4,0Z"/><path class="cls-86" d="M835.14,643.63c.1-.11.23-.21.35-.32a5.95,5.95,0,0,0,9.61-7A8.73,8.73,0,0,0,838,625.52a13.49,13.49,0,0,0-2.82,18.11Z"/><path class="cls-89" d="M840.47,631.71a2.33,2.33,0,1,0,2.33,2.34,2.33,2.33,0,0,0-2.33-2.34Z"/><path class="cls-11" d="M842.25,635.55a2.38,2.38,0,0,0,.55-1.5,2.31,2.31,0,0,0-1.67-2.24,2,2,0,0,0-1.37,1.86,2,2,0,0,0,2,1.94,2.26,2.26,0,0,0,.53-.06Z"/><path class="cls-89" d="M836.11,636.18a2.34,2.34,0,0,0,0,4.67,2.34,2.34,0,1,0,0-4.67Z"/><path class="cls-11" d="M837.9,640a2.32,2.32,0,0,0,.55-1.5,2.35,2.35,0,0,0-1.69-2.23,2,2,0,0,0-1.35,1.88,1.93,1.93,0,0,0,1.94,1.93,1.75,1.75,0,0,0,.55-.08Z"/><path class="cls-89" d="M841.83,637.3a1.47,1.47,0,1,0,1.45,1.48,1.46,1.46,0,0,0-1.45-1.48Z"/><path class="cls-11" d="M842.94,639.7a1.43,1.43,0,0,0,.34-.92,1.46,1.46,0,0,0-1-1.42,1.26,1.26,0,0,0-.85,1.16,1.23,1.23,0,0,0,1.23,1.23.72.72,0,0,0,.33,0Z"/><path class="cls-89" d="M828,630.7a1.76,1.76,0,1,0,1.76,1.75A1.75,1.75,0,0,0,828,630.7Z"/><path class="cls-11" d="M829.35,633.58a1.68,1.68,0,0,0,.41-1.13,1.74,1.74,0,0,0-1.27-1.69,1.51,1.51,0,0,0-1,1.41,1.48,1.48,0,0,0,1.48,1.48,1.12,1.12,0,0,0,.42-.07Z"/><path class="cls-89" d="M826.31,636.54a1.75,1.75,0,1,0,1.76,1.75,1.75,1.75,0,0,0-1.76-1.75Z"/><path class="cls-11" d="M827.67,639.43a1.82,1.82,0,0,0,.4-1.14,1.76,1.76,0,0,0-1.27-1.69,1.48,1.48,0,0,0-1,1.42,1.47,1.47,0,0,0,1.47,1.45,1.5,1.5,0,0,0,.43,0Z"/></g><polygon id="Gate_s_Shadow" data-name="Gate&apos;s Shadow" class="cls-7" points="479.77 430.6 519.74 407.56 583.68 444.46 540.65 469.32 543.12 470.76 593.49 441.66 523.6 401.33 476.31 428.62 479.45 430.77 479.77 430.6"/><g id="Left_Wall" data-name="Left Wall"><polygon class="cls-27" points="647.74 531.53 847.26 416.34 847.26 393.88 647.74 509.08 647.74 531.53"/><polygon class="cls-4" points="647.74 509.14 847.26 393.88 843.82 391.9 644.24 507.13 647.74 509.14"/></g><g id="Gate"><polygon class="cls-9" points="526.55 426.23 528.11 425.32 528.11 411.56 526.34 410.55 526.55 426.23"/><polygon class="cls-4" points="474.22 408.91 314.54 316.65 321.46 316.67 477.7 406.88 474.22 408.91"/><polygon class="cls-73" points="476.26 382.46 476.33 432.58 479.77 430.6 479.77 380.46 476.26 382.46"/><polygon class="cls-10" points="647.74 531.53 543.62 471.45 543.62 449 647.74 509.08 647.74 531.53"/><polygon class="cls-4" points="647.74 509.08 543.62 448.94 547.06 446.95 651.22 507.07 647.74 509.08"/><polygon class="cls-90" points="526.55 426.23 496.02 408.59 496.02 393.86 526.55 411.5 526.55 426.23"/><polygon class="cls-4" points="543.6 421.38 474.13 381.18 477.57 379.17 547.09 419.35 543.6 421.38"/><polygon class="cls-73" points="543.6 421.38 543.64 449 547.09 447.01 547.09 419.35 543.6 421.38"/><polygon class="cls-10" points="474.22 431.36 314.54 339.16 314.54 316.71 474.22 408.91 474.22 431.36"/><polygon class="cls-10" points="543.61 421.4 541.13 420.09 541.13 470.12 543.61 471.39 543.61 421.4"/><polygon class="cls-10" points="543.62 421.38 543.64 423.89 474.22 383.71 474.22 381.2 543.62 421.38"/><polygon class="cls-10" points="476.31 382.48 474.13 381.18 474.15 431.41 476.31 432.67 476.31 382.48"/></g></g></g></svg>