<svg xmlns="http://www.w3.org/2000/svg" viewBox="0 0 995.58 726.86"><defs><style>.cls-1{isolation:isolate;}.cls-2{fill:#5b8e17;}.cls-2,.cls-3,.cls-4{fill-rule:evenodd;}.cls-3{fill:#9ace50;}.cls-4{fill:#7cb228;}.cls-5{fill:#fff;}.cls-6{opacity:0.2;}.cls-10,.cls-18,.cls-30,.cls-39,.cls-6{mix-blend-mode:multiply;}.cls-7{fill:#62239e;}.cls-8{fill:#c2d342;}.cls-9{fill:#aeb73e;}.cls-10,.cls-17{opacity:0.3;}.cls-11{fill:#4e2c09;}.cls-12{fill:#a34428;}.cls-13{fill:#79a109;}.cls-14,.cls-30{opacity:0.5;}.cls-15{fill:#576d06;}.cls-16{fill:#c65c38;}.cls-17{fill:none;stroke:#fff;stroke-miterlimit:10;stroke-width:1.58px;}.cls-18{opacity:0.4;}.cls-19{fill:#ba9458;}.cls-20{fill:#c66340;}.cls-21{fill:#ffdb97;}.cls-22{fill:#0b2025;}.cls-23{fill:#ffedd4;}.cls-24{fill:#d0b987;}.cls-25{fill:#ffe5a4;}.cls-26{fill:#d03c30;}.cls-27{fill:#ff5f38;}.cls-28{fill:#fc5640;}.cls-29{fill:#ef4933;}.cls-31{fill:#f9e4c2;}.cls-32{fill:#155650;}.cls-33{fill:#e0af73;}.cls-34{fill:#0a3530;}.cls-35{fill:#c97257;}.cls-36{fill:#887551;}.cls-37{fill:#c32f23;}.cls-38{fill:#dbbc82;}.cls-39,.cls-40{opacity:0.6;}.cls-41{fill:#693701;}.cls-42{fill:#412201;}.cls-43{fill:#ddb192;}.cls-44{fill:#c0b19e;}.cls-45{fill:#231f20;}.cls-46{fill:#0e7263;}.cls-47{fill:#11ceb7;}.cls-48{fill:#00a79d;}.cls-49{fill:#5b4337;}.cls-50{fill:#2e2336;}.cls-51{fill:#33363a;}.cls-52{fill:#939598;}.cls-53{fill:#d1d3d4;}.cls-54{fill:#b21b0f;}.cls-55{fill:#93110a;}.cls-56{fill:#e54b1c;}.cls-57{fill:#dd840e;}.cls-58{fill:#ffcc1f;}.cls-59{fill:#f9a423;}.cls-60{fill:#b2142b;}.cls-61{fill:#ff4545;}.cls-62{fill:#d3243e;}.cls-63{fill:#e8e9ea;}</style></defs><title>illLayer 1college</title><g class="cls-1"><g id="Calque_2" data-name="Calque 2"><g id="Layer_1" data-name="Layer 1"><g id="Grassland"><polygon class="cls-2" points="579.59 489.33 989.79 258.42 989.54 282.12 579.34 513.26 579.59 489.33"/><polygon class="cls-3" points="583.37 25.65 389.56 132.75 389.56 132.66 0 347.65 604.78 705.33 994.57 485.71 795.99 369.29 988.8 260.65 583.79 25.66 583.35 26.75 583.37 25.65"/><polygon class="cls-4" points="605.68 702.94 0.81 345.42 0.56 369.12 605.43 726.86 605.68 702.94"/><polygon class="cls-2" points="605.68 702.94 995.58 483.48 995.33 507.18 605.43 726.86 605.68 702.94"/></g><polygon class="cls-5" points="531.34 515.6 596.07 552.63 598.31 551.32 601.85 553.39 592.66 558.55 589.13 556.48 592.02 554.94 527.26 517.89 531.34 515.6"/><g class="cls-6"><path class="cls-7" d="M212.73,311.74,316,371c3.76,2.16,3.78,5.73,0,7.93l-37.47,22a15.15,15.15,0,0,1-13.66.11L145.37,333.52a13.31,13.31,0,0,1-6.13-11.74l3.31-35.56a16.29,16.29,0,0,1,7.7-11.53l74.6-39.31a16,16,0,0,1,13.81.26l39.14,22.52c3.76,2.16,3.77,5.71,0,7.89l-65.11,37.81C209,306,209,309.58,212.73,311.74Z"/></g><g class="cls-6"><path class="cls-7" d="M646.55,383,368.62,222.52a15.12,15.12,0,0,0-13.65,0l-24.08,14a15,15,0,0,1-13.64,0l-37-21.48c-3.75-2.17-3.72-5.68.07-7.79L538.73,63.1a15.57,15.57,0,0,1,13.74.06L795.8,201.59a15,15,0,0,1,6.86,11.78V355.52a15.17,15.17,0,0,1-6.83,11.83l-287.44,166a15.07,15.07,0,0,1-13.64,0L338.4,442.28c-3.74-2.18-3.71-5.7.07-7.82L376.71,413a15.38,15.38,0,0,1,13.71.08l103,59.49a15,15,0,0,0,13.63,0L646.57,390.9C650.31,388.71,650.3,385.15,646.55,383Z"/></g><path class="cls-8" d="M642.41,376.65,364.48,216.19a17.83,17.83,0,0,0-16.41,0l-24.08,14a12.35,12.35,0,0,1-10.87,0l-37-21.48c-1-.57-1.42-1.17-1.42-1.51s.45-.93,1.44-1.48L534.56,61.57a13,13,0,0,1,11.06,0L933,279.06c1,.59,1.42,1.18,1.42,1.43s-.38.84-1.43,1.41L808.37,350.51c-3.83,2.11-10,5.59-13.79,7.77L501.5,527.08a12.42,12.42,0,0,1-10.88,0L334.27,436c-1-.58-1.43-1.2-1.43-1.56s.45-1,1.45-1.55l30.42-17.4a12.46,12.46,0,0,1,10.92,0l103,59.49a17.83,17.83,0,0,0,16.41,0l147.35-85.61c2.66-1.55,4.18-3.86,4.18-6.35S645.07,378.19,642.41,376.65Z"/><polygon class="cls-9" points="540.07 63.1 540.07 63.1 540.07 63.1 540.07 63.1"/><path class="cls-9" d="M641,386.94,493.7,472.55a15.1,15.1,0,0,1-13.65,0L377,413.08a15.19,15.19,0,0,0-13.67,0l-30.42,17.41c-3.77,2.15-3.78,5.7,0,7.88l156.34,91.09a15.08,15.08,0,0,0,13.64,0L796,360.67c3.76-2.17,9.94-5.65,13.74-7.74l124.58-68.61c3.8-2.09,3.81-5.54,0-7.66L547,59.18a15.68,15.68,0,0,0-13.76,0L274.76,203.3c-3.79,2.11-3.82,5.62-.07,7.79l37,21.48a15.08,15.08,0,0,0,13.64,0l24.08-14a14.09,14.09,0,0,1,6.84-1.64,13.94,13.94,0,0,1,6.81,1.63L641,379C644.78,381.21,644.79,384.76,641,386.94Zm2.75-12.68L365.86,213.8a20.59,20.59,0,0,0-19.18,0l-24.08,14a9.66,9.66,0,0,1-8.1,0L279,207.23,535.9,64a9.12,9.12,0,0,1,4.17-.88h0a9.06,9.06,0,0,1,4.2.89L929.83,280.47,807,348.09c-3.82,2.11-10,5.61-13.83,7.79L500.12,524.69a9.78,9.78,0,0,1-8.11,0l-154.9-90.25,29-16.58a9.82,9.82,0,0,1,8.17,0l103,59.49a20.55,20.55,0,0,0,19.18,0l147.34-85.61c3.54-2,5.56-5.24,5.56-8.73S647.33,376.3,643.79,374.26Z"/><path class="cls-5" d="M641.48,383c0,.6-.61,1.31-1.63,1.91L492.51,470.5a12.77,12.77,0,0,1-11.27,0L378.2,411a17.57,17.57,0,0,0-16,0l-30.43,17.4c-2.55,1.46-4,3.64-4,6s1.44,4.53,4,6L488,531.48a17.41,17.41,0,0,0,16,0l293.09-168.8c3.75-2.16,9.9-5.63,13.7-7.72l124.58-68.61c2.59-1.42,4.08-3.57,4.09-5.88s-1.47-4.47-4-5.92L548.13,57.11a18,18,0,0,0-16.07,0L273.61,201.23c-2.57,1.43-4.06,3.59-4.08,5.92s1.43,4.51,4,6l37,21.47a17.41,17.41,0,0,0,16,0l24.08-14a12.75,12.75,0,0,1,11.28,0L639.85,381.09C640.87,381.68,641.48,382.39,641.48,383Zm4.73,0c0-2.34-1.46-4.52-4-6L364.28,216.53a17.41,17.41,0,0,0-16,0l-24.08,14a11.69,11.69,0,0,1-5.64,1.31,11.54,11.54,0,0,1-5.63-1.31l-37-21.48c-1-.58-1.62-1.29-1.62-1.85s.64-1.27,1.65-1.83L534.36,61.22a13.37,13.37,0,0,1,11.46,0L933.16,278.72c1,.55,1.62,1.25,1.61,1.77s-.64,1.21-1.63,1.76L808.56,350.86c-3.83,2.1-10,5.58-13.78,7.76L501.69,527.42a12.73,12.73,0,0,1-11.27,0L334.08,436.3c-1-.6-1.63-1.31-1.63-1.9s.62-1.3,1.64-1.89l30.43-17.4a12.86,12.86,0,0,1,11.31,0l103,59.49a17.51,17.51,0,0,0,16,0L642.23,389C644.76,387.51,646.22,385.32,646.21,383Z"/><g class="cls-6"><polygon class="cls-7" points="483.92 198.03 470.12 189.94 529.26 154.86 552.52 148.35 571.83 154.07 511.52 190.14 483.92 198.03"/></g><g class="cls-10"><path class="cls-7" d="M306.21,202.72c0-6.38,8.79-11.55,19.62-11.55s19.63,5.17,19.63,11.55-8.79,11.56-19.63,11.56S306.21,209.1,306.21,202.72Z"/></g><path class="cls-11" d="M328.1,172.61a9.72,9.72,0,0,1,.17,1.94v3.16a10.43,10.43,0,0,1-14.76,9.43l1.14-2.49a7.63,7.63,0,0,0,3.16.7,7.71,7.71,0,0,0,7.73-7.65v-3.17a8.54,8.54,0,0,0-.12-1.43Z"/><path class="cls-12" d="M312.29,206.47h0V169.82h6.87v36.65h0c0,.9-1.53,1.63-3.43,1.63S312.29,207.37,312.29,206.47Z"/><path class="cls-13" d="M290.88,153.62a26.73,26.73,0,1,1,26.73,26.72A26.73,26.73,0,0,1,290.88,153.62Z"/><g class="cls-14"><path class="cls-15" d="M324.63,127.83a26.72,26.72,0,1,1-22.51,47.56,26.72,26.72,0,0,0,22.51-47.56Z"/></g><circle class="cls-13" cx="301.85" cy="148.59" r="16.26" transform="translate(-33.89 126.82) rotate(-22.5)"/><path class="cls-13" d="M321,153.67a19.24,19.24,0,1,1,19.24-19.24A19.24,19.24,0,0,1,321,153.67Z"/><path class="cls-13" d="M322.55,147.5a13.6,13.6,0,1,1,13.6,13.6A13.61,13.61,0,0,1,322.55,147.5Z"/><g class="cls-6"><polygon class="cls-7" points="720.39 238.96 727.1 255.12 667.43 290.87 649.83 294.55 632.15 284.17 660.47 274.7 697.79 253.02 691.62 249.74 720.39 238.96"/></g><path class="cls-8" d="M200.75,313.91l103.32,59.65c1,.57,1.43,1.19,1.43,1.54s-.44,1-1.43,1.53L273.9,393.89a12.8,12.8,0,0,1-11,0l-162.26-91.2c-1-.58-1.42-1.16-1.42-1.41s.39-.82,1.43-1.39l30.18-16.42c3.81-2.08,10-5.41,13.87-7.43l72.09-38a11.65,11.65,0,0,1,5.28-1.12,12.09,12.09,0,0,1,5.84,1.34l37.86,22c1.06.62,1.44,1.23,1.44,1.57s-.38,1-1.44,1.58l-65.06,37.84c-2.66,1.55-4.18,3.86-4.17,6.35S198.08,312.37,200.75,313.91Z"/><path class="cls-9" d="M202.11,303.61l65.06-37.85c3.74-2.18,3.74-5.74,0-7.92l-37.85-21.95a14.83,14.83,0,0,0-7.23-1.71,14.34,14.34,0,0,0-6.57,1.44l-72.09,38c-3.84,2-10.09,5.37-13.9,7.44L99.35,297.5c-3.81,2.08-3.84,5.51-.06,7.64l162.27,91.19a15.44,15.44,0,0,0,13.71-.05L305.44,379c3.76-2.15,3.77-5.69,0-7.86L202.13,311.52C198.37,309.35,198.36,305.79,202.11,303.61Zm-2.74,12.69L301.2,375.09l-28.67,16.4a10.1,10.1,0,0,1-8.27,0L103.82,301.35l28.34-15.42c3.8-2.07,10-5.39,13.83-7.41l72.1-38a9.12,9.12,0,0,1,4-.8,9.57,9.57,0,0,1,4.46,1L263,261.81l-63.65,37c-3.54,2.05-5.56,5.24-5.55,8.74S195.83,314.25,199.37,316.3Z"/><path class="cls-5" d="M201.67,307.56c0-.6.61-1.31,1.63-1.91l65.06-37.84c2.53-1.48,4-3.67,4-6s-1.46-4.53-4-6l-37.86-22a18.21,18.21,0,0,0-16.08-.33l-72.09,38c-3.86,2-10.1,5.38-13.93,7.47L98.22,295.43c-2.6,1.41-4.1,3.54-4.11,5.85s1.45,4.47,4,5.92L260.4,398.4a16.54,16.54,0,0,0,8,1.88h0a16.57,16.57,0,0,0,8.09-1.94l30.16-17.26c2.55-1.46,4-3.63,4-6s-1.45-4.52-4-6L203.31,309.47C202.28,308.88,201.67,308.16,201.67,307.56Zm-4.73,0c0,2.34,1.46,4.53,4,6l103.33,59.66c1,.58,1.63,1.3,1.63,1.88s-.63,1.3-1.64,1.88L274.1,394.23a13.1,13.1,0,0,1-11.38,0l-162.27-91.2c-1.19-.67-1.61-1.36-1.61-1.75s.43-1.08,1.64-1.74l30.17-16.42c3.81-2.07,10-5.41,13.87-7.43l72.09-38a12.21,12.21,0,0,1,5.47-1.17,12.43,12.43,0,0,1,6,1.4L266,259.89c1,.59,1.64,1.31,1.64,1.91s-.61,1.32-1.63,1.92l-65.06,37.84C198.39,303,196.94,305.23,196.94,307.57Z"/><path class="cls-5" d="M678.28,259.2l15.56-9,26.51-15.31-151.43-88-26.5,15.31-15.56,9L496.1,189l-15.57,9L454,213.25l151.42,88L632,285.94l15.56-9ZM637.69,269l26.87-15.51,9.83,5.72-26.86,15.51Zm-101-89.82-26.87,15.51L500,189l26.87-15.51Zm32.74,1-58,33.48-27-15.7L498,190.08l11.78,6.85,30.76-17.76-11.78-6.85,13.61-7.86Zm-10.57,8.35c2.86,5.37.38,11.25-6.59,15.27s-17.13,5.44-26.39,3.77Zm82.87,3-31.79,18.36c-13.07-7-33.57-6.83-46.33.54s-13.14,19.24-1.09,26.84l-31.79,18.35-72.81-42.31,24.56-14.18,28.95,16.82,12.28-7.09c10.58,2.25,22.45.74,30.49-3.9s10.67-11.51,6.83-17.65l12.28-7.09-28.95-16.82,24.56-14.18Zm-50.91,31.64,19.11-11c11,7,10.6,17.84-1.09,24.59s-30.44,6.93-42.44.55l19.1-11a6.24,6.24,0,0,0,4.63-.39C591.38,225.06,591.61,224,590.81,223.11Zm-26.36,13c-11-7-10.6-17.83,1.09-24.58S596,204.57,608,211l-19.24,11.11a6.13,6.13,0,0,0-4.14.52c-1.11.65-1.41,1.59-.9,2.39Zm127.45,13L663,232.27l-12.28,7.09c-10.58-2.25-22.45-.75-30.49,3.89s-10.67,11.52-6.82,17.65L601.07,268,630,284.82,605.46,299l-72.81-42.32,31.79-18.35c13.07,7,33.57,6.82,46.33-.55s13.14-19.24,1.1-26.83l31.78-18.35,72.81,42.31Zm-69.79-4.71c7-4,17.13-5.44,26.39-3.77l-33,19C612.67,254.28,615.14,248.4,622.11,244.38ZM690,250.21l-13.62,7.86-11.77-6.84L633.81,269l11.77,6.84L632,283.69,605,268l9.49-5.48,39-22.52,9.49-5.48Z"/><path class="cls-5" d="M639.54,257.72c-1.53-.89-1.52-2.32,0-3.21a6.14,6.14,0,0,1,5.54,0c1.53.89,1.52,2.32,0,3.21A6.09,6.09,0,0,1,639.54,257.72Z"/><path class="cls-5" d="M529.28,193.64c-1.53-.88-1.51-2.32,0-3.2a6.06,6.06,0,0,1,5.53,0c1.53.88,1.52,2.32,0,3.2A6.06,6.06,0,0,1,529.28,193.64Z"/><g class="cls-1"><path class="cls-16" d="M770.07,249.54c1.64-20.94-11.64-40.72-37.41-55.7l-91.38-53.1c-23.9-13.89-55.2-21.55-88.12-21.55-1.76,0-3.55,0-5.31.07-33.85.83-66.7,9.49-92.51,24.39-26.43,15.26-41.87,34.78-43.46,55-1.64,20.94,11.64,40.72,37.4,55.7l91.38,53.1c23.91,13.9,55.21,21.55,88.13,21.55,1.76,0,3.54,0,5.31-.07,33.85-.83,66.7-9.49,92.51-24.38C753.05,289.24,768.48,269.72,770.07,249.54Zm-29.58-3.21c0,15.73-11.87,31.23-33.36,43.64-22.07,12.74-49.82,19.76-78.12,19.76-25.63,0-49.89-5.89-68.32-16.6L469.31,240c-18-10.45-27.87-24-27.85-38.21,0-15.73,11.87-31.23,33.36-43.64,22.07-12.74,49.82-19.76,78.12-19.76,25.63,0,49.89,5.9,68.32,16.6l91.38,53.1C730.62,218.58,740.51,232.14,740.49,246.33Z"/><path class="cls-5" d="M771.24,249.63c1.69-21.42-11.8-41.59-38-56.81l-91.38-53.1c-24.09-14-55.6-21.71-88.72-21.71-1.77,0-3.56,0-5.34.07-34,.83-67.09,9.55-93.07,24.54-26.78,15.46-42.42,35.32-44.05,55.9-1.68,21.42,11.81,41.6,38,56.81l91.38,53.11c24.09,14,55.59,21.7,88.72,21.7,1.77,0,3.56,0,5.34-.07,34-.83,67.1-9.55,93.07-24.54C754,290.06,769.63,270.21,771.24,249.63Zm-2.35-.18c-1.56,19.78-16.78,39-42.87,54-25.64,14.8-58.29,23.41-91.95,24.23-1.76,0-3.53.06-5.28.06-32.72,0-63.8-7.59-87.53-21.38l-91.38-53.1c-25.35-14.74-38.43-34.12-36.82-54.59,1.56-19.78,16.79-39,42.87-54,25.64-14.8,58.3-23.41,91.95-24.23,1.75,0,3.53-.06,5.28-.06,32.71,0,63.8,7.59,87.53,21.38l91.38,53.11C757.42,209.6,770.5,229,768.89,249.45Z"/><path class="cls-5" d="M741.68,246.33c0-14.62-10.08-28.56-28.45-39.23L621.85,154c-18.6-10.81-43.07-16.76-68.91-16.77-28.51,0-56.46,7.08-78.71,19.93-21.88,12.62-33.93,28.49-34,44.66,0,14.63,10.08,28.56,28.45,39.23l91.38,53.1C578.7,305,603.17,310.92,629,310.92c28.51,0,56.46-7.08,78.71-19.92C729.6,278.37,741.65,262.5,741.68,246.33Zm-2.37,0c0,15.29-11.66,30.43-32.77,42.62-21.89,12.64-49.43,19.6-77.53,19.6-25.43,0-49.48-5.84-67.72-16.44L469.91,239c-17.61-10.23-27.29-23.43-27.27-37.17,0-15.3,11.66-30.44,32.77-42.62,21.9-12.65,49.43-19.61,77.53-19.61v0c25.43,0,49.48,5.84,67.72,16.44L712,209.15C729.65,219.38,739.33,232.58,739.31,246.33Z"/></g><path class="cls-17" d="M726.61,304.51C700.8,319.4,668,328.06,634.1,328.89c-1.77.05-3.55.07-5.31.07-32.92,0-64.22-7.65-88.13-21.55l-91.38-53.1c-25.76-15-39-34.76-37.4-55.7,1.59-20.18,17-39.7,43.46-55,25.81-14.9,58.66-23.56,92.51-24.39,1.76,0,3.55-.07,5.31-.07,32.92,0,64.22,7.66,88.12,21.55l91.38,53.1c25.77,15,39.05,34.76,37.41,55.7C768.48,269.72,753.05,289.24,726.61,304.51Z"/><path class="cls-17" d="M720.12,299.66C695.56,313.84,664.4,322,632.4,322.51c-1.7,0-3.4,0-5.09,0-27.32-.23-53.31-6.13-74.1-16.76-2-1-6.56-3.52-8.45-4.62L458.38,251c-2.21-1.28-6.7-4-8.63-5.4-19.07-12.87-29-29-28-45.87,1.07-18.7,15.31-36.88,40.09-51.19,24.18-14,54.76-22.05,86.25-22.83,1.66,0,3.34-.06,5-.06,30.49,0,59.44,7.07,81.52,19.9l87.75,51c3,1.72,9.3,5.65,11.75,7.54,17.81,12.61,27,28.15,26.1,44.44C759.15,267.17,744.91,285.35,720.12,299.66Z"/><path class="cls-17" d="M713.62,294.82c-23.31,13.46-52.76,21-82.92,21.3-1.62,0-3.26,0-4.88,0-25.6-.45-49.82-6.31-68.87-16.65-1-.49-7.16-4-8.1-4.56l-81.38-47.3c-1.11-.64-7-4.11-7.94-4.8-18.53-11.66-28.42-26.5-27.93-42,.54-17.21,13.59-34.05,36.73-47.41,22.55-13,50.85-20.54,80-21.27,1.57,0,3.15-.06,4.71-.06,28.06,0,54.67,6.48,74.92,18.25l84.12,48.88c1.48.86,10.1,6,11.33,6.94,17.89,11.53,27.44,26.08,27,41.32C749.81,264.62,736.77,281.45,713.62,294.82Z"/><path class="cls-17" d="M629,309.73c-25.63,0-49.89-5.89-68.32-16.6L469.31,240c-18-10.45-27.87-24-27.85-38.21,0-15.73,11.87-31.23,33.36-43.64,22.07-12.74,49.82-19.76,78.12-19.76,25.63,0,49.89,5.9,68.32,16.6l91.38,53.1c18,10.46,27.87,24,27.85,38.21,0,15.73-11.87,31.23-33.36,43.64C685.06,302.71,657.31,309.73,629,309.73Z"/><g class="cls-18"><polygon class="cls-7" points="504.63 423.88 494.35 424.15 319.72 320.83 395.42 281.41 415.52 228.19 643.36 358.28 586.42 397.2 508.16 426.09 504.63 423.88"/></g><g class="cls-1"><polygon class="cls-19" points="489.16 429.44 583.77 374.04 583.74 383.65 489.14 439.05 489.16 429.44"/><polygon class="cls-20" points="267.17 301.27 361.77 245.88 583.77 374.04 489.16 429.44 267.17 301.27"/><polygon class="cls-21" points="267.17 301.27 489.16 429.44 489.14 439.05 267.14 310.88 267.17 301.27"/></g><g class="cls-10"><polygon class="cls-22" points="489.91 419 569.3 365.7 583.75 374.07 517.82 412.75 489.91 419"/></g><g class="cls-1"><polygon class="cls-23" points="281 237.03 361.61 190.18 407.59 216.73 326.98 263.57 281 237.03"/><polygon class="cls-24" points="443.54 305.56 524.15 258.71 524.08 283.98 443.47 330.83 443.54 305.56"/><polygon class="cls-23" points="407.67 191.46 524.15 258.71 443.54 305.56 327.05 238.31 407.67 191.46"/><polygon class="cls-23" points="443.47 330.83 524.08 283.98 570.06 310.53 489.45 357.37 443.47 330.83"/><polygon class="cls-24" points="489.45 357.37 570.06 310.53 569.88 372.6 489.27 419.45 489.45 357.37"/><polygon class="cls-25" points="489.27 419.45 443.29 392.9 379.11 355.84 379.88 334.27 358.82 344.13 326.81 325.65 280.82 299.1 281 237.03 326.98 263.57 327.05 238.31 443.54 305.56 443.47 330.83 489.45 357.37 489.27 419.45"/></g><polygon class="cls-24" points="360.74 315.06 377.97 315.06 377.97 334.63 358.82 344.13 358.92 331.76 360.74 315.06"/><g class="cls-1"><polygon class="cls-26" points="438.24 295.48 518.86 248.63 518.84 255.85 438.22 302.7 438.24 295.48"/><polygon class="cls-27" points="413.45 187.77 518.86 248.63 438.24 295.48 332.84 234.62 413.45 187.77"/><polygon class="cls-28" points="332.84 234.62 438.24 295.48 438.22 302.7 332.84 241.65 332.84 234.62"/></g><g class="cls-1"><polygon class="cls-27" points="524.08 277.05 570.06 303.57 564.82 306.67 518.84 280.15 524.08 277.05"/><polygon class="cls-29" points="518.84 280.15 564.82 306.67 564.8 313.9 518.82 287.38 518.84 280.15"/></g><g class="cls-1"><polygon class="cls-24" points="422.07 271.64 502.69 224.79 502.65 239.45 422.03 286.3 422.07 271.64"/><polygon class="cls-23" points="429.91 182.77 502.69 224.79 422.07 271.64 349.3 229.62 429.91 182.77"/><polygon class="cls-25" points="349.3 229.62 422.07 271.64 422.03 286.3 349.25 244.28 349.3 229.62"/></g><g class="cls-1"><g class="cls-30"><g class="cls-18"><path class="cls-7" d="M385.67,263.63c-5.19-3-9.37-10.24-9.36-16.2s4.59-8.84,9.78-5.84c4,2.33,16.55,9.72,16.55,9.72l-7.82,4.47s.26,1.74.26,2.48C395.06,264.22,390.85,266.62,385.67,263.63Z"/></g></g></g><polygon class="cls-5" points="430.9 336.24 427.94 334.53 419.11 329.44 418.11 328.86 418.12 327.71 418.17 309.65 418.18 306.23 421.14 307.94 429.97 313.03 430.97 313.61 430.96 314.76 430.91 332.81 430.9 336.24"/><polygon class="cls-5" points="414.06 326.61 411.1 324.89 402.27 319.8 401.27 319.22 401.28 318.07 401.33 300.01 401.34 296.59 404.31 298.3 413.13 303.4 414.13 303.97 414.13 305.12 414.07 323.18 414.06 326.61"/><polygon class="cls-5" points="397.06 317.08 394.09 315.37 385.27 310.27 384.27 309.69 384.27 308.55 384.32 290.49 384.33 287.06 387.3 288.78 396.13 293.87 397.12 294.44 397.12 295.6 397.07 313.65 397.06 317.08"/><polygon class="cls-5" points="380.22 307.44 377.25 305.73 368.43 300.63 367.43 300.06 367.43 298.91 367.48 280.85 367.49 277.42 370.46 279.14 379.29 284.23 380.28 284.81 380.28 285.96 380.23 304.01 380.22 307.44"/><polygon class="cls-5" points="364.94 298.13 361.97 296.42 353.14 291.33 352.15 290.75 352.15 289.6 352.2 271.54 352.21 268.12 355.18 269.83 364 274.93 365 275.5 365 276.65 364.95 294.71 364.94 298.13"/><polygon class="cls-5" points="348.1 288.5 345.13 286.78 336.31 281.69 335.31 281.11 335.31 279.96 335.36 261.91 335.37 258.48 338.34 260.19 347.17 265.29 348.16 265.86 348.16 267.01 348.11 285.07 348.1 288.5"/><polygon class="cls-5" points="480.03 401.23 477.06 399.52 468.24 394.42 467.24 393.85 467.25 392.7 467.3 374.64 467.31 371.21 470.27 372.93 479.1 378.02 480.09 378.6 480.09 379.75 480.04 397.8 480.03 401.23"/><polygon class="cls-5" points="463.02 391.7 460.06 389.99 451.23 384.89 450.24 384.32 450.24 383.17 450.29 365.11 450.3 361.69 453.27 363.4 462.09 368.5 463.09 369.07 463.08 370.22 463.03 388.28 463.02 391.7"/><polygon class="cls-5" points="446.18 382.06 443.22 380.35 434.39 375.26 433.4 374.68 433.4 373.53 433.45 355.48 433.46 352.05 436.43 353.76 445.25 358.86 446.25 359.43 446.25 360.58 446.19 378.64 446.18 382.06"/><polygon class="cls-5" points="430.9 372.76 427.93 371.05 419.11 365.95 418.11 365.38 418.12 364.23 418.17 346.17 418.18 342.74 421.15 344.45 429.97 349.55 430.97 350.13 430.96 351.28 430.91 369.33 430.9 372.76"/><polygon class="cls-5" points="348.34 326.2 345.37 324.49 336.55 319.4 335.56 318.82 335.56 317.67 335.61 299.62 335.62 296.19 338.59 297.9 347.41 303 348.41 303.57 348.4 304.72 348.35 322.78 348.34 326.2"/><polygon class="cls-5" points="331.5 316.57 328.54 314.85 319.71 309.76 318.71 309.18 318.72 308.03 318.77 289.98 318.78 286.55 321.75 288.26 330.57 293.36 331.57 293.93 331.56 295.08 331.51 313.14 331.5 316.57"/><polygon class="cls-31" points="316.22 307.26 313.25 305.55 304.43 300.45 303.43 299.88 303.44 298.73 303.49 280.67 303.5 277.24 306.47 278.96 315.29 284.05 316.29 284.63 316.28 285.78 316.23 303.83 316.22 307.26"/><polygon class="cls-31" points="299.38 297.62 296.41 295.91 287.59 290.81 286.6 290.24 286.6 289.09 286.65 271.03 286.66 267.61 289.63 269.32 298.45 274.41 299.45 274.99 299.44 276.14 299.39 294.2 299.38 297.62"/><g class="cls-1"><polygon class="cls-32" points="419.17 305.3 429.97 311.54 429.91 331.88 419.11 325.64 419.17 305.3"/><path class="cls-33" d="M430.91,330.17l0-18.06V311l-1-.57-8.83-5.1-3-1.71V307l-.05,18.05v1.15l1,.58,8.82,5.09,3,1.71ZM429,312.11l-.05,18.05-8.83-5.09,0-18.06Z"/></g><g class="cls-1"><polygon class="cls-32" points="402.33 295.66 413.13 301.9 413.07 322.24 402.27 316 402.33 295.66"/><path class="cls-33" d="M414.07,320.53l.05-18v-1.15l-1-.58-8.82-5.1-3-1.71v3.43l-.05,18.06v1.15l1,.57,8.83,5.1,3,1.71Zm-1.93-18.06-.05,18.06-8.83-5.1.06-18.06Z"/></g><g class="cls-1"><polygon class="cls-32" points="385.32 286.13 396.13 292.37 396.07 312.72 385.26 306.48 385.32 286.13"/><path class="cls-33" d="M397.07,311l.05-18.06V291.8l-1-.58-8.83-5.09-3-1.71v3.42l-.05,18.06v1.15l1,.57,8.82,5.1,3,1.71Zm-1.94-18.07L395.08,311l-8.82-5.1.05-18Z"/></g><g class="cls-1"><polygon class="cls-32" points="368.48 276.49 379.29 282.73 379.23 303.08 368.42 296.84 368.48 276.49"/><path class="cls-33" d="M380.23,301.37l0-18.06v-1.15l-1-.57-8.83-5.1-3-1.71v3.42l-.05,18.06v1.15l1,.58,8.83,5.09,3,1.71Zm-1.94-18.06-.05,18.05-8.82-5.09.05-18.06Z"/></g><g class="cls-1"><polygon class="cls-32" points="353.2 267.19 364.01 273.43 363.95 293.77 353.14 287.53 353.2 267.19"/><path class="cls-33" d="M365,292.06,365,274v-1.14l-1-.58-8.83-5.1-3-1.71v3.43L352.15,287v1.15l1,.57,8.83,5.09,3,1.72ZM363,274,363,292.05,354.14,287l.05-18.06Z"/></g><g class="cls-1"><polygon class="cls-32" points="336.36 257.55 347.17 263.79 347.11 284.13 336.3 277.9 336.36 257.55"/><path class="cls-33" d="M348.11,282.42l.05-18.05v-1.15l-1-.58-8.83-5.09-3-1.72v3.43l-.05,18.06v1.15l1,.57,8.83,5.1,3,1.71Zm-1.93-18.06-.06,18.06-8.82-5.1.05-18.05Z"/></g><g class="cls-1"><polygon class="cls-32" points="468.29 370.28 479.1 376.52 479.04 396.87 468.24 390.63 468.29 370.28"/><path class="cls-33" d="M480,395.16l0-18.06V376l-1-.57-8.83-5.1-3-1.71V372l-.05,18.06v1.15l1,.58,8.82,5.09,3,1.71Zm-1.93-18.07-.06,18.06-8.82-5.09,0-18.06Z"/></g><g class="cls-1"><polygon class="cls-32" points="451.29 360.76 462.09 367 462.04 387.34 451.23 381.1 451.29 360.76"/><path class="cls-33" d="M463,385.63l.05-18.06v-1.15l-1-.57-8.82-5.1-3-1.71v3.43l-.05,18v1.15l1,.58,8.83,5.09,3,1.72Zm-1.93-18.06-.05,18.05-8.83-5.09.06-18.06Z"/></g><g class="cls-1"><polygon class="cls-32" points="434.45 351.12 445.25 357.36 445.2 377.7 434.39 371.46 434.45 351.12"/><path class="cls-33" d="M446.19,376l.06-18.05v-1.15l-1-.58-8.82-5.09-3-1.72v3.43l-.05,18.06V372l1,.57,8.83,5.1,3,1.71Zm-1.93-18.06L444.21,376l-8.83-5.1.06-18.06Z"/></g><g class="cls-1"><polygon class="cls-32" points="419.17 341.81 429.97 348.05 429.91 368.4 419.11 362.16 419.17 341.81"/><path class="cls-33" d="M430.91,366.69l0-18.06v-1.15l-1-.58-8.82-5.09-3-1.72v3.43l-.05,18.06v1.15l1,.57,8.82,5.1,3,1.71ZM429,348.62l-.05,18.06-8.83-5.09.06-18.06Z"/></g><g class="cls-1"><polygon class="cls-34" points="511.43 366.34 511.49 386.21 501.09 392.22 501.03 372.34 511.43 366.34"/><path class="cls-35" d="M502.66,392.22l8.83-5.1.79-.45v-.92l-.06-18.05V365l-2.36,1.37L501,371.43l-.79.46v.91l.05,18.06v2.72Zm8-6.46-8.83,5.09-.05-18.05,8.83-5.1Z"/></g><g class="cls-1"><polygon class="cls-34" points="528.28 356.7 528.28 376.58 517.93 382.58 517.87 362.7 528.28 356.7"/><path class="cls-35" d="M519.51,382.58l8.77-5.09.78-.46v-21.7l-2.36,1.37-8.83,5.09-.79.46v.91l0,18.06V384Zm8-6.46-8.78,5.1-.05-18.06,8.83-5.1Z"/></g><g class="cls-1"><polygon class="cls-34" points="543.55 347.39 543.61 367.27 533.21 373.27 533.15 353.4 543.55 347.39"/><path class="cls-35" d="M534.78,373.28l8.83-5.1.79-.46v-.91l-.06-18.06V346L542,347.39l-8.82,5.1-.8.45v.92l0,18.05v2.73Zm8-6.46L534,371.91l-.06-18.06,8.83-5.09Z"/></g><g class="cls-1"><polygon class="cls-34" points="560.39 337.76 560.45 357.63 550.05 363.64 549.99 343.76 560.39 337.76"/><path class="cls-35" d="M551.62,363.64l8.83-5.1.79-.45v-.92l-.06-18.05v-2.73l-2.36,1.36-8.83,5.1-.79.46v.91l.06,18.06V365Zm8-6.46-8.82,5.09-.06-18.06,8.83-5.09Z"/></g><g class="cls-1"><polygon class="cls-32" points="336.61 295.26 347.41 301.5 347.35 321.84 336.55 315.6 336.61 295.26"/><path class="cls-33" d="M348.35,320.13l0-18.06v-1.15l-1-.57-8.82-5.1-3-1.71V297L335.56,315v1.14l1,.58,8.82,5.09,3,1.72Zm-1.93-18.06-.05,18.06-8.83-5.1,0-18.06Z"/></g><g class="cls-1"><polygon class="cls-32" points="319.77 285.62 330.57 291.86 330.51 312.2 319.71 305.97 319.77 285.62"/><path class="cls-33" d="M331.51,310.49l.06-18.05v-1.15l-1-.58-8.82-5.09-3-1.72v3.43l0,18.06v1.15l1,.57,8.82,5.1,3,1.71Zm-1.93-18.06-.05,18.06-8.83-5.1.05-18.05Z"/></g><g class="cls-1"><polygon class="cls-32" points="304.49 276.31 315.29 282.55 315.24 302.9 304.43 296.66 304.49 276.31"/><path class="cls-33" d="M316.23,301.19l0-18.06V282l-1-.57-8.82-5.1-3-1.71V278l-.05,18.06v1.15l1,.58,8.82,5.09,3,1.71Zm-1.93-18.07-.05,18.06-8.83-5.09.05-18.06Z"/></g><g class="cls-1"><polygon class="cls-32" points="287.64 266.68 298.45 272.91 298.39 293.26 287.59 287.02 287.64 266.68"/><path class="cls-33" d="M299.39,291.55l.05-18.06v-1.15l-1-.57-8.82-5.1-3-1.71v3.43l0,18.05v1.15l1,.58,8.82,5.09,3,1.72Zm-1.93-18.06,0,18.05-8.83-5.09.05-18.06Z"/></g><g class="cls-1"><polygon class="cls-36" points="489.43 350.15 489.45 357.37 484.21 354.27 484.19 347.05 489.43 350.15"/><polygon class="cls-27" points="484.19 347.05 559.54 303.57 564.78 306.67 489.43 350.15 484.19 347.05"/></g><g class="cls-1"><polygon class="cls-26" points="564.82 306.67 570.06 303.57 570.04 310.8 564.8 313.9 564.82 306.67"/><polygon class="cls-37" points="564.8 313.9 489.45 357.37 489.43 350.15 491.14 349.16 494.71 347.05 494.71 347.1 564.78 306.67 564.8 313.9"/><polygon class="cls-27" points="448.73 320.53 494.71 347.05 489.47 350.15 443.49 323.63 448.73 320.53"/><polygon class="cls-29" points="443.49 323.63 489.47 350.15 489.45 357.37 443.47 330.85 443.49 323.63"/></g><g class="cls-1"><polygon class="cls-27" points="361.62 183.18 391.57 200.48 386.33 203.58 356.38 186.28 361.62 183.18"/><polygon class="cls-29" points="356.38 186.28 386.33 203.58 379.98 207.19 356.35 193.51 356.38 186.28"/></g><g class="cls-1"><polygon class="cls-36" points="286.31 232.85 286.33 240.08 281.09 236.98 281.07 229.75 286.31 232.85"/><polygon class="cls-37" points="286.31 232.85 361.66 189.38 361.68 196.6 286.33 240.08 286.31 232.85"/><polygon class="cls-27" points="281.07 229.75 356.42 186.28 361.91 189.22 286.31 232.85 281.07 229.75"/></g><g class="cls-1"><polygon class="cls-27" points="326.98 250.14 327 256.27 281.02 229.75 286.26 226.66 326.98 250.14"/><polygon class="cls-29" points="281.02 229.75 327 256.27 326.98 263.5 281 236.98 281.02 229.75"/></g><g class="cls-1"><polygon class="cls-38" points="359.72 307.22 364.03 309.44 359.72 311.95 355.41 309.72 359.72 307.22"/><polygon class="cls-36" points="359.72 311.95 364.03 309.44 363.92 348.17 359.61 350.68 359.72 311.95"/><polygon class="cls-31" points="355.41 309.72 359.72 311.95 359.61 350.68 355.3 348.45 355.41 309.72"/></g><g class="cls-1"><g class="cls-39"><g class="cls-40"><polygon class="cls-7" points="377.34 319.69 377.34 351.89 361.73 349.46 361.84 310.74 377.34 319.69"/></g></g><polygon class="cls-41" points="366.21 308.15 381.71 317.1 377.4 319.6 361.89 310.65 366.21 308.15"/><polygon class="cls-41" points="381.71 317.1 397.02 325.94 392.71 328.44 377.4 319.6 381.71 317.1"/><polygon class="cls-42" points="392.71 328.44 397.02 325.94 396.91 364.66 392.6 367.17 392.71 328.44"/><polygon class="cls-32" points="378.39 321.32 391.71 329.01 391.61 365.44 378.39 357.65 378.39 321.32"/><path class="cls-33" d="M377.4,358.22l15.2,8.95.11-38.73L377.4,319.6Zm2-35.18,11.34,6.55-.1,34.11-11.24-6.62Z"/></g><g class="cls-1"><polygon class="cls-38" points="395.51 326.79 399.82 329.02 395.51 331.52 391.2 329.3 395.51 326.79"/><polygon class="cls-43" points="399.71 329.02 399.71 367.75 395.51 370.25 395.51 331.52 399.71 329.02"/><polygon class="cls-31" points="395.51 331.52 395.51 370.25 391.09 368.02 391.09 329.3 395.51 331.52"/></g><g class="cls-1"><polygon class="cls-27" points="361.6 305.12 382.65 308.78 373.45 313.86 352.39 310.2 361.6 305.12"/><polygon class="cls-26" points="382.65 308.78 404.39 329.83 395.19 334.91 373.45 313.86 382.65 308.78"/><polygon class="cls-31" points="395.19 334.91 352.39 310.2 373.45 315.19 395.19 334.91"/></g><g class="cls-18"><polygon class="cls-7" points="524.08 277.05 545.05 288.96 535.56 289.84 535.56 296.67 457.31 325.56 453.78 323.36 443.49 323.63 518.84 280.76 518.84 280.15 524.08 277.05"/></g><g class="cls-18"><polygon class="cls-7" points="502.66 239.44 518.86 248.65 473.16 275.06 421.99 286.25 502.66 239.44"/></g><g class="cls-18"><polygon class="cls-7" points="404.39 329.83 404.39 370.55 395.51 370.25 395.51 334.7 404.39 329.83"/></g><polygon class="cls-28" points="358.95 313.99 352.39 310.2 373.45 313.86 395.19 334.91 388.41 331 373.45 316.51 358.95 313.99"/><polygon class="cls-44" points="429.92 191.88 486.96 224.82 422.06 262.53 365.02 229.6 429.92 191.88"/><polygon class="cls-25" points="429.8 191.65 486.96 224.82 480.96 228.19 429.8 198.62 429.8 191.65"/><g class="cls-18"><polygon class="cls-7" points="291.64 229.94 361.46 189.55 366.44 199.4 301.49 235.45 291.64 229.94"/></g><g class="cls-18"><polygon class="cls-7" points="429.8 191.65 434.78 201.5 374.81 235.27 365.07 229.61 429.8 191.65"/></g><g class="cls-18"><polygon class="cls-7" points="518.81 255.78 524.53 258.74 448.64 302.5 438.09 302.68 518.81 255.78"/></g><path class="cls-27" d="M392.39,253.09c-.1-.53-.22-1-.34-1.49a21.57,21.57,0,0,0-4.59-8.46c-2.17-2.51-5.71-5.39-9.29-4.73a4.54,4.54,0,0,0-.53.12,4,4,0,0,0-.49.17l-.47.23-.05,0,.75-.44,6.41-4,.47-.23.49-.17a4.54,4.54,0,0,1,.53-.12h0c3.44-.58,6.55,1.94,8.73,4.32a21.85,21.85,0,0,1,4.92,8.83h0c.1.36.18.71.26,1.06,0-.08,0-.13,0,0s0,.12,0,0c.08.41.15.84.21,1.28Z"/><path class="cls-5" d="M380.09,262.75c-5.18-3-9.37-10.24-9.35-16.2s4.23-8.35,9.41-5.35,9.37,10.23,9.35,16.18S385.27,265.74,380.09,262.75Z"/><path class="cls-29" d="M392.5,253c.5,3,.33,6.86-2.52,8.51l-3.22,1.87c3.42-2,3-7,2.13-10.24a21.68,21.68,0,0,0-4.58-8.46c-2.17-2.5-5.71-5.38-9.29-4.73-.18,0-.36.08-.53.12a5,5,0,0,0-.5.18,3.39,3.39,0,0,0-.47.23l0,0,.76-.44,2.51-1.46a5.08,5.08,0,0,1,.47-.23,4.24,4.24,0,0,1,.5-.18,4.37,4.37,0,0,1,.52-.12h0c3.45-.57,6.79,2,9,4.36a19.26,19.26,0,0,1,1.29,1.55l7-4a21.73,21.73,0,0,1,3.49,7.09h0c.1.36.18.71.26,1.06,0-.08,0-.13,0,0s0,.12,0,0c.08.41.15.84.21,1.28Z"/><g class="cls-10"><path class="cls-7" d="M641.9,396.13c0-6.38,8.78-11.56,19.62-11.56s19.63,5.18,19.63,11.56-8.79,11.55-19.63,11.55S641.9,402.51,641.9,396.13Z"/></g><path class="cls-12" d="M653.55,381.67a7.43,7.43,0,0,0,3.16-.69l1.14,2.49A10.42,10.42,0,0,1,643.1,374l0-3.17a10.34,10.34,0,0,1,.17-1.93l2.69.49a7.61,7.61,0,0,0-.13,1.43l0,3.16A7.69,7.69,0,0,0,653.55,381.67Z"/><path class="cls-12" d="M653.7,404.37h0V367.72h6.87v36.65h0c0,.9-1.54,1.63-3.44,1.63S653.7,405.27,653.7,404.37Z"/><path class="cls-13" d="M632.29,351.52A26.73,26.73,0,1,1,659,378.25,26.72,26.72,0,0,1,632.29,351.52Z"/><g class="cls-14"><path class="cls-15" d="M666,325.73a26.73,26.73,0,1,1-22.51,47.56A26.72,26.72,0,0,0,666,325.73Z"/></g><path class="cls-13" d="M624.62,351a16.26,16.26,0,1,1,16.26,16.26A16.26,16.26,0,0,1,624.62,351Z"/><path class="cls-13" d="M646.28,335.22a16.62,16.62,0,1,1,16.62,16.62A16.62,16.62,0,0,1,646.28,335.22Z"/><path class="cls-13" d="M664.17,346.73a13.6,13.6,0,1,1,13.6,13.61A13.6,13.6,0,0,1,664.17,346.73Z"/><g class="cls-10"><path class="cls-7" d="M753.06,321.62c0-6.38,8.79-11.55,19.63-11.55s19.62,5.17,19.62,11.55-8.78,11.56-19.62,11.56S753.06,328,753.06,321.62Z"/></g><path class="cls-12" d="M780.67,296a9.56,9.56,0,0,1,.17,1.93v3.17a10.43,10.43,0,0,1-14.76,9.43l1.14-2.49a7.69,7.69,0,0,0,10.89-6.95v-3.17a8.54,8.54,0,0,0-.12-1.43Z"/><path class="cls-12" d="M764.86,329.87h0V293.21h6.88v36.66h0c0,.9-1.54,1.63-3.44,1.63S764.86,330.77,764.86,329.87Z"/><path class="cls-13" d="M743.45,277a26.73,26.73,0,1,1,26.73,26.72A26.73,26.73,0,0,1,743.45,277Z"/><g class="cls-14"><path class="cls-15" d="M777.2,251.23a26.72,26.72,0,1,1-22.51,47.56,26.72,26.72,0,0,0,22.51-47.56Z"/></g><path class="cls-13" d="M735.79,276.46a16.26,16.26,0,1,1,16.26,16.26A16.26,16.26,0,0,1,735.79,276.46Z"/><path class="cls-13" d="M757.45,260.71a16.62,16.62,0,1,1,16.62,16.62A16.62,16.62,0,0,1,757.45,260.71Z"/><path class="cls-13" d="M775.33,272.23a13.61,13.61,0,1,1,13.61,13.6A13.6,13.6,0,0,1,775.33,272.23Z"/><g class="cls-10"><path class="cls-7" d="M526,84.31c0-6.39,8.79-11.56,19.62-11.56s19.63,5.17,19.63,11.56-8.79,11.55-19.63,11.55S526,90.69,526,84.31Z"/></g><path class="cls-11" d="M548.88,57.11a10.52,10.52,0,0,1,.17,1.94l0,3.17a10.42,10.42,0,0,1-14.75,9.43l1.14-2.49a7.43,7.43,0,0,0,3.16.69,7.7,7.7,0,0,0,7.72-7.65l0-3.16a7.61,7.61,0,0,0-.13-1.43Z"/><path class="cls-12" d="M533.07,91h0V54.32h6.87V91h0c0,.9-1.54,1.63-3.44,1.63S533.07,91.88,533.07,91Z"/><path class="cls-13" d="M511.66,38.12a26.73,26.73,0,1,1,26.72,26.73A26.72,26.72,0,0,1,511.66,38.12Z"/><g class="cls-14"><path class="cls-15" d="M545.41,12.34A26.73,26.73,0,1,1,522.89,59.9a27.09,27.09,0,0,0,7,.94,26.73,26.73,0,0,0,15.5-48.5Z"/></g><path class="cls-13" d="M503.93,40.69A17.87,17.87,0,1,1,521.8,58.56,17.87,17.87,0,0,1,503.93,40.69Z"/><path class="cls-13" d="M521,17.09a17.1,17.1,0,1,1,17.1,17.1A17.1,17.1,0,0,1,521,17.09Z"/><path class="cls-13" d="M540.91,29.13a13.61,13.61,0,1,1,13.6,13.61A13.6,13.6,0,0,1,540.91,29.13Z"/><path class="cls-13" d="M532.26,44a13.2,13.2,0,1,1,13.2,13.19A13.2,13.2,0,0,1,532.26,44Z"/><path class="cls-13" d="M505.8,22.94a11.8,11.8,0,1,1,11.8,11.8A11.8,11.8,0,0,1,505.8,22.94Z"/><g class="cls-10"><path class="cls-7" d="M586.9,429.8c0-6.38,8.79-11.56,19.63-11.56s19.62,5.18,19.62,11.56-8.79,11.55-19.62,11.55S586.9,436.18,586.9,429.8Z"/></g><path class="cls-12" d="M612.36,404.87a11.47,11.47,0,0,1,.17,1.94l0,3.16a10.42,10.42,0,0,1-14.75,9.43l1.14-2.49a7.59,7.59,0,0,0,3.16.7,7.7,7.7,0,0,0,7.72-7.65l0-3.17a7.61,7.61,0,0,0-.13-1.43Z"/><path class="cls-12" d="M596.55,438.73h0V402.08h6.87v36.65h0c0,.9-1.54,1.63-3.44,1.63S596.55,439.63,596.55,438.73Z"/><path class="cls-13" d="M575.14,385.88a26.73,26.73,0,1,1,26.72,26.72A26.72,26.72,0,0,1,575.14,385.88Z"/><g class="cls-14"><path class="cls-15" d="M608.89,360.09a26.73,26.73,0,1,1-22.52,47.56,26.73,26.73,0,0,0,22.52-47.56Z"/></g><path class="cls-13" d="M568.26,376.65a16.26,16.26,0,1,1,16.26,16.26A16.26,16.26,0,0,1,568.26,376.65Z"/><path class="cls-13" d="M593.08,371.15a16.62,16.62,0,1,1,16.61,16.62A16.61,16.61,0,0,1,593.08,371.15Z"/><path class="cls-13" d="M606.23,382.67a13.6,13.6,0,1,1,13.6,13.6A13.6,13.6,0,0,1,606.23,382.67Z"/><g class="cls-10"><path class="cls-7" d="M571.07,155.21l-18.35-5L530.57,156a1,1,0,0,1-.3,0,1.18,1.18,0,0,1-.3-2.33l22.45-5.92a1.3,1.3,0,0,1,.62,0l18.66,5.13a1.17,1.17,0,0,1,.82,1.45A1.18,1.18,0,0,1,571.07,155.21Z"/></g><g class="cls-10"><path class="cls-7" d="M511.45,190.73a1.1,1.1,0,0,1-.31,0l-18.37-5.05-21.38,5a1.18,1.18,0,1,1-.53-2.3l21.66-5a1.26,1.26,0,0,1,.58,0l18.67,5.13a1.18,1.18,0,0,1-.32,2.32Z"/></g><g class="cls-10"><path class="cls-7" d="M525.4,466.07c0-6.38,8.79-11.56,19.63-11.56s19.62,5.18,19.62,11.56-8.79,11.55-19.62,11.55S525.4,472.45,525.4,466.07Z"/></g><path class="cls-12" d="M534.9,474.81h0V438.16h6.87v36.65h0c0,.9-1.53,1.63-3.43,1.63S534.9,475.71,534.9,474.81Z"/><path class="cls-13" d="M513.49,422a26.73,26.73,0,1,1,26.73,26.72A26.73,26.73,0,0,1,513.49,422Z"/><g class="cls-14"><path class="cls-15" d="M547.24,396.17a26.73,26.73,0,1,1-22.52,47.56,26.73,26.73,0,0,0,22.52-47.56Z"/></g><path class="cls-13" d="M507.4,423.77A16.27,16.27,0,1,1,523.67,440,16.27,16.27,0,0,1,507.4,423.77Z"/><path class="cls-13" d="M528.28,408.81a16.62,16.62,0,1,1,16.61,16.62A16.62,16.62,0,0,1,528.28,408.81Z"/><path class="cls-13" d="M544.58,423.48a13.61,13.61,0,1,1,13.61,13.6A13.6,13.6,0,0,1,544.58,423.48Z"/><g class="cls-10"><path class="cls-7" d="M201.34,257.91c0-6.38,8.79-11.55,19.63-11.55s19.62,5.17,19.62,11.55-8.78,11.56-19.62,11.56S201.34,264.3,201.34,257.91Z"/></g><path class="cls-11" d="M224.29,231.22a10.45,10.45,0,0,1,.17,1.94l0,3.16a10.42,10.42,0,0,1-14.75,9.43l1.14-2.49a7.59,7.59,0,0,0,3.16.7,7.69,7.69,0,0,0,7.72-7.65l0-3.17a7.61,7.61,0,0,0-.13-1.43Z"/><path class="cls-12" d="M208.48,265.08h0V228.43h6.87v36.65h0c0,.9-1.54,1.63-3.44,1.63S208.48,266,208.48,265.08Z"/><path class="cls-13" d="M187.07,212.23A26.73,26.73,0,1,1,213.79,239,26.72,26.72,0,0,1,187.07,212.23Z"/><g class="cls-14"><path class="cls-15" d="M220.82,186.44A26.73,26.73,0,1,1,198.3,234a26.73,26.73,0,0,0,22.52-47.56Z"/></g><path class="cls-13" d="M185,195.76a17.59,17.59,0,1,1,17.59,17.59A17.58,17.58,0,0,1,185,195.76Z"/><path class="cls-13" d="M200.84,201.07a18.83,18.83,0,1,1,18.83,18.83A18.83,18.83,0,0,1,200.84,201.07Z"/><path class="cls-13" d="M218.73,208.47a13.61,13.61,0,1,1,13.61,13.61A13.6,13.6,0,0,1,218.73,208.47Z"/><path class="cls-13" d="M209.8,190.86a13.6,13.6,0,1,1,13.6,13.61A13.6,13.6,0,0,1,209.8,190.86Z"/><path class="cls-13" d="M182.52,219a16.21,16.21,0,1,1,16.2,16.21A16.2,16.2,0,0,1,182.52,219Z"/><g class="cls-10"><path class="cls-7" d="M690.78,249.47a1.18,1.18,0,0,1,.74-1.5l28.76-9.86a1.18,1.18,0,0,1,1,2.13l-59.93,35.48a.91.91,0,0,1-.25.11l-28.77,9a1,1,0,0,1-.35.05,1.18,1.18,0,0,1-.35-2.31l28.63-8.94,49.88-29.53-17.84,6.12A1.19,1.19,0,0,1,690.78,249.47Z"/></g><g class="cls-10"><path class="cls-7" d="M660.34,273.59a1.18,1.18,0,0,1,1.51.72l5.52,15.57a1.19,1.19,0,0,1-.89,1.56l-15.88,3.13-.23,0a1.19,1.19,0,0,1-.23-2.35l14.54-2.87-5.06-14.28A1.18,1.18,0,0,1,660.34,273.59Z"/></g><g class="cls-10"><path class="cls-7" d="M720.26,238.11a1.2,1.2,0,0,1,1.52.71L727.29,254a1.18,1.18,0,0,1-.06.94,1.2,1.2,0,0,1-.74.6L710.62,260a1.25,1.25,0,0,1-.32.05,1.19,1.19,0,0,1-.32-2.33l14.65-4.07-5.08-14A1.19,1.19,0,0,1,720.26,238.11Z"/></g><g class="cls-14"><polygon class="cls-5" points="483.72 181.27 483.48 198.81 468.94 190.93 471.7 161.56 531.03 126.67 543.65 130.41 543.45 162.54 528.47 155.05 483.72 181.27"/></g><g class="cls-10"><path class="cls-7" d="M542.29,164.33a1.19,1.19,0,0,1,.72-1.51L571,153a1.17,1.17,0,0,1,1.46.61,1.18,1.18,0,0,1-.46,1.52l-59.94,35.48a1.11,1.11,0,0,1-.27.12l-28,8.19a1,1,0,0,1-.33.05,1.18,1.18,0,0,1-1.14-.85,1.19,1.19,0,0,1,.8-1.47L511,188.46,560.4,159.2l-16.6,5.85A1.19,1.19,0,0,1,542.29,164.33Z"/></g><path class="cls-5" d="M530,127.44a1.18,1.18,0,0,1,1.44-1.07L543.25,129a1.18,1.18,0,0,1-.52,2.31L532.24,129l-1.9,25.32a1.16,1.16,0,0,1-.57.92L470.38,191a1.13,1.13,0,0,1-.61.17,1.23,1.23,0,0,1-.62-.17,1.19,1.19,0,0,1-.56-1.1l2-27.47a1.16,1.16,0,0,1,.5-.88,1.15,1.15,0,0,1,1-.17l11.83,3.42a1.18,1.18,0,1,1-.66,2.27l-10.42-3-1.73,23.74L528,153.51Z"/><path class="cls-5" d="M632,284.87a1.18,1.18,0,0,1-1.18-1.18V251.58a1.18,1.18,0,0,1,.58-1l59.93-35.48a1.18,1.18,0,0,1,1.78,1v33a1.18,1.18,0,0,1-2.36,0V218.17l-57.57,34.08v31.44A1.18,1.18,0,0,1,632,284.87Z"/><path class="cls-5" d="M691.28,216.62a1.18,1.18,0,0,1,.09-1.67A1.19,1.19,0,0,1,693,215l10.36,11.57a1.18,1.18,0,0,1,.28.53l6.83,30.48a1.2,1.2,0,0,1-.55,1.28l-59.39,35.74a1.22,1.22,0,0,1-.61.17,1.1,1.1,0,0,1-.47-.1,1.18,1.18,0,0,1-.69-.83L642,263.72,631.12,252.4a1.18,1.18,0,0,1,1.7-1.64L644,262.32a1.18,1.18,0,0,1,.3.56l6.47,28.89L708,257.31,701.44,228Z"/><path class="cls-5" d="M483.33,198.8a1.18,1.18,0,0,1-1.18-1.18V166.29a1.19,1.19,0,0,1,.58-1l59.93-35.48a1.2,1.2,0,0,1,1.19,0,1.18,1.18,0,0,1,.59,1v33a1.18,1.18,0,1,1-2.36,0V132.89L484.51,167v30.65A1.18,1.18,0,0,1,483.33,198.8Z"/><g class="cls-14"><polygon class="cls-5" points="631.95 251.84 692.53 215.44 702.65 227.13 709.49 258.01 649.96 293.76 632.15 284.17 631.95 251.84"/></g><g class="cls-14"><path class="cls-5" d="M702.13,227.26,709.49,258c-.4.14-17.61-9.72-17.61-9.72V216.1Z"/></g><g class="cls-14"><path class="cls-5" d="M531.16,127.52l12.1,3.29-.6.2c-.59,0-12.42,7.68-12.42,7.68Z"/></g><polygon class="cls-5" points="582.99 485.83 647.71 522.87 649.96 521.56 653.5 523.63 644.31 528.79 640.77 526.72 643.67 525.18 578.91 488.12 582.99 485.83"/><polygon class="cls-5" points="634.63 456.27 699.35 493.3 701.6 491.99 705.14 494.06 695.95 499.22 692.41 497.15 695.31 495.61 630.55 458.56 634.63 456.27"/><polygon class="cls-5" points="686.08 426.7 750.8 463.73 753.05 462.42 756.59 464.49 747.4 469.65 743.86 467.58 746.76 466.05 682 428.99 686.08 426.7"/><polygon class="cls-5" points="736.14 398.12 800.87 435.15 803.12 433.84 806.65 435.91 797.47 441.07 793.93 439 796.83 437.46 732.07 400.41 736.14 398.12"/><g class="cls-10"><path class="cls-7" d="M609.67,548.21a4.33,4.33,0,0,1-4,.06L550,515.77a1.23,1.23,0,0,1,0-2.34L588.5,491.9a4.5,4.5,0,0,1,4.09.06l52.64,31.66a1.33,1.33,0,0,1,0,2.47Z"/></g><path class="cls-45" d="M596.64,545.1l-4.29-11.73.46-2a31.35,31.35,0,0,1,4.63-1.78c2.87-.05,5.47,3.22,6,7.26s-1.34,7-5.33,8.12Z"/><path class="cls-45" d="M562.6,525.13l-4.29-11.74.47-2a30.86,30.86,0,0,1,4.62-1.79c2.88,0,5.48,3.23,6,7.27s-1.34,7-5.32,8.11Z"/><g class="cls-1"><polygon class="cls-46" points="630.99 519.4 632.68 530.94 609.09 545.08 566.62 507.77 630.99 519.4"/><polygon class="cls-47" points="574.64 488.63 619.4 512.53 630.99 519.4 610.62 530.64 555.02 499.85 574.64 488.63"/></g><g class="cls-1"><polygon class="cls-46" points="617.6 501.62 619.4 512.53 598.5 524.22 582.22 502.96 617.6 501.62"/><polygon class="cls-47" points="589.55 485.63 617.6 501.62 599.81 511.79 571.77 495.79 589.55 485.63"/><polygon class="cls-48" points="609.09 545.08 551.01 511.63 555.02 499.85 567.7 506.61 571.77 495.79 599.81 511.79 598.52 523.99 610.62 530.64 609.09 545.08"/></g><polygon class="cls-49" points="616.25 504.6 617.29 511.71 600.8 520.97 601.68 512.77 616.25 504.6"/><polygon class="cls-49" points="573.57 499.6 583.45 505.18 581.49 514.26 570.48 507.86 573.57 499.6"/><polygon class="cls-49" points="585.27 506.21 596.69 512.65 595.66 522.3 583.6 515.18 585.27 506.21"/><polygon class="cls-50" points="609.49 541.29 632.15 528.1 632.99 528.38 633.22 531.44 610 545.67 609.09 545.08 609.49 541.29"/><polygon class="cls-51" points="552.18 508.24 609.49 541.29 610 545.67 550.35 511.44 551.26 508.24 552.18 508.24"/><path class="cls-51" d="M590.16,539.09c-.76-4,.93-7.64,3.76-8.07s5.73,2.49,6.48,6.51-.93,7.64-3.76,8.07S590.91,543.12,590.16,539.09Z"/><path class="cls-52" d="M592.12,538.9c-.39-2.1.6-4,2.21-4.25s3.24,1.26,3.63,3.37-.59,4-2.21,4.25S592.52,541,592.12,538.9Z"/><path class="cls-51" d="M556,518.75c-.75-4,.93-7.64,3.76-8.07s5.73,2.49,6.48,6.52-.93,7.64-3.76,8.07S556.75,522.78,556,518.75Z"/><path class="cls-52" d="M558,518.57c-.4-2.11.59-4,2.21-4.26s3.23,1.27,3.63,3.37-.6,4-2.21,4.25S558.36,520.67,558,518.57Z"/><path class="cls-53" d="M558.87,518.43a2.55,2.55,0,0,1,1-2.73l1,2.27.15-2.41a2.79,2.79,0,0,1,1.84,2.26c.27,1.44-.41,2.75-1.52,2.92S559.14,519.87,558.87,518.43Z"/><path class="cls-53" d="M593,538.73a2.55,2.55,0,0,1,1-2.73l1,2.28.15-2.42a2.79,2.79,0,0,1,1.83,2.26c.27,1.45-.4,2.75-1.51,2.92S593.31,540.17,593,538.73Z"/><polygon class="cls-54" points="608.57 533.76 608.86 533.55 610.22 534.25 614.14 531.96 614.51 532.15 614.18 534.7 609.54 537.58 608.57 533.76"/><polygon class="cls-55" points="614.51 532.14 614.51 534.89 609.88 537.78 610.22 534.62 614.51 532.14"/><polygon class="cls-56" points="608.56 533.76 610.2 534.62 609.87 537.75 608.24 536.77 608.56 533.76"/><polygon class="cls-54" points="631.36 522.05 631.76 524.61 627.09 527.5 627.08 524.54 631.36 522.05"/><polygon class="cls-55" points="631.59 522.18 631.99 524.74 627.32 527.63 627.31 524.67 631.59 522.18"/><polygon class="cls-53" points="618.2 530.38 623.96 527.08 623.96 530.5 618.22 533.87 618.2 530.38"/><g class="cls-10"><path class="cls-7" d="M710.82,488.73a4.53,4.53,0,0,1-4.09,0l-56.15-32c-1.13-.65-1.12-1.68,0-2.29l38.33-20.61a4.71,4.71,0,0,1,4.13.06L747,465.12a1.26,1.26,0,0,1,0,2.38Z"/></g><path class="cls-45" d="M693.62,485.57l-4.29-11.73.46-2a31.35,31.35,0,0,1,4.63-1.78c2.87-.05,5.48,3.22,6,7.26s-1.34,7-5.32,8.12Z"/><path class="cls-45" d="M659.58,465.6l-4.29-11.74.47-2a30.56,30.56,0,0,1,4.62-1.78c2.88-.05,5.48,3.22,6,7.26s-1.35,7-5.33,8.11Z"/><g class="cls-1"><polygon class="cls-57" points="727.97 459.87 729.66 471.41 706.07 485.55 663.6 448.25 727.97 459.87"/><polygon class="cls-58" points="671.62 429.1 716.38 453 727.97 459.87 707.6 471.11 652 440.32 671.62 429.1"/></g><g class="cls-1"><polygon class="cls-57" points="716.53 443.52 725.05 458.52 704.15 470.21 687.88 448.94 716.53 443.52"/><polygon class="cls-58" points="686.53 426.1 716.56 443.51 698.78 453.68 668.75 436.26 686.53 426.1"/><polygon class="cls-59" points="652 440.32 664.68 447.08 668.75 436.26 698.78 453.68 703.9 469.06 707.6 471.11 706.07 485.55 647.99 452.1 652 440.32"/></g><polygon class="cls-49" points="670.55 440.07 680.43 445.65 678.48 454.74 667.47 448.33 670.55 440.07"/><polygon class="cls-49" points="695.78 454.44 698.71 466.3 680.58 455.65 682.25 446.68 695.78 454.44"/><polygon class="cls-50" points="706.47 481.76 729.13 468.57 729.98 468.85 730.2 471.92 706.98 486.14 706.07 485.55 706.47 481.76"/><polygon class="cls-51" points="649.16 448.71 706.47 481.76 706.98 486.14 647.33 451.91 648.24 448.71 649.16 448.71"/><path class="cls-51" d="M687.14,479.56c-.75-4,.93-7.64,3.76-8.07s5.73,2.49,6.48,6.52-.93,7.64-3.76,8.07S687.89,483.59,687.14,479.56Z"/><path class="cls-52" d="M689.11,479.37c-.4-2.1.59-4,2.2-4.25s3.24,1.26,3.63,3.37-.59,4-2.2,4.25S689.5,481.48,689.11,479.37Z"/><path class="cls-51" d="M653,459.22c-.75-4,.93-7.64,3.76-8.07s5.73,2.49,6.48,6.52-.92,7.64-3.75,8.07S653.74,463.25,653,459.22Z"/><path class="cls-52" d="M655,459c-.39-2.11.59-4,2.21-4.26s3.23,1.27,3.63,3.37-.6,4-2.21,4.25S655.34,461.14,655,459Z"/><path class="cls-53" d="M655.85,458.9a2.55,2.55,0,0,1,1-2.73l1,2.28L658,456a2.79,2.79,0,0,1,1.84,2.26c.27,1.44-.41,2.75-1.52,2.92S656.12,460.34,655.85,458.9Z"/><path class="cls-53" d="M690,479.2a2.53,2.53,0,0,1,1-2.72l1,2.27.15-2.42a2.82,2.82,0,0,1,1.84,2.26c.27,1.45-.41,2.75-1.52,2.92S690.29,480.64,690,479.2Z"/><polygon class="cls-54" points="705.55 474.23 705.84 474.02 707.2 474.73 711.12 472.43 711.49 472.62 711.16 475.17 706.53 478.05 705.55 474.23"/><polygon class="cls-55" points="711.49 472.61 711.49 475.37 706.86 478.25 707.2 475.1 711.49 472.61"/><polygon class="cls-56" points="705.54 474.23 707.18 475.1 706.85 478.22 705.22 477.24 705.54 474.23"/><polygon class="cls-54" points="728.35 462.52 728.74 465.08 724.07 467.97 724.06 465.01 728.35 462.52"/><polygon class="cls-55" points="728.58 462.65 728.97 465.21 724.3 468.11 724.29 465.14 728.58 462.65"/><polygon class="cls-5" points="720.94 467.55 720.94 470.97 715.2 474.34 715.18 470.85 720.94 467.55"/><polygon class="cls-49" points="715.99 446.85 721.91 458.09 706.14 466.5 702 454.6 715.99 446.85"/><g class="cls-10"><path class="cls-7" d="M761.29,460.17a4.55,4.55,0,0,1-4.1,0L701.3,427.91c-1.13-.65-1.11-1.67.05-2.27l39.48-20.47a4.74,4.74,0,0,1,4.14.12l52.89,31.42a1.27,1.27,0,0,1,0,2.39Z"/></g><path class="cls-45" d="M744.08,452.85l-4.29-11.73.46-2a31.35,31.35,0,0,1,4.63-1.78c2.87-.05,5.48,3.22,6,7.26s-1.34,7-5.32,8.12Z"/><path class="cls-45" d="M710,432.88l-4.29-11.74.47-2a30.61,30.61,0,0,1,4.62-1.79c2.88,0,5.48,3.23,6,7.27s-1.35,7-5.33,8.11Z"/><g class="cls-1"><polygon class="cls-60" points="778.43 427.15 780.13 438.69 756.53 452.83 714.07 415.52 778.43 427.15"/><polygon class="cls-61" points="722.08 396.38 766.84 420.28 778.43 427.15 758.06 438.39 702.47 407.6 722.08 396.38"/></g><g class="cls-1"><polygon class="cls-60" points="765.04 409.37 766.84 420.28 745.94 431.97 729.67 410.7 765.04 409.37"/><polygon class="cls-61" points="737 393.38 765.04 409.37 747.26 419.54 719.21 403.54 737 393.38"/><polygon class="cls-62" points="756.53 452.83 698.45 419.38 702.47 407.6 715.14 414.36 719.21 403.54 747.26 419.54 745.97 431.74 758.06 438.39 756.53 452.83"/></g><polygon class="cls-49" points="763.7 412.35 764.73 419.46 748.25 428.72 749.12 420.52 763.7 412.35"/><polygon class="cls-49" points="721.01 407.35 730.89 412.93 728.94 422.01 717.93 415.61 721.01 407.35"/><polygon class="cls-49" points="732.71 413.96 744.14 420.4 743.11 430.05 731.04 422.93 732.71 413.96"/><polygon class="cls-53" points="756.93 449.04 779.6 435.85 780.44 436.13 780.66 439.19 757.44 453.42 756.53 452.83 756.93 449.04"/><polygon class="cls-63" points="699.63 415.99 756.93 449.04 757.44 453.42 697.79 419.19 698.7 415.99 699.63 415.99"/><path class="cls-51" d="M737.6,446.84c-.75-4,.93-7.64,3.76-8.07s5.73,2.49,6.48,6.51-.93,7.64-3.76,8.07S738.35,450.87,737.6,446.84Z"/><path class="cls-52" d="M739.57,446.65c-.4-2.1.59-4,2.2-4.25s3.24,1.26,3.63,3.37-.59,4-2.2,4.25S740,448.76,739.57,446.65Z"/><path class="cls-51" d="M703.45,426.5c-.76-4,.92-7.64,3.75-8.07s5.73,2.49,6.49,6.52-.93,7.64-3.76,8.07S704.2,430.53,703.45,426.5Z"/><path class="cls-52" d="M705.41,426.32c-.39-2.11.6-4,2.21-4.26s3.24,1.26,3.63,3.37-.6,4-2.21,4.25S705.81,428.42,705.41,426.32Z"/><path class="cls-53" d="M706.31,426.18a2.55,2.55,0,0,1,1-2.73l1,2.27.15-2.41a2.79,2.79,0,0,1,1.84,2.26c.27,1.44-.41,2.75-1.52,2.92S706.58,427.62,706.31,426.18Z"/><path class="cls-53" d="M740.48,446.48a2.55,2.55,0,0,1,1-2.73l1,2.28.15-2.42a2.82,2.82,0,0,1,1.84,2.26c.27,1.45-.41,2.75-1.52,2.92S740.75,447.92,740.48,446.48Z"/><polygon class="cls-54" points="756.01 441.51 756.3 441.3 757.67 442 761.58 439.71 761.95 439.9 761.62 442.45 756.99 445.33 756.01 441.51"/><polygon class="cls-55" points="761.95 439.88 761.95 442.64 757.32 445.53 757.67 442.37 761.95 439.88"/><polygon class="cls-56" points="756 441.51 757.64 442.37 757.31 445.5 755.68 444.52 756 441.51"/><polygon class="cls-54" points="778.81 429.8 779.2 432.36 774.53 435.25 774.52 432.29 778.81 429.8"/><polygon class="cls-55" points="779.04 429.93 779.43 432.49 774.76 435.38 774.75 432.42 779.04 429.93"/><polygon class="cls-53" points="771.4 434.82 771.4 438.25 765.66 441.62 765.65 438.13 771.4 434.82"/></g></g></g></svg>