<?xml version="1.0" encoding="utf-8"?>
<!-- Generator: Adobe Illustrator 22.0.1, SVG Export Plug-In . SVG Version: 6.00 Build 0)  -->
<svg version="1.1" id="Calque_1" xmlns="http://www.w3.org/2000/svg" xmlns:xlink="http://www.w3.org/1999/xlink" x="0px" y="0px"
	 viewBox="0 0 267 358" style="enable-background:new 0 0 267 358;" xml:space="preserve">
<style type="text/css">
	.st0{opacity:0.81;fill:#544B66;}
	.st1{fill:url(#SVGID_1_);}
	.st2{fill:url(#SVGID_2_);}
	.st3{fill:url(#SVGID_3_);}
	.st4{fill:url(#SVGID_4_);}
	.st5{fill:url(#SVGID_5_);}
	.st6{fill:#FF7F18;}
	.st7{fill:#2E001E;}
	.st8{fill:#FF2BC2;}
	.st9{fill:url(#SVGID_6_);}
	.st10{fill:#D8A1FF;}
	.st11{fill:url(#SVGID_7_);}
	.st12{fill:#31C5F0;}
</style>
<title>Calque 1 (5)v1</title>
<g id="Calque_2_1_">
	<g id="Calque_1-2">
		<path class="st0" d="M12,0h243c6.6,0,12,5.4,12,12v334c0,6.6-5.4,12-12,12H12c-6.6,0-12-5.4-12-12V12C0,5.4,5.4,0,12,0z"/>
		
			<linearGradient id="SVGID_1_" gradientUnits="userSpaceOnUse" x1="90.9045" y1="15.8028" x2="108.3458" y2="96.4625" gradientTransform="matrix(1 0 0 -1 0 358)">
			<stop  offset="0" style="stop-color:#FFFFFF;stop-opacity:0.98"/>
			<stop  offset="0.18" style="stop-color:#FCFEFF;stop-opacity:0.98"/>
			<stop  offset="0.32" style="stop-color:#F2FBFE;stop-opacity:0.98"/>
			<stop  offset="0.46" style="stop-color:#E0F6FD;stop-opacity:0.98"/>
			<stop  offset="0.58" style="stop-color:#C8EFFB;stop-opacity:0.99"/>
			<stop  offset="0.7" style="stop-color:#A8E7F9;stop-opacity:0.99"/>
			<stop  offset="0.81" style="stop-color:#82DCF6;stop-opacity:0.99"/>
			<stop  offset="0.92" style="stop-color:#55CFF3"/>
			<stop  offset="1" style="stop-color:#31C5F0"/>
		</linearGradient>
		<path class="st1" d="M141.4,285.1c-1.5,0.1-2.9,0.4-4.3,0.9c0-0.8,0-1.7-0.1-2.5c-1-11.9-11.5-20.8-23.5-19.8
			c-6.3,0.5-12.1,3.8-15.8,9c-6.6-8.4-18.8-9.8-27.2-3.2c-3.1,2.5-5.4,5.9-6.6,9.7c-11.4-3.3-23.3,3.4-26.6,14.8
			c-3.3,11.4,3.4,23.3,14.8,26.6c4.6,1.3,9.5,1.1,14-0.8c0,0.3,0,0.6,0.1,1c1.1,12.3,11.9,21.4,24.2,20.3c6.8-0.6,13-4.3,16.8-10.1
			c8.5,6.7,20.9,5.2,27.5-3.4c1.3-1.6,2.3-3.5,3-5.4c2.3,0.6,4.6,0.9,6.9,0.7c10.5-0.5,18.6-9.4,18.1-19.8
			c-0.5-10.5-9.4-18.6-19.8-18.1C142.4,285,141.9,285,141.4,285.1L141.4,285.1z M96.6,298c0.2-0.2,0.4-0.5,0.7-0.7
			c0.3,0.5,0.7,1,1.1,1.5C97.8,298.5,97.2,298.3,96.6,298z"/>
		
			<linearGradient id="SVGID_2_" gradientUnits="userSpaceOnUse" x1="177.9044" y1="99.8029" x2="195.3457" y2="180.4626" gradientTransform="matrix(1 0 0 -1 0 358)">
			<stop  offset="0" style="stop-color:#FFFFFF"/>
			<stop  offset="0.19" style="stop-color:#FDFBFF"/>
			<stop  offset="0.41" style="stop-color:#F8EDFF"/>
			<stop  offset="0.63" style="stop-color:#EFD8FF"/>
			<stop  offset="0.85" style="stop-color:#E2BAFF"/>
			<stop  offset="1" style="stop-color:#D8A1FF"/>
		</linearGradient>
		<path class="st2" d="M228.4,201.1c-1.5,0.1-2.9,0.4-4.3,0.9c0-0.8,0-1.7-0.1-2.5c-1-11.9-11.5-20.8-23.5-19.8
			c-6.3,0.5-12.1,3.8-15.8,9c-6.6-8.4-18.8-9.8-27.2-3.2c-3.1,2.5-5.4,5.9-6.6,9.7c-11.4-3.3-23.3,3.4-26.6,14.8s3.4,23.3,14.8,26.6
			c4.6,1.3,9.5,1.1,14-0.8c0,0.3,0,0.6,0.1,0.9c1.1,12.3,11.9,21.4,24.2,20.3c6.8-0.6,13-4.3,16.8-10.1c8.5,6.7,20.9,5.2,27.5-3.4
			c1.3-1.6,2.3-3.5,3-5.4c2.3,0.6,4.6,0.9,6.9,0.7c10.5-0.5,18.6-9.4,18.1-19.8c-0.5-10.5-9.4-18.6-19.8-18.1
			C229.4,201,228.9,201,228.4,201.1L228.4,201.1z M183.6,214.1c0.2-0.2,0.4-0.5,0.7-0.7c0.4,0.5,0.7,1,1.1,1.5
			C184.8,214.5,184.2,214.3,183.6,214.1L183.6,214.1z"/>
		
			<linearGradient id="SVGID_3_" gradientUnits="userSpaceOnUse" x1="168.8993" y1="258.754" x2="186.3509" y2="339.4615" gradientTransform="matrix(1 0 0 -1 0 358)">
			<stop  offset="0" style="stop-color:#FFFFFF;stop-opacity:0.98"/>
			<stop  offset="0.18" style="stop-color:#FFFCFE;stop-opacity:0.98"/>
			<stop  offset="0.33" style="stop-color:#FFF2FB;stop-opacity:0.98"/>
			<stop  offset="0.46" style="stop-color:#FFE1F6;stop-opacity:0.98"/>
			<stop  offset="0.58" style="stop-color:#FFC9F0;stop-opacity:0.99"/>
			<stop  offset="0.69" style="stop-color:#FFAAE7;stop-opacity:0.99"/>
			<stop  offset="0.8" style="stop-color:#FF85DC;stop-opacity:0.99"/>
			<stop  offset="0.91" style="stop-color:#FF59CF"/>
			<stop  offset="1" style="stop-color:#FF2BC2"/>
		</linearGradient>
		<path class="st3" d="M219.4,42.1c-1.5,0.1-2.9,0.4-4.3,0.9c0-0.8,0-1.7-0.1-2.5c-1-11.9-11.5-20.8-23.5-19.8
			c-6.3,0.5-12.1,3.8-15.8,9c-6.6-8.4-18.8-9.8-27.2-3.2c-3.1,2.5-5.4,5.9-6.6,9.7c-11.4-3.3-23.3,3.4-26.6,14.8s3.4,23.3,14.8,26.6
			c4.6,1.3,9.5,1.1,14-0.8c0,0.3,0,0.6,0.1,1c1.1,12.3,11.9,21.4,24.2,20.3c6.8-0.6,13-4.3,16.8-10.1c8.5,6.7,20.9,5.2,27.5-3.4
			c1.3-1.6,2.3-3.5,3-5.4c2.3,0.6,4.6,0.9,6.9,0.7c10.5-0.5,18.6-9.4,18.1-19.8c-0.5-10.5-9.4-18.6-19.8-18.1
			C220.4,42,219.9,42,219.4,42.1L219.4,42.1z M174.6,55c0.2-0.2,0.4-0.5,0.7-0.7c0.4,0.5,0.7,1,1.1,1.5
			C175.8,55.5,175.2,55.3,174.6,55z"/>
		
			<linearGradient id="SVGID_4_" gradientUnits="userSpaceOnUse" x1="76.9045" y1="177.8029" x2="94.3457" y2="258.4626" gradientTransform="matrix(1 0 0 -1 0 358)">
			<stop  offset="0" style="stop-color:#FFFFFF;stop-opacity:0.98"/>
			<stop  offset="0.18" style="stop-color:#FFFDFC;stop-opacity:0.98"/>
			<stop  offset="0.32" style="stop-color:#FFF8F2;stop-opacity:0.98"/>
			<stop  offset="0.44" style="stop-color:#FFEEE1;stop-opacity:0.98"/>
			<stop  offset="0.56" style="stop-color:#FFE1C9;stop-opacity:0.98"/>
			<stop  offset="0.67" style="stop-color:#FFD0AB;stop-opacity:0.99"/>
			<stop  offset="0.77" style="stop-color:#FFBB85;stop-opacity:0.99"/>
			<stop  offset="0.88" style="stop-color:#FFA358;stop-opacity:0.99"/>
			<stop  offset="0.98" style="stop-color:#FF8726"/>
			<stop  offset="1" style="stop-color:#FF7F18"/>
		</linearGradient>
		<path class="st4" d="M127.4,123.1c-1.5,0.1-2.9,0.4-4.3,0.9c0-0.8,0-1.7-0.1-2.5c-1-11.9-11.5-20.8-23.5-19.8
			c-6.3,0.5-12.1,3.8-15.8,9c-6.6-8.4-18.8-9.8-27.2-3.2c-3.1,2.5-5.4,5.9-6.6,9.7c-11.4-3.3-23.3,3.4-26.6,14.8
			c-3.3,11.4,3.4,23.3,14.8,26.6c4.6,1.3,9.5,1.1,14-0.8c0,0.3,0,0.6,0.1,0.9c1.1,12.3,11.9,21.4,24.2,20.3
			c6.8-0.6,13-4.3,16.8-10.1c8.5,6.7,20.9,5.2,27.5-3.4c1.3-1.6,2.3-3.5,3-5.4c2.3,0.6,4.6,0.9,6.9,0.7c10.5-0.5,18.6-9.4,18.1-19.8
			c-0.5-10.5-9.4-18.6-19.8-18.1C128.4,123,127.9,123,127.4,123.1L127.4,123.1z M82.6,136c0.2-0.2,0.4-0.5,0.7-0.7
			c0.3,0.5,0.7,1,1.1,1.5C83.8,136.5,83.2,136.3,82.6,136z"/>
		
			<radialGradient id="SVGID_5_" cx="-214.0157" cy="16.6731" r="1.000000e-02" gradientTransform="matrix(2291.6699 0 0 2218.75 490536.3438 -36850.75)" gradientUnits="userSpaceOnUse">
			<stop  offset="0" style="stop-color:#423325;stop-opacity:0.98"/>
			<stop  offset="1" style="stop-color:#1C0A00"/>
		</radialGradient>
		<path class="st5" d="M61,121h45v43.7H61V121z"/>
		<path class="st6" d="M61,121h45v43.7H61V121z M59,166.7h49V119H59V166.7z M91.1,136c0-0.1,0.1-0.2,0.2-0.3c0,0,0,0,0.1,0h3.2
			c0.2,0,0.2,0.1,0.2,0.3v16.1c0,0.2,0,0.2-0.2,0.2h-3.2c-0.2,0-0.3-0.1-0.3-0.3L91.1,136L91.1,136z M90.9,131.4
			c0.1-1.2,1.1-2,2.2-1.9c1,0.1,1.9,0.9,1.9,1.9c0.1,1.1-0.8,2-1.9,2.1c-0.1,0-0.2,0-0.2,0c-1.1,0.1-2-0.7-2-1.8
			C90.9,131.6,90.9,131.5,90.9,131.4L90.9,131.4z M81.7,142.7c-0.6-2.3-1.9-7.2-2.4-9.6l0,0c-0.4,2.4-1.5,6.4-2.4,9.6H81.7z M76,146
			l-1.6,6.1c0,0.2-0.1,0.2-0.3,0.2h-3c-0.2,0-0.3-0.1-0.2-0.3l5.8-20.3c0.1-0.6,0.2-1.1,0.2-1.7c0-0.1,0.1-0.2,0.2-0.2h4.3
			c0.1,0,0.2,0,0.2,0.2l6.5,22c0,0.2,0,0.3-0.2,0.3h-3.4c-0.2,0-0.3,0-0.3-0.2l-1.7-6.1H76z"/>
		<path class="st7" d="M154.4,38H199v43.3h-44.6V38z"/>
		<path class="st8" d="M152.4,36v47.4H201V36H152.4z M154.4,38H199v43.3h-44.6L154.4,38z"/>
		<path class="st8" d="M187.7,55.9c-0.4-0.1-0.8-0.2-1.2-0.2c-2.6,0-4.3,2-4.3,5.2c0,3.7,1.7,5.2,4,5.2c0.5,0,1-0.1,1.4-0.2
			L187.7,55.9L187.7,55.9z M178.6,61.1c0-4.7,3-8.4,8-8.4c0.3,0,0.7,0,1,0v-5.2c0-0.1,0.1-0.2,0.2-0.2h3.3c0.2,0,0.2,0.1,0.2,0.2
			v18.5c0,0.7,0,1.3,0.1,2c0,0.1,0,0.2-0.1,0.2c-1.6,0.8-3.4,1.2-5.2,1.2C181.7,69.3,178.6,66.6,178.6,61.1L178.6,61.1z M171.7,57.8
			l5.7,11c0.1,0.2,0,0.3-0.1,0.3h-3.5c-0.2,0-0.4-0.1-0.4-0.3c-1.3-2.7-2.6-5.4-4-8.3l0,0c-1.2,2.7-2.6,5.7-3.9,8.3
			c-0.1,0.1-0.2,0.2-0.4,0.2h-3.4c-0.2,0-0.2-0.2-0.1-0.3l5.6-10.7l-5.4-10.6c-0.1-0.1-0.1-0.2,0-0.3c0,0,0.1-0.1,0.1,0h3.5
			c0.2,0,0.3,0,0.4,0.2c1.3,2.7,2.6,5.3,3.8,8.1l0,0c1.2-2.7,2.5-5.4,3.7-8c0.1-0.2,0.2-0.3,0.4-0.3h3.4c0.2,0,0.2,0.1,0.1,0.3
			C177.1,47.6,171.7,57.8,171.7,57.8z"/>
		
			<radialGradient id="SVGID_6_" cx="-213.9758" cy="16.7031" r="1.000000e-02" gradientTransform="matrix(2291.6699 0 0 2218.75 490536.3438 -36850.75)" gradientUnits="userSpaceOnUse">
			<stop  offset="0" style="stop-color:#442F55;stop-opacity:0.98"/>
			<stop  offset="1" style="stop-color:#12002C"/>
		</radialGradient>
		<path class="st9" d="M161.8,198.3h44.9V242h-44.9V198.3z"/>
		<path class="st10" d="M161.8,198.3h44.9V242h-44.9V198.3z M159.8,244h49v-47.8h-49V244z M194.5,219.3c0.5,0,1,0,1.5,0
			c0-0.1,0-0.3,0-0.4c0-1.1-0.5-3.1-2.6-3.1c-2,0-2.8,1.7-3,3.5L194.5,219.3z M190.3,222.1c0,2.8,1.3,4.6,4.4,4.6
			c1.1,0,2.3-0.2,3.3-0.6c0.1-0.1,0.3,0,0.3,0.1v2.6c0,0.2-0.1,0.3-0.2,0.4c-1.3,0.6-2.7,0.8-4.1,0.8c-5.4,0-7.4-4-7.4-8.4
			c0-4.8,2.5-8.8,6.9-8.8s6,3.7,6,6.8c0,0.7,0,1.5-0.2,2.2c0,0.1-0.1,0.2-0.3,0.3c-1.1,0.1-2.3,0.2-3.4,0.1L190.3,222.1L190.3,222.1
			z M179.4,220c-0.6-2.3-2-7.2-2.5-9.6l0,0c-0.4,2.4-1.6,6.4-2.4,9.6H179.4z M173.6,223.3l-1.6,6.1c0,0.2-0.1,0.2-0.3,0.2h-3
			c-0.2,0-0.3-0.1-0.2-0.3l5.8-20.3c0.1-0.5,0.2-1.1,0.2-1.7c0-0.1,0.1-0.2,0.2-0.2h4.3c0.1,0,0.2,0,0.2,0.2l6.5,22
			c0,0.2,0,0.3-0.2,0.3h-3.4c-0.1,0-0.3-0.1-0.3-0.2l-1.7-6.1L173.6,223.3z"/>
		
			<radialGradient id="SVGID_7_" cx="-214.0157" cy="16.7431" r="1.000000e-02" gradientTransform="matrix(2291.6699 0 0 2218.75 490536.3438 -36850.75)" gradientUnits="userSpaceOnUse">
			<stop  offset="0" style="stop-color:#34364E;stop-opacity:0.98"/>
			<stop  offset="1" style="stop-color:#0C0824"/>
		</radialGradient>
		<path class="st11" d="M76,283.3h44.9V327H76V283.3z"/>
		<path class="st12" d="M76,283.3h44.9V327H76V283.3z M74,329h49v-47.8H74V329z M107,300.8c-1.6,0-2.2,0.8-2.2,1.5s0.4,1.2,2.5,2.4
			c3.2,1.5,4.2,3,4.2,5.2c0,3.3-2.5,5-5.9,5c-1.4,0.1-2.9-0.3-4.2-0.9c-0.1-0.1-0.2-0.2-0.2-0.3v-3c0-0.2,0.1-0.3,0.2-0.2
			c1.2,0.8,2.6,1.2,4.1,1.2c1.6,0,2.3-0.7,2.3-1.6c0-0.7-0.5-1.4-2.5-2.4c-2.9-1.4-4.1-2.8-4.1-5.1c0-2.6,2.1-4.8,5.6-4.8
			c1.2-0.1,2.5,0.1,3.7,0.6c0.1,0.1,0.2,0.2,0.2,0.4v2.8c0,0.2-0.1,0.3-0.3,0.2C109.5,301.1,108.2,300.8,107,300.8L107,300.8z
			 M89.4,303.3c0.5,0,0.8,0,1.7,0c2.4,0,4.6-0.8,4.6-4.1c0-2.6-1.6-3.9-4.3-3.9c-0.8,0-1.6,0-2,0.1L89.4,303.3z M85.8,292.4
			c0-0.1,0.3-0.2,0.4-0.2c1.3-0.1,3.3-0.1,5.3-0.1c5.7,0,7.9,3.1,7.9,7.1c0,5.2-3.8,7.4-8.4,7.4c-0.8,0-1,0-1.6,0v7.8
			c0,0.2-0.1,0.2-0.3,0.2h-3.1c-0.2,0-0.2-0.1-0.2-0.2L85.8,292.4L85.8,292.4z"/>
	</g>
</g>
</svg>
