<?xml version="1.0" encoding="utf-8"?>
<!-- Generator: Adobe Illustrator 22.0.1, SVG Export Plug-In . SVG Version: 6.00 Build 0)  -->
<svg version="1.1" id="Calque_1" xmlns="http://www.w3.org/2000/svg" xmlns:xlink="http://www.w3.org/1999/xlink" x="0px" y="0px"
	 viewBox="0 0 267 358" style="enable-background:new 0 0 267 358;" xml:space="preserve">
<style type="text/css">
	.st0{opacity:0.8;fill:#544B66;}
	.st1{fill:url(#SVGID_1_);}
	.st2{fill:url(#SVGID_2_);}
	.st3{fill:url(#SVGID_3_);}
	.st4{fill:url(#SVGID_4_);}
	.st5{fill:#2A5699;}
	.st6{fill:#FFFFFF;}
	.st7{fill:#207245;}
	.st8{fill:#D24625;}
	.st9{fill:#2E7237;}
	.st10{fill:#FAFFFA;}
</style>
<title>Calque 1 (3)v1</title>
<g id="Calque_2_1_">
	<g id="Calque_1-2">
		<path class="st0" d="M12,0h243c6.6,0,12,5.4,12,12v334c0,6.6-5.4,12-12,12H12c-6.6,0-12-5.4-12-12V12C0,5.4,5.4,0,12,0z"/>
		
			<linearGradient id="SVGID_1_" gradientUnits="userSpaceOnUse" x1="90.9045" y1="15.8028" x2="108.3458" y2="96.4625" gradientTransform="matrix(1 0 0 -1 0 358)">
			<stop  offset="0" style="stop-color:#FFFFFF;stop-opacity:0.98"/>
			<stop  offset="0.18" style="stop-color:#FCFEFF;stop-opacity:0.98"/>
			<stop  offset="0.32" style="stop-color:#F2FBFE;stop-opacity:0.98"/>
			<stop  offset="0.46" style="stop-color:#E0F6FD;stop-opacity:0.98"/>
			<stop  offset="0.58" style="stop-color:#C8EFFB;stop-opacity:0.99"/>
			<stop  offset="0.7" style="stop-color:#A8E7F9;stop-opacity:0.99"/>
			<stop  offset="0.81" style="stop-color:#82DCF6;stop-opacity:0.99"/>
			<stop  offset="0.92" style="stop-color:#55CFF3"/>
			<stop  offset="1" style="stop-color:#31C5F0"/>
		</linearGradient>
		<path class="st1" d="M141.4,285.1c-1.5,0.1-2.9,0.4-4.3,0.9c0-0.8,0-1.7-0.1-2.5c-1-11.9-11.5-20.8-23.5-19.8
			c-6.3,0.5-12.1,3.8-15.8,9c-6.6-8.4-18.8-9.8-27.2-3.2c-3.1,2.5-5.4,5.9-6.6,9.7c-11.4-3.3-23.3,3.4-26.6,14.8
			c-3.3,11.4,3.4,23.3,14.8,26.6c4.6,1.3,9.5,1.1,14-0.8c0,0.3,0,0.6,0.1,1c1.1,12.3,11.9,21.4,24.2,20.3c6.8-0.6,13-4.3,16.8-10.1
			c8.5,6.7,20.9,5.2,27.5-3.4c1.3-1.6,2.3-3.5,3-5.4c2.3,0.6,4.6,0.9,6.9,0.7c10.5-0.5,18.6-9.4,18.1-19.8
			c-0.5-10.5-9.4-18.6-19.8-18.1C142.4,285,141.9,285,141.4,285.1L141.4,285.1z M96.6,298c0.2-0.2,0.4-0.5,0.7-0.7
			c0.3,0.5,0.7,1,1.1,1.5C97.8,298.5,97.2,298.3,96.6,298z"/>
		
			<linearGradient id="SVGID_2_" gradientUnits="userSpaceOnUse" x1="177.9044" y1="99.8029" x2="195.3457" y2="180.4626" gradientTransform="matrix(1 0 0 -1 0 358)">
			<stop  offset="0" style="stop-color:#FFFFFF"/>
			<stop  offset="0.19" style="stop-color:#FDFBFF"/>
			<stop  offset="0.41" style="stop-color:#F8EDFF"/>
			<stop  offset="0.63" style="stop-color:#EFD8FF"/>
			<stop  offset="0.85" style="stop-color:#E2BAFF"/>
			<stop  offset="1" style="stop-color:#D8A1FF"/>
		</linearGradient>
		<path class="st2" d="M228.4,201.1c-1.5,0.1-2.9,0.4-4.3,0.9c0-0.8,0-1.7-0.1-2.5c-1-11.9-11.5-20.8-23.5-19.8
			c-6.3,0.5-12.1,3.8-15.8,9c-6.6-8.4-18.8-9.8-27.2-3.2c-3.1,2.5-5.4,5.9-6.6,9.7c-11.4-3.3-23.3,3.4-26.6,14.8s3.4,23.3,14.8,26.6
			c4.6,1.3,9.5,1.1,14-0.8c0,0.3,0,0.6,0.1,0.9c1.1,12.3,11.9,21.4,24.2,20.3c6.8-0.6,13-4.3,16.8-10.1c8.5,6.7,20.9,5.2,27.5-3.4
			c1.3-1.6,2.3-3.5,3-5.4c2.3,0.6,4.6,0.9,6.9,0.7c10.5-0.5,18.6-9.4,18.1-19.8c-0.5-10.5-9.4-18.6-19.8-18.1
			C229.4,201,228.9,201,228.4,201.1L228.4,201.1z M183.6,214.1c0.2-0.2,0.4-0.5,0.7-0.7c0.4,0.5,0.7,1,1.1,1.5
			C184.8,214.5,184.2,214.3,183.6,214.1L183.6,214.1z"/>
		
			<linearGradient id="SVGID_3_" gradientUnits="userSpaceOnUse" x1="168.8993" y1="258.754" x2="186.3509" y2="339.4615" gradientTransform="matrix(1 0 0 -1 0 358)">
			<stop  offset="0" style="stop-color:#FFFFFF;stop-opacity:0.98"/>
			<stop  offset="0.19" style="stop-color:#FCFDFC;stop-opacity:0.98"/>
			<stop  offset="0.33" style="stop-color:#F2F6F2;stop-opacity:0.98"/>
			<stop  offset="0.46" style="stop-color:#E1EBE2;stop-opacity:0.98"/>
			<stop  offset="0.58" style="stop-color:#C9DBCB;stop-opacity:0.99"/>
			<stop  offset="0.7" style="stop-color:#AAC6AE;stop-opacity:0.99"/>
			<stop  offset="0.81" style="stop-color:#85AC8A;stop-opacity:0.99"/>
			<stop  offset="0.91" style="stop-color:#598F60"/>
			<stop  offset="1" style="stop-color:#2E7237"/>
		</linearGradient>
		<path class="st3" d="M219.4,42.1c-1.5,0.1-2.9,0.4-4.3,0.9c0-0.8,0-1.7-0.1-2.5c-1-11.9-11.5-20.8-23.5-19.8
			c-6.3,0.5-12.1,3.8-15.8,9c-6.6-8.4-18.8-9.8-27.2-3.2c-3.1,2.5-5.4,5.9-6.6,9.7c-11.4-3.3-23.3,3.4-26.6,14.8s3.4,23.3,14.8,26.6
			c4.6,1.3,9.5,1.1,14-0.8c0,0.3,0,0.6,0.1,1c1.1,12.3,11.9,21.4,24.2,20.3c6.8-0.6,13-4.3,16.8-10.1c8.5,6.7,20.9,5.2,27.5-3.4
			c1.3-1.6,2.3-3.5,3-5.4c2.3,0.6,4.6,0.9,6.9,0.7c10.5-0.5,18.6-9.4,18.1-19.8c-0.5-10.5-9.4-18.6-19.8-18.1
			C220.4,42,219.9,42,219.4,42.1L219.4,42.1z M174.6,55c0.2-0.2,0.4-0.5,0.7-0.7c0.4,0.5,0.7,1,1.1,1.5
			C175.8,55.5,175.2,55.3,174.6,55z"/>
		
			<linearGradient id="SVGID_4_" gradientUnits="userSpaceOnUse" x1="76.9045" y1="177.8029" x2="94.3457" y2="258.4626" gradientTransform="matrix(1 0 0 -1 0 358)">
			<stop  offset="0" style="stop-color:#FFFFFF;stop-opacity:0.98"/>
			<stop  offset="0.18" style="stop-color:#FEFCFC;stop-opacity:0.98"/>
			<stop  offset="0.32" style="stop-color:#FCF4F2;stop-opacity:0.98"/>
			<stop  offset="0.45" style="stop-color:#F9E6E1;stop-opacity:0.98"/>
			<stop  offset="0.57" style="stop-color:#F4D1C9;stop-opacity:0.98"/>
			<stop  offset="0.68" style="stop-color:#EEB7AA;stop-opacity:0.99"/>
			<stop  offset="0.79" style="stop-color:#E69785;stop-opacity:0.99"/>
			<stop  offset="0.9" style="stop-color:#DD7259"/>
			<stop  offset="1" style="stop-color:#D24726"/>
			<stop  offset="1" style="stop-color:#D24625"/>
		</linearGradient>
		<path class="st4" d="M127.4,123.1c-1.5,0.1-2.9,0.4-4.3,0.9c0-0.8,0-1.7-0.1-2.5c-1-11.9-11.5-20.8-23.5-19.8
			c-6.3,0.5-12.1,3.8-15.8,9c-6.6-8.4-18.8-9.8-27.2-3.2c-3.1,2.5-5.4,5.9-6.6,9.7c-11.4-3.3-23.3,3.4-26.6,14.8
			c-3.3,11.4,3.4,23.3,14.8,26.6c4.6,1.3,9.5,1.1,14-0.8c0,0.3,0,0.6,0.1,0.9c1.1,12.3,11.9,21.4,24.2,20.3
			c6.8-0.6,13-4.3,16.8-10.1c8.5,6.7,20.9,5.2,27.5-3.4c1.3-1.6,2.3-3.5,3-5.4c2.3,0.6,4.6,0.9,6.9,0.7c10.5-0.5,18.6-9.4,18.1-19.8
			c-0.5-10.5-9.4-18.6-19.8-18.1C128.4,123,127.9,123,127.4,123.1L127.4,123.1z M82.6,136c0.2-0.2,0.4-0.5,0.7-0.7
			c0.3,0.5,0.7,1,1.1,1.5C83.8,136.5,83.2,136.3,82.6,136z"/>
		<g id="g3103">
			<path id="path6" class="st5" d="M100.4,278h3.3v4.5c6,0,11.9-0.1,17.9,0c1.1-0.1,2,0.6,2.2,1.6c0,0.2,0,0.3,0,0.5
				c0.1,11,0,22,0,33c0,1.1,0.1,2.4-0.5,3.4c-0.9,0.5-1.8,0.6-2.8,0.5c-5.6,0-11.2,0-16.8,0v4.5h-3.5c-8.5-1.5-17-3-25.5-4.5
				c0-13,0-26,0-39C83.3,281,91.8,279.5,100.4,278z"/>
			<path id="path46" class="st6" d="M103.7,284.1h18.4v35.7h-18.4v-4.5h14.5v-2.2h-14.5v-2.8h14.5v-2.2h-14.5v-2.8h14.5v-2.2h-14.5
				v-2.8h14.5v-2.2h-14.5v-2.8h14.5v-2.2h-14.5v-2.8h14.5V288h-14.5V284.1z"/>
			<path id="path88" class="st6" d="M86.2,294l3.2-0.2c0.7,3.8,1.5,7.5,2.3,11.3c0.6-3.9,1.3-7.7,2-11.6c1.1,0,2.2-0.1,3.3-0.2
				c-1.3,5.4-2.4,10.9-3.7,16.2c-0.9,0.5-2.3,0-3.4,0c-0.7-3.7-1.6-7.4-2.3-11.1c-0.7,3.6-1.5,7.2-2.3,10.8c-1.1,0-2.2-0.1-3.2-0.2
				c-0.9-4.9-2-9.8-2.9-14.7l2.9-0.1c0.6,3.5,1.2,7.1,1.7,10.6C84.6,301.3,85.4,297.6,86.2,294z"/>
		</g>
		<path class="st7" d="M186.1,194h3.4v4.6c5.7,0,11.4,0,17.1,0c1-0.1,2,0.1,2.9,0.6c0.5,0.9,0.7,1.9,0.6,2.9c0,9.9,0,19.7,0,29.6
			c0.1,1.7,0,3.3-0.2,5c-0.2,1.2-1.6,1.2-2.6,1.3c-5.9,0-11.8,0-17.7,0v5.1H186c-8.7-1.6-17.4-3-26-4.6v-39.9
			C168.7,197,177.4,195.5,186.1,194z"/>
		<path class="st6" d="M189.5,200.3h18.8v35.8h-18.8v-3.4h4.5v-4h-4.6v-2.3h4.6v-4h-4.6v-2.3h4.6v-4h-4.6v-2.3h4.6v-4h-4.6v-2.3h4.6
			v-4h-4.6L189.5,200.3z"/>
		<path class="st7" d="M196.3,203.7h8v4h-8V203.7z"/>
		<path class="st6" d="M176.8,209c1.3-0.1,2.6-0.2,3.9-0.2c-1.5,3.1-3,6.2-4.6,9.3c1.6,3.2,3.2,6.4,4.7,9.5
			c-1.4-0.1-2.7-0.2-4.1-0.3c-1.1-2.3-2-4.7-2.8-7.1c-0.8,2.3-1.9,4.5-2.8,6.8c-1.3,0-2.5-0.1-3.7-0.1c1.5-2.9,2.9-5.8,4.4-8.6
			c-1.3-2.9-2.7-5.8-4-8.7l3.8-0.2c0.9,2.2,1.8,4.4,2.5,6.7C174.7,213.6,175.8,211.3,176.8,209L176.8,209z"/>
		<path class="st7" d="M196.3,209.9h8v4h-8V209.9z M196.3,216.2h8v4h-8V216.2z M196.3,222.4h8v4h-8V222.4z M196.3,228.7h8v4h-8
			V228.7z"/>
		<path class="st8" d="M86.8,113h3.2v5c6,0,11.9-0.1,17.8,0c1.1-0.1,2,0.6,2.2,1.7c0,0.2,0,0.3,0,0.5c0.1,10.4,0,20.8,0.1,31.2
			c-0.1,1.1,0.1,2.4-0.5,3.4c-0.9,0.5-1.9,0.6-2.8,0.6c-5.6,0-11.1,0-16.7,0v5.6h-3.5c-8.5-1.5-17-3-25.5-4.4v-39
			C69.6,116,78.2,114.5,86.8,113z"/>
		<path class="st6" d="M89.9,119.7h18.4v34H89.9v-4.5h13.4V147H89.9v-2.8h13.4V142H89.9c0-1.1,0-2.2,0-3.3c2.2,0.8,4.7,0.6,6.7-0.6
			c2.1-1.4,3.3-3.6,3.4-6.1c-2.4,0-4.9,0-7.3,0c0-2.4,0-4.8,0-7.3c-0.9,0.2-1.8,0.4-2.7,0.6L89.9,119.7L89.9,119.7z"/>
		<path class="st8" d="M93.8,123.5c3.9,0.3,7.1,3.4,7.3,7.3c-2.4,0-4.9,0-7.3,0C93.8,128.4,93.8,125.9,93.8,123.5L93.8,123.5z"/>
		<path class="st6" d="M69.9,127.7c3,0.1,6.7-1.2,9.2,1.1c2.4,2.9,1.8,8.3-1.8,10c-1.3,0.5-2.7,0.7-4.1,0.5c0,2.2,0,4.4,0,6.5
			l-3.3-0.3C69.9,139.5,69.9,133.6,69.9,127.7L69.9,127.7z"/>
		<path class="st8" d="M73.2,130.7c1.1-0.1,2.4-0.3,3.2,0.8c0.6,1.1,0.6,2.5,0.1,3.6c-0.6,1.1-2.1,1-3.2,1.2
			C73.2,134.4,73.2,132.6,73.2,130.7L73.2,130.7z"/>
		<g id="Layer_1">
			<g id="_784529504">
				<path class="st9" d="M153,34.5v49h49v-49L153,34.5z M180.5,77.3l-22.2-4V44.5l22.2-4V77.3z M181.4,72.7v-7.2l3.8,3.5l4.2-4.1
					l-4.2-4.4l-3.8,3.3V52.1h8.7v5.7h-3.2l4.2,4.4l4.1-4.4h-3.1v-7.9h-10.7v-4.6h15.3v27.5H181.4z"/>
				<polygon class="st10" points="185.2,69 189.4,64.9 185.1,60.4 181.3,63.8 181.4,52.1 190.1,52.1 190.1,57.7 186.9,57.7 
					191.1,62.1 195.2,57.7 192.1,57.7 192.1,49.9 181.4,49.9 181.4,45.3 196.6,45.3 196.6,72.7 181.4,72.7 181.4,65.5 				"/>
				<polygon class="st10" points="180.5,40.5 180.5,77.3 158.3,73.2 158.3,44.5 				"/>
				<path class="st9" d="M168.4,54.9c1.6,0,2.6,0,2.6,1.9s-0.9,2-2.6,2V54.9z M166.2,52.7v12.5l2.2,0.2V61c3.2,0,5-1.1,5-4.4
					C173.4,51.6,169.7,52.6,166.2,52.7z"/>
			</g>
		</g>
	</g>
</g>
</svg>
