<?xml version="1.0" encoding="utf-8"?>
<!-- Generator: Adobe Illustrator 22.0.1, SVG Export Plug-In . SVG Version: 6.00 Build 0)  -->
<svg version="1.1" id="Calque_1" xmlns="http://www.w3.org/2000/svg" xmlns:xlink="http://www.w3.org/1999/xlink" x="0px" y="0px"
	 viewBox="0 0 267 358" style="enable-background:new 0 0 267 358;" xml:space="preserve">
<style type="text/css">
	.st0{opacity:0.8;fill:#544B66;}
	.st1{fill:url(#SVGID_1_);}
	.st2{fill:url(#SVGID_2_);}
	.st3{fill:url(#SVGID_3_);}
	.st4{fill:url(#SVGID_4_);}
	.st5{fill:#0170BA;}
	.st6{fill:#29A9DF;}
	.st7{fill:#CFCFCF;}
	.st8{fill:#FFFFFF;}
	.st9{fill:#E44D26;}
	.st10{fill:#F16529;}
	.st11{fill:#EBEBEB;}
	.st12{fill:#00618A;}
	.st13{fill:#E48E00;}
	.st14{fill:#131B28;}
	.st15{fill:url(#SVGID_5_);}
	.st16{fill:url(#SVGID_6_);}
	.st17{fill:#646464;}
	.st18{fill:url(#path1948_1_);}
	.st19{fill:url(#path1950_1_);}
	.st20{opacity:0.44;fill:url(#path1894_1_);enable-background:new    ;}
</style>
<title>Calque 1 (8)v1</title>
<g id="Calque_2_1_">
	<g id="Calque_1-2">
		<path class="st0" d="M12,0h243c6.6,0,12,5.4,12,12v334c0,6.6-5.4,12-12,12H12c-6.6,0-12-5.4-12-12V12C0,5.4,5.4,0,12,0z"/>
		
			<linearGradient id="SVGID_1_" gradientUnits="userSpaceOnUse" x1="90.9045" y1="15.8028" x2="108.3458" y2="96.4625" gradientTransform="matrix(1 0 0 -1 0 358)">
			<stop  offset="0" style="stop-color:#FFFFFF;stop-opacity:0.98"/>
			<stop  offset="0.2" style="stop-color:#FCFCFC;stop-opacity:0.98"/>
			<stop  offset="0.37" style="stop-color:#F1F1F1;stop-opacity:0.98"/>
			<stop  offset="0.51" style="stop-color:#E0E0E0;stop-opacity:0.98"/>
			<stop  offset="0.65" style="stop-color:#C7C7C7;stop-opacity:0.99"/>
			<stop  offset="0.79" style="stop-color:#A8A8A8;stop-opacity:0.99"/>
			<stop  offset="0.92" style="stop-color:#828282"/>
			<stop  offset="1" style="stop-color:#646464"/>
		</linearGradient>
		<path class="st1" d="M141.4,285.1c-1.5,0.1-2.9,0.4-4.3,0.9c0-0.8,0-1.7-0.1-2.5c-1-11.9-11.5-20.8-23.5-19.8
			c-6.3,0.5-12.1,3.8-15.8,9c-6.6-8.4-18.8-9.8-27.2-3.2c-3.1,2.5-5.4,5.9-6.6,9.7c-11.4-3.3-23.3,3.4-26.6,14.8
			c-3.3,11.4,3.4,23.3,14.8,26.6c4.6,1.3,9.5,1.1,14-0.8c0,0.3,0,0.6,0.1,1c1.1,12.3,11.9,21.4,24.2,20.3c6.8-0.6,13-4.3,16.8-10.1
			c8.5,6.7,20.9,5.2,27.5-3.4c1.3-1.6,2.3-3.5,3-5.4c2.3,0.6,4.6,0.9,6.9,0.7c10.5-0.5,18.6-9.4,18.1-19.8
			c-0.5-10.5-9.4-18.6-19.8-18.1C142.4,285,141.9,285,141.4,285.1L141.4,285.1z M96.6,298c0.2-0.2,0.4-0.5,0.7-0.7
			c0.3,0.5,0.7,1,1.1,1.5C97.8,298.5,97.2,298.3,96.6,298z"/>
		
			<linearGradient id="SVGID_2_" gradientUnits="userSpaceOnUse" x1="177.9044" y1="99.8029" x2="195.3457" y2="180.4626" gradientTransform="matrix(1 0 0 -1 0 358)">
			<stop  offset="0" style="stop-color:#FFFFFF"/>
			<stop  offset="0.12" style="stop-color:#FBFBFB"/>
			<stop  offset="0.25" style="stop-color:#EDEEEF"/>
			<stop  offset="0.38" style="stop-color:#D8D9DB"/>
			<stop  offset="0.52" style="stop-color:#B9BBBF"/>
			<stop  offset="0.66" style="stop-color:#92969C"/>
			<stop  offset="0.8" style="stop-color:#626770"/>
			<stop  offset="0.95" style="stop-color:#2A313D"/>
			<stop  offset="1" style="stop-color:#131B28"/>
		</linearGradient>
		<path class="st2" d="M228.4,201.1c-1.5,0.1-2.9,0.4-4.3,0.9c0-0.8,0-1.7-0.1-2.5c-1-11.9-11.5-20.8-23.5-19.8
			c-6.3,0.5-12.1,3.8-15.8,9c-6.6-8.4-18.8-9.8-27.2-3.2c-3.1,2.5-5.4,5.9-6.6,9.7c-11.4-3.3-23.3,3.4-26.6,14.8s3.4,23.3,14.8,26.6
			c4.6,1.3,9.5,1.1,14-0.8c0,0.3,0,0.6,0.1,0.9c1.1,12.3,11.9,21.4,24.2,20.3c6.8-0.6,13-4.3,16.8-10.1c8.5,6.7,20.9,5.2,27.5-3.4
			c1.3-1.6,2.3-3.5,3-5.4c2.3,0.6,4.6,0.9,6.9,0.7c10.5-0.5,18.6-9.4,18.1-19.8c-0.5-10.5-9.4-18.6-19.8-18.1
			C229.4,201,228.9,201,228.4,201.1L228.4,201.1z M183.6,214.1c0.2-0.2,0.4-0.5,0.7-0.7c0.4,0.5,0.7,1,1.1,1.5
			C184.8,214.5,184.2,214.3,183.6,214.1L183.6,214.1z"/>
		
			<linearGradient id="SVGID_3_" gradientUnits="userSpaceOnUse" x1="168.8993" y1="258.754" x2="186.3509" y2="339.4615" gradientTransform="matrix(1 0 0 -1 0 358)">
			<stop  offset="0" style="stop-color:#FFFFFF;stop-opacity:0.98"/>
			<stop  offset="0.18" style="stop-color:#FFFDFC;stop-opacity:0.98"/>
			<stop  offset="0.33" style="stop-color:#FEF6F2;stop-opacity:0.98"/>
			<stop  offset="0.45" style="stop-color:#FDE9E1;stop-opacity:0.98"/>
			<stop  offset="0.57" style="stop-color:#FBD8C9;stop-opacity:0.99"/>
			<stop  offset="0.69" style="stop-color:#F9C2AA;stop-opacity:0.99"/>
			<stop  offset="0.8" style="stop-color:#F7A785;stop-opacity:0.99"/>
			<stop  offset="0.9" style="stop-color:#F48759"/>
			<stop  offset="1" style="stop-color:#F16529"/>
		</linearGradient>
		<path class="st3" d="M219.4,42.1c-1.5,0.1-2.9,0.4-4.3,0.9c0-0.8,0-1.7-0.1-2.5c-1-11.9-11.5-20.8-23.5-19.8
			c-6.3,0.5-12.1,3.8-15.8,9c-6.6-8.4-18.8-9.8-27.2-3.2c-3.1,2.5-5.4,5.9-6.6,9.7c-11.4-3.3-23.3,3.4-26.6,14.8s3.4,23.3,14.8,26.6
			c4.6,1.3,9.5,1.1,14-0.8c0,0.3,0,0.6,0.1,1c1.1,12.3,11.9,21.4,24.2,20.3c6.8-0.6,13-4.3,16.8-10.1c8.5,6.7,20.9,5.2,27.5-3.4
			c1.3-1.6,2.3-3.5,3-5.4c2.3,0.6,4.6,0.9,6.9,0.7c10.5-0.5,18.6-9.4,18.1-19.8c-0.5-10.5-9.4-18.6-19.8-18.1
			C220.4,42,219.9,42,219.4,42.1L219.4,42.1z M174.6,55c0.2-0.2,0.4-0.5,0.7-0.7c0.4,0.5,0.7,1,1.1,1.5
			C175.8,55.5,175.2,55.3,174.6,55z"/>
		
			<linearGradient id="SVGID_4_" gradientUnits="userSpaceOnUse" x1="76.9045" y1="177.8029" x2="94.3457" y2="258.4626" gradientTransform="matrix(1 0 0 -1 0 358)">
			<stop  offset="0" style="stop-color:#FFFFFF;stop-opacity:0.98"/>
			<stop  offset="0.17" style="stop-color:#FCFDFE;stop-opacity:0.98"/>
			<stop  offset="0.3" style="stop-color:#F2F7F9;stop-opacity:0.98"/>
			<stop  offset="0.42" style="stop-color:#E1ECF1;stop-opacity:0.98"/>
			<stop  offset="0.53" style="stop-color:#C9DEE6;stop-opacity:0.98"/>
			<stop  offset="0.64" style="stop-color:#ABCBD8;stop-opacity:0.99"/>
			<stop  offset="0.74" style="stop-color:#85B3C7;stop-opacity:0.99"/>
			<stop  offset="0.84" style="stop-color:#5898B3;stop-opacity:0.99"/>
			<stop  offset="0.94" style="stop-color:#26799B"/>
			<stop  offset="1" style="stop-color:#00618A"/>
		</linearGradient>
		<path class="st4" d="M127.4,123.1c-1.5,0.1-2.9,0.4-4.3,0.9c0-0.8,0-1.7-0.1-2.5c-1-11.9-11.5-20.8-23.5-19.8
			c-6.3,0.5-12.1,3.8-15.8,9c-6.6-8.4-18.8-9.8-27.2-3.2c-3.1,2.5-5.4,5.9-6.6,9.7c-11.4-3.3-23.3,3.4-26.6,14.8
			c-3.3,11.4,3.4,23.3,14.8,26.6c4.6,1.3,9.5,1.1,14-0.8c0,0.3,0,0.6,0.1,0.9c1.1,12.3,11.9,21.4,24.2,20.3
			c6.8-0.6,13-4.3,16.8-10.1c8.5,6.7,20.9,5.2,27.5-3.4c1.3-1.6,2.3-3.5,3-5.4c2.3,0.6,4.6,0.9,6.9,0.7c10.5-0.5,18.6-9.4,18.1-19.8
			c-0.5-10.5-9.4-18.6-19.8-18.1C128.4,123,127.9,123,127.4,123.1L127.4,123.1z M82.6,136c0.2-0.2,0.4-0.5,0.7-0.7
			c0.3,0.5,0.7,1,1.1,1.5C83.8,136.5,83.2,136.3,82.6,136z"/>
		<g id="_000000ff">
			<path d="M151,36c2,0,4,0,6,0c0,0.6,0,1.3,0,1.9c-1.4,0-2.8,0-4.1,0c0,0.9,0,1.8,0,2.7c1.4,0,2.8,0,4.2,0c0,0.5,0,1,0,1.5h-6
				C151,40.1,151,38.1,151,36z"/>
			<path d="M157.7,36c2,0,4,0,6.1,0c0,0.6,0,1.2,0,1.8c-1.5,0-2.9,0-4.4,0c0,0.2,0,0.5,0,0.7h4.4c0,1.2,0,2.4,0,3.6c-2,0-4,0-6.1,0
				c0-0.5,0-1,0-1.5h4.2c0-0.3,0-0.6,0-1h-4.2L157.7,36z"/>
			<path d="M164.5,36h6c0,0.6,0,1.2,0,1.8H166c0,0.2,0,0.5,0,0.7c1.5,0,2.9,0,4.4,0c0,1.2,0,2.4,0,3.6c-2,0-4,0-6.1,0
				c0-0.5,0-1,0-1.5h4.2c0-0.3,0-0.6,0-1c-1.4,0-2.8,0-4.2,0C164.4,38.5,164.4,37.3,164.5,36z"/>
		</g>
		<g id="_0170baff">
			<path class="st5" d="M144.5,44.7H177c-0.6,6.7-1.2,13.5-1.8,20.2c-0.4,4.3-0.8,8.6-1.1,12.9c-2.3,0.6-4.6,1.3-6.9,1.9
				c-2.1,0.6-4.3,1.2-6.4,1.8h-0.1c-2-0.6-4.1-1.1-6.1-1.7c-2.4-0.6-4.8-1.3-7.1-2c-0.3-3.2-0.6-6.4-0.9-9.7
				c-0.5-6-1.1-11.9-1.6-17.9c-0.2-1.8-0.3-3.6-0.5-5.4V44.7 M160.8,47.4c0,1.3,0,2.6,0,3.9c-3.7,0-7.4,0-11.1,0
				c0.1,1.3,0.2,2.5,0.4,3.8c3.4,0.1,6.9,0,10.4,0.1c-3,1.3-6.1,2.6-9.1,4c-0.3,0.1-0.5,0.2-0.8,0.4c0,1.4,0.3,2.8,0.4,4.1
				c1.8,0,3.7,0,5.5,0c1.5,0,3,0,4.4,0c-0.1,2.3,0,4.5-0.1,6.8c-1-0.2-2-0.4-3-0.6c-0.8-0.2-1.6-0.3-2.4-0.5
				c-0.1-1.1-0.2-2.2-0.3-3.3c-0.2-0.1-0.5-0.1-0.7-0.1c-1.1,0-2.2,0-3.4,0c0.1,2.1,0.3,4.2,0.6,6.3c1.1,0.3,2.2,0.6,3.3,0.9
				c1.7,0.5,3.4,0.8,5.1,1.3c0.2,0.1,0.4,0.1,0.6,0.1c0.1,1.4,0,2.8,0.1,4.1c0.4-0.1,0.8-0.1,1.1-0.3l9.6-2.6
				c0.2-1.3,0.2-2.5,0.4-3.8c0.3-3.8,0.7-7.6,1-11.5c0.4-4.4,0.8-8.7,1.2-13.1L160.8,47.4z"/>
		</g>
		<g id="_29a9dfff">
			<path class="st6" d="M160.8,47.4h13.2c-0.4,4.4-0.8,8.7-1.2,13.1c-0.3,3.8-0.7,7.6-1,11.5c-0.1,1.3-0.2,2.5-0.4,3.8l-9.5,2.6
				c-0.4,0.1-0.8,0.2-1.1,0.3c0-1.4,0.1-2.8-0.1-4.1h0.1c3-0.7,5.9-1.6,8.9-2.3c0.4-4.2,0.8-8.4,1.1-12.6h-7.6c-0.4,0-0.7,0-1.1,0
				c1.4-0.7,2.8-1.3,4.2-1.9s2.7-1.2,4-1.8c0.3-0.1,0.5-0.2,0.8-0.4c0.1-0.3,0.1-0.7,0.1-1c0.1-1.1,0.2-2.1,0.3-3.2
				c-3.6,0-7.1,0-10.7,0C160.8,50,160.8,48.7,160.8,47.4z"/>
			<path class="st6" d="M160.8,63.5c1.7,0,3.4,0,5.2,0c-0.1,1.8-0.2,3.5-0.3,5.3c-1.1,0.3-2.1,0.6-3.2,1c-0.6,0.1-1.1,0.3-1.7,0.6
				C160.9,68,160.8,65.8,160.8,63.5z"/>
		</g>
		<g id="_cfcfcfff">
			<path class="st7" d="M149.7,51.2c3.7,0,7.4,0,11.1,0c0.1,4.1,0,8.2,0.1,12.3c-1.5,0-3,0-4.4,0c-1.8,0-3.7,0-5.5,0
				c-0.1-1.4-0.3-2.7-0.4-4.1c0.2-0.2,0.5-0.3,0.8-0.4c3-1.3,6.1-2.6,9.1-4c-3.5-0.1-6.9,0-10.4-0.1
				C149.9,53.7,149.7,52.5,149.7,51.2z"/>
			<path class="st7" d="M151.2,66c1.1,0,2.2,0,3.4,0c0.2,0,0.5,0,0.7,0.1c0.1,1.1,0.2,2.2,0.3,3.3c0.8,0.2,1.6,0.3,2.4,0.5
				c1,0.2,2,0.4,3,0.6c0.1,1.4-0.1,2.8,0.1,4.1h-0.1c-0.2,0-0.4,0-0.6-0.1c-1.7-0.4-3.4-0.8-5.1-1.3c-1.1-0.3-2.2-0.6-3.3-0.9
				C151.5,70.2,151.3,68.1,151.2,66z"/>
		</g>
		<g id="_ffffffff">
			<path class="st8" d="M160.8,51.2c3.6,0,7.1,0,10.7,0c-0.1,1.1-0.2,2.1-0.3,3.2c0,0.3-0.1,0.7-0.1,1c-0.2,0.2-0.5,0.3-0.8,0.4
				c-1.3,0.6-2.7,1.2-4,1.8s-2.8,1.2-4.2,1.9c0.4,0,0.7,0,1.1,0h7.6c-0.3,4.2-0.7,8.4-1.1,12.6c-3,0.8-5.9,1.6-8.9,2.3
				c-0.2-1.4,0-2.8-0.1-4.1c0.5-0.2,1.1-0.4,1.7-0.6c1.1-0.3,2.1-0.6,3.2-1c0.1-1.8,0.2-3.5,0.3-5.3c-1.7,0-3.4,0-5.2,0
				C160.8,59.4,160.8,55.3,160.8,51.2z"/>
		</g>
		<path d="M180.6,35h2v2h1.9v-2h2.1v6.2h-2.1v-2h-1.9v2h-2.1 M189.3,37h-1.8v-2h5.7v2h-1.8v4.1h-2.1 M194.1,35h2.1l1.3,2.2l1.3-2.2
			h2.1v6.2H199v-3l-1.4,2.2l-1.4-2.2v3h-2 M202.1,35h2v4.1h2.9v2h-5"/>
		<path class="st9" d="M180.6,77.1L177.6,44H210l-2.9,33l-13.3,3.7"/>
		<path class="st10" d="M193.8,77.9V46.7H207l-2.5,28.2"/>
		<path class="st11" d="M183.6,50.7h10.2v4.1h-5.7l0.4,4.2h5.4v4h-9.1 M184.9,64.9h4.1l0.3,3.3l4.5,1.2v4.2l-8.3-2.3"/>
		<path class="st8" d="M204,50.7h-10.2v4.1h9.8 M203.2,59h-9.4v4h5l-0.5,5.3l-4.5,1.2v4.2l8.3-2.3"/>
		<path class="st12" d="M64.3,157h2.2v-8.6l3.4,7.5c0.5,1.1,1.9,1.6,3,1c0.4-0.2,0.8-0.6,1-1l3.4-7.5v8.6h2.2v-8.6
			c0.1-0.7-0.3-1.3-1-1.4c-1.6-0.5-2.8-0.1-3.3,1l-3.3,7.4l-3.3-7.4c-0.5-1.1-1.6-1.6-3.3-1c-0.7,0.1-1.1,0.8-1,1.4L64.3,157z"/>
		<path class="st12" d="M81.2,150h2.2v4.7c0,0.3,0.1,0.9,1.3,0.9h4.7V150h2.2c0,0,0,7.7,0,7.7c0,1.9-2.3,2.3-3.4,2.3h-6.8v-1.5h6.9
			c1.4-0.1,1.2-0.8,1.2-1.1v-0.6h-4.6c-2.2,0-3.5-1-3.5-2C81.2,154.8,81.2,150,81.2,150z"/>
		<path class="st13" d="M93.2,157h6.2c0.7,0,1.4-0.1,2-0.4c0.9-0.4,1.4-1,1.4-1.8v-1.6c0-0.6-0.5-1.2-1.6-1.6
			c-0.6-0.2-1.2-0.3-1.8-0.3h-2.6c-0.9,0-1.3-0.3-1.4-0.9c0-0.1,0-0.1,0-0.2v-1c0-0.1,0-0.1,0-0.2c0.1-0.4,0.3-0.6,1.1-0.6h0.2h6.2
			V147h-6.1c-0.6,0-1.2,0-1.8,0.2c-1.3,0.4-1.9,1-1.9,2.1v1.3c0,1,1.1,1.8,3,2h0.6h2.5c0.7,0.1,1,0.2,1.2,0.4
			c0.1,0.1,0.2,0.2,0.2,0.4v1.3c0,0.2-0.1,0.4-0.3,0.5c-0.3,0.2-0.6,0.3-0.9,0.3h-6.3V157z"/>
		<path class="st13" d="M116.3,154.4c0,1.5,1.1,2.3,3.3,2.5h0.6h5.7v-1.4h-5.7c-1.3,0-1.8-0.3-1.8-1.1V147h-2.2L116.3,154.4z"/>
		<path class="st13" d="M104.2,154.5v-5.2c0-1.3,0.9-2.1,2.7-2.4c0.2,0,0.4,0,0.6,0h4.1c0.2,0,0.4,0,0.6,0c1.8,0.3,2.7,1,2.7,2.4
			v5.2c0.1,0.9-0.4,1.7-1.3,2l2.1,1.9h-2.5l-1.7-1.6l-1.7,0.1h-2.3c-0.4,0-0.9-0.1-1.3-0.2C104.8,156.4,104.2,155.7,104.2,154.5z
			 M106.5,154.4c0,0.1,0,0.1,0,0.2c0.1,0.6,0.7,0.9,1.6,0.9h2l-1.8-1.6h2.5l1.6,1.4c0.3-0.1,0.5-0.4,0.6-0.7c0-0.1,0-0.1,0-0.2v-4.9
			c0-0.1,0-0.1,0-0.2c-0.1-0.6-0.7-0.9-1.5-0.9h-3.3c-1,0-1.6,0.4-1.6,1.1L106.5,154.4z"/>
		<path class="st12" d="M127.8,144.6c-1.1-0.1-2.2,0.1-3.2,0.4c-0.3,0.1-0.7,0.1-0.7,0.4c0.1,0.1,0.2,0.4,0.3,0.5
			c0.2,0.4,0.5,0.7,0.9,1c0.3,0.3,0.7,0.5,1.1,0.8c0.7,0.4,1.4,0.6,2,1c0.4,0.2,0.7,0.5,1.1,0.8c0.2,0.1,0.3,0.3,0.5,0.4l0,0
			c-0.1-0.1-0.1-0.4-0.3-0.5l-0.5-0.5c-0.5-0.6-1.1-1.2-1.7-1.7c-0.5-0.4-1.7-0.9-1.9-1.5l0,0c0.4-0.1,0.8-0.1,1.1-0.3
			c0.6-0.1,1.1-0.1,1.7-0.3l0.8-0.2v-0.2c-0.3-0.3-0.5-0.7-0.8-1c-0.9-0.7-1.8-1.4-2.7-2.1c-0.5-0.3-1.2-0.6-1.7-0.8
			c-0.2-0.1-0.5-0.1-0.6-0.3c-0.3-0.4-0.5-0.8-0.7-1.3c-0.5-0.9-0.9-1.9-1.4-2.9c-0.2-0.6-0.5-1.3-0.8-1.9c-1.5-2.6-3.8-4.8-6.4-6.2
			c-0.7-0.3-1.4-0.6-2.1-0.7l-1.3-0.1c-0.3-0.2-0.5-0.4-0.8-0.6c-1-0.6-3.4-1.9-4.1-0.2c-0.4,1.1,0.7,2.1,1.1,2.7
			c0.3,0.4,0.6,0.8,0.8,1.3c0.1,0.3,0.2,0.6,0.3,0.9c0.2,0.8,0.5,1.5,0.9,2.2c0.2,0.3,0.4,0.7,0.6,1c0.1,0.2,0.4,0.3,0.4,0.6
			c-0.2,0.4-0.3,0.8-0.4,1.3c-0.6,1.8-0.4,3.9,0.5,5.6c0.3,0.4,0.9,1.3,1.8,1s0.6-1.3,0.8-2.1c0-0.2,0-0.3,0.1-0.4l0,0
			c0.2,0.4,0.4,0.9,0.7,1.4c0.6,0.9,1.3,1.6,2.2,2.2c0.4,0.3,0.7,0.8,1.2,1l0,0l0,0c-0.1-0.1-0.3-0.2-0.4-0.3
			c-0.3-0.3-0.6-0.6-0.9-1c-0.7-1-1.3-2-1.8-3c-0.3-0.5-0.5-1.1-0.7-1.6c-0.1-0.2-0.1-0.5-0.3-0.6c-0.3,0.4-0.6,0.7-0.8,1.1
			c-0.3,0.8-0.4,1.7-0.5,2.5c-0.1,0,0,0-0.1,0c-0.5-0.1-0.7-0.7-0.9-1.1c-0.5-1.4-0.6-3-0.2-4.4c0.1-0.4,0.6-1.5,0.4-1.8
			s-0.4-0.5-0.6-0.8c-0.2-0.3-0.4-0.7-0.6-1.1c-0.4-0.9-0.6-2-1-2.9c-0.2-0.5-0.5-0.9-0.8-1.3c-0.4-0.4-0.7-0.8-0.9-1.3
			c-0.1-0.2-0.2-0.5-0.1-0.7c0-0.1,0.1-0.2,0.2-0.2c0.2-0.2,0.8,0.1,1.1,0.2c0.6,0.2,1.1,0.5,1.6,0.8c0.3,0.2,0.5,0.5,0.8,0.6h0.3
			c0.5,0.1,1.1,0,1.6,0.2c0.8,0.3,1.6,0.7,2.4,1.1c2.2,1.4,4,3.4,5.2,5.7c0.2,0.4,0.3,0.7,0.5,1.1c0.3,0.8,0.8,1.6,1.1,2.4
			c0.3,0.8,0.7,1.5,1.2,2.2c0.3,0.3,1.3,0.5,1.7,0.7c0.4,0.1,0.8,0.3,1.1,0.4c0.6,0.4,1.1,0.8,1.7,1.1
			C127,143.8,127.8,144.2,127.8,144.6z"/>
		<path class="st12" d="M110.9,130.1c-0.2,0-0.5,0-0.7,0.1l0,0l0,0c0.2,0.2,0.3,0.5,0.5,0.7c0.1,0.3,0.3,0.5,0.4,0.8l0,0
			c0.2-0.2,0.4-0.5,0.3-0.8c-0.1-0.1-0.1-0.2-0.2-0.3S111,130.3,110.9,130.1z"/>
		<path class="st13" d="M127,155.5c0,0.9,0.7,1.6,1.6,1.6c0.9,0,1.6-0.7,1.6-1.6s-0.7-1.6-1.6-1.6C127.7,153.9,127,154.6,127,155.5
			C127,155.4,127,155.5,127,155.5z M129.8,155.5c0,0.7-0.6,1.2-1.3,1.2c-0.7,0-1.2-0.6-1.2-1.3c0-0.7,0.6-1.2,1.2-1.2
			C129.3,154.2,129.8,154.8,129.8,155.5L129.8,155.5z M129,156.4h0.4l-0.5-0.8c0.3,0,0.5-0.2,0.5-0.5s-0.2-0.5-0.7-0.5H128v1.8h0.3
			v-0.8h0.3L129,156.4z M128.3,155.4v-0.5h0.4c0.2,0,0.4,0,0.4,0.3s-0.2,0.3-0.4,0.3H128.3z"/>
		<path class="st14" d="M167.1,217L167.1,217l-0.8,2.8L167.1,217L167.1,217z"/>
		<path class="st14" d="M171.2,223.2L171.2,223.2z"/>
		<path class="st14" d="M171,227.4L171,227.4h-5.3H171z"/>
		<path class="st14" d="M172.1,223.2L172.1,223.2z"/>
		<path class="st14" d="M171.4,227l0.9-3.5L171.4,227z"/>
		<path class="st14" d="M190.9,210.9l-1.7,8.1L190.9,210.9z"/>
		<path class="st14" d="M186.5,210.9l-1.3,6L186.5,210.9z"/>
		<path class="st14" d="M190.6,210.5h-3.7c-0.2,0-0.4,0.2-0.4,0.4l-1.3,6l-1.3,6c-0.1,0.2-0.2,0.4-0.4,0.4h-2.6
			c-2.6,0-2.3-1.8-1.7-4.2V219l0.1-0.3v-0.1l0.1-0.6l0.1-0.7c0-0.2,0.1-0.5,0.1-0.7l0.6-2.9l0.6-2.9c0-0.2-0.1-0.3-0.2-0.4
			c0,0-0.1,0-0.1,0h-3.8c-0.2,0-0.4,0.2-0.4,0.4l-0.8,3.8l-0.8,3.8l0,0l-0.1,0.4c-0.9,4.3-0.7,8.3,4.4,8.4h8.1
			c0.2,0,0.4-0.2,0.4-0.4l1.7-8.1l1.7-8.1C190.9,210.7,190.8,210.6,190.6,210.5C190.6,210.5,190.6,210.5,190.6,210.5L190.6,210.5z"
			/>
		<path class="st14" d="M205.2,223.3c0.2,0,0.3,0.1,0.3,0.3c0,0,0,0.1,0,0.1l-0.4,1.7"/>
		<path class="st14" d="M204.8,227.2l0.4-1.7L204.8,227.2z"/>
		<path class="st14" d="M204.3,227.5L204.3,227.5c-1.1,0-4.3,0-6.8,0C200.6,227.5,204.3,227.5,204.3,227.5z"/>
		<path class="st14" d="M195.4,221.1c0-0.2,0.2-0.5,0.4-0.5h-0.5C195.1,222.6,195.3,221.1,195.4,221.1L195.4,221.1z"/>
		<path class="st14" d="M197.9,227.6L197.9,227.6z"/>
		<path class="st14" d="M205.2,223.3c0.2,0,0.3,0.1,0.3,0.3c0,0,0,0.1,0,0.1l-0.4,1.7l-0.1,0.3"/>
		<path class="st14" d="M199.6,227.6L199.6,227.6z"/>
		<path class="st14" d="M198.8,227.6L198.8,227.6z"/>
		<path class="st14" d="M198.5,227.6L198.5,227.6z"/>
		<path class="st14" d="M198.2,227.6L198.2,227.6z"/>
		<path class="st14" d="M198.7,227.6L198.7,227.6z"/>
		<path class="st14" d="M199.6,227.6L199.6,227.6z"/>
		<path class="st14" d="M204.3,227.5L204.3,227.5h-4.7H204.3z"/>
		<path class="st14" d="M204.8,227.2l0.3-1.5L204.8,227.2z"/>
		<path class="st14" d="M198.4,227.6L198.4,227.6z"/>
		<path class="st14" d="M197.8,227.6L197.8,227.6z"/>
		<path class="st14" d="M198.1,227.6L198.1,227.6z"/>
		<path class="st14" d="M144.5,221.1l0.6-2.5l-0.6,2.9l-0.6,2.9l0.6-2.6C144.4,221.7,144.5,221.3,144.5,221.1L144.5,221.1z"/>
		<path class="st14" d="M151.3,210.5h-4c-0.2,0-0.4,0.2-0.4,0.4l-0.4,1.7l-0.4,1.7c0,0.1,0,0.3,0.2,0.3c0,0,0.1,0,0.1,0h4.1
			c0.2,0,0.4-0.2,0.4-0.4l0.4-1.7l0.4-1.7l0,0c0-0.2-0.1-0.3-0.2-0.4C151.4,210.5,151.4,210.5,151.3,210.5L151.3,210.5z"/>
		<path class="st14" d="M150.5,216.1L150.5,216.1l-1.2,5.5L150.5,216.1z"/>
		<path class="st14" d="M138.8,234.2c0,0,2,0,3.3,0H138.8z"/>
		<path class="st14" d="M145.7,216.1l-0.6,2.5L145.7,216.1z"/>
		<path class="st14" d="M150.2,215.7h-4c-0.2,0-0.4,0.2-0.4,0.4l-0.6,2.5l-0.6,2.5c-0.1,0.2-0.1,0.5-0.2,0.7l-0.6,2.6l-0.6,2.6
			c0,0.2-0.1,0.5-0.2,0.7c0,0-0.8,2.3-2,2.2H141h-1.1l0,0c-0.2,0-0.4,0.1-0.5,0.4l-0.4,1.8l-0.4,1.8c0,0.1,0,0.3,0.2,0.3
			c0,0,0.1,0,0.1,0h3.3c3.2,0,4.9-1.8,5.9-6.8l1.3-5.8l1.2-5.5c0-0.2-0.1-0.3-0.2-0.4C150.3,215.7,150.3,215.7,150.2,215.7
			L150.2,215.7z"/>
		<path class="st14" d="M207.8,227.4c-0.2,0-0.3-0.1-0.3-0.3c0,0,0-0.1,0-0.1l3.1-14.3"/>
		<path class="st14" d="M212,227l1.2-6.1L212,227z"/>
		<path class="st14" d="M207.5,227.2c0-0.2,0-0.4,0-0.6l1.4-6.8l-1.5,7.2c0,0.2,0.1,0.3,0.2,0.4c0,0,0.1,0,0.1,0h0.4
			C207.9,227.4,207.5,227.3,207.5,227.2L207.5,227.2z"/>
		<path class="st14" d="M211.8,227.3c-0.2,0.1-0.4,0.1-0.6,0.1h0.4c0.2,0,0.4-0.2,0.4-0.4l0.1-0.4
			C212,226.9,211.9,227.1,211.8,227.3L211.8,227.3z"/>
		<path class="st14" d="M212.6,224l0.6-2.7l0,0L212.6,224L212.6,224z"/>
		<path class="st14" d="M224.7,213.7l0.2,0.7c0,0.2-0.1,0.3-0.2,0.4c0,0-0.1,0-0.1,0"/>
		<path class="st14" d="M212.1,226.6l0.5-2.7L212.1,226.6z"/>
		<path class="st14" d="M224.5,213l0.2,0.7L224.5,213z"/>
		<path class="st14" d="M213.2,221.3c0-0.2,0.1-0.5,0.1-0.7l0.6-2.7l-0.7,3.1L213.2,221.3L213.2,221.3z"/>
		<path class="st14" d="M210.6,212.5l-0.1,0.6l-1.5,6.8l1.5-7.1L210.6,212.5L210.6,212.5z"/>
		<path class="st14" d="M224.8,214.4l-0.2-0.7l-0.2-0.7l-0.1-0.4c-0.3-1.3-1.3-2-3.4-2h-9.7c-0.2,0-0.4,0.2-0.4,0.4l0,0l-0.1,0.7
			l-0.2,0.8l-0.1,0.2l-1.5,7.1l-1.4,6.8c0,0.2,0,0.4,0,0.6c0,0.1,0.4,0.2,0.6,0.2h3c0.2,0,0.4,0,0.6-0.1c0.2-0.2,0.3-0.4,0.3-0.6
			l0.5-2.7l0.6-2.7l0,0l0.1-0.4l0.7-3.1l0.6-2.7c0.1-0.2,0.2-0.4,0.4-0.4h9.6C224.7,214.7,224.8,214.6,224.8,214.4
			C224.8,214.4,224.8,214.4,224.8,214.4L224.8,214.4z"/>
		<path class="st14" d="M237.2,208.1h-3.8c-0.2,0-0.4,0.1-0.6,0.3l-6.8,10c-0.1,0.2-0.2,0.1-0.3-0.1l-0.5-2.2
			c-0.1-0.2-0.2-0.4-0.4-0.4h-4.4c-0.1,0-0.3,0.1-0.3,0.3c0,0,0,0.1,0,0.1l2,6.9c0.1,0.2,0.1,0.5,0,0.7l-0.9,3.3
			c-0.1,0.1,0,0.3,0.2,0.3c0,0,0.1,0,0.1,0h4.3c0.2,0,0.4-0.2,0.5-0.4l0.9-3.3c0.1-0.2,0.2-0.5,0.3-0.6l11.1-14.7
			c0.1-0.2,0.1-0.3-0.1-0.3L237.2,208.1z"/>
		<path class="st14" d="M202.5,216.7L202.5,216.7c0,0.2-0.2,0.4-0.4,0.4h-5.5c-0.1,0-0.3-0.1-0.3-0.2c0,0,0-0.1,0-0.1l0,0l0,0v-0.1
			c0.5-1.5,2-2.5,3.6-2.3C202.1,214.3,202.6,215.5,202.5,216.7L202.5,216.7z M200.8,210.3c-7.1,0-8.8,4.3-9.8,8.7s-0.9,8.6,6.5,8.6
			h2.1h4.7c0.2,0,0.4-0.2,0.4-0.4l0.3-1.5l0.1-0.3l0.4-1.7c0-0.2-0.1-0.3-0.2-0.4c0,0-0.1,0-0.1,0h-6.6c-2.6,0-3.4-0.7-3.1-2.8H206
			c0.2,0,0.3-0.1,0.4-0.3c0,0,0-0.1,0-0.1l0,0C208,214.3,207.5,210.3,200.8,210.3L200.8,210.3z"/>
		<path class="st14" d="M167.2,216.7l-0.1,0.4l0,0l-0.8,2.8l-0.8,2.8c-0.1,0.2-0.3,0.4-0.5,0.4h-4.2c-3.2,0-4-2.5-3.2-6.2
			s2.3-6.1,5.5-6.4C167.4,210.1,168.2,213.1,167.2,216.7L167.2,216.7z M170.1,222.8c1-2.5,1.9-5,2.4-7.6c0.6-3.8-1.3-9.2-8.5-9.2
			s-10.3,5.2-11.5,10.8s0.4,10.7,7.5,10.6h5.6h5.3c0.2,0,0.4-0.2,0.5-0.4l0.9-3.5c0-0.1,0-0.3-0.2-0.3c0,0-0.1,0-0.1,0h-1.8
			c-0.1,0-0.2-0.1-0.3-0.2c0,0,0-0.1,0-0.1C170.1,223,170.1,222.9,170.1,222.8L170.1,222.8z"/>
		<path class="st14" d="M205.7,219.6c0,0.1-0.1,0.3-0.3,0.3s-0.3-0.1-0.3-0.3s0.1-0.3,0.3-0.3S205.7,219.4,205.7,219.6z"/>
		<g id="g4">
			<g id="g6">
				<path id="path8" d="M41.5,121.6h9.3c2.7,0,4.7,0.8,5.9,2.3c1.2,1.5,1.6,3.6,1.2,6.3c-0.2,1.2-0.5,2.4-1.1,3.6
					c-0.5,1.2-1.3,2.3-2.2,3.2c-1,1.1-2.3,1.9-3.7,2.3c-1.3,0.3-2.7,0.5-4.1,0.5h-4.1l-1.3,6.5h-4.8L41.5,121.6 M45.5,125.5
					l-2.1,10.3c0.1,0,0.3,0,0.4,0h0.5c1.9,0.1,3.7-0.1,5.5-0.6c1.5-0.5,2.5-2.1,3-5c0.4-2.4,0-3.8-1.2-4.2c-1.5-0.4-3-0.6-4.6-0.5
					c-0.3,0-0.5,0-0.8,0L45.5,125.5L45.5,125.5"/>
				<path id="path10" d="M63.4,115h4.8l-1.3,6.6h4.3c1.9-0.1,3.7,0.4,5.2,1.4c1.2,0.9,1.5,2.7,1,5.2L75,139.7h-4.8l2.2-10.9
					c0.3-0.8,0.2-1.7-0.2-2.4c-0.7-0.6-1.5-0.8-2.4-0.7H66l-2.8,14.1h-4.8L63.4,115"/>
				<path id="path12" d="M82.5,121.6h9.3c2.7,0,4.7,0.8,5.9,2.3s1.6,3.6,1.2,6.3c-0.2,1.2-0.5,2.4-1.1,3.6c-0.5,1.2-1.3,2.3-2.2,3.2
					c-1,1.1-2.3,1.9-3.7,2.3c-1.3,0.3-2.7,0.5-4.1,0.5h-4.1l-1.3,6.5h-4.8L82.5,121.6 M86.5,125.5l-2.1,10.3c0.1,0,0.3,0,0.4,0h0.5
					c1.9,0.1,3.7-0.1,5.5-0.6c1.5-0.5,2.5-2.1,3-5c0.4-2.4,0-3.8-1.3-4.2c-1.5-0.4-3-0.6-4.6-0.5c-0.3,0-0.5,0-0.8,0L86.5,125.5
					L86.5,125.5"/>
			</g>
		</g>
		
			<linearGradient id="SVGID_5_" gradientUnits="userSpaceOnUse" x1="-29.8729" y1="-311.5843" x2="-29.8129" y2="-311.5243" gradientTransform="matrix(721.09 0 0 482.94 21603.957 150748.5781)">
			<stop  offset="0" style="stop-color:#CBCED0"/>
			<stop  offset="1" style="stop-color:#84838B"/>
		</linearGradient>
		<path class="st15" d="M85.4,302.2c-12.4,0-22.5-6.8-22.5-15.1S72.9,272,85.4,272s22.5,6.8,22.5,15.1S97.8,302.2,85.4,302.2z
			 M88.8,277.9c-9.5,0-17.1,4.6-17.1,10.3s7.7,10.3,17.1,10.3s16.4-3.2,16.4-10.3S98.3,277.9,88.8,277.9z"/>
		
			<linearGradient id="SVGID_6_" gradientUnits="userSpaceOnUse" x1="-30.4675" y1="-311.8567" x2="-30.4075" y2="-311.7867" gradientTransform="matrix(398 0 0 406.12 12208 126934.6641)">
			<stop  offset="0" style="stop-color:#276DC3"/>
			<stop  offset="1" style="stop-color:#165CAA"/>
		</linearGradient>
		<path class="st16" d="M97.1,295.4c0.7,0.2,1.5,0.5,2.2,0.8c0.4,0.2,0.8,0.5,1.1,0.8c0.2,0.2,0.4,0.5,0.5,0.7l5.4,9.1h-8.7
			l-4.1-7.6c-0.4-0.7-0.8-1.3-1.3-1.9c-0.4-0.3-0.6-0.5-1-0.5h-2.1v9.9h-7.7v-25.4h15.4c0,0,7,0.1,7,6.8S97.1,295.4,97.1,295.4z
			 M93.8,286.9h-4.7v4.3h4.7c1.2,0,2.2-0.9,2.2-2.1c0,0,0-0.1,0-0.1c0.1-1.1-0.8-2.1-1.9-2.1C94,286.9,93.9,286.9,93.8,286.9z"/>
		<g id="g2303">
			<path id="path46" class="st17" d="M106.1,316.3c-0.9-2.5-2-3.5-3.5-3.1c-0.6,0.2-1.1,0.5-1.6,0.9c-0.3,0.2-0.5,0.5-0.7,0.8l2.1,6
				c0.9,0.3,1.8,0.2,2.7-0.1C106.6,320.1,106.9,318.6,106.1,316.3z M107.8,315.8c0.4,1.1,0.5,2.3,0.2,3.5c-0.3,1.1-1.1,2.1-2.3,2.4
				c-1,0.3-2,0.4-3,0.1l1.9,5.4H103l-4.2-12c0.2-0.4,0.4-0.8,0.7-1.1c0.8-0.9,1.8-1.6,3-2l0,0c1.1-0.4,2.3-0.3,3.3,0.5
				C106.7,313.4,107.5,314.5,107.8,315.8z"/>
			<path id="path48" class="st17" d="M118.4,316c0.5,1.2,0.8,2.4,0.7,3.7c-0.2,0.9-0.7,1.7-1.4,2.3c-0.7,0.6-1.5,1.1-2.3,1.4
				l-0.6-0.9c0.6-0.3,1.2-0.7,1.8-1.1c0.6-0.4,1-1,1.1-1.7c0-0.9-0.2-1.7-0.5-2.5l-0.1-0.4c-0.9,0.8-1.9,1.5-3,1.9
				c-0.7,0.3-1.5,0.3-2.2,0c-0.8-0.2-1.4-0.8-1.7-1.6l-2.2-6.3l1.3-1.1l2.3,6.4c0.2,0.6,0.6,1.1,1.2,1.3c0.6,0.2,1.3,0.2,1.9-0.1
				c0.8-0.3,1.5-0.9,2-1.6l-2.7-7.4l1.5-0.5L118.4,316z"/>
			<path id="path50" class="st17" d="M124.7,314.9c-0.2,0.1-0.3,0.1-0.5,0.2c-0.7,0.3-1.5,0.3-2.2,0.1c-0.6-0.3-1.1-0.8-1.3-1.5
				l-2.1-6l-1,0.4l-0.3-1l1-0.4l-0.9-2.5l1.3-1.1l1.1,3.1l1.7-0.6l0.3,1l-1.7,0.6l2.1,6c0.1,0.5,0.5,0.8,0.9,1
				c0.5,0.1,0.9,0.1,1.4-0.1L124.7,314.9z"/>
			<path id="path52" class="st17" d="M133.9,311.5l-1.5,0.5l-2.1-5.9c-0.2-0.6-0.5-1-1-1.4c-0.5-0.4-1.1-0.5-1.6-0.3
				c-0.9,0.4-1.7,1.1-2.2,2l2.5,7l-1.5,0.5l-5-14.1l1.4-1l2.3,6.4c0.7-1,1.7-1.8,2.8-2.2c0.7-0.3,1.6-0.2,2.3,0.1
				c0.7,0.4,1.2,1,1.5,1.8L133.9,311.5L133.9,311.5z"/>
			<path id="path54" class="st17" d="M140.3,303.9c-0.3-0.8-0.7-1.6-1.4-2.2c-0.7-0.6-1.6-0.8-2.4-0.5c-1.6,0.7-2.1,2.2-1.2,4.5
				c0.3,0.9,0.8,1.8,1.5,2.5c0.6,0.7,1.6,1,2.5,0.6C140.9,308.2,141.2,306.5,140.3,303.9z M142,303.3c0.5,1.2,0.5,2.5,0.2,3.8
				c-0.4,1.3-1.4,2.3-2.6,2.6c-1.2,0.5-2.6,0.3-3.7-0.4c-1.1-0.7-1.8-1.8-2.2-3c-0.4-1.2-0.4-2.5,0-3.6c0.4-1.2,1.4-2.1,2.6-2.5
				c1.2-0.4,2.5-0.3,3.6,0.3C140.8,301.1,141.6,302.1,142,303.3L142,303.3z"/>
			<path id="path56" class="st17" d="M152.4,305l-1.5,0.5l-2.2-6.2c-0.2-0.6-0.6-1.1-1.2-1.4c-0.6-0.3-1.3-0.3-1.8,0
				c-0.7,0.3-1.4,0.8-1.8,1.4l2.7,7.6l-1.5,0.5l-2.8-7.8c0.5-0.8,1.2-1.5,2-2.1c0.5-0.4,1.1-0.7,1.7-0.9c0.3-0.1,0.7-0.2,1.1-0.3
				c0.6-0.1,1.2,0,1.7,0.3c0.5,0.2,1,0.7,1.2,1.3L152.4,305z"/>
			
				<linearGradient id="path1948_1_" gradientUnits="userSpaceOnUse" x1="105.8514" y1="50.2602" x2="123.2714" y2="65.2402" gradientTransform="matrix(0.9427 -0.3336 -0.3336 -0.9427 -9.8941 419.3406)">
				<stop  offset="0" style="stop-color:#5A9FD4"/>
				<stop  offset="1" style="stop-color:#306998"/>
			</linearGradient>
			<path id="path1948" class="st18" d="M81.5,314.3c-0.7,0.3-1.4,0.6-2.1,1c-1.8,1-1.9,1.9-1.4,3.2l0.6,1.8l4.6-1.6l0.2,0.6
				l-4.6,1.6l-1.7,0.6c-1.4,0.5-2.2,1.9-2,3.3c0.1,1.7,0.7,3.3,1.7,4.7c0.8,1.3,1.9,1.9,3.3,1.5l1.6-0.6l-0.7-2.1
				c-0.5-1.6,0.3-3.3,1.9-3.9l4.6-1.6c1.3-0.5,1.9-1.9,1.5-3.1l-1.6-4.4c-0.5-1.2-1.8-1.9-3.1-1.6C83.1,313.8,82.3,314,81.5,314.3z
				 M79.5,316.6c0.5-0.2,1,0.1,1.2,0.5s-0.1,1-0.5,1.2s-1-0.1-1.2-0.5c0,0,0,0,0,0C78.7,317.3,79,316.8,79.5,316.6
				C79.5,316.6,79.5,316.6,79.5,316.6L79.5,316.6z"/>
			
				<linearGradient id="path1950_1_" gradientUnits="userSpaceOnUse" x1="127.1376" y1="60.7441" x2="120.6576" y2="51.5741" gradientTransform="matrix(0.9427 -0.3336 -0.3336 -0.9427 -9.8941 419.3406)">
				<stop  offset="0" style="stop-color:#FFD43B"/>
				<stop  offset="1" style="stop-color:#FFE873"/>
			</linearGradient>
			<path id="path1950" class="st19" d="M88.5,317.3l0.7,2c0.5,1.6-0.3,3.3-1.8,3.9l-4.6,1.6c-1.3,0.5-1.9,1.9-1.5,3.1l1.5,4.4
				c0.4,1.2,1.8,1.6,3.1,1.5c1.7-0.1,3.3-0.6,4.6-1.6c1-0.7,1.9-1.8,1.5-3.1l-0.6-1.8l-4.6,1.6l-0.2-0.6l4.6-1.6l2.3-0.8
				c1.3-0.5,1.5-1.6,1.5-3.1c-0.1-1.7-0.6-3.3-1.6-4.7c-0.8-1.2-1.8-2-3.1-1.5L88.5,317.3z M89.8,329.3c0.5-0.2,1,0.1,1.2,0.6
				c0,0,0,0,0,0c0.2,0.5-0.1,1-0.5,1.2c0,0,0,0,0,0c-0.5,0.2-1-0.1-1.2-0.6C89.1,330,89.3,329.5,89.8,329.3
				C89.8,329.3,89.8,329.3,89.8,329.3L89.8,329.3z"/>
			<path id="text3004" class="st17" d="M151.6,293.4l0.3-0.1l-0.6-1.7l0.6-0.2l-0.1-0.2l-1.5,0.5l0.1,0.2l0.6-0.2L151.6,293.4
				 M152.8,293l0.2-0.1l-0.5-1.5l1,1.4l0.3-0.1V291l0.5,1.5l0.3-0.1l-0.7-1.9l-0.3,0.1v1.8l-1.1-1.4l-0.4,0.1L152.8,293"/>
			
				<radialGradient id="path1894_1_" cx="-427.972" cy="-95.1319" r="5.27" gradientTransform="matrix(-8.000000e-02 -0.23 0.99 -0.35 150.64 207.43)" gradientUnits="userSpaceOnUse">
				<stop  offset="0" style="stop-color:#B8B8B8;stop-opacity:0.5"/>
				<stop  offset="1" style="stop-color:#7F7F7F;stop-opacity:0"/>
			</radialGradient>
			<path id="path1894" class="st20" d="M95.5,333.9c0.2,0.7-2.3,2.2-5.7,3.4s-6.3,1.6-6.6,1s2.3-2.2,5.7-3.4S95.3,333.3,95.5,333.9z
				"/>
		</g>
	</g>
</g>
</svg>
