<svg xmlns="http://www.w3.org/2000/svg" xmlns:xlink="http://www.w3.org/1999/xlink" viewBox="0 0 494 497.5"><defs><style>.cls-1{fill:#fcfbfc;}.cls-2{fill:#fff;}.cls-3{fill:url(#Dégradé_sans_nom_2);}.cls-4,.cls-5{fill:none;stroke-miterlimit:10;stroke-width:8px;}.cls-4{stroke:#fff;}.cls-5{stroke:#fcfbfc;}</style><linearGradient id="Dégradé_sans_nom_2" x1="103" y1="249" x2="391" y2="249" gradientTransform="matrix(1, 0, 0, -1, 0, 495)" gradientUnits="userSpaceOnUse"><stop offset="0.29" stop-color="#fff"/><stop offset="0.62" stop-color="#fcfbfc"/></linearGradient></defs><title>logoblancCalque 1</title><g id="Calque_2" data-name="Calque 2"><g id="Calque_1-2" data-name="Calque 1"><path class="cls-1" d="M292,397.88H76V223.5l-72,59v180a862.58,862.58,0,0,1,360,0v-324H292Z"/><path class="cls-2" d="M202,95.73l216-.51V268.5l72-58-.13-180.43A861.34,861.34,0,0,1,319,49.44,862.07,862.07,0,0,1,129.87,30.93L130,354.5h71Z"/><rect class="cls-3" x="103" y="223.5" width="288" height="45"/><path class="cls-3" d="M390,224.5v43H104v-43H390m1-1H103v45H391Z"/><line class="cls-4" x1="4" y1="8" x2="490" y2="4"/><line class="cls-4" x1="4" y1="4" x2="4" y2="174.5"/><line class="cls-5" x1="4" y1="493.5" x2="490" y2="489.5"/><line class="cls-5" x1="490" y1="318.5" x2="490" y2="493.5"/></g></g></svg>