<svg id="Calque_1" data-name="Calque 1" xmlns="http://www.w3.org/2000/svg" xmlns:xlink="http://www.w3.org/1999/xlink" viewBox="0 0 575.98 575.94"><defs><style>.cls-1{fill:#c60;}.cls-2,.cls-4{fill:#c93;}.cls-3{fill:url(#Dégradé_sans_nom_148);}.cls-4{stroke:#c93;}.cls-4,.cls-5{stroke-miterlimit:10;stroke-width:8px;}.cls-5{fill:none;stroke:#c60;}</style><linearGradient id="Dégradé_sans_nom_148" x1="144" y1="287.5" x2="432" y2="287.5" gradientUnits="userSpaceOnUse"><stop offset="0.29" stop-color="#c93"/><stop offset="0.62" stop-color="#c60"/></linearGradient></defs><title>logoJFv3_1_1Plan de travail 1600px</title><path class="cls-1" d="M333,439.38H117V265L45,324V504a862.71,862.71,0,0,1,360,0V180H333Z"/><path class="cls-2" d="M243,137.23l216-.51q0,86.64,0,173.28l72-58-.13-180.43A861.69,861.69,0,0,1,360,90.94,861.91,861.91,0,0,1,170.87,72.43L171,396l71,0Z"/><rect class="cls-3" x="144" y="265" width="288" height="45"/><line class="cls-4" x1="45" y1="49.5" x2="531" y2="45.5"/><line class="cls-4" x1="45" y1="45.5" x2="45" y2="216"/><line class="cls-5" x1="45" y1="535" x2="531" y2="531"/><line class="cls-5" x1="531" y1="360" x2="531" y2="535"/></svg>