<?xml version="1.0" encoding="utf-8"?>
<!-- Generator: Adobe Illustrator 22.0.1, SVG Export Plug-In . SVG Version: 6.00 Build 0)  -->
<svg version="1.1" id="Calque_1" xmlns="http://www.w3.org/2000/svg" xmlns:xlink="http://www.w3.org/1999/xlink" x="0px" y="0px"
	 viewBox="0 0 496 497.6" style="enable-background:new 0 0 496 497.6;" xml:space="preserve">
<style type="text/css">
	.st0{fill:#544B66;}
	.st1{fill:#857C97;}
	.st2{fill:url(#SVGID_1_);}
	.st3{fill:none;stroke:#857C97;stroke-width:8;stroke-miterlimit:10;}
	.st4{fill:none;stroke:#544B66;stroke-width:8;stroke-miterlimit:10;}
</style>
<title>logoJFv3_1_1Plan de travail 1600px</title>
<path class="st0" d="M292.3,398.5h-216V224.2l-72,59v180c118.7-25.3,241.3-25.3,360,0v-324h-72V398.5z"/>
<path class="st1" d="M202.3,96.4l216-0.5c0,57.8,0,115.5,0,173.3l72-58l-0.1-180.4C434,42.9,376.8,49.4,319.3,50.1
	c-63.5,0.8-127-5.4-189.1-18.5l0.1,323.6h71L202.3,96.4z"/>
<linearGradient id="SVGID_1_" gradientUnits="userSpaceOnUse" x1="103.3333" y1="340.6667" x2="391.3333" y2="340.6667" gradientTransform="matrix(1 0 0 -1 0 587.3333)">
	<stop  offset="0.29" style="stop-color:#857C97"/>
	<stop  offset="0.39" style="stop-color:#7B728D"/>
	<stop  offset="0.56" style="stop-color:#605772"/>
	<stop  offset="0.62" style="stop-color:#544B66"/>
</linearGradient>
<rect x="103.3" y="224.2" class="st2" width="288" height="45"/>
<line class="st3" x1="4.3" y1="8.7" x2="490.3" y2="4.7"/>
<line class="st3" x1="4.3" y1="4.7" x2="4.3" y2="175.2"/>
<line class="st4" x1="4.3" y1="494.2" x2="490.3" y2="490.2"/>
<line class="st4" x1="490.3" y1="319.2" x2="490.3" y2="494.2"/>
</svg>
