<svg xmlns="http://www.w3.org/2000/svg" xmlns:xlink="http://www.w3.org/1999/xlink" viewBox="0 0 186.15 182.76"><defs><style>.cls-1{fill:none;}.cls-2{fill:#bfb4a4;}.cls-3{fill:#f7f7e4;}.cls-4{fill:#8ad7f6;}.cls-5{clip-path:url(#clip-path);}.cls-6{fill:#a7e4f2;}.cls-7{fill:#c2e6f0;}.cls-8{fill:#87c372;}.cls-9{fill:#b79964;}.cls-10{fill:#e3be73;}.cls-11{fill:#92744c;}</style><clipPath id="clip-path"><rect class="cls-1" x="33.74" y="16.23" width="129.71" height="129.71"/></clipPath></defs><title>stampCalque 4</title><g id="Calque_2" data-name="Calque 2"><g id="Calque_4" data-name="Calque 4"><path class="cls-2" d="M181.73,8.85c.16,0,.3,0,.46,0V2h-8.54c0,.15,0,.3,0,.45a5.68,5.68,0,1,1-11.35,0c0-.15,0-.3,0-.45h-5.67c0,.15,0,.3,0,.45a5.68,5.68,0,1,1-11.35,0c0-.15,0-.3,0-.45h-5.67c0,.15.05.3.05.45a5.68,5.68,0,0,1-11.36,0c0-.15,0-.3.05-.45h-5.68a3.44,3.44,0,0,1,0,.45,5.68,5.68,0,1,1-11.35,0c0-.15,0-.3,0-.45h-5.67c0,.15,0,.3,0,.45a5.68,5.68,0,1,1-11.35,0A3.44,3.44,0,0,1,94.65,2H89c0,.15,0,.3,0,.45a5.68,5.68,0,1,1-11.35,0c0-.15,0-.3,0-.45H72c0,.15,0,.3,0,.45a5.68,5.68,0,1,1-11.35,0c0-.15,0-.3,0-.45H55.1c0,.15,0,.3,0,.45a5.68,5.68,0,0,1-11.36,0c0-.15,0-.3.05-.45H38.16a3.44,3.44,0,0,1,.05.45,5.68,5.68,0,1,1-11.35,0c0-.15,0-.3,0-.45H20V8.89c.15,0,.3,0,.45,0a5.68,5.68,0,1,1,0,11.35,3.44,3.44,0,0,1-.45-.05v5.68c.15,0,.3,0,.45,0a5.68,5.68,0,0,1,0,11.36c-.15,0-.3,0-.45,0v5.67c.15,0,.3,0,.45,0a5.68,5.68,0,1,1,0,11.35c-.15,0-.3,0-.45,0V59.7c.15,0,.3,0,.45,0a5.68,5.68,0,1,1,0,11.35c-.15,0-.3,0-.45-.05v5.68a3.44,3.44,0,0,1,.45,0,5.68,5.68,0,1,1,0,11.35c-.15,0-.3,0-.45,0v5.67c.15,0,.3,0,.45,0a5.68,5.68,0,1,1,0,11.35,3.44,3.44,0,0,1-.45,0v5.68c.15,0,.3-.05.45-.05a5.68,5.68,0,1,1,0,11.36c-.15,0-.3,0-.45,0v5.68a3.44,3.44,0,0,1,.45,0,5.68,5.68,0,1,1,0,11.35c-.15,0-.3,0-.45,0v5.67c.15,0,.3,0,.45,0a5.68,5.68,0,1,1,0,11.35c-.15,0-.3,0-.45-.05v8.54h8.53c0-.16,0-.3,0-.46a5.68,5.68,0,0,1,11.35,0,3.59,3.59,0,0,1-.05.46h5.68c0-.16,0-.3,0-.46a5.68,5.68,0,0,1,11.36,0c0,.16,0,.3,0,.46h5.67c0-.16,0-.3,0-.46a5.68,5.68,0,0,1,11.35,0c0,.16,0,.3,0,.46h5.67c0-.16,0-.3,0-.46a5.68,5.68,0,0,1,11.35,0c0,.16,0,.3,0,.46h5.68a3.59,3.59,0,0,1-.05-.46,5.68,5.68,0,0,1,11.35,0c0,.16,0,.3,0,.46h5.67c0-.16,0-.3,0-.46a5.68,5.68,0,0,1,11.35,0,3.59,3.59,0,0,1,0,.46h5.68c0-.16,0-.3,0-.46a5.68,5.68,0,0,1,11.36,0c0,.16,0,.3-.05.46h5.67c0-.16,0-.3,0-.46a5.68,5.68,0,0,1,11.35,0c0,.16,0,.3,0,.46H164c0-.16,0-.3,0-.46a5.68,5.68,0,0,1,11.35,0c0,.16,0,.3-.05.46h6.9v-8.54c-.16,0-.3.05-.46.05a5.68,5.68,0,0,1,0-11.35c.16,0,.3,0,.46,0v-5.67c-.16,0-.3,0-.46,0a5.68,5.68,0,0,1,0-11.35,3.59,3.59,0,0,1,.46,0v-5.68c-.16,0-.3,0-.46,0a5.68,5.68,0,0,1,0-11.36c.16,0,.3,0,.46.05v-5.68a3.59,3.59,0,0,1-.46,0,5.68,5.68,0,0,1,0-11.35c.16,0,.3,0,.46,0V87.9c-.16,0-.3,0-.46,0a5.68,5.68,0,0,1,0-11.35,3.59,3.59,0,0,1,.46,0V71c-.16,0-.3.05-.46.05a5.68,5.68,0,0,1,0-11.35c.16,0,.3,0,.46,0V54c-.16,0-.3,0-.46,0a5.68,5.68,0,0,1,0-11.35c.16,0,.3,0,.46,0V37.09c-.16,0-.3,0-.46,0a5.68,5.68,0,0,1,0-11.36c.16,0,.3,0,.46,0V20.15a3.59,3.59,0,0,1-.46.05,5.68,5.68,0,0,1,0-11.35Z"/><path class="cls-3" d="M179.23,6.85c.16,0,.3,0,.46,0V0h-8.54c0,.15,0,.3,0,.45a5.68,5.68,0,1,1-11.35,0c0-.15,0-.3,0-.45h-5.67c0,.15,0,.3,0,.45a5.68,5.68,0,1,1-11.35,0c0-.15,0-.3,0-.45h-5.67c0,.15.05.3.05.45a5.68,5.68,0,0,1-5.68,5.68A5.68,5.68,0,0,1,126,.45c0-.15,0-.3,0-.45h-5.68a3.44,3.44,0,0,1,0,.45A5.68,5.68,0,1,1,109,.45c0-.15,0-.3,0-.45h-5.67c0,.15,0,.3,0,.45A5.68,5.68,0,1,1,92.1.45,3.44,3.44,0,0,1,92.15,0H86.47c0,.15,0,.3,0,.45a5.68,5.68,0,1,1-11.35,0c0-.15,0-.3,0-.45H69.54c0,.15,0,.3,0,.45a5.68,5.68,0,1,1-11.35,0c0-.15,0-.3,0-.45H52.6c0,.15,0,.3,0,.45A5.68,5.68,0,0,1,47,6.13,5.68,5.68,0,0,1,41.29.45c0-.15,0-.3.05-.45H35.66a3.44,3.44,0,0,1,.05.45,5.68,5.68,0,1,1-11.35,0c0-.15,0-.3,0-.45H17.51V6.89c.15,0,.3,0,.45,0A5.68,5.68,0,1,1,18,18.2a3.44,3.44,0,0,1-.45-.05v5.68c.15,0,.3,0,.45,0a5.68,5.68,0,0,1,0,11.36c-.15,0-.3,0-.45,0v5.67c.15,0,.3,0,.45,0a5.68,5.68,0,1,1,0,11.35c-.15,0-.3,0-.45,0V57.7c.15,0,.3,0,.45,0A5.68,5.68,0,1,1,18,69c-.15,0-.3,0-.45-.05v5.68a3.44,3.44,0,0,1,.45,0,5.68,5.68,0,1,1,0,11.35c-.15,0-.3,0-.45,0v5.67c.15,0,.3,0,.45,0a5.68,5.68,0,1,1,0,11.35,3.44,3.44,0,0,1-.45,0v5.68c.15,0,.3-.05.45-.05a5.68,5.68,0,0,1,0,11.36c-.15,0-.3,0-.45,0v5.68a3.44,3.44,0,0,1,.45,0,5.68,5.68,0,1,1,0,11.35c-.15,0-.3,0-.45,0v5.67c.15,0,.3,0,.45,0a5.68,5.68,0,1,1,0,11.35c-.15,0-.3,0-.45-.05v8.54H26c0-.16,0-.3,0-.46a5.68,5.68,0,0,1,11.35,0,3.59,3.59,0,0,1-.05.46H43c0-.16,0-.3,0-.46a5.68,5.68,0,0,1,11.36,0c0,.16,0,.3,0,.46h5.67c0-.16,0-.3,0-.46a5.68,5.68,0,0,1,11.35,0c0,.16,0,.3,0,.46h5.67c0-.16,0-.3,0-.46a5.68,5.68,0,0,1,11.35,0c0,.16,0,.3,0,.46h5.68a3.59,3.59,0,0,1-.05-.46,5.68,5.68,0,0,1,11.35,0c0,.16,0,.3,0,.46h5.67c0-.16,0-.3,0-.46a5.68,5.68,0,0,1,11.35,0,3.59,3.59,0,0,1,0,.46h5.68c0-.16,0-.3,0-.46a5.68,5.68,0,0,1,11.36,0c0,.16,0,.3-.05.46h5.67c0-.16,0-.3,0-.46a5.68,5.68,0,0,1,11.35,0c0,.16,0,.3,0,.46h5.67c0-.16,0-.3,0-.46a5.68,5.68,0,0,1,11.35,0c0,.16,0,.3-.05.46h6.9v-8.54c-.16,0-.3.05-.46.05a5.68,5.68,0,0,1,0-11.35c.16,0,.3,0,.46,0v-5.67c-.16,0-.3,0-.46,0a5.68,5.68,0,0,1,0-11.35,3.59,3.59,0,0,1,.46,0v-5.68c-.16,0-.3,0-.46,0a5.68,5.68,0,0,1,0-11.36c.16,0,.3,0,.46.05v-5.68a3.59,3.59,0,0,1-.46,0,5.68,5.68,0,0,1,0-11.35c.16,0,.3,0,.46,0V85.9c-.16,0-.3,0-.46,0a5.68,5.68,0,0,1,0-11.35,3.59,3.59,0,0,1,.46,0V69c-.16,0-.3.05-.46.05a5.68,5.68,0,0,1,0-11.35c.16,0,.3,0,.46,0V52c-.16,0-.3,0-.46,0a5.68,5.68,0,0,1,0-11.35c.16,0,.3,0,.46,0V35.09c-.16,0-.3,0-.46,0a5.68,5.68,0,0,1,0-11.36c.16,0,.3,0,.46,0V18.15a3.59,3.59,0,0,1-.46.05,5.68,5.68,0,0,1,0-11.35Z"/><rect class="cls-4" x="33.74" y="16.23" width="129.71" height="129.71"/><g class="cls-5"><path class="cls-6" d="M158.28,53.36a10.89,10.89,0,0,0-10.89,10.89v.09a5.43,5.43,0,0,0-4.32,3.84,9.37,9.37,0,0,0-15.65,7v0a3.42,3.42,0,0,0-.45,0,3.76,3.76,0,0,0-3.07,1.58,10,10,0,0,0-15.63,2.33,8.6,8.6,0,0,0-11.4-.46,8.61,8.61,0,0,0-11.41.46,10,10,0,0,0-15.63-2.33,3.74,3.74,0,0,0-3.06-1.58,3.42,3.42,0,0,0-.46,0v0a9.37,9.37,0,0,0-15.64-7,5.44,5.44,0,0,0-4.33-3.84s0-.06,0-.09a10.9,10.9,0,1,0-18.16,8.11v48.47H165.54V72.36a10.89,10.89,0,0,0-7.26-19Z"/><path class="cls-7" d="M172.13,73.69a14,14,0,0,0-14,14s0,.06,0,.1a7,7,0,0,0-5.57,5,12.06,12.06,0,0,0-20.14,9v0a5.63,5.63,0,0,0-.59,0,4.83,4.83,0,0,0-3.94,2,12.85,12.85,0,0,0-20.13,3,11.07,11.07,0,0,0-14.68-.59,11.06,11.06,0,0,0-14.67.59,12.85,12.85,0,0,0-20.13-3,4.83,4.83,0,0,0-3.94-2,5.63,5.63,0,0,0-.59,0v0a12.06,12.06,0,0,0-20.14-9,7,7,0,0,0-5.57-5s0-.07,0-.1A14,14,0,1,0,4.67,98.13v49.55H181.48V98.13a14,14,0,0,0-9.35-24.44Z"/><circle class="cls-6" cx="110.57" cy="37.86" r="11.98"/><path class="cls-7" d="M145.22,54.42a5.8,5.8,0,0,0,.1-1,6,6,0,0,0-6-6l-.48,0a10.94,10.94,0,0,0-21.3-2.3,7.38,7.38,0,0,0-10,6.91,7.33,7.33,0,0,0,.41,2.4Z"/><path class="cls-8" d="M180,130.6a9.08,9.08,0,0,0,.05-.91,10.57,10.57,0,0,0-10.57-10.57l-.33,0a7.07,7.07,0,0,0-11.5-1.25,17.94,17.94,0,0,0-26.82,3.19,9.3,9.3,0,0,0-8.69,9.27c0,.12,0,.24,0,.37a12.58,12.58,0,1,0,5.56,24.46,17.2,17.2,0,0,0,25.2-.51,12.19,12.19,0,0,0,12.34-1.42,13.61,13.61,0,0,0,5,1A13.79,13.79,0,0,0,180,130.6Z"/><path class="cls-8" d="M68.62,142.51c0-.21,0-.43,0-.64A7.45,7.45,0,0,0,55.56,137a12.66,12.66,0,0,0-21.63-1.19,6.55,6.55,0,0,0-6.13,6.53c0,.09,0,.17,0,.26a8.88,8.88,0,1,0,9.9,11.17,12.67,12.67,0,0,0,6.68,1.91c.34,0,.66,0,1,0a8.61,8.61,0,0,0,12.83,2.87,9.86,9.86,0,0,0,3.57.68,9.74,9.74,0,0,0,6.84-16.66Z"/><rect class="cls-9" x="41.53" y="155.34" width="50.6" height="4.32" transform="translate(34.42 -10.5) rotate(12.07)"/><rect class="cls-10" x="42.52" y="159.4" width="43.74" height="18.99" transform="translate(36.75 -9.73) rotate(12.07)"/><path class="cls-11" d="M50.63,161.93a1.81,1.81,0,0,0-2.14,1.39l-2.44,11.37,3.54.75L52,164.08A1.81,1.81,0,0,0,50.63,161.93Z"/><path class="cls-11" d="M57.84,163.48a1.81,1.81,0,0,0-2.15,1.38l-2.43,11.37,3.54.76,2.43-11.37A1.8,1.8,0,0,0,57.84,163.48Z"/><path class="cls-11" d="M65,165a1.8,1.8,0,0,0-2.14,1.39l-2.43,11.36,3.53.76,2.43-11.37A1.8,1.8,0,0,0,65,165Z"/><path class="cls-11" d="M72.25,166.56A1.8,1.8,0,0,0,70.11,168l-2.44,11.36,3.54.76,2.43-11.37A1.8,1.8,0,0,0,72.25,166.56Z"/><path class="cls-11" d="M79.46,168.1a1.81,1.81,0,0,0-2.15,1.39l-2.43,11.36,3.54.76,2.43-11.36A1.81,1.81,0,0,0,79.46,168.1Z"/></g></g></g></svg>