<svg xmlns="http://www.w3.org/2000/svg" viewBox="0 0 96.37 116.55"><defs><style>.cls-1{fill:#211915;}</style></defs><title>Calque 1steps</title><g id="Calque_2" data-name="Calque 2"><g id="Calque_1-2" data-name="Calque 1"><path class="cls-1" d="M96.14,46.37C85.9,52.65,72.29,56.55,57.29,56.73a47.18,47.18,0,0,1-1-9c14.57,0,28-3.44,38.54-9.17A53,53,0,0,1,96.14,46.37Z"/><path class="cls-1" d="M73.33,16.1c5.19-.31,10.54,2.74,14.79,8.24a80.71,80.71,0,0,1-29.07,6.17C62.13,22.24,67.4,16.46,73.33,16.1Z"/><path class="cls-1" d="M89.85,26.81A39.82,39.82,0,0,1,94,35.62c-10.21,5.66-23.34,9.07-37.68,9.08A47.44,47.44,0,0,1,58,33.58,82.87,82.87,0,0,0,89.85,26.81Z"/><path class="cls-1" d="M96,58.54c-9.28,5.64-21.29,9.35-34.59,10.11-.35-.8-.68-1.58-1.08-2.45A44.58,44.58,0,0,1,58,59.75c14.59-.29,27.93-4,38.29-10A59.84,59.84,0,0,1,96,58.54Z"/><path class="cls-1" d="M6.52,10.74a82.82,82.82,0,0,0,31.81,6.77,47.36,47.36,0,0,1,1.76,11.12c-14.34,0-27.48-3.43-37.68-9.08A39.61,39.61,0,0,1,6.52,10.74Z"/><path class="cls-1" d="M1.56,22.49c10.56,5.72,24,9.16,38.53,9.17a48.82,48.82,0,0,1-1,9c-15-.18-28.62-4.09-38.86-10.36A50.45,50.45,0,0,1,1.56,22.49Z"/><path class="cls-1" d="M23,0C29,.38,34.23,6.16,37.31,14.43A80.65,80.65,0,0,1,8.25,8.26C12.5,2.76,17.84-.29,23,0Z"/><path class="cls-1" d="M38.33,43.67a44.58,44.58,0,0,1-2.27,6.45c-.4.87-.73,1.65-1.08,2.45C21.68,51.81,9.67,48.1.39,42.46A61.17,61.17,0,0,1,0,33.69C10.4,39.69,23.74,43.38,38.33,43.67Z"/><path class="cls-1" d="M62.2,92.68c-5.16,13.39,3.1,23.86,13.36,23.87,12.17,0,16.91-11.08,16.11-22.86-.78-11.45,2-20.5,3.81-31.36A79.39,79.39,0,0,1,62.6,71.62C65.33,78.64,65.71,83.6,62.2,92.68Zm16.22,9a3.31,3.31,0,1,1,3.3,3.31A3.31,3.31,0,0,1,78.42,101.73ZM71.8,95.12a3.31,3.31,0,1,1,3.31,3.3A3.31,3.31,0,0,1,71.8,95.12Zm-6.61,6.61A3.31,3.31,0,1,1,68.5,105,3.31,3.31,0,0,1,65.19,101.73Z"/><path class="cls-1" d="M.89,46.25c1.8,10.87,4.59,19.91,3.82,31.37-.81,11.77,3.93,22.88,16.1,22.86,10.27,0,18.52-10.49,13.35-23.87-3.5-9.08-3.11-14-.4-21.07A79.19,79.19,0,0,1,.89,46.25ZM24.56,85.66A3.31,3.31,0,1,1,27.87,89,3.31,3.31,0,0,1,24.56,85.66ZM18,79a3.31,3.31,0,1,1,3.31,3.31A3.31,3.31,0,0,1,18,79Zm-6.62,6.62A3.31,3.31,0,1,1,14.64,89,3.31,3.31,0,0,1,11.33,85.66Z"/></g></g></svg>