<svg xmlns="http://www.w3.org/2000/svg" xmlns:xlink="http://www.w3.org/1999/xlink" viewBox="0 0 254.68 381.51"><defs><style>.cls-1{fill:none;}.cls-2{isolation:isolate;}.cls-3,.cls-8{fill:#edc2b4;}.cls-3,.cls-32,.cls-33,.cls-34,.cls-35,.cls-36{fill-rule:evenodd;}.cls-4{fill:#120f12;}.cls-5{fill:#191014;}.cls-6{fill:#150e11;}.cls-7{fill:#dad8da;}.cls-9{fill:#dcb1a1;}.cls-10{fill:#e2b09f;}.cls-11{fill:#e09275;}.cls-12{fill:#94989c;}.cls-13{fill:#d9a795;}.cls-14{fill:#deb7a9;}.cls-15{fill:#964534;}.cls-16{fill:#282322;}.cls-17{fill:#8f3f2e;}.cls-18{fill:#8d3d2f;}.cls-19{fill:#934133;}.cls-20{fill:#614647;}.cls-21{fill:#b7d8e2;}.cls-22{fill:#aaa9ac;}.cls-23{fill:#c4c2c6;}.cls-24{fill:#362f34;}.cls-25{fill:#dcab98;}.cls-26{fill:#7f5e57;}.cls-27{fill:#2c272d;}.cls-28{clip-path:url(#clip-path);}.cls-29{fill:#d1e2e4;}.cls-30{clip-path:url(#clip-path-2);}.cls-31{fill:#cecccf;}.cls-32{fill:url(#radial-gradient);}.cls-33{fill:#f6f5ff;opacity:0.6;}.cls-34{fill:url(#radial-gradient-2);}.cls-35{fill:#8e8c99;}.cls-36{opacity:0.5;mix-blend-mode:screen;fill:url(#radial-gradient-3);}.cls-37{fill:url(#linear-gradient);}</style><clipPath id="clip-path"><path class="cls-1" d="M198.18,67c-2.1-3.1-5.4-12.3-.5-14.5,4.2-1.9,16.1-1.5,20.2.1a2.84,2.84,0,0,1,2.1,2c.5,1.7,0,5.5-.5,7.4-.2.7-.4,1.5-.7,2.3a10.67,10.67,0,0,1-2,3.8C212.78,72.4,200.88,71.1,198.18,67Z"/></clipPath><clipPath id="clip-path-2"><path class="cls-1" d="M182.88,51.5c4.6,2.8.1,11.4-2.4,14.3-3.2,3.7-15.2,3.4-18.5-1.3a11.25,11.25,0,0,1-1.4-3.6,21.93,21.93,0,0,1-.3-9.2c.1-.4.2-.7.3-1.1a2.62,2.62,0,0,1,2.3-1.6C167.18,47.9,178.88,49.1,182.88,51.5Z"/></clipPath><radialGradient id="radial-gradient" cx="-5670.76" cy="1533.76" r="4.72" gradientTransform="translate(5102.34 -1310.05) scale(0.89)" gradientUnits="userSpaceOnUse"><stop offset="0" stop-color="#b7bfcf"/><stop offset="0.55" stop-color="#aeb5c4"/><stop offset="0.75" stop-color="#aab0bf"/></radialGradient><radialGradient id="radial-gradient-2" cx="-5666.94" cy="1551.83" r="49.9" xlink:href="#radial-gradient"/><radialGradient id="radial-gradient-3" cx="-5687.49" cy="1551.83" r="36.46" xlink:href="#radial-gradient"/><linearGradient id="linear-gradient" x1="-1.1" y1="95" x2="81.48" y2="95" gradientUnits="userSpaceOnUse"><stop offset="0" stop-color="#84929d"/><stop offset="0.02" stop-color="#929daa"/><stop offset="0.05" stop-color="#a4abb9"/><stop offset="0.07" stop-color="#aab0bf"/><stop offset="0.11" stop-color="#acb2c2"/><stop offset="0.45" stop-color="#bec5d6"/><stop offset="0.67" stop-color="#c4ccde"/></linearGradient></defs><title>Calque 1waiter</title><g class="cls-2"><g id="Calque_2" data-name="Calque 2"><g id="Calque_1-2" data-name="Calque 1"><path class="cls-3" d="M60.1,98.06a1.59,1.59,0,0,1,2.61-.29c.07.1.18.23.28.4a1.74,1.74,0,0,1,.77,1c.09.38.19.75.28,1.13a12,12,0,0,1,.58,2c1.61,5.44,2.63,9.89,4.57,14,0,0,1.15,2.86,1.16,2.88.78,1-1.55,1.71-2.54,1.87a1.36,1.36,0,0,1-1.93-1.11s0-.09,0-.14a33.76,33.76,0,0,1-4.58-7,1.23,1.23,0,0,1-.06-.95c-.32-.27-5-2.39-4.49-2.66C59.88,107.36,57.63,102,60.1,98.06Z"/><path class="cls-3" d="M46.14,105.56c-2.64-2.24-5.4-4.36-7.88-6.75-2.08-2-4.6-2.1-7.55-2.21a38.75,38.75,0,0,0,6,7.43c0,.19.19.35.11.55a4,4,0,0,1-.59-.17,49.17,49.17,0,0,1-9.19-6.85c-2.18-2-4.8-1.66-7.33-2-.7-.1-.48.45-.36.8A2.79,2.79,0,0,0,21.46,98a7.18,7.18,0,0,1,3.48,2.38c1.73,2,3.52,4,5.26,6A11.55,11.55,0,0,0,35.35,110c4.42,1.42,7.86,4.25,11.41,6.92a31.21,31.21,0,0,0,4.85,3.51c2.44.79,4.23,2.79,6.54,3.82,3.43,1.54,6.37,3.75,9.77,5.36,2,.92,2.89-.29,4.24-2a29.38,29.38,0,0,0,2.16-2.83c.31-.51.77-1,.4-1.67-2.45-2.71-4.19-6-7.15-8.3a12.66,12.66,0,0,0-3.6-2.26,66.67,66.67,0,0,1-7.23-3.33,5.16,5.16,0,0,1-2.1-1.93,73.68,73.68,0,0,0-6.39-8.47c-.5-.59-3.93-1.42-4.72-1.09s-.21.89,0,1.22c1.09,2.13,2.25,4.23,3.39,6.34a1.9,1.9,0,0,0,.27.73.49.49,0,0,0,0,.12l-.09-.11C46.8,105.75,46.33,105.91,46.14,105.56Z"/><path class="cls-3" d="M74.72,123.1c-.79,2-2.46,3.45-3.66,5.2-.52.75-2.47.85-2.91.65A158.38,158.38,0,0,1,54,121c-.68-.4-1.37-1.13-2.36-.57,5.68,3.62,10.6,8.12,15.9,12.18.94.72,2.23,1,2.82,2.16l2.59,1.59a3.54,3.54,0,0,0,3.09.56.76.76,0,0,0,.06-.16c.48-4.21,1.93-8.38.57-12.66Z"/><path class="cls-3" d="M17.73,93.57c2.53.33,5.15-.06,7.33,2,.52.49,1.05,1,1.6,1.45-2-.23-4-.45-6.22-.64a7.12,7.12,0,0,0-1-.38,2.79,2.79,0,0,1-2.09-1.62C17.25,94,17,93.47,17.73,93.57Z"/><path class="cls-3" d="M43,99.71c-.49-.92-1-1.84-1.46-2.77-.17-.33-.77-.88,0-1.22s4.22.5,4.72,1.09c1.33,1.57,2.62,3.15,3.85,4.79C48,101,45.62,100.32,43,99.71Z"/><path class="cls-3" d="M38.4,98.76q-3.52-.66-7.69-1.25a26.23,26.23,0,0,1-2-2.91c2.95.11,5.47.21,7.55,2.21C37,97.48,37.67,98.13,38.4,98.76Z"/><path class="cls-4" d="M223.68,349.1s-3.2,8.8-7.6,11.6c-.9,5.2,2,11.8-1.3,15.5-1.8.8-5.3,5.5-1.8,5.3l7.6-.2,7.1-17.3-.8-3,2.1.7,2.1-7.1C231.18,354.6,227.48,348.4,223.68,349.1Z"/><path class="cls-5" d="M148.08,210.2s2.6,79.3,4.3,82.6,61.9,70.2,61.9,70.2c10.5-6.3,6.5-4.5,11.7-14.2-8.9-14.1-31.2-44.4-53.5-65.8-.6-3.7,3.5-54.7,3.5-54.7l.8-19.4-10.7-3Z"/><path class="cls-6" d="M224.58,351.6c.4-.8.8-1.7,1.4-2.7-8.9-14.1-32.8-46.2-56.8-68.2-.6-3.7,6.8-52.3,6.8-52.3l.1-1.7a6.81,6.81,0,0,1-3.4-.8,22.8,22.8,0,0,1-3-1.7l3.6,4.2-6.9,53.3s30.6,37.7,43.2,51.6C218.48,343.1,222.78,348.9,224.58,351.6Z"/><path class="cls-4" d="M177.88,367.7l-3,7.2c-2.5,3-2.1,2.6-1.9,6.6h20s.2-4.7-1.7-6.2c-1.9-.8-4.4-7.8-4.4-7.8Z"/><path class="cls-5" d="M191.88,373.8l-17.4-1.3L176,228.3h-2.7l1.7-19.9,2.1,1.2,6.4-3.1,23.2,10.1C204.28,267.3,197.38,323.3,191.88,373.8Z"/><path class="cls-7" d="M190.58,213.2c-.7.8-15.1,8.8-19.7,7.3l-15.8-5.2a31.38,31.38,0,0,1-9.8-5.8s19.9-5.8,20.7-5.7S190.58,213.2,190.58,213.2Z"/><path class="cls-7" d="M208.38,112.4c1.4,2.1,24.2,9.1,24.3,9.1-.5-.1-9.8,22.5-10.8,24.7-8,17.3-12,35-9.5,54.3.3,2.4.7,4.7,1.2,7l-19.2,6.8-6.7,7.5-42.3-12.4c3.2-12.6,6.1-25.9,6.7-38.9.8-18-7.2-34.5-13.4-51.1l28.8-10,38.2,1.8Z"/><path class="cls-8" d="M210.08,206.5c-1.3.4-15.2,7.1-15.7,7.8s-4.9,5.8-3.8,6.8,10.5,11.2,11.5,10S214,217.7,214,217.7Z"/><path class="cls-9" d="M190.58,221.2a1,1,0,0,1-.1-.9l3.3-3.3s-1.9,3.5-1.7,4.8,9.3,6.3,10.1,6.2c.6-.1,7.2-8.1,11-12.6l.8,2.4s-11,12.2-11.9,13.4S191.68,222.3,190.58,221.2Z"/><path class="cls-7" d="M214.08,130.6l18.6-9c2.8,7.4,5.7,14.8,8.5,22.1l6.9,18c2.1,5.4,6.6,12.3,6.6,18-.1,6.3-5,9.8-8.9,14-4.1,4.3-8.1,8.7-12.2,13l-15.9,17-15.9-15.1,31.5-33Z"/><path class="cls-10" d="M218.38,54.6c2.2-.9,14-7,15.2-3.7s-3.2,17.8-4.4,19.5-9.4,3.8-9.9,2.9S218.38,54.6,218.38,54.6Z"/><path class="cls-11" d="M222.88,54.1c.9-.3,5.1-1.7,6-.1s-.1,5.4-.1,6.2-1.6,6.8-2.7,7.8-5.4,2.4-5.7,1.6S222.88,54.1,222.88,54.1Z"/><path class="cls-10" d="M160.88,52c-2.2-.9-14-7-15.2-3.7s3.2,17.8,4.4,19.5,9.5,3.8,9.9,2.9S160.88,52,160.88,52Z"/><path class="cls-11" d="M156.38,51.5c-.9-.3-5.1-1.7-6-.1s.1,5.4.1,6.2,1.6,6.8,2.7,7.8,5.4,2.4,5.7,1.6S156.38,51.5,156.38,51.5Z"/><path class="cls-12" d="M169.88,114.7c-.1-.3-4.6-5-4.5-5.2s0-5.6,0-5.6l39.8,1.1-.8,8.6Z"/><path class="cls-13" d="M201.58,86.7c-.8,5.2-2.9,20.4-1.2,21.8s10.8,5.1,10.8,5.1-20.8,14.5-24.9,15.1-25.2-16.4-25.2-16.4,10.7-4.1,12.3-6.6,3.3-23,3.3-23Z"/><path class="cls-8" d="M158.48,29c-.3,13.5.2,27.3-.8,40.8-1.1,14.1,12.1,24.6,22.8,31.3,2.4,1.5,6.2.9,9,1.1,4.3.3,6-1.4,9.3-3.6,2-1.3,3.9-2.6,5.8-4a49.36,49.36,0,0,0,10.2-9.7,23,23,0,0,0,5.3-12.4c.3-3.6,1-7.2,1.5-10.8l2.1-30.3Z"/><path class="cls-14" d="M158.48,29c-.3,13.5.2,27.3-.8,40.8-1.1,14.1,12.1,24.6,22.8,31.3,2.4,1.5,6.2.9,9,1.1,4.3.3,6-1.4,9.3-3.6,2-1.3,3.9-2.6,5.8-4a49.36,49.36,0,0,0,10.2-9.7,23,23,0,0,0,5.3-12.4c.3-3.6,1-7.2,1.5-10.8l2.1-30.3Z"/><path class="cls-8" d="M159.18,24.9c-.3,13.9.2,28.1-.8,42-1.1,14.5,12.1,25.3,22.8,32.1,2.4,1.5,6.2,1,9,1.2,4.3.3,6-1.4,9.3-3.7,2-1.3,3.9-2.7,5.8-4.2a51.35,51.35,0,0,0,10.3-10c2.8-3.9,4.9-7.9,5.3-12.7.3-3.7,1-7.4,1.5-11.1l2.1-31.1Z"/><path class="cls-15" d="M159.38,33.1Z"/><path class="cls-15" d="M159.48,33.1h0c.1,0,.2.1.3.2v.4l-.1-.3C158.48,32.8,159.28,33.1,159.48,33.1Z"/><path class="cls-16" d="M158.18,55.2c-.2,2.6-.3,4.3-.3,4.6-.1,1.6-10.6-29.2-9.8-34.2.4-2.5,2.3-3.6,4.6-4.2a18.93,18.93,0,0,0,2.6,7.2,41.46,41.46,0,0,1-3-4.3c.1.4,1.6,6.4,2.5,9.2s2.1,4.5,1.5,4-4.8-4.9-4.8-4.9,1.9,8.7,3,10.8,1.9,3.5,1.8,3.4-2.6-2-2.6-2S156.18,51.3,158.18,55.2Z"/><path class="cls-15" d="M159.38,33h0a14.79,14.79,0,0,1-4-4.3l.1.1A50.23,50.23,0,0,0,159.38,33Z"/><path d="M159.68,33.6v.6c0,.4-.1.9-.1,1.3s-.1.9-.1,1.4a4.1,4.1,0,0,1-.1,1.1c-.1,1-.1,2-.2,2.9v.3c-.1,1.1-.2,2.2-.2,3.3s-.1,2-.2,3a10.87,10.87,0,0,0-.1,1.8,2.2,2.2,0,0,1-.1.8v.1c0,.4-.1.9-.1,1.3-.1,1.1-.2,2.1-.2,3v.9c-2-3.9-4.4-10.4-4.4-10.4s2.5,1.8,2.6,2-.7-1.3-1.8-3.4-3-10.8-3-10.8,4.2,4.3,4.8,4.9-.5-1.1-1.5-4-2.4-8.8-2.5-9.2a41.46,41.46,0,0,0,3,4.3h0a14.79,14.79,0,0,0,4,4.3h0c-.2,0-.9-.3.1.3Z"/><path class="cls-17" d="M159.38,33a16.15,16.15,0,0,1-4-4.3l.1.1a50.23,50.23,0,0,0,3.9,4.2Z"/><path class="cls-17" d="M159.38,33.1Z"/><path class="cls-17" d="M159.58,33.3c-1-.6-.3-.3-.1-.3Z"/><path class="cls-15" d="M173.78,38.7c6.5,1.9,13.4,3.8,15.4,4.5-.4-.1-1-.3-1.8-.5h-.1c-.9-.2-2.1-.5-3.4-.8-.5-.1-1.1-.3-1.6-.4a2.39,2.39,0,0,0-.9-.2c-.3-.1-.6-.1-.9-.2h-.1a6.37,6.37,0,0,0-.7-.2l-1.3-.3c-.2-.1-.4-.1-.6-.2a2.92,2.92,0,0,0-.9-.2c-.1,0-.3-.1-.4-.1l-1.2-.3h0a67.86,67.86,0,0,1-13-4.8C164.48,35.9,169.08,37.3,173.78,38.7Z"/><path class="cls-15" d="M189.78,43.5l.9.1C190.18,43.6,189.88,43.6,189.78,43.5Z"/><path class="cls-15" d="M196.58,42.6c-2.6.5-4.8.9-6,1C192.68,43.3,194.58,43,196.58,42.6Z"/><path class="cls-15" d="M159.38,33.1Z"/><path class="cls-16" d="M160.18,26.6c-1.7-1.2-3.3-2.4-3.3-2.4l2.5,8.8a55.77,55.77,0,0,1-3.8-4.2l-.1-.1h0a18.93,18.93,0,0,1-2.6-7.2c1.3-.3,2.9-.5,4.4-.7a33.81,33.81,0,0,0,3.1,4.1A8.81,8.81,0,0,0,160.18,26.6Z"/><path class="cls-15" d="M159.38,33h0a14.79,14.79,0,0,1-4-4.3l.1.1A50.23,50.23,0,0,0,159.38,33Z"/><path class="cls-16" d="M164.28,29.2c-.4,0-2.3-1.4-4.1-2.6,0-.6.1-1.2.1-1.7C162.58,27.4,164.58,29.3,164.28,29.2Z"/><path class="cls-16" d="M226.38,47.3c1.4-5.1,1.9-7.4,1.7-6.8s-4,5.8-3.6,4.8a30,30,0,0,0,3.3-10.9c.7-6.1-1.6-11.8-1.6-11.3s1.2,4.2-1,11a15.47,15.47,0,0,1-1.9,3.6,46.93,46.93,0,0,0,0-11.3c-.7-4.4-1.4-5.6-1.4-5.6a12.62,12.62,0,0,1-4.1,8.9c-4.2,4-6.6,4.1-6.6,4.1s.3-5.2-4.7-10.4-18.3-8.6-17.5-8.1,5.2,7.4,5.2,7.4-4.4,1.2-12.5-1.9-15.6-11.7-15.3-10.7,7.1,12,6.4,11.6-6.8-.5-10.8-6.2-3.1-11.5-3.8-12.2-3.4,5.5-3.4,11.6a11,11,0,0,0,2.2,5.8,21.27,21.27,0,0,0-4.4.7,31.91,31.91,0,0,1-.3-8.1c.5-6.8,7.5-13.3,7.5-13.3V.2h0V.3a.9.9,0,0,0,.1.5c0,.2.1.3.1.5s.1.4.3.6c0,.1.1.2.2.4s.2.3.3.5.2.3.3.5a1.76,1.76,0,0,0,.4.5,21,21,0,0,0,3.4,3.2c.3.2.6.5.9.7s.6.5.9.7l.9.6c2.6,1.7,5,3,5.9,3.5,4.2,2.3,14.6,7.3,14.6,7.3s-7.7-7-8.2-7.1,2.2-.9,5.8-.1a123.58,123.58,0,0,1,13,4.3h0c-.6-.4-5.8-4.8-6.7-5a44.2,44.2,0,0,1,13.4,3.5c6.6,3.1,12.4,9.7,12.5,10.2s1.2-5.2-1.5-11.4a15,15,0,0,0-.9-1.8,35.75,35.75,0,0,1,7.5,7.1s6.7,0,9.5,7.4c2.9,7.8-7.4,27.7-11,36.8C222,62.4,225.08,52.1,226.38,47.3Z"/><path d="M226.38,47.3c-1.3,4.8-4.4,15.2-4.8,16.4v.1h0c-.5-6.4,1.1-17.2,1.8-26.2a17.76,17.76,0,0,0,1.9-3.6c2.2-6.8,1-10.5,1-11s2.3,5.2,1.6,11.3a30,30,0,0,1-3.3,10.9c-.5,1,3.3-4.3,3.6-4.8S227.88,42.1,226.38,47.3Z"/><path d="M218.08,25.7c-.1-.5-5.9-7.1-12.5-10.2a48.19,48.19,0,0,0-13.4-3.5c.9.3,6.1,4.6,6.7,5a116.37,116.37,0,0,0-13-4.3c-3.6-.9-6.3,0-5.8.1s8.2,7.1,8.2,7.1-10.4-5-14.6-7.3c-.9-.5-3.4-1.8-5.9-3.5l-.9-.6a5.5,5.5,0,0,1-.9-.7c-.3-.2-.6-.5-.9-.7a21,21,0,0,1-3.4-3.2c-.1-.2-.3-.3-.4-.5s-.2-.3-.3-.5-.2-.3-.3-.5-.1-.2-.2-.4l-.3-.6c0-.2-.1-.3-.1-.5s-.1-.3-.1-.5a9.64,9.64,0,0,0,4.6,6c.1.1.2.1.3.2s.3.2.5.3.3.2.5.3a.1.1,0,0,1,.1.1c.2.1.3.2.4.2h.1a13.36,13.36,0,0,0,1.8.7h0c7.9,2.7,28.8-1.4,38.4.3h.2c.3.1.6.1,1,.2a20.16,20.16,0,0,1,2.3.7c.3.1.5.2.8.3a28.69,28.69,0,0,1,4.6,2.5l.9,1.8A21.62,21.62,0,0,1,218.08,25.7Z"/><path d="M220,41.6l1.6,22.2-2-26.6s-8.2,2.1-16,3.9c3.3-3.4-4.9-18.4-4.9-18.4l1.5,9.3s-2.7-3.3-10.1-5.9-15.2-3.8-13.6-3.4,10.1,8.2,10.1,8.2a88.31,88.31,0,0,1-10.3-3.3c-7.5-2.7-17.4-12.2-16.3-10.7s10,11.5,13.6,14.2a45,45,0,0,0,5.3,3.6,35,35,0,0,1-9.1-1.8c-4.6-1.6-7.9-3.8-6.8-2.9.5.4,3.2,2.7,6,4.9,1.8,1.4,3.6,2.8,5,3.7a87.1,87.1,0,0,1-11.5-3.9c-.2-.1-.3-.2-.5-.3s-.3-.1-.4-.2-.1-.1-.2-.1a7.84,7.84,0,0,1-1.5-1c.2-2.5.3-4.8.5-6.7a24.29,24.29,0,0,0,4.1,2.6c.3,0-1.7-1.8-4-4.4.2-2.7.3-4.4.3-4.4l-3.4.3a11,11,0,0,1-2.2-5.8c0-6.1,2.7-12.3,3.4-11.6s-.1,6.6,3.8,12.2,10.1,5.8,10.8,6.2-6.2-10.7-6.4-11.6,7.3,7.5,15.3,10.7,12.5,1.9,12.5,1.9-4.4-6.8-5.2-7.4,12.6,2.9,17.5,8.1,4.7,10.4,4.7,10.4,2.3-.1,6.6-4.1a12.62,12.62,0,0,0,4.1-8.9s.7,1.2,1.4,5.6c.5,2.9.3,6.9,0,11.3A29.74,29.74,0,0,1,220,41.6Z"/><path d="M160.18,26.6c-.1,1.9-.3,4.2-.5,6.7-.1-.1-.2-.1-.2-.2h0L157,24.3C156.88,24.2,158.48,25.4,160.18,26.6Z"/><path class="cls-18" d="M159.38,33.1Z"/><path class="cls-18" d="M161.28,34.3a7.75,7.75,0,0,0-1.6-.8l-.1-.1c-1-.6-.3-.3-.1-.3h0c.1.1.2.1.2.2C160.18,33.6,160.68,34,161.28,34.3Z"/><path class="cls-16" d="M160.58,20.5s-.1,1.7-.3,4.4a25.92,25.92,0,0,1-3.1-4.1Z"/><path class="cls-18" d="M189.78,43.5l.9.1C190.18,43.6,189.88,43.6,189.78,43.5Z"/><path class="cls-18" d="M196.58,42.6c-2.6.5-4.8.9-6,1C192.68,43.3,194.58,43,196.58,42.6Z"/><path d="M221.58,63.8,220,41.6a21.69,21.69,0,0,0,3.5-3.9C222.68,46.6,221.08,57.4,221.58,63.8Z"/><path class="cls-16" d="M203.58,41.1h-.2c-2.3.5-4.6,1-6.7,1.5h-.1c-2,.4-4,.7-6,1l-.9-.1h0c-.1-.1-.3-.1-.5-.2-2-.8-8.9-2.6-15.4-4.5-1.3-.9-3.2-2.3-5-3.7-2.8-2.2-5.4-4.5-6-4.9-1-.9,2.3,1.2,6.8,2.9a35,35,0,0,0,9.1,1.8,27.49,27.49,0,0,1-5.3-3.6c-3.6-2.7-12.5-12.7-13.6-14.2s8.8,7.9,16.3,10.7a94.85,94.85,0,0,0,10.3,3.3s-8.5-7.8-10.1-8.2,6.2.8,13.6,3.4S200,32.2,200,32.2l-1.5-9.3C198.68,22.7,206.88,37.6,203.58,41.1Z"/><path class="cls-19" d="M189.18,43.3a1.69,1.69,0,0,0,.5.2c-.8-.3-1.5-.5-2.3-.8h-.1a33.83,33.83,0,0,0-3.4-.8h-.1c-.2,0-.8-.2-1.6-.4a2.39,2.39,0,0,0-.9-.2c-.3-.1-.6-.1-.9-.2h-.1a6.37,6.37,0,0,0-.7-.2c-.5-.1-.9-.2-1.3-.3-.2-.1-.4-.1-.6-.2a2.92,2.92,0,0,0-.9-.2c-.1,0-.3-.1-.4-.1-.4-.1-.7-.2-1-.3-.1,0-.1,0-.2-.1h0a14.68,14.68,0,0,1-1.5-.9C180.28,40.6,187.18,42.5,189.18,43.3Z"/><path class="cls-19" d="M203.38,41.1c-2.2.5-4.4,1-6.7,1.5C198.78,42.2,201.08,41.6,203.38,41.1Z"/><path class="cls-20" d="M194.28,51.9c-.5.2-1.3.2-3.9,0a16.32,16.32,0,0,1-3.9-.5,6.3,6.3,0,0,0-2.3-2c-5.9-2.6-22.7-2.8-27.2-2-.6.1-.6.1-.7.5a10.07,10.07,0,0,0-.1,3c.2.4,1,.6,1.7,1.8,1.3,2.1.7,9.6,3.8,13.4s16.3,4.9,20.1.3a40.11,40.11,0,0,0,5.4-9.9,3.23,3.23,0,0,1,2.1-.8h.9c.3,0,.6.1.9.1a2.65,2.65,0,0,1,1.9,1.1c1,3.5,1.9,7.2,4.1,10.6,3.2,5.1,16.3,5.9,20,2.4s4-10.8,5.5-12.7c.8-1.1,1.7-1.2,2-1.5a15.26,15.26,0,0,0,.3-3c0-.4-.1-.4-.7-.6-4.4-1.4-21-3.4-27.2-1.6a3.45,3.45,0,0,0-2.7,1.4ZM162.88,49c4.3-1.1,16,.1,20,2.5,4.6,2.8.1,11.4-2.4,14.3-3.2,3.7-15.2,3.4-18.5-1.3-1.1-1.5-1.7-4.5-1.9-6.4s-.3-5.8.5-7.4A2.73,2.73,0,0,1,162.88,49Zm57,5.6c.5,1.7,0,5.5-.5,7.4s-1.5,4.8-2.8,6.1c-3.9,4.3-15.8,2.9-18.5-1.1-2.1-3.1-5.4-12.3-.5-14.5,4.2-1.9,16.1-1.5,20.2.1a3,3,0,0,1,2.1,2Z"/><path class="cls-21" d="M198.18,67c-2.1-3.1-5.4-12.3-.5-14.5,4.2-1.9,16.1-1.5,20.2.1a2.84,2.84,0,0,1,2.1,2c.5,1.7,0,5.5-.5,7.4-.2.7-.4,1.5-.7,2.3a10.67,10.67,0,0,1-2,3.8C212.78,72.4,200.88,71.1,198.18,67Z"/><path class="cls-21" d="M182.88,51.5c4.6,2.8.1,11.4-2.4,14.3-3.2,3.7-15.2,3.4-18.5-1.3a11.25,11.25,0,0,1-1.4-3.6,21.93,21.93,0,0,1-.3-9.2c.1-.4.2-.7.3-1.1a2.62,2.62,0,0,1,2.3-1.6C167.18,47.9,178.88,49.1,182.88,51.5Z"/><path class="cls-22" d="M171.28,118.1c1.1-.3,7.9-1.3,7.9-1.3l6.2,11.8-13.9-3.6Z"/><path class="cls-22" d="M199,121.7c-1.3-1.1-7.7-3.7-7.7-3.7l-5.1,10.7,13.8-3.2Z"/><path class="cls-23" d="M205.18,105l-13.8,13,11.4,15.9c.6.9,8.5-20.3,8.5-20.3Z"/><path class="cls-23" d="M165.38,103.8l13.8,13-11.4,15.9c-.6.9-8.5-20.3-8.5-20.3Z"/><path class="cls-7" d="M152.28,146.8c-12.1,8.3-24.2,16.8-36.4,24.9a9.75,9.75,0,0,1-6.45,1.92c-22.78,3.52-46.24-35.19-51.85-44.82l22-6,25,34,34-37.4Z"/><polygon class="cls-24" points="188.78 123.3 189.58 129.4 191.28 206.3 179.38 219.3 168.58 204.1 180.78 129.1 188.78 123.3"/><path class="cls-24" d="M179.18,118.2c1.3,0,12.7-.2,12.9.7s1.3,5.9.8,6.3-2.2,4-3.3,4.2a64.72,64.72,0,0,1-8.8-.3c-.8-.2-2.6-4.1-2.6-4.6S179.18,118.2,179.18,118.2Z"/><path class="cls-25" d="M187.78,57.5c0,.8-3.4,14.3-3.4,14.3-3.7,2-3.6,1-6.3,3.4.6-2.5,5.2-5.1,5.2-5.1Z"/><path class="cls-25" d="M193,78.4a29.94,29.94,0,0,1-5.8,1.8,10.46,10.46,0,0,1-4.3-.3c-.6-.2-4.7-2.7-4.2-2.7s6.3.4,6.3.4C182.88,77.4,193.78,78,193,78.4Z"/><path class="cls-26" d="M187.38,87.6a13.4,13.4,0,0,0,2-.1c5.1-.5,11.7-3.8,11.7-3.9.4.1,0-.7-.2-.4-.1,0-6.5,3.3-11.6,3.8a32.58,32.58,0,0,1-16.5-3.5c-.2-.5-.8.5-.2.4A33.08,33.08,0,0,0,187.38,87.6Z"/><path class="cls-27" d="M168.58,204.1l12.3-75c-.4-.1-1.1-1.1-1.6-2.2a9.49,9.49,0,0,1-.9-2.1c0-.1-.1-.2-.1-.3,0-.5,1-6.3,1-6.3h1.4c-.1.2-.2.5-.3.7a10.92,10.92,0,0,0-.8,4.3,9.88,9.88,0,0,0,1.5,3.3,3.45,3.45,0,0,0,1.2,1.2h0c.1,0,.3.1.4.1l1.4.3,1.3.2,1.1.2h.3l1.7.3s-1.4.2-2.9.5a8.67,8.67,0,0,0-3.1,1c-.4.6-12.3,71.3-11.5,73.4a16,16,0,0,0,1,2.2c.3.6.7,1.3,1.1,2,.6,1,1.2,2.2,1.8,3.3l1.8,3.2c1.2,2.1,2.2,3.9,2.6,4.6l.2.3-.2-.3-2.6-3.7-2.1-2.5-3.9-5.4-1.7-2.5Z"/><g class="cls-28"><rect class="cls-29" x="204.87" y="41.69" width="5" height="36.3" transform="translate(-7.55 79.63) rotate(-21.36)"/></g><g class="cls-30"><rect class="cls-29" x="169.87" y="39.79" width="5" height="36.3" transform="translate(-8.48 76.98) rotate(-24.59)"/></g><path class="cls-31" d="M64.58,127.8c.67.64,1.73,1.68,3,3,18.9,19.65,19.51,35.31,32,39a21.33,21.33,0,0,0,11,0c4.9-1.28,6.85-3.69,12.34-8.35,6.6-5.6,25.8-13.8,25.2-23.1-.2-3.4,5.7,9.6,6.8,19s-1.7,34.5-2.6,39.5,0,7.7,3.9,6.9,2.7,6.7,7.6,11v3.3c-14.5-3.3-18.4-8.7-18.4-8.7,3.2-12.6,6.1-25.9,6.7-38.9a68.61,68.61,0,0,0-2.8-21.6c-11.1,7.6-22.1,15.4-33.4,22.8-3.73,2.44-5.95,1.85-6.45,1.92-21.9,3.28-45.08-36.41-49.85-44.82Z"/><path class="cls-31" d="M201.78,208.5l31.5-33-16.7-39.2c1.2,0,4.8,3.2,4.8,3.2,1.3,2.6,11.2,28.2,14,31.9s5.5,4.3,5.5,4.3-3.2.1-6.8,3.7c-3.1,3.1-21.9,26.5-28.1,33Z"/><path class="cls-31" d="M206.68,193.6c.7-8.2,1.7-6.7,2.6-21,.9-14.9,6.1-36.3,7.3-36.3s4.8,3.2,4.8,3.2c.3.5.9,2,1.7,4-.6,1.4-1,2.4-1.2,2.8-8,17.3-12,35-9.5,54.3.2,1.3.4,2.5.6,3.8-1.5,1.8-3,3.5-4.3,4.9l-7.1,2.5c-1.7-1.6-3.6-3.4-3.5-3.8C198.28,207.4,206,201.8,206.68,193.6Z"/><path class="cls-32" d="M43.81,59.49A1.84,1.84,0,1,0,41,61.06h0V62h1.82V61.1A1.82,1.82,0,0,0,43.81,59.49Z"/><path class="cls-33" d="M43.23,59.17a.71.71,0,1,1-.71-.71A.71.71,0,0,1,43.23,59.17Z"/><path class="cls-34" d="M7.38,95.84a33.91,33.91,0,0,1,67.82,0Z"/><polygon class="cls-35" points="0 95.84 18.06 99.1 64.52 99.1 82.58 95.84 0 95.84"/><path class="cls-33" d="M62.9,88.09A35.86,35.86,0,0,0,52,68.36c3.18,4.93,5.22,11.61,6,19.73Z"/><path class="cls-36" d="M43.25,62c-.65,0-1.3,0-2,0A33.91,33.91,0,0,0,7.38,95.84h7.41C14.79,77.77,27.38,63,43.25,62Z"/><rect class="cls-37" y="94.16" width="82.58" height="1.68"/></g></g></g></svg>