<svg xmlns="http://www.w3.org/2000/svg" xmlns:xlink="http://www.w3.org/1999/xlink" viewBox="0 0 117.87 369.47"><defs><style>.cls-1{fill:none;}.cls-2{fill:#e2b09f;}.cls-3{fill:#e09275;}.cls-4{fill:#d9a795;}.cls-5{fill:#edc2b4;}.cls-6{fill:#deb7a9;}.cls-7{fill:#964534;}.cls-8{fill:#282322;}.cls-9{fill:#8f3f2e;}.cls-10{fill:#8d3d2f;}.cls-11{fill:#934133;}.cls-12{fill:#614647;}.cls-13{fill:#b7d8e2;}.cls-14{fill:#dcab98;}.cls-15{fill:#7f5e57;}.cls-16{clip-path:url(#clip-path);}.cls-17{fill:#d1e2e4;}.cls-18{clip-path:url(#clip-path-2);}.cls-19{fill:#38376f;}.cls-20{fill:#0d232b;}.cls-21{fill:#3f56a5;}.cls-22{fill:#f0552a;}.cls-23{fill:#e07d26;}.cls-24{fill:#c06328;}.cls-25{fill:#edac7c;}.cls-26{fill:#e4be21;}.cls-27{fill:#c6a62e;}.cls-28{fill:#fff;}.cls-29{fill:#d3d3d3;}.cls-30{fill:#195980;}</style><clipPath id="clip-path"><path class="cls-1" d="M70,58.53c-1.9-2.71-4.89-10.74-.45-12.67,3.79-1.66,14.56-1.31,18.26.09a2.54,2.54,0,0,1,1.9,1.75c.46,1.48,0,4.8-.45,6.46-.18.62-.36,1.31-.63,2a9.19,9.19,0,0,1-1.81,3.32C83.18,63.25,72.42,62.11,70,58.53Z"/></clipPath><clipPath id="clip-path-2"><path class="cls-1" d="M56.14,45c4.16,2.45.09,10-2.17,12.49-2.89,3.24-13.75,3-16.73-1.13A9.44,9.44,0,0,1,36,53.2a18.58,18.58,0,0,1-.27-8c.09-.35.18-.62.27-1a2.38,2.38,0,0,1,2.08-1.39C41.94,41.85,52.52,42.89,56.14,45Z"/></clipPath></defs><title>Calque 1worker</title><g id="Calque_2" data-name="Calque 2"><g id="Calque_1-2" data-name="Calque 1"><path class="cls-2" d="M88.25,47.7c2-.79,12.66-6.12,13.74-3.23S99.1,60,98,61.5s-8.5,3.32-9,2.54S88.25,47.7,88.25,47.7Z"/><path class="cls-3" d="M92.32,47.26c.81-.26,4.61-1.48,5.42-.09s-.09,4.72-.09,5.42-1.44,5.94-2.44,6.82-4.88,2.09-5.15,1.39S92.32,47.26,92.32,47.26Z"/><path class="cls-2" d="M36.24,45.43c-2-.79-12.66-6.12-13.74-3.23s2.89,15.55,4,17,8.6,3.32,9,2.53S36.24,45.43,36.24,45.43Z"/><path class="cls-3" d="M32.17,45c-.81-.26-4.61-1.48-5.42-.09s.09,4.72.09,5.42,1.44,5.94,2.44,6.81,4.88,2.1,5.15,1.4S32.17,45,32.17,45Z"/><path class="cls-4" d="M73.05,75.74c-.72,4.54-2.62,17.82-1.08,19.05s9.77,4.45,9.77,4.45-18.82,12.67-22.53,13.19S36.42,98.11,36.42,98.11s9.68-3.59,11.13-5.77,3-20.09,3-20.09Z"/><path class="cls-5" d="M34.07,25.33c-.27,11.8.18,23.85-.72,35.65C32.35,73.3,44.29,82.47,54,88.32c2.17,1.31,5.61.79,8.14,1,3.89.26,5.43-1.22,8.41-3.14,1.81-1.14,3.53-2.27,5.25-3.5A44.18,44.18,0,0,0,85,74.17a19.78,19.78,0,0,0,4.79-10.83c.28-3.15.91-6.29,1.36-9.44L93,27.43Z"/><path class="cls-6" d="M34.07,25.33c-.27,11.8.18,23.85-.72,35.65C32.35,73.3,44.29,82.47,54,88.32c2.17,1.31,5.61.79,8.14,1,3.89.26,5.43-1.22,8.41-3.14,1.81-1.14,3.53-2.27,5.25-3.5A44.18,44.18,0,0,0,85,74.17a19.78,19.78,0,0,0,4.79-10.83c.28-3.15.91-6.29,1.36-9.44L93,27.43Z"/><path class="cls-5" d="M34.71,21.75c-.28,12.15.18,24.55-.73,36.69-1,12.67,11,22.11,20.62,28.05,2.17,1.31,5.61.87,8.14,1.05,3.89.26,5.43-1.23,8.41-3.24,1.81-1.13,3.53-2.36,5.25-3.67a45.37,45.37,0,0,0,9.31-8.73c2.54-3.41,4.44-6.9,4.8-11.1.27-3.23.9-6.46,1.35-9.69l1.9-27.17Z"/><path class="cls-7" d="M34.89,28.92Z"/><path class="cls-7" d="M35,28.92h0a.45.45,0,0,1,.27.17v.35l-.09-.26C34.07,28.65,34.8,28.92,35,28.92Z"/><path class="cls-8" d="M33.8,48.22c-.18,2.27-.27,3.76-.27,4-.09,1.4-9.59-25.51-8.86-29.88.36-2.18,2.08-3.14,4.16-3.66A16.16,16.16,0,0,0,31.18,25a37.28,37.28,0,0,1-2.72-3.76c.09.35,1.45,5.59,2.27,8s1.89,3.93,1.35,3.49-4.34-4.28-4.34-4.28,1.72,7.6,2.71,9.43,1.72,3.06,1.63,3-2.35-1.74-2.35-1.74S32,44.82,33.8,48.22Z"/><path class="cls-7" d="M34.89,28.83h0a13,13,0,0,1-3.62-3.76l.09.09A43.81,43.81,0,0,0,34.89,28.83Z"/><path d="M35.16,29.35v.53c0,.35-.09.78-.09,1.13S35,31.8,35,32.24a3.48,3.48,0,0,1-.09,1c-.09.87-.09,1.74-.18,2.53V36a27.86,27.86,0,0,0-.19,2.89c-.09.87-.09,1.74-.18,2.62a9.13,9.13,0,0,0-.09,1.57,1.88,1.88,0,0,1-.09.7v.08c0,.35-.09.79-.09,1.14-.09,1-.18,1.84-.18,2.62v.79c-1.81-3.41-4-9.09-4-9.09s2.26,1.57,2.35,1.75-.63-1.14-1.62-3-2.72-9.44-2.72-9.44,3.8,3.76,4.34,4.28-.45-1-1.35-3.49-2.17-7.69-2.26-8a34.67,34.67,0,0,0,2.71,3.76h0A13,13,0,0,0,35,28.92h0c-.18,0-.82-.27.09.26Z"/><path class="cls-9" d="M34.89,28.83a14.26,14.26,0,0,1-3.62-3.76l.09.09a43.81,43.81,0,0,0,3.53,3.67Z"/><path class="cls-9" d="M34.89,28.92Z"/><path class="cls-9" d="M35.07,29.09c-.91-.52-.27-.26-.09-.26Z"/><path class="cls-7" d="M47.91,33.81c5.88,1.66,12.12,3.32,13.93,3.93-.36-.09-.91-.26-1.63-.44h-.09c-.81-.17-1.9-.43-3.08-.7-.45-.08-1-.26-1.44-.35a2.38,2.38,0,0,0-.82-.17c-.27-.09-.54-.09-.81-.17h-.09a5.74,5.74,0,0,0-.63-.18c-.37-.09-.82-.17-1.18-.26-.18-.09-.36-.09-.54-.18a3,3,0,0,0-.82-.17c-.09,0-.27-.09-.36-.09l-1.08-.26h0a63,63,0,0,1-11.76-4.19C39.5,31.36,43.66,32.59,47.91,33.81Z"/><path class="cls-7" d="M62.38,38l.81.09C62.74,38.09,62.47,38.09,62.38,38Z"/><path class="cls-7" d="M68.53,37.22c-2.35.43-4.34.78-5.43.87C65,37.83,66.72,37.56,68.53,37.22Z"/><path class="cls-7" d="M34.89,28.92Z"/><path class="cls-8" d="M35.61,23.24c-1.54-1-3-2.1-3-2.1l2.27,7.69a47,47,0,0,1-3.44-3.67l-.09-.09h0A16,16,0,0,1,29,18.78c1.17-.26,2.62-.43,4-.61a29.82,29.82,0,0,0,2.8,3.58A7.5,7.5,0,0,0,35.61,23.24Z"/><path class="cls-7" d="M34.89,28.83h0a13,13,0,0,1-3.62-3.76l.09.09A43.81,43.81,0,0,0,34.89,28.83Z"/><path class="cls-8" d="M39.32,25.51a25,25,0,0,1-3.71-2.27c0-.53.09-1,.09-1.49C37.78,23.94,39.59,25.6,39.32,25.51Z"/><path class="cls-8" d="M95.48,41.32A48.25,48.25,0,0,0,97,35.38c-.18.53-3.62,5.07-3.26,4.19a25.46,25.46,0,0,0,3-9.52c.63-5.33-1.45-10.31-1.45-9.87s1.09,3.67-.9,9.61a13.64,13.64,0,0,1-1.72,3.14,39.8,39.8,0,0,0,0-9.87c-.63-3.84-1.27-4.89-1.27-4.89A10.85,10.85,0,0,1,87.7,26c-3.79,3.49-6,3.58-6,3.58S82,25,77.48,20.44s-16.55-7.51-15.82-7.07,4.7,6.46,4.7,6.46-4,1.05-11.31-1.66S41,8,41.22,8.82,47.64,19.31,47,19s-6.15-.44-9.77-5.42-2.81-10-3.44-10.66S30.73,7.69,30.73,13a9.41,9.41,0,0,0,2,5.06,19.91,19.91,0,0,0-4,.62,26.7,26.7,0,0,1-.28-7.08C28.92,5.68,35.25,0,35.25,0V.17h0V.26a.78.78,0,0,0,.09.44c0,.17.09.26.09.44s.09.35.27.52c0,.09.09.17.18.35s.18.26.27.44.18.26.27.43a1.44,1.44,0,0,0,.37.44,18.69,18.69,0,0,0,3.07,2.8c.27.17.54.43.81.61s.55.43.82.61l.81.52c2.35,1.49,4.52,2.62,5.34,3.06,3.8,2,13.2,6.38,13.2,6.38s-7-6.12-7.41-6.21,2-.78,5.24-.08a116.29,116.29,0,0,1,11.76,3.75h0c-.54-.35-5.25-4.19-6.06-4.36a40.89,40.89,0,0,1,12.12,3c6,2.71,11.21,8.48,11.3,8.91s1.09-4.54-1.35-9.95a11.48,11.48,0,0,0-.82-1.58A32,32,0,0,1,92.41,17,9.72,9.72,0,0,1,101,23.5c2.62,6.81-6.69,24.2-10,32.15C91.5,54.51,94.31,45.51,95.48,41.32Z"/><path d="M95.48,41.32c-1.17,4.19-4,13.28-4.34,14.33v.09h0c-.45-5.6,1-15,1.63-22.89a15.38,15.38,0,0,0,1.72-3.15c2-5.94.9-9.17.9-9.61s2.08,4.55,1.45,9.87a25.51,25.51,0,0,1-3,9.53c-.45.87,3-3.76,3.26-4.2S96.84,36.78,95.48,41.32Z"/><path d="M88,22.45c-.09-.44-5.34-6.2-11.31-8.91a45.05,45.05,0,0,0-12.12-3.06c.82.27,5.52,4,6.06,4.37a109.5,109.5,0,0,0-11.76-3.76c-3.25-.78-5.69,0-5.24.09S61,17.38,61,17.38,51.62,13,47.82,11C47,10.57,44.74,9.43,42.48,8l-.81-.52a4.86,4.86,0,0,1-.81-.62c-.28-.17-.55-.43-.82-.61A18.61,18.61,0,0,1,37,3.41c-.09-.18-.28-.27-.37-.44s-.18-.26-.27-.44-.18-.26-.27-.43-.09-.18-.18-.35l-.27-.53c0-.17-.09-.26-.09-.43s-.09-.27-.09-.44a8.41,8.41,0,0,0,4.16,5.24c.09.09.18.09.27.18s.27.17.45.26.27.17.45.26c0,0,.1,0,.1.09.18.08.27.17.36.17h.09a11.52,11.52,0,0,0,1.63.61h0c7.14,2.36,26-1.22,34.73.27h.18c.27.08.54.08.9.17a20.41,20.41,0,0,1,2.08.61c.27.09.45.18.72.26a26.26,26.26,0,0,1,4.16,2.19c.28.52.55,1.05.82,1.57A18.32,18.32,0,0,1,88,22.45Z"/><path d="M89.69,36.34l1.45,19.4L89.33,32.5s-7.41,1.83-14.47,3.41c3-3-4.43-16.08-4.43-16.08L71.79,28s-2.45-2.89-9.14-5.16-13.75-3.32-12.3-3S59.49,27,59.49,27a80,80,0,0,1-9.32-2.88c-6.78-2.36-15.74-10.66-14.74-9.35s9,10,12.3,12.41a41,41,0,0,0,4.79,3.14,32.14,32.14,0,0,1-8.23-1.57c-4.16-1.4-7.14-3.32-6.15-2.53.45.35,2.9,2.36,5.43,4.28,1.63,1.22,3.25,2.44,4.52,3.23a78.8,78.8,0,0,1-10.4-3.41c-.18-.08-.27-.17-.45-.26s-.27-.09-.36-.17-.09-.09-.19-.09a6.93,6.93,0,0,1-1.35-.87c.18-2.19.27-4.2.45-5.86a21.87,21.87,0,0,0,3.71,2.27c.27,0-1.54-1.57-3.62-3.84.18-2.36.27-3.84.27-3.84l-3.07.26a9.44,9.44,0,0,1-2-5.07c0-5.33,2.44-10.74,3.07-10.13s-.09,5.76,3.44,10.66,9.13,5.06,9.77,5.41S41.76,9.43,41.58,8.65,48.18,15.2,55.42,18s11.3,1.66,11.3,1.66-4-5.94-4.7-6.47,11.39,2.53,15.83,7.08,4.25,9.08,4.25,9.08,2.08-.08,6-3.58A10.85,10.85,0,0,0,91.77,18s.64,1,1.27,4.89a44.79,44.79,0,0,1,0,9.87A25.71,25.71,0,0,1,89.69,36.34Z"/><path d="M35.61,23.24c-.09,1.66-.27,3.67-.45,5.85C35.07,29,35,29,35,28.92h0l-2.26-7.69C32.62,21.14,34.07,22.19,35.61,23.24Z"/><path class="cls-10" d="M34.89,28.92Z"/><path class="cls-10" d="M36.6,30a7,7,0,0,0-1.44-.69l-.09-.09c-.91-.53-.27-.26-.09-.26h0c.09.08.18.08.18.17C35.61,29.35,36.06,29.7,36.6,30Z"/><path class="cls-8" d="M36,17.91s-.09,1.48-.27,3.84a22.85,22.85,0,0,1-2.8-3.58Z"/><path class="cls-10" d="M62.38,38l.81.09C62.74,38.09,62.47,38.09,62.38,38Z"/><path class="cls-10" d="M68.53,37.22c-2.35.43-4.34.78-5.43.87C65,37.83,66.72,37.56,68.53,37.22Z"/><path d="M91.14,55.74l-1.45-19.4a18.65,18.65,0,0,0,3.17-3.41C92.14,40.71,90.69,50.14,91.14,55.74Z"/><path class="cls-8" d="M74.86,35.91h-.18c-2.08.43-4.16.87-6.06,1.31h-.09c-1.81.34-3.62.61-5.43.87L62.29,38h0c-.09-.09-.27-.09-.45-.17-1.81-.7-8.05-2.27-13.93-3.93-1.18-.79-2.89-2-4.52-3.24-2.53-1.92-4.89-3.93-5.43-4.28-.9-.78,2.08,1.05,6.15,2.54a33,33,0,0,0,8.23,1.57,24.18,24.18,0,0,1-4.79-3.15C44.29,25,36.24,16.25,35.25,14.94s8,6.9,14.74,9.35a89.57,89.57,0,0,0,9.32,2.88S51.62,20.35,50.17,20s5.61.69,12.3,3,9.14,5.15,9.14,5.15L70.25,20C70.43,19.83,77.85,32.85,74.86,35.91Z"/><path class="cls-11" d="M61.84,37.83a1.75,1.75,0,0,0,.45.17c-.72-.26-1.36-.44-2.08-.7h-.09c-1-.26-2-.52-3.08-.7H57a14.19,14.19,0,0,1-1.44-.35,2.43,2.43,0,0,0-.82-.17c-.27-.09-.54-.09-.81-.17h-.09a5.74,5.74,0,0,0-.63-.18c-.46-.09-.82-.17-1.18-.26-.18-.09-.36-.09-.54-.18a3,3,0,0,0-.82-.17c-.09,0-.27-.09-.36-.09-.36-.09-.63-.17-.9-.26-.09,0-.09,0-.18-.09h0a11.32,11.32,0,0,1-1.36-.78C53.79,35.47,60,37.13,61.84,37.83Z"/><path class="cls-11" d="M74.68,35.91l-6.06,1.31C70.52,36.87,72.6,36.34,74.68,35.91Z"/><path class="cls-12" d="M66.45,45.34c-.45.17-1.18.17-3.53,0a14.43,14.43,0,0,1-3.52-.44,5.71,5.71,0,0,0-2.08-1.74c-5.34-2.28-20.53-2.45-24.6-1.75-.55.09-.55.09-.64.44A8.53,8.53,0,0,0,32,44.47c.18.35.91.52,1.54,1.57,1.18,1.83.63,8.39,3.44,11.71S51.71,62,55.15,58A34.92,34.92,0,0,0,60,49.36a3,3,0,0,1,1.9-.7h.81c.27,0,.54.09.82.09a2.36,2.36,0,0,1,1.71,1C66.18,52.77,67,56,69,59c2.9,4.45,14.74,5.15,18.09,2.09s3.62-9.43,5-11.09c.72-1,1.53-1,1.8-1.31A12.28,12.28,0,0,0,94.13,46c0-.35-.09-.35-.64-.53-4-1.22-19-3-24.6-1.39a3.15,3.15,0,0,0-2.44,1.22Zm-28.4-2.53c3.89-1,14.47.08,18.09,2.18,4.16,2.45.09,10-2.17,12.49-2.89,3.24-13.75,3-16.73-1.13-1-1.31-1.54-3.93-1.72-5.59s-.27-5.07.45-6.47A2.45,2.45,0,0,1,38.05,42.81ZM89.6,47.7c.46,1.48,0,4.8-.45,6.46s-1.36,4.2-2.53,5.33c-3.53,3.76-14.29,2.54-16.73-1C68,55.82,65,47.79,69.44,45.86,73.23,44.2,84,44.55,87.7,46a2.69,2.69,0,0,1,1.9,1.75Z"/><path class="cls-13" d="M70,58.53c-1.9-2.71-4.89-10.74-.45-12.67,3.79-1.66,14.56-1.31,18.26.09a2.54,2.54,0,0,1,1.9,1.75c.46,1.48,0,4.8-.45,6.46-.18.62-.36,1.31-.63,2a9.19,9.19,0,0,1-1.81,3.32C83.18,63.25,72.42,62.11,70,58.53Z"/><path class="cls-13" d="M56.14,45c4.16,2.45.09,10-2.17,12.49-2.89,3.24-13.75,3-16.73-1.13A9.44,9.44,0,0,1,36,53.2a18.58,18.58,0,0,1-.27-8c.09-.35.18-.62.27-1a2.38,2.38,0,0,1,2.08-1.39C41.94,41.85,52.52,42.89,56.14,45Z"/><path class="cls-14" d="M60.57,50.23c0,.7-3.07,12.49-3.07,12.49-3.35,1.75-3.26.88-5.7,3,.54-2.19,4.7-4.46,4.7-4.46Z"/><path class="cls-14" d="M65.27,68.49A27.47,27.47,0,0,1,60,70.06a9.68,9.68,0,0,1-3.89-.26c-.54-.17-4.25-2.36-3.8-2.36s5.7.35,5.7.35C56.14,67.62,66,68.14,65.27,68.49Z"/><path class="cls-15" d="M60.21,76.53A12.2,12.2,0,0,0,62,76.44,34.84,34.84,0,0,0,72.6,73c.36.09,0-.61-.18-.35-.09,0-5.88,2.89-10.49,3.32A30.23,30.23,0,0,1,47,73c-.19-.44-.73.43-.19.35A30.93,30.93,0,0,0,60.21,76.53Z"/><g class="cls-16"><polygon class="cls-17" points="70.2 38.3 74.41 36.71 86.37 66.25 82.16 67.84 70.2 38.3"/></g><g class="cls-18"><polygon class="cls-17" points="37.75 37.11 41.86 35.29 55.52 64.12 51.41 65.94 37.75 37.11"/></g><g id="_Groupe_" data-name="&lt;Groupe&gt;"><g id="_Groupe_2" data-name="&lt;Groupe&gt;"><g id="_Groupe_3" data-name="&lt;Groupe&gt;"><rect id="_Rectangle_" data-name="&lt;Rectangle&gt;" class="cls-19" x="28.07" y="194.92" width="62.83" height="31.25"/><rect id="_Rectangle_2" data-name="&lt;Rectangle&gt;" class="cls-20" x="28.07" y="194.92" width="62.83" height="6.65"/><polygon id="_Tracé_" data-name="&lt;Tracé&gt;" class="cls-19" points="28.07 341.71 46.24 341.71 55.73 213.83 28.07 213.83 28.07 341.71"/><polygon id="_Tracé_2" data-name="&lt;Tracé&gt;" class="cls-19" points="76.36 341.71 90.96 341.71 90.96 213.83 65.68 213.83 76.36 341.71"/></g><g id="_Groupe_4" data-name="&lt;Groupe&gt;"><path id="_Tracé_3" data-name="&lt;Tracé&gt;" class="cls-21" d="M113.62,153l-20.1-17.31V94.88h0a21.76,21.76,0,0,1,21.76,21.76Z"/><path id="_Tracé_4" data-name="&lt;Tracé&gt;" class="cls-5" d="M93.34,135.66l.06,30.76a10.85,10.85,0,0,0,10.85,10.83h0A10.85,10.85,0,0,0,115.1,166.4l-4.7-37.7Z"/><g id="_Groupe_5" data-name="&lt;Groupe&gt;"><rect id="_Rectangle_3" data-name="&lt;Rectangle&gt;" class="cls-21" x="28.29" y="94.88" width="62.62" height="100.04" transform="translate(119.19 289.8) rotate(180)"/><polygon id="_Tracé_5" data-name="&lt;Tracé&gt;" class="cls-22" points="66.27 184.18 59.1 191.3 52.5 184.18 56.18 107.09 62.59 107.09 66.27 184.18"/><path id="_Rectangle_4" data-name="&lt;Rectangle&gt;" class="cls-23" d="M39.8,94.88h4.45a0,0,0,0,1,0,0v100a0,0,0,0,1,0,0H21.74a0,0,0,0,1,0,0v-82A18.06,18.06,0,0,1,39.8,94.88Z" transform="translate(65.99 289.8) rotate(180)"/><path id="_Rectangle_5" data-name="&lt;Rectangle&gt;" class="cls-23" d="M71.28,94.88H93.79a0,0,0,0,1,0,0v100a0,0,0,0,1,0,0H89.34a18.06,18.06,0,0,1-18.06-18.06v-82A0,0,0,0,1,71.28,94.88Z"/><path id="_Rectangle_6" data-name="&lt;Rectangle&gt;" class="cls-24" d="M74.31,158.48H90.76a0,0,0,0,1,0,0v11.8a5.88,5.88,0,0,1-5.88,5.88H80.19a5.88,5.88,0,0,1-5.88-5.88v-11.8A0,0,0,0,1,74.31,158.48Z"/><path id="_Rectangle_7" data-name="&lt;Rectangle&gt;" class="cls-24" d="M24.77,158.48H41.22a0,0,0,0,1,0,0v11.8a5.88,5.88,0,0,1-5.88,5.88H30.65a5.88,5.88,0,0,1-5.88-5.88v-11.8A0,0,0,0,1,24.77,158.48Z"/><g id="_Groupe_6" data-name="&lt;Groupe&gt;"><g id="_Groupe_7" data-name="&lt;Groupe&gt;"><g id="_Groupe_8" data-name="&lt;Groupe&gt;"><g id="_Groupe_9" data-name="&lt;Groupe&gt;"><g id="_Groupe_10" data-name="&lt;Groupe&gt;"><path id="_Tracé_6" data-name="&lt;Tracé&gt;" class="cls-25" d="M66.72,95.49s-.93,4.18-6.86,4.34-7.43-4.19-7.43-4.19"/></g></g></g></g></g></g></g><path id="_Tracé_7" data-name="&lt;Tracé&gt;" class="cls-26" d="M55.54,277.77H16.42l8.46,68.09-10.47,3.07C6,351.41.06,359.84.06,369.47H50.88Z"/><polygon id="_Tracé_8" data-name="&lt;Tracé&gt;" class="cls-27" points="39.42 277.77 39.42 369.47 50.88 369.47 55.54 277.77 39.42 277.77"/><path id="_Tracé_9" data-name="&lt;Tracé&gt;" class="cls-26" d="M61.58,277.77h39.11l-8.46,68.09,10.47,3.07c8.47,2.48,14.36,10.91,14.36,20.54H66.24Z"/><polygon id="_Tracé_10" data-name="&lt;Tracé&gt;" class="cls-27" points="79.74 277.77 61.58 277.77 66.24 369.47 79.74 369.47 79.74 277.77"/></g><path id="_Tracé_11" data-name="&lt;Tracé&gt;" class="cls-21" d="M21.74,94.88A21.3,21.3,0,0,0,0,116.2l0,50.22a10.85,10.85,0,0,0,10.85,10.83h0A10.85,10.85,0,0,0,21.74,166.4V94.88Z"/><polygon id="_Tracé_12" data-name="&lt;Tracé&gt;" class="cls-5" points="6.78 159.97 52.5 134.35 68.16 121.76 64.28 142.57 17.23 175.19 6.78 159.97"/><polygon id="_Tracé_13" data-name="&lt;Tracé&gt;" class="cls-6" points="54.44 132.79 54.44 149.39 64.28 142.57 68.16 121.76 54.44 132.79"/><path id="_Tracé_14" data-name="&lt;Tracé&gt;" class="cls-28" d="M100.82,160.59H70.63a7.55,7.55,0,0,1-7.47-8.67l5.25-34.77a7.55,7.55,0,0,1,7.46-6.43h30.2a7.55,7.55,0,0,1,7.46,8.68l-5.25,34.77A7.54,7.54,0,0,1,100.82,160.59Z"/><path id="_Tracé_15" data-name="&lt;Tracé&gt;" class="cls-29" d="M105.07,160.59H74.88a7.54,7.54,0,0,1-7.46-8.67l5.24-34.77a7.56,7.56,0,0,1,7.47-6.43h30.19a7.55,7.55,0,0,1,7.47,8.68l-5.25,34.77A7.55,7.55,0,0,1,105.07,160.59Z"/><g id="_Groupe_11" data-name="&lt;Groupe&gt;"><path id="_Tracé_16" data-name="&lt;Tracé&gt;" class="cls-5" d="M74.12,127.74H62.75a2.44,2.44,0,0,1-2.43-3h0a3.71,3.71,0,0,1,3.47-3H75.16a2.44,2.44,0,0,1,2.43,3h0A3.7,3.7,0,0,1,74.12,127.74Z"/><path id="_Tracé_17" data-name="&lt;Tracé&gt;" class="cls-5" d="M72.92,134.67H61.55a2.43,2.43,0,0,1-2.43-3h0a3.68,3.68,0,0,1,3.47-3H74a2.44,2.44,0,0,1,2.43,3h0A3.7,3.7,0,0,1,72.92,134.67Z"/><path id="_Tracé_18" data-name="&lt;Tracé&gt;" class="cls-5" d="M71.71,141.61H60.35a2.44,2.44,0,0,1-2.44-3h0a3.71,3.71,0,0,1,3.47-3H72.75a2.43,2.43,0,0,1,2.43,3h0A3.68,3.68,0,0,1,71.71,141.61Z"/><path id="_Tracé_19" data-name="&lt;Tracé&gt;" class="cls-5" d="M70.51,148.55H59.14a2.44,2.44,0,0,1-2.43-3h0a3.7,3.7,0,0,1,3.47-3H71.55a2.43,2.43,0,0,1,2.43,3h0A3.7,3.7,0,0,1,70.51,148.55Z"/></g></g><path id="_Tracé_20" data-name="&lt;Tracé&gt;" class="cls-30" d="M56.18,99.56,48,107.74a2,2,0,0,1-3.74-.9v-12l8.2-6.09Z"/><path id="_Tracé_21" data-name="&lt;Tracé&gt;" class="cls-30" d="M63.09,99.56l8.18,8.18a2,2,0,0,0,3.75-.9v-12l-8.2-6.09Z"/><rect id="_Rectangle_8" data-name="&lt;Rectangle&gt;" class="cls-22" x="56.18" y="99.56" width="6.41" height="7.26"/><rect id="_Rectangle_9" data-name="&lt;Rectangle&gt;" class="cls-30" x="10.17" y="152.71" width="11.86" height="24.21" rx="3.88" ry="3.88" transform="translate(-76.56 27.57) rotate(-28.45)"/><path id="_Rectangle_10" data-name="&lt;Rectangle&gt;" class="cls-24" d="M24.26,120.94H40.71a0,0,0,0,1,0,0v11.8a5.88,5.88,0,0,1-5.88,5.88H30.15a5.88,5.88,0,0,1-5.88-5.88v-11.8A0,0,0,0,1,24.26,120.94Z"/></g></g></svg>